<svg width="76" height="30" viewBox="0 0 76 30" fill="none" xmlns="http://www.w3.org/2000/svg">
<path d="M35.5035 14.4711V23.2436H32.7461V1.58057H40.0562C41.9089 1.58057 43.4886 2.20407 44.7812 3.45107C46.1025 4.69807 46.7631 6.22057 46.7631 8.01857C46.7631 9.86007 46.1025 11.3826 44.7812 12.6151C43.503 13.8476 41.9232 14.4566 40.0562 14.4566H35.5035V14.4711ZM35.5035 4.24857V11.8031H40.1136C41.2051 11.8031 42.1243 11.4261 42.8424 10.6866C43.5748 9.94707 43.9482 9.04807 43.9482 8.03307C43.9482 7.03257 43.5748 6.14807 42.8424 5.40857C42.1243 4.64007 41.2195 4.26307 40.1136 4.26307H35.5035V4.24857Z" fill="#3C4043"/>
<path d="M53.9717 7.93164C56.0111 7.93164 57.6196 8.48264 58.7973 9.58464C59.9749 10.6866 60.5637 12.1946 60.5637 14.1086V23.2436H57.9356V21.1846H57.8207C56.6861 22.8811 55.1637 23.7221 53.268 23.7221C51.6451 23.7221 50.2951 23.2436 49.2036 22.2721C48.1122 21.3006 47.5664 20.0971 47.5664 18.6471C47.5664 17.1101 48.1409 15.8921 49.2898 14.9931C50.4387 14.0796 51.9754 13.6301 53.8856 13.6301C55.5228 13.6301 56.8728 13.9346 57.9212 14.5436V13.9056C57.9212 12.9341 57.5478 12.1221 56.7866 11.4406C56.0254 10.7591 55.135 10.4256 54.1153 10.4256C52.5786 10.4256 51.3579 11.0781 50.4675 12.3976L48.0403 10.8606C49.376 8.90314 51.3579 7.93164 53.9717 7.93164ZM50.41 18.6906C50.41 19.4156 50.7116 20.0246 51.3292 20.5031C51.9324 20.9816 52.6504 21.2281 53.4691 21.2281C54.6324 21.2281 55.6664 20.7931 56.5712 19.9231C57.476 19.0531 57.9356 18.0381 57.9356 16.8636C57.0739 16.1821 55.8818 15.8341 54.3451 15.8341C53.2249 15.8341 52.2914 16.1096 51.5446 16.6461C50.7834 17.2116 50.41 17.8931 50.41 18.6906Z" fill="#3C4043"/>
<path d="M75.5566 8.41016L66.3651 29.7542H63.5215L66.9395 22.2867L60.8789 8.41016H63.8805L68.2465 19.0532H68.3039L72.555 8.41016H75.5566Z" fill="#3C4043"/>
<path d="M24.5342 12.7018C24.5342 11.7941 24.4538 10.9255 24.3044 10.0903H12.7461V14.8753L19.4027 14.8768C19.1327 16.4689 18.2639 17.8261 16.9325 18.7309V21.8353H20.8949C23.2086 19.6734 24.5342 16.4776 24.5342 12.7018Z" fill="#4285F4"/>
<path d="M16.9342 18.7312C15.8312 19.4823 14.4109 19.9216 12.7492 19.9216C9.53939 19.9216 6.81641 17.7379 5.84125 14.7944H1.75391V17.996C3.77891 22.0531 7.94093 24.8371 12.7492 24.8371C16.0725 24.8371 18.8644 23.7337 20.8966 21.8342L16.9342 18.7312Z" fill="#34A853"/>
<path d="M5.45611 12.4195C5.45611 11.593 5.59255 10.794 5.841 10.0429V6.84131H1.75366C0.916376 8.51896 0.445312 10.4127 0.445312 12.4195C0.445312 14.4263 0.917812 16.32 1.75366 17.9976L5.841 14.796C5.59255 14.0449 5.45611 13.246 5.45611 12.4195Z" fill="#FABB05"/>
<path d="M12.7492 4.9155C14.5631 4.9155 16.1874 5.54625 17.4699 6.77875L20.9814 3.2364C18.8486 1.23105 16.0682 0 12.7492 0C7.94236 0 3.77891 2.784 1.75391 6.8411L5.84125 10.0427C6.81641 7.0992 9.53939 4.9155 12.7492 4.9155Z" fill="#E94235"/>
</svg>
