<svg width="132" height="93" viewBox="0 0 132 93" fill="none" xmlns="http://www.w3.org/2000/svg">
<rect width="132" height="93" fill="white"/>
<path d="M14.1752 48.8174C14.1752 48.8174 14.1168 48.0014 14.5069 47.9006C14.8985 47.799 19.5389 46.812 20.0927 46.6886C20.6464 46.5659 20.9437 47.059 20.9868 47.4922H21.9643C21.9643 47.4922 21.9658 46.0976 22.2207 45.9697C22.4772 45.8411 25.3577 45.3743 25.6412 45.3743C25.9246 45.3743 25.8406 45.9697 25.8406 45.9697L27.4434 45.6775L28.0111 46.6886L28.9491 46.3949V45.6775L29.9697 45.3743L30.1421 44.4816L33.504 44.3516L33.7159 44.9345H35.4626L35.7052 45.6775C35.7052 45.6775 34.9359 46.514 34.9008 46.6886C34.8665 46.8632 16.6876 48.8174 16.6876 48.8174H14.1752Z" fill="#1F1E2B"/>
<mask id="mask0_1269_9311" style="mask-type:luminance" maskUnits="userSpaceOnUse" x="106" y="39" width="9" height="7">
<path d="M106.854 39.0029H114.331V45.8343H106.854V39.0029Z" fill="white"/>
</mask>
<g mask="url(#mask0_1269_9311)">
<mask id="mask1_1269_9311" style="mask-type:luminance" maskUnits="userSpaceOnUse" x="106" y="39" width="9" height="7">
<path d="M109.044 45.7896L109.006 45.6683L108.732 44.7785C108.797 44.2919 109.502 43.4138 109.13 43.1019L108.233 43.1515L106.967 39.0342L114.149 41.6072L114.105 41.8409L109.044 45.7896Z" fill="white"/>
</mask>
<g mask="url(#mask1_1269_9311)">
<mask id="mask2_1269_9311" style="mask-type:luminance" maskUnits="userSpaceOnUse" x="106" y="39" width="9" height="7">
<path d="M109.044 45.7896L109.006 45.6683L108.732 44.7785C108.797 44.2919 109.502 43.4138 109.13 43.1019L108.233 43.1515L106.967 39.0342L114.149 41.6072L114.105 41.8409L109.044 45.7896Z" fill="white"/>
</mask>
<g mask="url(#mask2_1269_9311)">
<mask id="mask3_1269_9311" style="mask-type:luminance" maskUnits="userSpaceOnUse" x="106" y="38" width="10" height="9">
<path d="M106.006 39.1743L107.117 46.8114L115.11 45.6491L113.999 38.0112L106.006 39.1743Z" fill="white"/>
</mask>
<g mask="url(#mask3_1269_9311)">
<path d="M106.005 39.1745L107.116 46.8124L115.111 45.6493L114 38.0122L106.005 39.1745Z" fill="url(#paint0_linear_1269_9311)"/>
</g>
</g>
</g>
</g>
<path d="M116.31 41.2741H115.46V40.8643H116.31V41.2741Z" fill="#78A6CC"/>
<path d="M116.779 42.2829H114.53V41.1943H116.779V42.2829Z" fill="#AACFEF"/>
<path d="M114.012 41.9052L114.53 42.2829V41.1943L114.012 41.572V41.9052Z" fill="#AACFEF"/>
<path d="M125.173 67.3223C125.173 67.3223 124.744 68.0791 124.009 68.6329C124.009 68.6329 123.789 68.825 123.732 69.1581C123.732 69.1581 125.47 69.4438 126.072 69.3115C126.072 69.3115 126.482 68.8148 126.558 68.5854C126.558 68.5854 126.415 67.5166 126.395 67.3734L125.173 67.3223Z" fill="#16151A"/>
<path d="M118.058 42.2288C118.058 42.2288 117.465 42.334 117.28 42.334C117.096 42.334 116.36 42.1024 116.109 42.063C115.86 42.0243 115.274 42.3238 115.221 42.5225C115.169 42.719 115.289 42.833 115.289 42.833C115.289 42.833 115.224 42.9396 115.237 43.0711C115.25 43.2034 115.317 43.2552 115.317 43.2552C115.317 43.2552 115.263 43.4138 115.303 43.4934C115.303 43.4934 115.25 43.7177 115.356 43.7951C115.461 43.8747 115.778 43.9938 115.778 43.9938C115.778 43.9938 116.7 43.9281 116.7 43.8229L116.602 43.6775C116.602 43.6775 117.056 43.5847 117.215 43.4138C117.215 43.4138 117.912 43.2428 118.058 43.2428V42.2288Z" fill="#F79375"/>
<path d="M122.844 67.1151C122.844 67.1151 121.845 67.0281 121.732 67.0691L121.535 67.3218C121.535 67.3218 121.145 67.8595 119.588 68.5309V68.8246L122.952 68.8304C122.952 68.8304 123.223 68.3848 122.844 67.1151Z" fill="#16151A"/>
<path d="M122.795 62.7905C122.798 64.3744 122.625 67.26 122.625 67.26C122.381 67.4003 121.788 67.26 121.788 67.26C121.709 66.4747 121.508 63.7242 121.428 62.7905H122.795Z" fill="#F9A875"/>
<path d="M120.372 36.3011C120.417 35.9074 120.472 34.4974 120.543 34.4003C120.543 34.4003 121.772 33.9393 121.876 33.715C122.037 33.3716 122.291 32.5301 122.352 31.519C122.368 31.2662 124.181 30.1602 124.181 30.1602C124.181 30.1602 124.144 32.5819 124.695 33.6763C124.695 33.6763 126.561 33.9488 126.98 34.3674C127.089 34.477 127.176 34.6874 127.233 34.965L120.372 36.3011Z" fill="#233B65"/>
<path d="M122.352 31.519C122.313 32.1582 122.198 32.7295 122.076 33.1503C122.45 33.3958 123.159 33.4476 124.28 32.0033C124.167 31.0543 124.181 30.1602 124.181 30.1602C124.181 30.1602 122.368 31.2662 122.352 31.519Z" fill="#172A46"/>
<path d="M126.846 45.2368L126.705 67.5229C126.705 67.5229 125.889 67.7172 124.571 67.5192L123.793 58.364L122.826 51.8417L123.054 67.3125C123.054 67.3125 122.077 67.5229 121.282 67.3096L120.557 58.2683L119.574 45.5078C119.574 45.5078 122.156 45.7131 126.846 45.2368Z" fill="#233B65"/>
<path d="M119.364 35.6527C119.364 35.6527 119.574 33.7928 120.643 33.7928L121.976 33.5239C122.344 34.5372 124.655 33.5539 124.655 33.5539C125.059 33.5721 127.37 34.112 127.659 34.5372C127.659 34.5372 128.132 35.6148 126.618 42.0786C126.618 42.0786 126.995 44.3967 126.827 47.9654C126.827 47.9654 120.258 48.5075 119.737 47.9654C119.737 47.9654 118.81 38.8818 119.364 35.6527Z" fill="#233B65"/>
<path d="M120.492 28.3803C120.492 28.3803 120.325 29.5864 120.55 30.7619C120.684 31.4559 121.409 32.464 121.849 32.6554C121.849 32.6554 121.969 32.7227 122.4 32.6518C122.931 32.5641 123.885 31.77 124.145 30.7275C124.145 30.7275 124.439 30.8101 124.601 30.3221C124.765 29.8333 124.623 29.094 124.108 29.5499C124.108 29.5499 124.277 27.4342 123.33 27.3027C122.384 27.172 120.575 26.8505 120.492 28.3803Z" fill="#F79375"/>
<path d="M117.644 43.6663C117.644 43.6663 116.818 43.1725 117.436 41.9532L122.561 40.579C122.561 40.579 124.95 35.2643 126.058 34.7179C127.244 34.1349 127.691 34.5345 127.691 34.5345C127.691 34.5345 128.528 36.1643 127.448 37.9987C126.366 39.8331 123.998 42.3835 123.594 42.8803C123.594 42.8803 123.41 43.1834 122.632 43.2989C121.854 43.4128 117.644 43.6663 117.644 43.6663Z" fill="#324F7E"/>
<path d="M117.267 43.4013C117.052 43.1128 117.128 42.5693 117.177 42.3216C116.905 42.2748 116.326 42.0973 116.109 42.063C115.86 42.0243 115.274 42.3238 115.221 42.5225C115.169 42.719 115.289 42.833 115.289 42.833C115.289 42.833 115.224 42.9396 115.237 43.0711C115.25 43.2034 115.317 43.2552 115.317 43.2552C115.317 43.2552 115.263 43.4138 115.303 43.4934C115.303 43.4934 115.25 43.7177 115.356 43.7951C115.461 43.8747 115.778 43.9938 115.778 43.9938C115.778 43.9938 116.7 43.9281 116.7 43.8229L116.602 43.6775C116.602 43.6775 117.056 43.5847 117.215 43.4138C117.215 43.4138 117.234 43.4086 117.267 43.4013Z" fill="#8B5939"/>
<path d="M120.999 31.704C120.999 31.704 121.636 32.5792 122.144 32.4199C122.653 32.2599 123.734 31.704 123.655 30.0712C123.655 30.0712 123.597 28.3968 123.248 28.0622C122.899 27.7283 120.483 27.6553 120.439 29.0784C120.439 29.0784 120.332 28.2952 120.459 27.7144C120.586 27.1337 121.909 25.4629 123.734 26.1752C125.56 26.886 125.355 30.0712 124.265 32.3184C124.265 32.3184 122.207 34.1396 120.999 31.704Z" fill="#233B65"/>
<path d="M123.655 30.9451C123.655 30.9451 124.511 30.9378 124.833 30.7705C124.833 30.7705 124.894 30.9276 124.758 31.0415C124.758 31.0415 124.025 31.1993 123.655 31.1993V30.9451Z" fill="#95B8C8"/>
<path d="M123.35 31.5845C123.35 31.5845 124.088 31.9812 124.413 31.9928C124.413 31.9928 124.43 32.1528 124.319 32.2025C124.319 32.2025 123.711 32.1353 123.255 31.8533L123.35 31.5845Z" fill="#95B8C8"/>
<path d="M120.645 30.8615C120.645 30.8615 121.364 30.4443 121.79 30.4443C122.217 30.4443 123.668 30.7738 123.843 30.9484C123.843 30.9484 123.104 33.0502 121.914 32.7726C120.725 32.4964 120.602 31.4138 120.645 30.8615Z" fill="#95B8C8"/>
<path d="M123.932 28.9341C123.932 28.9341 124.993 29.2921 125.096 29.36C125.096 29.36 125.165 29.661 125.033 29.7779C125.033 29.7779 124.135 29.4849 123.932 29.4367V28.9341Z" fill="#AACFEF"/>
<path d="M123.505 28.8558C123.505 28.8558 124.765 27.4451 124.847 27.356C124.847 27.356 125.018 27.4232 124.968 27.7373C124.968 27.7373 124.163 28.7791 123.893 28.9924L123.505 28.8558Z" fill="#AACFEF"/>
<path d="M120.552 28.975C120.552 28.975 120.182 29.2818 120.153 29.4849C120.124 29.688 120.352 30.5617 120.596 30.5705C120.842 30.58 121.693 30.0379 121.867 30.119C122.042 30.2023 123.621 30.6012 123.843 30.2899C124.065 29.9817 124.104 29.1174 123.931 28.934C123.931 28.934 122.874 28.3628 121.722 28.5834C121.722 28.5834 120.91 28.6915 120.552 28.975Z" fill="#AACFEF"/>
<path d="M114.691 37.9556L114.69 37.9731V39.8031C114.69 40.4745 115.234 41.018 115.904 41.018C116.576 41.018 117.119 40.4745 117.119 39.8031V37.9556H114.691Z" fill="#78A6CC"/>
<path d="M117.206 38.269H114.601V37.792H117.206V38.269Z" fill="#AACFEF"/>
<path d="M115.91 43.894C115.91 43.8955 115.835 45.6875 115.835 47.9289C115.835 49.4491 115.869 51.1732 115.985 52.6898C116.042 53.4496 116.12 54.1553 116.226 54.7609C116.332 55.3651 116.462 55.8684 116.636 56.2286C116.982 56.9431 117.691 57.6897 118.56 58.4619C119.862 59.6169 121.526 60.8186 122.861 61.9218C123.527 62.4733 124.112 63.0008 124.522 63.4778C124.936 63.9534 125.161 64.3793 125.157 64.6913C125.157 64.841 125.113 64.9689 125.01 65.0974C124.817 65.3451 124.299 65.6227 123.549 65.8645C122.233 66.2919 120.21 66.6499 117.872 66.9421C110.856 67.8173 100.985 68.1058 98.4485 68.1058V68.4492C100.395 68.4492 106.586 68.2819 112.539 67.8136C115.516 67.5798 118.432 67.2701 120.732 66.869C121.882 66.6667 122.878 66.4424 123.655 66.1911C124.43 65.9347 124.988 65.6658 125.279 65.313C125.428 65.1296 125.502 64.9133 125.501 64.6913C125.499 64.3808 125.369 64.0681 125.159 63.7467C124.79 63.1827 124.163 62.5771 123.41 61.9342C122.281 60.972 120.868 59.9369 119.633 58.9221C118.398 57.9118 117.345 56.9124 116.946 56.0796C116.795 55.7713 116.667 55.2898 116.564 54.7018C116.257 52.9331 116.177 50.1994 116.179 47.9289C116.179 46.8118 116.197 45.8066 116.216 45.079C116.234 44.3536 116.253 43.9087 116.253 43.9079L115.91 43.894Z" fill="#171E24"/>
<path d="M50.7036 35.1254C50.7036 35.1254 51.4999 34.3488 52.885 34.3488C54.2708 34.3488 70.4466 33.9068 80.4032 34.3488C80.4032 34.3488 83.8565 34.1515 87.2624 35.9567C87.2624 35.9567 97.6756 41.7587 100.788 41.9706C100.788 41.9706 99.8942 45.4246 99.5604 45.6774C99.2287 45.9287 37.5596 45.6774 37.5596 45.6774L50.7036 35.1254Z" fill="#EE2945"/>
<path d="M36.5527 44.4816C36.5527 44.4816 46.4531 37.163 50.7034 35.1255C50.7034 35.1255 52.0126 35.1255 52.2887 35.1255C52.5663 35.1255 52.5663 35.5134 52.2887 35.9569L40.3209 43.9439L36.5527 44.4816Z" fill="#9FD0EE"/>
<path d="M108.34 62.3174L106.82 63.8756L19.6062 64.5602L18.4688 62.4365L108.34 62.3174Z" fill="#1F1E2B"/>
<path d="M18.7517 63.0047H103.714V51.2349H18.7517V63.0047Z" fill="#1F1E2B"/>
<path d="M41.3196 59.0593C45.681 59.0593 78.1027 58.9607 81.846 58.9468V61.953C81.7942 62.0677 81.7445 62.1816 81.6911 62.2956C81.6086 62.4702 81.7109 62.6331 81.846 62.6923V63.0042H40.9208C40.7907 59.7212 41.3182 60.5123 41.3196 59.0593Z" fill="#851F25"/>
<path d="M66.7083 48.5414C66.7725 47.9913 67.2408 47.2593 67.8092 47.2593H72.1523C72.7214 47.2593 73.1882 47.9913 73.254 48.5414H66.7083Z" fill="#601920"/>
<path d="M23.0552 62.9704C23.0552 67.1316 26.4281 70.5053 30.593 70.5053C34.7527 70.5053 38.1286 67.1316 38.1286 62.9704C38.1286 58.8085 34.7527 55.4326 30.593 55.4326C26.4281 55.4326 23.0552 58.8085 23.0552 62.9704Z" fill="#2C2E38"/>
<path d="M30.5933 69.4188C27.0304 69.4188 24.1404 66.5295 24.1404 62.9688C24.1404 59.4096 27.0304 56.521 30.5933 56.521C34.1547 56.521 37.0397 59.4096 37.0397 62.9688C37.0397 66.5295 34.1547 69.4188 30.5933 69.4188Z" fill="#262830"/>
<path d="M25.2373 62.9687C25.2373 65.9223 27.6357 68.3207 30.5929 68.3207C33.5473 68.3207 35.9406 65.9223 35.9406 62.9687C35.9406 60.0136 33.5473 57.6196 30.5929 57.6196C27.6357 57.6196 25.2373 60.0136 25.2373 62.9687Z" fill="#A6C5D2"/>
<path d="M26.2834 62.9689C26.2834 65.349 28.2106 67.2791 30.5929 67.2791C32.9701 67.2791 34.901 65.349 34.901 62.9689C34.901 60.5888 32.9701 58.6587 30.5929 58.6587C28.2106 58.6587 26.2834 60.5888 26.2834 62.9689Z" fill="#B5C9CE"/>
<path d="M103.236 58.2562C103.948 56.9734 108.727 56.2202 110.207 56.0171L110.21 56.0543H111.613C111.724 62.5949 109.863 62.3173 109.863 62.3173L102.318 62.9156C102.9 61.6825 102.509 59.5668 103.236 58.2562Z" fill="#323741"/>
<path d="M103.235 58.2562C103.948 56.9734 108.727 56.2202 110.206 56.0171L110.21 56.0543H111.613C111.62 56.4664 111.619 56.8492 111.611 57.2108L110.366 56.5723C110.366 56.5723 103.631 57.7587 103.527 58.9911C103.429 60.1454 103.439 62.4934 102.336 62.8674C102.888 61.6292 102.52 59.5493 103.235 58.2562Z" fill="#56676F"/>
<path d="M109.131 43.1017C109.503 43.4166 108.789 44.302 108.733 44.7863L109.574 47.4923C109.908 51.2349 110.1 54.6173 110.1 54.6173L111.613 56.0543C111.724 62.5949 109.863 62.3173 109.863 62.3173L102.31 63.0157C102.083 58.0669 97.3235 54.4602 93.1894 54.629C88.1873 54.8343 84.829 58.0669 84.6003 63.0157L39.3225 63.0047C39.096 58.0531 35.5989 54.5187 30.5917 54.5187C25.5845 54.5187 22.1064 58.0531 21.8785 63.0047H13.1178C12.3412 62.8908 12.0731 62.9178 11.6026 62.4349C11.5274 62.3567 11.5259 62.2954 11.5259 62.1997L11.474 61.8008C11.0415 61.5831 9.38539 60.561 9.81276 58.308L10.2796 56.234C10.2796 56.234 10.6193 55.4238 10.9005 55.5027C10.929 55.5115 10.9561 55.5188 10.9867 55.5276C10.9867 55.3208 11.013 55.1426 11.0737 55.0038L11.0788 54.9913C11.5507 54.1702 12.6831 50.264 13.7321 48.8175C13.9192 48.5611 13.7416 48.6305 13.9192 48.5611C16.3022 47.6209 35.7055 45.2889 35.7055 45.2889L35.8129 44.4817L45.0083 44.3195C45.0083 44.3195 74.1586 44.7418 76.8171 44.3195C76.8171 44.3195 79.6297 42.1147 81.1354 42.0307C81.1354 42.0307 91.805 39.6155 98.8635 41.5062L106.877 43.2266L109.131 43.1017Z" fill="#EE2945"/>
<path d="M108.732 44.7862C108.736 44.746 108.746 44.7029 108.758 44.6598L98.3102 42.8327L94.5793 40.85C94.3192 40.8339 94.0577 40.82 93.7954 40.8105L98.178 43.1403L98.2013 43.1512L108.799 45.0039L108.732 44.7862Z" fill="#8D152F"/>
<path d="M84.6472 62.4126C84.6574 62.3045 84.6669 62.1971 84.6822 62.0919C84.6881 62.0408 84.6968 61.9925 84.7041 61.9443C84.7188 61.8428 84.7326 61.7427 84.7509 61.6433C84.7589 61.5966 84.7699 61.5491 84.7787 61.5031C84.7969 61.403 84.8166 61.3036 84.8378 61.2065C84.8481 61.1626 84.8605 61.121 84.87 61.0772C84.8934 60.9771 84.9182 60.8777 84.9445 60.7798C84.9554 60.7404 84.9671 60.7024 84.9781 60.6637C85.0073 60.5636 85.0358 60.4628 85.0694 60.3642C85.0796 60.3305 85.0921 60.2969 85.103 60.2633C85.1381 60.1611 85.1739 60.0595 85.2111 59.9587C85.2221 59.9302 85.2345 59.9017 85.2455 59.8732C85.2864 59.7695 85.3273 59.6679 85.3719 59.5664L85.404 59.4948C85.4515 59.3903 85.4982 59.2873 85.5487 59.1851L85.5786 59.1281C85.6319 59.0229 85.6875 58.9184 85.7444 58.8169L85.7707 58.7723C85.8299 58.6671 85.892 58.5634 85.9578 58.4618L85.9789 58.4297C86.0454 58.3237 86.1148 58.2215 86.1872 58.1206L86.2032 58.0973C86.2777 57.9935 86.353 57.892 86.4326 57.7926L86.4436 57.7787C86.5239 57.6765 86.6072 57.5771 86.6934 57.4792L86.7 57.4719C86.7877 57.3726 86.8783 57.2747 86.971 57.1812L86.9725 57.1782C87.0667 57.0833 87.1632 56.989 87.2625 56.8984H57.8719L38.3838 59.1887C38.9017 60.2509 39.2188 61.4578 39.3079 62.7677C39.3138 62.8436 39.3204 62.9225 39.3225 63.0044L84.6004 63.0153C84.6077 62.8582 84.6172 62.7019 84.6311 62.5485C84.6362 62.5032 84.642 62.4579 84.6472 62.4126Z" fill="#C0193A"/>
<path d="M10.1298 56.8984L9.81276 58.3077C9.38539 60.5607 11.0415 61.5827 11.474 61.8004L11.5259 62.1993C11.5259 62.295 11.5274 62.3564 11.6026 62.4345C12.0731 62.9174 12.3412 62.8904 13.1178 63.0044H21.8785C21.9924 60.5249 22.9224 58.4019 24.45 56.8984H10.1298Z" fill="#C0193A"/>
<path d="M99.209 56.8984C100.947 58.3983 102.197 60.5388 102.309 63.0153L109.863 62.3169C109.863 62.3169 111.56 62.5697 111.617 56.8984H99.209Z" fill="#C0193A"/>
<path d="M25.6414 53.5844C25.6414 53.5844 28.9836 51.7281 34.5767 53.5844C34.5767 53.5844 37.5595 54.7167 39.3545 57.5775C39.3545 57.5775 46.7155 53.5595 51.6656 53.1979C56.6173 52.8363 106.977 53.1979 106.977 53.1979C106.977 53.1979 107.979 52.6149 107.687 52.17H51.7402C51.7402 52.17 25.9204 50.3437 25.6414 53.5844Z" fill="#E8476C"/>
<path d="M98.2173 56.1469C99.2905 55.9336 103.894 55.0065 104.38 54.7253C104.919 54.4119 105.379 50.8694 105.507 49.7912L105.177 49.751C104.927 51.8601 104.487 54.2504 104.213 54.4374C103.881 54.6296 100.222 55.4412 97.8572 55.919C97.9784 55.992 98.0983 56.068 98.2173 56.1469Z" fill="#8D152F"/>
<path d="M66.5273 61.1578C65.8186 57.2816 66.536 50.9338 66.5433 50.8695L66.5448 50.8564L67.4441 46.5396L67.4587 46.5148C68.0402 45.549 67.4098 44.2829 67.4032 44.2734H67.7473C67.775 44.3238 68.415 45.5366 67.759 46.6623L66.8728 50.9156C66.8443 51.1654 66.1656 57.3298 66.8546 61.0972L66.5273 61.1578Z" fill="#8D152F"/>
<path d="M42.2869 45.6774L39.0652 44.7723C39.0652 44.7723 39.2902 44.1754 39.8812 43.9438L42.4885 45.3012L42.2869 45.6774Z" fill="#8D152F"/>
<path d="M13.4406 49.2783L20.4867 49.6882L19.464 51.9507L19.4158 52.061L11.7983 53.1977C11.7983 53.1977 11.8144 51.2165 13.4406 49.2783Z" fill="#C6E7EA"/>
<path d="M13.4406 49.2783L20.4867 49.6882L19.464 51.9507L19.4158 52.061L11.7983 53.1977C11.7983 53.1977 11.8144 51.2165 13.4406 49.2783Z" fill="#C6E7EA"/>
<path d="M19.464 51.9507L19.9293 50.9242C15.5453 51.8433 16.8647 49.6078 16.8647 49.6078H16.2554L15.4255 51.2347C15.4255 51.2347 13.6525 51.5248 13.0987 51.402C12.545 51.2808 13.5969 49.3448 13.5969 49.3448L13.4618 49.2791L13.4406 49.2783C11.8144 51.2165 11.7983 53.1977 11.7983 53.1977L19.4158 52.061L19.464 51.9507Z" fill="#97C3C6"/>
<path d="M11.7983 53.1982L19.4158 52.0614L19.464 51.9511L19.8117 51.1819C19.117 51.3061 16.9465 51.5413 16.4972 51.507C16.0187 51.4697 16.4972 49.7441 16.4972 49.7441H16.3482C16.3482 49.7441 15.6834 51.58 15.4796 51.6574C15.2779 51.7356 12.6545 52.0972 12.3221 52.079C12.1899 52.0717 12.1863 51.7247 12.2294 51.3112C11.8056 52.3946 11.7983 53.1982 11.7983 53.1982Z" fill="#73ADB4"/>
<path d="M44.5961 49.688V56.2337C43.726 56.1935 43.0312 55.4783 43.0312 54.5973V51.3237C43.0312 50.4448 43.726 49.7289 44.5961 49.688Z" fill="#1F1E2B"/>
<path d="M41.7119 48.0668L41.7192 47.7344C40.1215 47.7 21.5284 49.4694 20.4968 49.5673C18.6756 49.4424 14.9162 49.3708 13.4507 49.259C13.3294 49.3314 13.2279 49.5081 13.1694 49.6199C14.6203 49.7288 18.6003 49.7704 20.4866 49.9005L20.5005 49.9019L20.5144 49.9005C20.7233 49.8807 40.1266 48.0346 41.7119 48.0668Z" fill="#8D152F"/>
<path d="M19.2779 51.7455C18.7022 51.8346 13.9288 52.4885 11.8285 52.8479C11.7839 52.9699 11.8234 53.1299 11.781 53.2475C14.0472 52.8567 19.4854 52.0647 19.4854 52.0647L20.6199 49.7526L20.3211 49.6079L19.2779 51.7455Z" fill="#8D152F"/>
<path d="M16.4974 58.9907H13.321C13.1982 58.9907 13.0989 59.0893 13.0989 59.2121V61.0721C13.0989 61.1941 13.1982 61.2941 13.321 61.2941H16.4974V58.9907Z" fill="#1F1E2B"/>
<path d="M12.4336 61.5522H17.1244V62.3171L12.5812 61.9343L12.4336 61.5522Z" fill="#1F1E2B"/>
<path d="M20.7794 55.9579L10.9893 55.4326C10.9879 55.4633 10.9864 55.4954 10.9864 55.5276C10.9557 55.5188 10.9287 55.5115 10.9002 55.5027C10.7819 55.4699 10.6547 55.5933 10.5459 55.7468L11.7981 56.5723L21.9644 56.4196V56.0149L20.7794 55.9579Z" fill="#C81D3A"/>
<path d="M89.3283 45.1997L86.0781 42.6318C86.0036 42.6333 85.9291 42.6333 85.8545 42.6333L85.7347 42.7049L89.0521 45.3867L89.0755 45.4174C89.7542 46.1136 88.7285 47.3957 88.719 47.4089L88.6978 47.441C88.6503 47.5389 83.9829 57.2318 82.7183 59.471C81.7657 61.1578 79.6507 61.1271 79.6259 61.1286H39.0652C39.0908 61.2374 39.1134 61.3485 39.1368 61.4602H79.658C79.9656 61.4602 82.0148 61.3938 83.0083 59.6346C84.2532 57.4298 88.7672 48.0642 88.99 47.6025C89.1237 47.4315 90.1487 46.0691 89.3283 45.1997Z" fill="#8D152F"/>
<path d="M83.4166 62.5525H40.1032C39.9805 62.5525 39.8811 62.4524 39.8811 62.3312V62.3041C39.8811 62.1821 39.9805 62.0835 40.1032 62.0835H83.4166C83.5393 62.0835 83.6387 62.1821 83.6387 62.3041V62.3312C83.6387 62.4524 83.5393 62.5525 83.4166 62.5525Z" fill="#A61735"/>
<path d="M83.6387 62.0958C83.6387 62.2185 83.5393 62.3172 83.4166 62.3172H40.1032C39.9805 62.3172 39.8811 62.2185 39.8811 62.0958V62.0695C39.8811 61.9468 39.9805 61.8481 40.1032 61.8481H83.4166C83.5393 61.8481 83.6387 61.9468 83.6387 62.0695V62.0958Z" fill="#F03F69"/>
<path d="M41.5992 61.2945L41.5481 47.745C41.5481 47.6596 41.8878 45.3766 43.4775 44.0938L43.8143 44.169C42.3502 45.351 41.882 47.726 41.882 47.745L41.9309 61.2945H41.5992Z" fill="#8D152F"/>
<path d="M40.4352 43.867L52.2891 35.9566C52.4155 35.7543 52.4834 35.5651 52.4951 35.4189C49.8849 37.2344 40.2234 43.7961 40.2234 43.7961L40.4352 43.867Z" fill="#1F1E2B"/>
<path d="M50.7036 35.1255C50.7036 35.1255 52.0127 35.1255 52.2889 35.1255C52.5665 35.1255 52.5665 35.5134 52.2889 35.9569C52.3027 35.4769 49.7422 35.6332 49.7334 35.6332C49.7334 35.6332 50.1447 35.2453 50.7036 35.1255Z" fill="#1F1E2B"/>
<path d="M43.1592 44.3517H93.3865C93.3865 44.3517 94.2734 43.8235 93.6824 43.269C93.6824 43.269 83.0193 36.4778 77.5512 35.6319C77.5512 35.6319 62.1096 35.222 55.8291 35.6319C55.8291 35.6319 50.3156 38.5263 43.1592 44.3517Z" fill="#1A2534"/>
<path d="M45.2664 43.8672C45.2664 43.8672 53.4324 37.9607 56.21 36.7319H65.8524L64.8859 43.8672H45.2664Z" fill="#9FD0EE"/>
<path d="M66.7083 35.4189L65.4087 44.3513H69.9812L69.3989 35.4189H66.7083Z" fill="#0E151C"/>
<path d="M67.9581 35.4189L67.6001 44.3513H67.9581L68.2203 35.4189H67.9581Z" fill="#0A0D0F"/>
<path d="M41.3303 43.269L39.1993 44.8098L35.7051 44.5102C35.7051 44.5102 36.0952 44.0295 36.3713 43.9441C36.6489 43.8586 40.9139 43.7125 41.3303 43.269Z" fill="#1F1E2B"/>
<path d="M13.5866 49.9022C13.5866 49.9022 13.1161 50.6839 13.2279 50.8037C13.3382 50.9242 15.8527 50.3807 15.8052 50.1857C15.757 49.9913 13.6326 49.6275 13.5866 49.9022Z" fill="#A6C5D2"/>
<path d="M45.6487 43.1816L44.0562 45.789C44.0562 45.789 45.4968 47.2946 46.2346 46.4085C46.9747 45.5223 46.852 43.8669 46.852 43.8669L45.6487 43.1816Z" fill="#D21D3D"/>
<path d="M45.6487 43.1816L44.9182 44.3768C45.1659 44.669 45.5333 44.9715 45.9775 44.9342C45.9775 44.9342 46.0133 46.2784 44.1424 45.6465L44.0562 45.789C44.0562 45.789 45.4968 47.2946 46.2346 46.4085C46.9747 45.5223 46.852 43.8669 46.852 43.8669L45.6487 43.1816Z" fill="#A71835"/>
<path d="M17.0423 50.0534C17.0423 50.0534 16.8473 50.7818 17.2995 50.8191C17.7531 50.8563 20.2925 50.4399 19.7563 50.2463C19.2208 50.0534 17.1336 49.8964 17.0423 50.0534Z" fill="#A6C5D2"/>
<path d="M41.7185 48.0669C41.7207 48.0669 42.3402 48.0545 43.4616 48.0318C51.3091 47.8762 83.6461 47.2516 98.7428 47.2516C100.876 47.2516 102.664 47.264 103.989 47.291C104.652 47.3049 105.199 47.3232 105.614 47.3458C106.029 47.367 106.318 47.394 106.438 47.4211L106.509 47.0967C106.343 47.0609 106.056 47.0361 105.632 47.0142C104.369 46.9469 101.944 46.9185 98.7428 46.9185C81.4822 46.9185 41.7119 47.7337 41.7119 47.7337L41.7185 48.0669Z" fill="#8D152F"/>
<path d="M64.8857 36.7319L64.3545 39.0587C64.3545 39.0587 63.7833 38.551 63.4129 38.6949C63.0439 38.8374 62.6378 39.8404 62.675 40.2985C62.7123 40.758 62.4157 41.7691 63.4874 41.9831C63.4874 41.9831 62.7269 43.6889 62.6633 43.8672H64.8857L65.8522 36.7319H64.8857Z" fill="#536A85"/>
<path d="M47.0113 41.3115C47.0113 41.3115 45.0162 43.5499 45.4969 44.0934C45.9776 44.6362 52.0718 43.8231 51.7029 42.9735C51.3339 42.1239 49.7888 41.3349 47.0113 41.3115Z" fill="#EE2945"/>
<path d="M51.4327 42.5723C49.851 43.1333 46.3364 43.4876 45.9777 43.08C45.9053 42.9982 45.8893 42.8798 45.9126 42.7359C45.5503 43.2933 45.2858 43.8551 45.497 44.0933C45.9777 44.6361 52.0719 43.823 51.703 42.9733C51.6438 42.8375 51.5532 42.7023 51.4327 42.5723Z" fill="#C0193A"/>
<path d="M69.9812 36.4556L71.153 43.9437L85.1364 43.867C85.1364 43.867 79.604 37.1927 78.495 36.8588C77.3875 36.5272 69.9812 36.4556 69.9812 36.4556Z" fill="#9FD0EE"/>
<path d="M78.5161 35.835L85.9487 43.0484V44.2735H89.196L80.7706 36.6356C80.7706 36.6356 79.6134 36.1747 78.5161 35.835Z" fill="#0E151C"/>
<path d="M87.8381 44.1938L80.0175 36.3492C79.8678 36.2936 79.7041 36.2337 79.5295 36.1724L87.6028 44.2734H87.7592L87.8381 44.1938Z" fill="#0A0D0F"/>
<path d="M87.2624 35.957C86.4807 35.5421 85.6961 35.2345 84.9517 35.0059C84.4279 35.1096 83.8814 35.2557 83.8566 35.4193C83.8062 35.7349 97.1862 42.5729 97.1862 42.5729L98.8635 41.5063C94.676 40.0883 87.2624 35.957 87.2624 35.957Z" fill="#1A2534"/>
<path d="M98.2559 41.2909C93.999 39.7107 87.2619 35.9571 87.2619 35.9571C86.5233 35.5656 85.7826 35.2704 85.0739 35.0454C84.7284 35.1345 84.4493 35.2412 84.431 35.3559C84.3828 35.673 97.1857 41.971 97.1857 41.971L98.2559 41.2909Z" fill="#9FD0EE"/>
<path d="M101.948 46.8668C101.948 46.8668 101.62 47.6368 102.318 48.0108L105.03 50.0841L109.797 50.182V47.2591C109.797 47.2591 109.96 46.8069 109.379 46.8668H101.948Z" fill="#8D152F"/>
<path d="M102.772 47.029C102.772 47.029 102.475 47.7223 103.106 48.0605L105.553 49.9322L109.854 50.0198V47.3833C109.854 47.3833 110.002 46.9742 109.477 47.029H102.772Z" fill="#EE2831"/>
<path d="M106.474 48.6714C106.645 48.5845 108.886 48.8745 109.854 49.006V47.7013C109.565 47.6939 105.748 47.6121 105.546 47.9007C105.397 48.1104 105.99 49.2697 106.359 49.9484L106.771 49.9572C106.579 49.4575 106.334 48.743 106.474 48.6714Z" fill="#440B19"/>
<path d="M102.703 58.7085C102.703 58.7085 102.684 59.1519 103.016 59.2637C103.349 59.3733 111.357 59.9585 111.357 59.9585L111.528 58.7195L102.703 58.7085Z" fill="#EE2945"/>
<path d="M110.161 54.6758L103.312 55.8731L103.034 56.1471L111.613 56.0543L110.161 54.6758Z" fill="#E8476C"/>
<path d="M85.5623 62.9704C85.5623 67.1316 88.9352 70.5053 93.1 70.5053C97.259 70.5053 100.636 67.1316 100.636 62.9704C100.636 58.8085 97.259 55.4326 93.1 55.4326C88.9352 55.4326 85.5623 58.8085 85.5623 62.9704Z" fill="#2C2E38"/>
<path d="M93.1004 69.4188C89.5368 69.4188 86.6482 66.5295 86.6482 62.9688C86.6482 59.4096 89.5368 56.521 93.1004 56.521C96.6618 56.521 99.5482 59.4096 99.5482 62.9688C99.5482 66.5295 96.6618 69.4188 93.1004 69.4188Z" fill="#262830"/>
<path d="M87.7437 62.9687C87.7437 65.9223 90.1435 68.3207 93.1 68.3207C96.0551 68.3207 98.4484 65.9223 98.4484 62.9687C98.4484 60.0136 96.0551 57.6196 93.1 57.6196C90.1435 57.6196 87.7437 60.0136 87.7437 62.9687Z" fill="#A6C5D2"/>
<path d="M88.7891 62.9689C88.7891 65.349 90.7184 67.2791 93.1 67.2791C95.4772 67.2791 97.4088 65.349 97.4088 62.9689C97.4088 60.5888 95.4772 58.6587 93.1 58.6587C90.7184 58.6587 88.7891 60.5888 88.7891 62.9689Z" fill="#B5C9CE"/>
<path d="M65.5938 49.1238C65.5938 49.2465 65.4944 49.3451 65.3717 49.3451H61.1601C61.0388 49.3451 60.9395 49.2465 60.9395 49.1238V48.7629C60.9395 48.6416 61.0388 48.5415 61.1601 48.5415H65.3717C65.4944 48.5415 65.5938 48.6416 65.5938 48.7629V49.1238Z" fill="#EE2945"/>
<path d="M64.6639 50.0288H61.5942C61.4729 50.0288 61.3721 49.9294 61.3721 49.8074V49.345H61.6044V49.4947C61.6044 49.5868 61.6906 49.6598 61.7972 49.6598H64.4623C64.5682 49.6598 64.6537 49.5868 64.6537 49.4947V49.345H64.8853V49.8074C64.8853 49.9294 64.7866 50.0288 64.6639 50.0288ZM64.8853 48.5414H64.6537V48.3989C64.6537 48.3083 64.5682 48.2353 64.4623 48.2353H61.7972C61.6906 48.2353 61.6044 48.3083 61.6044 48.3989V48.5414H61.3721V48.3295C61.3721 48.2068 61.4729 48.1089 61.5942 48.1089H64.6639C64.7866 48.1089 64.8853 48.2068 64.8853 48.3295V48.5414Z" fill="#AA1B38"/>
<path d="M64.8853 49.3451H64.6537V48.5415H64.8853V49.3451ZM61.6044 49.3451H61.3721V48.5415H61.6044V49.3451Z" fill="#AA1B38"/>
<path d="M64.4626 49.6599H61.7976C61.6909 49.6599 61.6047 49.5869 61.6047 49.4948V49.3451H64.654V49.4948C64.654 49.5869 64.5686 49.6599 64.4626 49.6599ZM64.654 48.5415H61.6047V48.399C61.6047 48.3084 61.6909 48.2354 61.7976 48.2354H64.4626C64.5686 48.2354 64.654 48.3084 64.654 48.399V48.5415Z" fill="#8C1631"/>
<path d="M61.6047 49.3451H64.654V48.543H61.6047V49.3451Z" fill="#8C1631"/>
<path d="M65.5938 49.1238C65.5938 49.2465 65.4944 49.3451 65.3717 49.3451H61.1601C61.0388 49.3451 60.9395 49.2465 60.9395 49.1238V48.7629C60.9395 48.6416 61.0388 48.5415 61.1601 48.5415H65.3717C65.4944 48.5415 65.5938 48.6416 65.5938 48.7629V49.1238Z" fill="#EE2945"/>
<path d="M65.3717 48.5415H61.1601C61.0388 48.5415 60.9395 48.6416 60.9395 48.7629V48.8476C60.9395 48.7249 61.0388 48.6255 61.1601 48.6255H65.3717C65.4944 48.6255 65.5938 48.7249 65.5938 48.8476V48.7629C65.5938 48.6416 65.4944 48.5415 65.3717 48.5415Z" fill="#E8476C"/>
<path d="M65.3717 49.0131H61.1601C61.0388 49.0131 60.9395 48.9137 60.9395 48.791V49.1234C60.9395 49.2461 61.0388 49.3448 61.1601 49.3448H65.3717C65.4944 49.3448 65.5938 49.2461 65.5938 49.1234V48.791C65.5938 48.9137 65.4944 49.0131 65.3717 49.0131Z" fill="#8D152F"/>
<path d="M85.6617 49.82H82.592C82.4692 49.82 82.3699 49.7214 82.3699 49.5987V48.1208C82.3699 47.998 82.4692 47.8994 82.592 47.8994H85.6617C85.7845 47.8994 85.8831 47.998 85.8831 48.1208V49.5987C85.8831 49.7214 85.7845 49.82 85.6617 49.82ZM82.7951 48.0258C82.6869 48.0258 82.6015 48.0996 82.6015 48.1902V49.2867C82.6015 49.3766 82.6869 49.4496 82.7951 49.4496H85.4594C85.566 49.4496 85.6515 49.3766 85.6515 49.2867V48.1902C85.6515 48.0996 85.566 48.0258 85.4594 48.0258H82.7951Z" fill="#AA1B38"/>
<path d="M85.4595 49.4497H82.7952C82.687 49.4497 82.6016 49.3767 82.6016 49.2868V48.1903C82.6016 48.0997 82.687 48.0259 82.7952 48.0259H85.4595C85.5661 48.0259 85.6516 48.0997 85.6516 48.1903V49.2868C85.6516 49.3767 85.5661 49.4497 85.4595 49.4497Z" fill="#8C1631"/>
<path d="M86.5911 48.9153C86.5911 49.038 86.4917 49.1366 86.369 49.1366H82.1581C82.0347 49.1366 81.9368 49.038 81.9368 48.9153V48.5551C81.9368 48.4324 82.0347 48.333 82.1581 48.333H86.369C86.4917 48.333 86.5911 48.4324 86.5911 48.5551V48.9153Z" fill="#EE2945"/>
<path d="M86.369 48.333H82.1581C82.0347 48.333 81.9368 48.4324 81.9368 48.5551V48.6376C81.9368 48.5164 82.0347 48.4163 82.1581 48.4163H86.369C86.4917 48.4163 86.5911 48.5164 86.5911 48.6376V48.5551C86.5911 48.4324 86.4917 48.333 86.369 48.333Z" fill="#E8476C"/>
<path d="M86.369 48.8034H82.1581C82.0347 48.8034 81.9368 48.7055 81.9368 48.5835V48.9152C81.9368 49.0379 82.0347 49.1365 82.1581 49.1365H86.369C86.4917 49.1365 86.5911 49.0379 86.5911 48.9152V48.5835C86.5911 48.7055 86.4917 48.8034 86.369 48.8034Z" fill="#8D152F"/>
<path d="M35.7055 45.2888L18.7517 25.1133C18.7517 25.1133 18.8357 24.8584 19.3909 25.1133C19.9447 25.3683 37.5596 44.6693 37.5596 44.6693L35.7055 45.2888Z" fill="#EE2945"/>
<path d="M16.1575 44.9595C16.1575 44.9595 16.3569 45.5563 16.5702 45.7149C16.7843 45.8734 17.178 46.0173 17.3198 46.1189C17.4608 46.2219 17.4359 46.6821 17.4359 46.6821C17.4359 46.6821 17.5711 47.0386 17.5908 47.1482C17.6105 47.2585 17.5769 47.2505 17.5075 47.3177C17.4396 47.3842 16.5921 47.5347 16.3657 47.4784C16.1392 47.4229 15.7177 46.7727 15.7403 46.3928C15.7403 46.3928 15.8543 46.0831 15.8353 45.9735C15.8156 45.8661 15.2961 45.2305 15.2961 45.2305C15.3246 45.2656 16.1575 44.9595 16.1575 44.9595Z" fill="#F79375"/>
<path d="M11.8765 44.8848C11.8765 44.8848 12.2205 45.413 12.466 45.5116C12.7137 45.6117 13.1308 45.6518 13.2937 45.7147C13.4544 45.7782 13.5472 46.2312 13.5472 46.2312C13.5472 46.2312 13.7678 46.5424 13.8139 46.6439C13.8606 46.744 13.827 46.7455 13.7781 46.8273C13.7269 46.9084 12.9452 47.2678 12.7122 47.2707C12.4784 47.2729 11.9086 46.7499 11.8326 46.3758C11.8326 46.3758 11.8662 46.0493 11.8202 45.9477C11.7734 45.8476 11.1116 45.364 11.1116 45.364C11.1481 45.3903 11.8765 44.8848 11.8765 44.8848Z" fill="#F79375"/>
<path d="M4.58493 67.3813C4.58493 67.3813 5.00207 68.1163 5.71582 68.654C5.71582 68.654 5.92914 68.8395 5.98466 69.1639C5.98466 69.1639 4.29709 69.4415 3.71412 69.3115C3.71412 69.3115 3.31524 68.8293 3.24072 68.6079C3.24072 68.6079 3.37953 67.5698 3.39779 67.4303L4.58493 67.3813Z" fill="#16151A"/>
<path d="M6.84671 67.1798C6.84671 67.1798 7.81542 67.0958 7.92573 67.1367L8.1164 67.3815C8.1164 67.3815 8.49702 67.9031 10.0085 68.5547V68.8396L6.74005 68.8455C6.74005 68.8455 6.47779 68.4137 6.84671 67.1798Z" fill="#16151A"/>
<path d="M6.82475 63.1074C6.82182 64.5963 6.98401 67.3073 6.98401 67.3073C7.2134 67.4381 7.77227 67.3073 7.77227 67.3073C7.84532 66.5688 8.0338 63.9841 8.11051 63.1074H6.82475Z" fill="#F9A875"/>
<path d="M3.00732 44.7139L3.1527 67.5537C3.1527 67.5537 3.91686 67.7371 5.15806 67.55L5.88641 58.9486L6.64983 51.6329L6.58116 67.3557C6.58116 67.3557 7.49946 67.5537 8.24535 67.3543L8.92768 58.8595L9.84086 47.4052L9.87812 45.1807C9.87812 45.1807 7.41252 45.1639 3.00732 44.7139Z" fill="#456BBD"/>
<path d="M13.7571 30.0176C13.7571 30.0176 15.2109 30.5662 15.1108 30.2207C15.0764 30.1067 13.9068 29.5435 13.9068 29.5435L13.7571 30.0176Z" fill="#9DC0D9"/>
<path d="M12.8401 34.2173C12.8401 34.2173 13.3763 34.4898 13.8037 35.4782C14.2274 36.4652 14.7227 41.0033 14.7227 41.0033L16.6491 45.3494C16.6491 45.3494 16.3876 45.825 15.6322 46.3254C15.6322 46.3254 13.6488 42.9817 13.2689 42.6317C12.8868 42.284 11.5989 36.6946 11.5989 36.6946C11.5989 36.6946 12.1833 34.9281 12.8401 34.2173Z" fill="#96BEE0"/>
<path d="M14.0032 45.5467C13.9812 45.6241 14.0083 45.7059 14.0675 45.7556C14.039 45.7096 14.0302 45.6526 14.047 45.5956L14.1566 45.2084L14.1076 45.1821L14.0032 45.5467Z" fill="#58717E"/>
<path d="M11.4418 47.332L11.4491 47.2926L11.4922 47.0997L11.6609 46.993L11.8414 47.0339L11.8107 46.9865L11.6171 46.9419L11.4491 47.0486L11.3958 47.2801L11.4315 47.3371L11.4418 47.332Z" fill="#58717E"/>
<path d="M11.5222 47.4264L11.4156 47.2583L11.4587 47.0647L11.6274 46.9581L11.8217 47.0019L11.9269 47.1699L11.8838 47.3635L11.7151 47.4695L11.5222 47.4264ZM12.0657 47.1451L13.67 46.1494C13.7255 46.1245 13.7928 46.1048 13.8585 46.1012C13.9447 46.096 14.0258 46.1158 14.0258 46.1158L14.0185 46.1099L14.047 46.1202C14.3019 46.1932 14.5679 46.0456 14.6409 45.7907C14.6943 45.6044 14.63 45.413 14.4941 45.2939L14.3925 45.6468C14.3611 45.7534 14.2501 45.8148 14.1434 45.7856C14.0368 45.7541 13.9747 45.6431 14.0046 45.535L14.1076 45.1821C13.9279 45.2106 13.7701 45.3392 13.7168 45.5255C13.7036 45.5737 13.6985 45.6219 13.7 45.6687C13.6883 45.6972 13.6751 45.7344 13.654 45.7717C13.6182 45.8352 13.5626 45.8922 13.5115 45.9317L11.9335 46.9113C11.8042 46.7996 11.6128 46.7784 11.4601 46.8741C11.2731 46.9902 11.2147 47.2372 11.3315 47.4249C11.4477 47.6119 11.6954 47.6704 11.8838 47.5542C12.0263 47.4651 12.0928 47.3014 12.0657 47.1451Z" fill="#728C98"/>
<path d="M12.0655 47.145L13.6698 46.1492C13.7253 46.1244 13.7926 46.1047 13.8583 46.101C13.9445 46.0959 14.0256 46.1156 14.0256 46.1156L14.0183 46.1098L14.0468 46.12C14.3017 46.1931 14.5677 46.0455 14.6407 45.7905C14.6904 45.6167 14.6385 45.4399 14.5209 45.3208C14.6078 45.4362 14.6407 45.5896 14.5976 45.7394C14.5246 45.9944 14.2594 46.1419 14.0044 46.0689L13.9745 46.0601L13.9818 46.0652C13.9818 46.0652 13.9029 46.047 13.8145 46.0506C13.7495 46.0543 13.6822 46.0755 13.6267 46.0988L12.0232 47.0946C12.0495 47.2502 11.983 47.4153 11.8391 47.5029C11.6791 47.6023 11.476 47.5753 11.3474 47.4489C11.4687 47.6169 11.7025 47.6651 11.8836 47.5541C12.0261 47.465 12.0926 47.3013 12.0655 47.145Z" fill="#91AAB2"/>
<path d="M12.2269 36.29C12.3 35.9233 12.6477 34.6463 12.6134 34.5374C12.6134 34.5374 11.5665 33.9391 11.5365 33.7112C11.4898 33.3568 11.5774 32.367 11.809 31.4443C11.866 31.2127 10.5569 29.7085 10.5569 29.7085C10.5569 29.7085 9.9023 31.8877 9.0987 32.7118C9.0987 32.7118 7.3505 32.4283 6.85665 32.684C6.72881 32.7512 6.59 32.9163 6.46143 33.1479L12.2269 36.29Z" fill="#E4846C"/>
<path d="M11.5258 33.5152C11.5192 33.0908 11.6039 32.3179 11.7793 31.5661L10.7119 30.2161L10.4204 30.124C10.3328 30.3804 10.2049 30.7275 10.05 31.0927C10.1392 31.8408 10.4679 33.6475 11.5258 33.5152Z" fill="#D26758"/>
<path d="M11.0094 42.252L4.69385 40.0947C4.82681 39.7133 4.90571 39.4927 4.90571 39.4927C5.0657 34.2795 6.20024 32.6446 6.20024 32.6446C6.57939 32.3465 8.80172 32.5175 9.17064 32.6153C9.17064 32.6153 10.395 34.5374 10.8085 34.5308C11.0832 34.5272 11.412 33.9055 11.5274 33.3306L12.6955 33.9661C13.814 34.5213 13.1302 35.9196 13.1302 35.9196L11.0094 42.252Z" fill="#95B8C8"/>
<path d="M7.59027 37.6846L12.1335 39.1223L10.7104 43.6948L9.59343 46.869C7.77364 47.0933 3.00755 44.7139 3.00755 44.7139C2.86071 44.2295 4.90551 39.4927 4.90551 39.4927C4.90551 39.4927 6.84584 39.2326 7.59027 37.6846Z" fill="#456BBD"/>
<path d="M14.1021 29.3415C14.1021 29.3415 13.921 30.4037 13.4169 31.3345C13.1181 31.8838 12.2392 32.5406 11.8163 32.5866C11.8163 32.5866 11.6979 32.6107 11.3531 32.4354C10.9286 32.2199 10.3362 31.2957 10.3953 30.346C10.3953 30.346 10.1258 30.3395 10.117 29.8836C10.1119 29.4277 10.4289 28.8411 10.7402 29.3627C10.7402 29.3627 11.1639 27.5334 11.996 27.6759C12.8288 27.8176 14.4389 28.0295 14.1021 29.3415Z" fill="#F79375"/>
<path d="M10.5941 27.4399L14.4389 28.6563L14.1789 29.4804C14.097 29.5753 14.0415 29.6323 14.0415 29.6323L14.1453 29.0413C13.75 29.2371 13.1444 29.034 13.1444 29.034C12.3963 28.7666 11.6811 28.0295 11.6811 28.0295C11.3655 28.3853 11.2764 28.8214 11.2764 28.8214C11.2538 29.2371 10.8388 29.6089 10.7672 29.5257C10.7365 29.4913 10.7117 29.4278 10.6905 29.3635C10.4735 28.8696 10.1104 29.4431 10.1404 29.8339C10.1828 30.3877 10.3954 30.3461 10.3954 30.3461L10.3932 30.4089C10.2953 30.6719 10.0907 31.0014 9.94461 31.3243C9.8964 31.3184 10.2208 30.8896 10.1389 30.3504C10.0337 29.6535 10.1046 28.2925 10.5941 27.4399Z" fill="#371D15"/>
<path d="M8.39665 32.5182C8.39665 32.5182 9.02565 34.9159 8.36889 38.2406L7.70044 38.0287C7.70044 38.0287 8.29364 34.5623 7.76181 32.4839C7.76181 32.4839 8.08544 32.245 8.39665 32.5182Z" fill="#456BBD"/>
<path d="M12.2145 33.6762C12.2145 33.6762 12.6602 35.786 12.0034 39.1085L11.335 38.8966C11.335 38.8966 12.1079 35.4251 11.579 33.3467C11.579 33.3467 11.9048 33.4029 12.2145 33.6762Z" fill="#456BBD"/>
<path d="M14.0416 29.6322C14.0416 29.6322 13.3797 28.8286 11.793 28.6387C11.3357 28.5846 10.8024 28.5817 10.1865 28.6635C10.1865 28.6635 10.2647 27.445 10.855 27.0812C10.855 27.0812 13.9729 26.2323 14.5472 28.109C14.5472 28.109 14.6239 28.7161 14.0416 29.6322Z" fill="#95B8C8"/>
<path d="M11.8157 28.496C11.8157 28.496 11.7594 28.9073 12.1386 29.1388C12.5163 29.369 14.735 30.0243 15.1105 30.2208L14.3164 29.1235C14.3164 29.1235 13.1015 28.0883 11.8157 28.496Z" fill="#95B8C8"/>
<path d="M6.19981 32.6446C6.19981 32.6446 4.79278 33.4818 5.07112 35.4623C5.35019 37.4443 5.75783 39.473 5.92951 40.0487L6.14502 40.4921L11.1106 45.8039C11.1106 45.8039 11.7425 45.9836 12.3934 45.004L8.04445 39.6323C8.04445 39.6323 7.65287 34.1634 7.24011 33.3941C6.82882 32.6263 6.19981 32.6446 6.19981 32.6446Z" fill="#95B8C8"/>
<path d="M68.7633 41.6362C68.7633 41.6362 68.2417 45.4453 68.7633 45.9983C69.2835 46.5521 70.1492 46.3044 70.2215 45.4511C70.2931 44.5979 70.0652 41.6362 70.0652 41.6362H68.7633Z" fill="#F5866C"/>
<path d="M81.1547 41.6362C81.1547 41.6362 81.6749 45.4453 81.1547 45.9983C80.6331 46.5521 79.7674 46.3044 79.6951 45.4511C79.6235 44.5979 79.8514 41.6362 79.8514 41.6362H81.1547Z" fill="#F5866C"/>
<path d="M79.7807 42.8451C79.636 42.2198 77.432 36.7641 78.4876 34.1567C78.4876 34.1567 79.3248 34.3825 79.7734 34.8544C80.9203 36.062 81.203 41.5711 81.3762 42.0591C81.4375 42.2337 81.1745 42.2381 81.2352 42.5829L79.7807 42.8451Z" fill="#A6C5D2"/>
<path d="M69.9176 42.9219C69.9585 42.767 69.9907 42.656 70.0067 42.6158C70.2573 42.0423 72.2875 38.5189 72.0581 34.0728C72.0581 34.0728 70.4268 34.4614 69.8563 35.4213C69.0768 36.729 68.8167 41.3468 68.3966 42.0934C68.3053 42.2556 68.4675 42.1007 68.3966 42.4448L69.9176 42.9219Z" fill="#A6C5D2"/>
<path d="M78.5227 64.189L76.4451 65.219C76.7285 66.7057 77.1427 68.1785 77.3889 69.8427L78.2261 69.0069C78.1991 68.364 78.3927 65.0634 78.5227 64.189Z" fill="#F36647"/>
<path d="M77.2727 69.8425C77.3377 70.0668 77.1061 70.9347 77.2975 71.4577C77.4641 71.9172 78.1077 72.5126 78.1077 72.5126C79.2766 73.089 80.0634 72.7778 80.1898 72.4893C80.3147 72.1992 80.0079 71.6447 79.4833 71.1144C78.9595 70.5855 78.6607 69.6073 78.6607 69.6073L78.5227 69.1258C78.5102 68.8256 78.2377 68.8942 78.2377 68.8942C78.0281 68.9505 77.8659 68.9549 77.7417 68.9322C77.7417 68.9322 77.5649 68.9768 77.635 69.4575C77.635 69.4575 77.3815 68.9914 77.2479 68.7803C77.2479 68.7803 77.0608 69.1258 77.2727 69.8425Z" fill="#23110F"/>
<path d="M72.8443 69.7197C72.7785 69.9425 73.0101 70.8133 72.8194 71.3364C72.6521 71.7944 72.0093 72.3913 72.0093 72.3913C70.8397 72.9662 70.0529 72.655 69.9279 72.3665C69.8015 72.0772 70.1098 71.5198 70.6329 70.9916C71.1553 70.4641 71.4562 69.4859 71.4562 69.4859L71.5929 69.0016C71.6067 68.702 71.8792 68.7714 71.8792 68.7714C72.0896 68.827 72.2503 68.8321 72.3745 68.8094C72.3745 68.8094 72.5513 68.854 72.4797 69.3325C72.4797 69.3325 72.7347 68.8701 72.8684 68.6582C72.8684 68.6582 73.0569 69.0016 72.8443 69.7197Z" fill="#23110F"/>
<path d="M71.4131 45.2446C71.4131 45.2446 70.9536 50.0275 71.2495 69.3724C71.2495 69.3724 71.9369 69.6398 73.1452 69.3454C73.1452 69.3454 74.3462 59.1718 74.9533 51.5113C74.9533 51.5113 75.9096 61.8529 76.7563 69.4922C76.7563 69.4922 78.0012 69.9481 78.9239 69.349C78.9239 69.349 79.417 52.6904 78.7405 45.2446H71.4131Z" fill="#456BBD"/>
<path d="M76.6182 33.724C76.5035 33.6955 76.3756 33.6298 76.3756 33.6298C75.77 32.4324 75.8774 29.7856 75.8774 29.7856C75.8774 29.7856 73.8954 30.994 73.8793 31.2701C73.8129 32.374 73.6726 33.3997 73.4951 33.7759C73.4768 33.8146 73.4016 33.8592 73.2883 33.9074V36.2583L76.5626 35.7586L76.6182 33.724Z" fill="#F5866C"/>
<path d="M72.966 33.7898C72.966 33.7898 72.9492 33.9052 73.614 33.4062C73.614 33.4062 73.9683 35.9946 75.0634 35.9873C75.0634 35.9873 76.2257 35.0661 76.2775 33.4062C76.2775 33.4062 76.6319 33.7576 77.1498 33.8358C77.1498 33.8358 77.3544 36.6996 77.2338 37.0137C77.1126 37.3271 76.0072 39.3346 75.3994 39.4639C74.7909 39.5925 72.928 39.8146 72.928 39.7211C72.928 39.6298 72.966 33.7898 72.966 33.7898Z" fill="#A6C5D2"/>
<path d="M76.2256 33.2654C76.0247 32.6708 75.9371 31.8891 75.8969 31.2192L74.2195 30.9043C74.0194 31.0657 73.8842 31.198 73.8791 31.2696C73.8535 31.7021 73.8148 32.1192 73.7688 32.4947C74.221 32.8987 75.3249 33.7381 76.2256 33.2654Z" fill="#D26758"/>
<path d="M76.8997 29.1999C76.923 28.503 76.8887 27.9704 76.8887 27.9704C76.8748 27.7322 76.8178 27.5408 76.7324 27.3794H73.1834C73.0964 27.5408 73.0409 27.7322 73.027 27.9704C73.027 27.9704 72.9912 28.503 73.0153 29.1999C72.4725 28.7879 72.3549 29.5097 72.5317 30.0189C72.6851 30.455 72.9949 30.4608 73.1278 30.4587C73.1439 30.558 73.1614 30.6581 73.1812 30.7545C73.3324 31.4968 74.2251 32.4238 74.7204 32.6284C74.7204 32.6284 74.7803 32.6583 74.9571 32.6583C75.1347 32.6583 75.1953 32.6284 75.1953 32.6284C75.6899 32.4238 76.5841 31.4968 76.7324 30.7545C76.7536 30.6581 76.7711 30.558 76.7872 30.4587C76.9194 30.4608 77.0699 30.455 77.2233 30.0189C77.4001 29.5097 77.273 28.747 76.8997 29.1999Z" fill="#F5866C"/>
<path d="M72.7707 27.3794C72.6706 27.8221 72.6757 28.3868 72.8445 29.1108C72.8445 29.1108 73.0425 29.3884 73.125 29.3796C73.2061 29.3665 73.182 28.8376 73.3369 27.7001C73.3369 27.7001 73.3646 27.4985 73.6583 27.3794H72.7707Z" fill="#371D15"/>
<path d="M74.385 27.3794C74.8263 27.6227 76.0923 28.286 76.3721 28.0573C76.3721 28.0573 76.5606 29.2496 76.6585 29.4417C76.7849 29.6821 76.9529 29.1247 76.9529 29.1247C76.9529 29.1247 77.1165 28.2319 76.9565 27.3794H74.385Z" fill="#371D15"/>
<path d="M71.3945 40.7168H78.7416C78.8359 39.8058 78.9593 39.0439 78.9608 38.7999C78.9703 36.4913 78.4874 34.1565 78.4874 34.1565C78.0951 34.0725 77.5742 33.8928 76.8882 33.7715C76.8882 33.7715 76.8013 38.0569 74.953 38.0752C72.9104 38.0949 73.2881 33.686 73.2881 33.686C72.4472 33.9695 71.2827 34.2705 71.1301 34.4056C71.1301 34.4056 70.8327 37.9283 71.0848 38.9248C71.1418 39.152 71.2901 39.8599 71.3945 40.7168Z" fill="#A6C5D2"/>
<path d="M78.8076 40.1428C78.6812 41.1809 78.5483 42.5814 78.7097 43.6144C78.8558 44.5444 78.7776 45.1478 78.8828 45.695C78.7835 45.7534 77.0894 46.427 75.3149 46.4131C73.3037 46.4021 71.1902 45.695 71.1902 45.695C71.2808 45.1602 71.1953 44.5655 71.3845 43.6801C71.6088 42.6398 71.4773 41.2028 71.3188 40.1662C71.3188 40.1662 71.8133 40.3554 72.4796 40.1662V38.0425H77.722V40.1428C77.722 40.1428 78.2882 40.3707 78.8076 40.1428Z" fill="#456BBD"/>
<path d="M73.1052 28.8994C73.1052 28.8994 73.2542 32.0378 74.9571 32.1306C74.9571 32.1306 76.4752 32.1277 76.6914 29.1281L76.7783 29.1668C76.7783 29.1668 77.2488 32.3965 74.9571 32.7969C74.9571 32.7969 72.6456 32.7406 73.0102 29.0696L73.1052 28.8994Z" fill="#371D15"/>
<path d="M74.2116 31.9051C74.2116 31.9051 74.048 31.2886 74.2211 31.1768C74.395 31.0665 74.9173 31.187 74.8939 30.897C74.8939 30.897 74.5294 30.7574 74.0801 30.9072C73.6294 31.057 74.0998 31.8657 74.0998 31.8657L74.2116 31.9051Z" fill="#371D15"/>
<path d="M75.5793 31.9051C75.5793 31.9051 75.7422 31.2886 75.5691 31.1768C75.3959 31.0665 74.8728 31.187 74.8955 30.897C74.8955 30.897 75.2608 30.7574 75.7115 30.9072C76.1623 31.057 75.6918 31.8657 75.6918 31.8657L75.5793 31.9051Z" fill="#371D15"/>
<path d="M73.078 38.1679H72.4746V33.8694L73.078 33.686V38.1679Z" fill="#456BBD"/>
<path d="M73.0779 38.4138C73.0779 38.5833 72.969 38.7199 72.8353 38.7199C72.7002 38.7199 72.5913 38.5833 72.5913 38.4138C72.5913 38.2443 72.7002 38.1069 72.8353 38.1069C72.969 38.1069 73.0779 38.2443 73.0779 38.4138Z" fill="#EA7B20"/>
<path d="M77.1091 38.1679H77.7126V33.8694L77.1091 33.686V38.1679Z" fill="#456BBD"/>
<path d="M77.1143 38.4138C77.1143 38.5833 77.2231 38.7199 77.3583 38.7199C77.492 38.7199 77.6023 38.5833 77.6023 38.4138C77.6023 38.2443 77.492 38.1069 77.3583 38.1069C77.2231 38.1069 77.1143 38.2443 77.1143 38.4138Z" fill="#EA7B20"/>
<path d="M72.766 28.7149C72.766 28.7149 74.8335 27.3758 77.0492 28.571C77.0492 28.571 77.6008 26.1229 74.9569 26.025C74.9569 26.025 72.1392 25.8351 72.766 28.7149Z" fill="#456BBD"/>
<path d="M72.8254 28.5945C72.8254 28.5945 73.0475 28.7706 73.5538 28.6902C74.0615 28.6069 74.9141 28.2855 76.1231 28.6529C76.1231 28.6529 76.5951 28.8487 76.9457 28.5455C76.9457 28.5455 74.9659 26.7893 72.8254 28.5945Z" fill="#365CA4"/>
<path d="M74.9286 47.1291C72.5244 47.1291 70.5745 45.18 70.5745 42.7758C70.5745 40.373 72.5244 38.4239 74.9286 38.4239C77.3335 38.4239 79.2819 40.373 79.2819 42.7758C79.2819 45.18 77.3335 47.1291 74.9286 47.1291ZM74.9286 36.9248C71.6966 36.9248 69.0754 39.5445 69.0754 42.7758C69.0754 46.0084 71.6966 48.6282 74.9286 48.6282C78.1605 48.6282 80.781 46.0084 80.781 42.7758C80.781 39.5445 78.1605 36.9248 74.9286 36.9248Z" fill="#0E1013"/>
<path d="M74.9285 46.8027C72.704 46.8027 70.9017 45.0004 70.9017 42.7759C70.9017 40.5529 72.704 38.7506 74.9285 38.7506C77.1523 38.7506 78.9545 40.5529 78.9545 42.7759C78.9545 45.0004 77.1523 46.8027 74.9285 46.8027ZM74.9285 37.3647C71.9384 37.3647 69.5151 39.7872 69.5151 42.7759C69.5151 45.766 71.9384 48.1885 74.9285 48.1885C77.9179 48.1885 80.3411 45.766 80.3411 42.7759C80.3411 39.7872 77.9179 37.3647 74.9285 37.3647Z" fill="#181C21"/>
<path d="M74.9285 45.7059C73.3096 45.7059 71.9975 44.3946 71.9975 42.7757C71.9975 41.1582 73.3096 39.8469 74.9285 39.8469C76.5467 39.8469 77.8587 41.1582 77.8587 42.7757C77.8587 44.3946 76.5467 45.7059 74.9285 45.7059ZM74.9285 39.1719C72.9378 39.1719 71.324 40.7857 71.324 42.7757C71.324 44.7671 72.9378 46.3802 74.9285 46.3802C76.9192 46.3802 78.5337 44.7671 78.5337 42.7757C78.5337 40.7857 76.9192 39.1719 74.9285 39.1719Z" fill="#678098"/>
<path d="M74.9283 47.0575C72.5628 47.0575 70.6459 45.1405 70.6459 42.7757C70.6459 40.4117 72.5628 38.494 74.9283 38.494C77.2931 38.494 79.2101 40.4117 79.2101 42.7757C79.2101 45.1405 77.2931 47.0575 74.9283 47.0575ZM74.9283 38.25C72.4277 38.25 70.4011 40.2765 70.4011 42.7757C70.4011 45.2764 72.4277 47.3029 74.9283 47.3029C77.4283 47.3029 79.4548 45.2764 79.4548 42.7757C79.4548 40.2765 77.4283 38.25 74.9283 38.25Z" fill="#626F82"/>
<path d="M74.9283 46.4046C72.9244 46.4046 71.2989 44.7813 71.2989 42.7759C71.2989 40.7721 72.9244 39.1473 74.9283 39.1473C76.9329 39.1473 78.5569 40.7721 78.5569 42.7759C78.5569 44.7813 76.9329 46.4046 74.9283 46.4046ZM78.8966 42.6854C78.8966 42.6313 78.8937 42.5765 78.89 42.5224C78.8316 41.6042 78.4605 40.7706 77.8834 40.1255C77.8461 40.0861 77.8103 40.0466 77.7716 40.0064C77.7394 39.9743 77.7073 39.9436 77.6751 39.9115C77.635 39.8742 77.5955 39.837 77.5546 39.8012C76.9081 39.2313 76.076 38.8675 75.1599 38.8142C75.1044 38.8113 75.051 38.8091 74.997 38.8091L74.9283 38.8076L74.8603 38.8091C74.8063 38.8091 74.7515 38.8113 74.6967 38.8142C73.7813 38.8675 72.9478 39.2313 72.3012 39.8012C72.2603 39.837 72.2209 39.8742 72.1822 39.9115C72.1486 39.9436 72.1164 39.9743 72.0843 40.0064C72.047 40.0466 72.0098 40.0861 71.9725 40.1255C71.3954 40.7706 71.0242 41.6042 70.9673 42.5224C70.9629 42.5765 70.9607 42.6313 70.9592 42.6854C70.9592 42.7153 70.9585 42.746 70.9585 42.7759L70.9592 42.822C70.9592 42.876 70.9607 42.9308 70.9629 42.9856C71.0118 43.9105 71.3756 44.7513 71.952 45.403C71.9878 45.4439 72.0251 45.4834 72.0631 45.5228C72.0945 45.555 72.1252 45.5878 72.1588 45.62C72.1968 45.6565 72.237 45.6938 72.2779 45.731C72.9266 46.3133 73.7689 46.6858 74.6967 46.7384C74.7515 46.7421 74.8063 46.7428 74.8603 46.7443L74.9283 46.7457L74.997 46.7443C75.051 46.7428 75.1044 46.7421 75.1599 46.7384C76.0869 46.6858 76.9307 46.3133 77.578 45.731C77.6189 45.6938 77.6591 45.6565 77.6985 45.62C77.7307 45.5878 77.7628 45.555 77.7935 45.5228C77.8322 45.4834 77.8695 45.4439 77.9038 45.403C78.4787 44.7513 78.844 43.9105 78.893 42.9856C78.8952 42.9308 78.8966 42.876 78.8974 42.822V42.7759C78.8974 42.746 78.8974 42.7153 78.8966 42.6854Z" fill="#70849A"/>
<path d="M78.8931 42.9851C78.8442 43.9099 78.4789 44.7508 77.904 45.4024C77.8696 45.4433 77.8324 45.4828 77.7937 45.5222C77.763 45.5544 77.7308 45.5873 77.6987 45.6194C77.6592 45.6559 77.6191 45.6932 77.5782 45.7305C76.9309 46.3127 76.0871 46.6853 75.16 46.7379C75.1045 46.7415 75.0512 46.7423 74.9971 46.7437L74.9285 46.7452L74.8605 46.7437C74.8065 46.7423 74.7517 46.7415 74.6969 46.7379C73.7691 46.6853 72.9268 46.3127 72.278 45.7305C72.2371 45.6932 72.1969 45.6559 72.159 45.6194C72.1254 45.5873 72.0947 45.5544 72.0633 45.5222C72.0253 45.4828 71.988 45.4433 71.9522 45.4024C71.3758 44.7508 71.012 43.9099 70.9631 42.9851C70.9609 42.9303 70.9594 42.8755 70.9594 42.8214L70.9587 42.7754C70.9587 42.7454 70.9594 42.7148 70.9594 42.6848C70.9609 42.6307 70.9631 42.576 70.9674 42.5219C71.0244 41.6036 71.3955 40.77 71.9727 40.125C72.0099 40.0855 72.0472 40.0461 72.0844 40.0059C72.1166 39.9737 72.1487 39.9431 72.1823 39.9109C72.2211 39.8737 72.2605 39.8364 72.3014 39.8006C72.948 39.2308 73.7815 38.867 74.6969 38.8136C74.7517 38.8107 74.8065 38.8085 74.8605 38.8085L74.9285 38.8071L74.9971 38.8085C75.0512 38.8085 75.1045 38.8107 75.16 38.8136C76.0762 38.867 76.9082 39.2308 77.5548 39.8006C77.5957 39.8364 77.6351 39.8737 77.6753 39.9109C77.7075 39.9431 77.7396 39.9737 77.7718 40.0059C77.8105 40.0461 77.8463 40.0855 77.8835 40.125C78.4607 40.77 78.8318 41.6036 78.8902 42.5219C78.8939 42.576 78.8968 42.6307 78.8968 42.6848C78.8975 42.7148 78.8975 42.7454 78.8975 42.7754V42.8214C78.8968 42.8755 78.8953 42.9303 78.8931 42.9851ZM74.9285 38.4937C72.563 38.4937 70.646 40.4113 70.646 42.7754C70.646 45.1402 72.563 47.0571 74.9285 47.0571C77.2932 47.0571 79.2102 45.1402 79.2102 42.7754C79.2102 40.4113 77.2932 38.4937 74.9285 38.4937Z" fill="#C1CFE0"/>
<path d="M74.8604 38.8086V46.7438C74.8064 46.7423 74.7516 46.7416 74.6968 46.738V38.8137C74.7516 38.8108 74.8064 38.8086 74.8604 38.8086Z" fill="#9CB2C8"/>
<path d="M75.1602 38.8137V46.738C75.1047 46.7416 75.0514 46.7423 74.9973 46.7438V38.8086C75.0514 38.8086 75.1047 38.8108 75.1602 38.8137Z" fill="#9CB2C8"/>
<path d="M78.8976 42.8218C78.8969 42.8758 78.8954 42.9306 78.8932 42.9854H70.9631C70.9609 42.9306 70.9595 42.8758 70.9595 42.8218H78.8976Z" fill="#9CB2C8"/>
<path d="M78.8969 42.6849H70.9595C70.9609 42.6308 70.9631 42.576 70.9675 42.522H78.8903C78.8939 42.576 78.8969 42.6308 78.8969 42.6849Z" fill="#9CB2C8"/>
<path d="M77.6989 45.6194C77.6595 45.6559 77.6193 45.6932 77.5784 45.7304L75.1603 43.3109L74.814 42.9653L74.7161 42.8681L74.6971 42.8484L71.9729 40.1249C72.0102 40.0855 72.0474 40.046 72.0847 40.0059L74.6971 42.6183L74.7161 42.638L74.8323 42.7534L74.9002 42.8214L74.9287 42.8484L74.9974 42.9164L75.0441 42.9653L75.0638 42.985L75.1603 43.08L77.6989 45.6194Z" fill="#9CB2C8"/>
<path d="M77.904 45.4031C77.8697 45.444 77.8324 45.4835 77.7937 45.5229L75.2543 42.9857L75.1601 42.8886L75.1396 42.8688L75.0242 42.7541L74.9972 42.7257L74.7941 42.5226L74.6969 42.4269L72.1824 39.9116C72.2211 39.8743 72.2605 39.8371 72.3015 39.8013L74.6969 42.1953L75.0439 42.5423L75.1396 42.6387L75.1601 42.6584L75.1864 42.6855L77.904 45.4031Z" fill="#9CB2C8"/>
<path d="M77.8837 40.1249L75.1866 42.8214L75.1603 42.8484L75.1398 42.8681L75.0441 42.9653L72.2783 45.7304C72.2373 45.6932 72.1972 45.6559 72.1592 45.6194L74.6971 43.08L74.7943 42.985L74.8607 42.9178L74.9287 42.8484L74.9572 42.8214L74.9974 42.7819L75.0244 42.7534L75.1398 42.638L75.1603 42.6183L75.2545 42.5219L77.772 40.0059C77.8107 40.046 77.8465 40.0855 77.8837 40.1249Z" fill="#9CB2C8"/>
<path d="M77.6753 39.9116L75.16 42.4269L75.0635 42.5226L75.0438 42.5423L74.9971 42.5905L74.9284 42.657L74.764 42.8221L74.7158 42.8688L74.6968 42.8886L74.6004 42.9857L72.0632 45.5229C72.0252 45.4835 71.9879 45.444 71.9521 45.4031L74.6968 42.6584L74.7158 42.6387L74.8137 42.5423L77.5547 39.8013C77.5956 39.8371 77.6351 39.8743 77.6753 39.9116Z" fill="#9CB2C8"/>
<path d="M74.9284 46.2822C72.991 46.2822 71.4218 44.713 71.4218 42.7756C71.4218 40.8397 72.991 39.2697 74.9284 39.2697C76.8651 39.2697 78.4358 40.8397 78.4358 42.7756C78.4358 44.713 76.8651 46.2822 74.9284 46.2822ZM74.9284 39.147C72.9245 39.147 71.2991 40.7717 71.2991 42.7756C71.2991 44.781 72.9245 46.4042 74.9284 46.4042C76.9331 46.4042 78.5571 44.781 78.5571 42.7756C78.5571 40.7717 76.9331 39.147 74.9284 39.147Z" fill="#C1CFE0"/>
<path d="M74.9283 46.1744C73.0515 46.1744 71.529 44.6534 71.529 42.7759C71.529 40.8999 73.0515 39.3789 74.9283 39.3789C76.805 39.3789 78.3268 40.8999 78.3268 42.7759C78.3268 44.6534 76.805 46.1744 74.9283 46.1744ZM74.9283 39.27C72.9908 39.27 71.4216 40.84 71.4216 42.7759C71.4216 44.7133 72.9908 46.2825 74.9283 46.2825C76.8649 46.2825 78.4356 44.7133 78.4356 42.7759C78.4356 40.84 76.8649 39.27 74.9283 39.27Z" fill="#44576A"/>
<path d="M74.9285 46.0656C73.1131 46.0656 71.6389 44.5928 71.6389 42.776C71.6389 40.9605 73.1131 39.4878 74.9285 39.4878C76.7447 39.4878 78.2175 40.9605 78.2175 42.776C78.2175 44.5928 76.7447 46.0656 74.9285 46.0656ZM74.9285 39.3789C73.0518 39.3789 71.5293 40.8999 71.5293 42.776C71.5293 44.6535 73.0518 46.1745 74.9285 46.1745C76.8053 46.1745 78.327 44.6535 78.327 42.776C78.327 40.8999 76.8053 39.3789 74.9285 39.3789Z" fill="#C1CFE0"/>
<path d="M76.0693 42.7759C76.0693 43.4063 75.558 43.9177 74.9282 43.9177C74.2978 43.9177 73.7878 43.4063 73.7878 42.7759C73.7878 42.1469 74.2978 41.6362 74.9282 41.6362C75.558 41.6362 76.0693 42.1469 76.0693 42.7759Z" fill="#C1CFE0"/>
<path d="M74.9284 43.6503C74.4455 43.6503 74.054 43.2587 74.054 42.7758C74.054 42.2944 74.4455 41.9028 74.9284 41.9028C75.412 41.9028 75.8036 42.2944 75.8036 42.7758C75.8036 43.2587 75.412 43.6503 74.9284 43.6503Z" fill="#8E9EB2"/>
<path d="M75.5867 42.7757C75.5867 43.1402 75.2916 43.4346 74.9285 43.4346C74.5647 43.4346 74.2695 43.1402 74.2695 42.7757C74.2695 42.4126 74.5647 42.1182 74.9285 42.1182C75.2916 42.1182 75.5867 42.4126 75.5867 42.7757Z" fill="#70849A"/>
<path d="M75.1789 42.776H75.1723C75.1716 42.9111 75.0627 43.02 74.9283 43.02C74.7939 43.02 74.6843 42.9111 74.6843 42.776C74.6843 42.6423 74.7939 42.5334 74.9283 42.5334C75.0627 42.5334 75.1716 42.6423 75.1723 42.776H75.1847C75.1847 42.635 75.07 42.5195 74.9283 42.5195C74.7858 42.5195 74.6711 42.635 74.6711 42.776C74.6711 42.9184 74.7858 43.0338 74.9283 43.0338C75.07 43.0338 75.1847 42.9184 75.1847 42.776H75.1789Z" fill="#38444E"/>
<path d="M75.0304 42.3322H75.01C75.01 42.3768 74.9734 42.414 74.9289 42.414C74.8836 42.414 74.8463 42.3768 74.8463 42.3322C74.8463 42.2862 74.8836 42.2504 74.9289 42.2504C74.9734 42.2504 75.01 42.2862 75.01 42.3322H75.0509C75.0509 42.2643 74.9961 42.2095 74.9289 42.2095C74.8609 42.2095 74.8054 42.2643 74.8054 42.3322C74.8054 42.3994 74.8609 42.4535 74.9289 42.4535C74.9961 42.4535 75.0509 42.3994 75.0509 42.3322H75.0304Z" fill="#161A1D"/>
<path d="M75.0304 43.2365H75.01C75.01 43.2811 74.9734 43.3169 74.9289 43.3169C74.8836 43.3169 74.8463 43.2811 74.8463 43.2365C74.8463 43.1905 74.8836 43.1547 74.9289 43.1547C74.9734 43.1547 75.01 43.1905 75.01 43.2365H75.0509C75.0509 43.1686 74.9961 43.1138 74.9289 43.1138C74.8609 43.1138 74.8054 43.1686 74.8054 43.2365C74.8054 43.303 74.8609 43.3578 74.9289 43.3578C74.9961 43.3578 75.0509 43.303 75.0509 43.2365H75.0304Z" fill="#161A1D"/>
<path d="M74.4765 42.6813V42.7025C74.5211 42.7025 74.5576 42.7383 74.5583 42.7844C74.5576 42.8289 74.5211 42.8662 74.4765 42.8662C74.4312 42.8662 74.3954 42.8289 74.3954 42.7844C74.3954 42.7383 74.4312 42.7025 74.4765 42.7025V42.6616C74.4086 42.6616 74.3545 42.7164 74.3545 42.7844C74.3545 42.8516 74.4086 42.9056 74.4765 42.9056C74.5437 42.9056 74.5985 42.8516 74.5985 42.7844C74.5985 42.7164 74.5437 42.6616 74.4765 42.6616V42.6813Z" fill="#161A1D"/>
<path d="M75.3805 42.6813V42.7025C75.4244 42.7025 75.4616 42.7383 75.4616 42.7844C75.4616 42.8289 75.4244 42.8647 75.3805 42.8662C75.3353 42.8647 75.2987 42.8289 75.2987 42.7844C75.2987 42.7383 75.3353 42.7025 75.3805 42.7025V42.6616C75.3126 42.6616 75.2578 42.7164 75.2578 42.7844C75.2578 42.8516 75.3126 42.9056 75.3805 42.9056C75.4478 42.9056 75.5018 42.8516 75.5018 42.7844C75.5018 42.7164 75.4478 42.6616 75.3805 42.6616V42.6813Z" fill="#161A1D"/>
<path d="M69.1696 44.4673C69.1696 44.4673 68.206 45.4608 68.5319 46.282C68.8577 47.1053 69.841 46.8438 70.2216 46.3806L69.1696 44.4673Z" fill="#F5866C"/>
<path d="M80.8613 43.9653C80.8613 43.9653 81.9513 45.1269 81.6254 45.9495C81.3011 46.7714 80.1753 46.447 79.7947 45.9824L80.8613 43.9653Z" fill="#F5866C"/>
<path d="M69.5151 45.4134C69.5151 45.4134 69.6415 46.2937 70.2216 46.4865C70.6329 46.6232 70.8133 46.4164 70.8133 46.1746C70.8133 46.1746 70.4714 45.222 70.2347 45.2446C69.9995 45.2658 69.8534 45.2446 69.8534 45.2446C69.8534 45.2446 69.8534 44.9078 69.7716 44.9239C69.6912 44.9414 69.5341 45.1036 69.5151 45.4134Z" fill="#F5866C"/>
<path d="M80.5338 45.1648C80.5338 45.1648 80.4067 46.0473 79.8251 46.2387C79.4153 46.3761 79.2349 46.1686 79.2349 45.9283C79.2349 45.9283 79.5775 44.9742 79.8127 44.9968C80.0487 45.0187 80.1948 44.9968 80.1948 44.9968C80.1948 44.9968 80.1948 44.6608 80.2766 44.6768C80.357 44.6936 80.5133 44.8558 80.5338 45.1648Z" fill="#F5866C"/>
<path d="M41.0356 71.5035C41.0356 71.5035 40.9654 72.0595 41.0356 72.6424C41.0356 72.6424 41.7194 72.8346 42.2607 72.6958V72.5424C42.2607 72.5424 43.1432 72.6636 43.5136 72.6958H44.6094C44.6094 72.6958 44.6803 72.4145 44.5239 72.2589C44.3669 72.1011 42.6311 71.7636 42.504 71.0659L41.0356 71.5035Z" fill="#1E1311"/>
<path d="M29.8902 69.4881C29.8902 69.4881 29.4175 69.0761 28.3707 69.0498C28.3707 69.0498 28.05 69.6839 28.0821 70.2413L28.2333 70.2698C28.2333 70.2698 27.944 71.1136 27.8425 71.4701L27.6321 72.5462C27.6321 72.5462 27.8951 72.6704 28.0784 72.5462C28.2618 72.4227 28.9266 70.7841 29.6367 70.7922L29.8902 69.4881Z" fill="#1E1311"/>
<path d="M37.9225 67.5194C37.9225 67.5194 39.014 72.1686 38.3623 72.6997C37.7136 73.2315 31.8232 72.0707 29.5446 71.3869C29.5446 71.3869 28.9405 69.7695 29.9347 69.3129L35.259 70.0814C35.259 70.0814 33.4136 68.396 33.2353 66.7041L37.9225 67.5194Z" fill="#2B5291"/>
<path d="M43.2969 46.7938L43.779 46.0874L44.3985 46.7887L44.0822 47.5996L43.2969 46.7938Z" fill="#F79375"/>
<path d="M39.3521 50.1305C39.3521 50.1305 39.377 50.2642 39.3521 50.3818C39.3521 50.3818 39.3697 50.5147 39.2805 50.6185C39.1914 50.7215 39.179 51.032 39.1403 51.3519C39.1403 51.3519 39.0796 51.6091 38.786 51.6054C38.5953 51.6033 38.4996 51.612 37.9663 51.5017C37.9663 51.5017 37.7457 51.4542 37.4966 51.3899C37.5448 51.8275 37.6215 52.2659 37.6872 52.5953C37.6872 52.5953 37.9363 52.9014 38.2395 53.2901H33.9644C34.3106 52.7188 34.6781 52.5084 34.6781 52.5084C35.4101 51.7669 35.8046 51.1671 35.7557 50.3547C35.5913 50.0713 34.6014 48.2668 35.3224 47.0169C35.798 46.1892 36.5154 45.9802 37.1349 45.9839V45.9824C37.8063 46.0051 38.1928 46.0891 38.6895 46.5267C38.6895 46.5267 39.5246 47.1272 39.3346 48.5437C39.3346 48.5437 39.1564 48.8126 39.6049 49.5548C39.6049 49.5548 39.7722 49.7798 39.6677 49.8719C39.5815 49.9471 39.3521 50.1305 39.3521 50.1305Z" fill="#F79375"/>
<path d="M36.2255 50.1748C36.4709 50.9711 37.1511 51.2823 37.5163 51.3948L37.4966 51.3897C37.5339 51.7228 37.5872 52.0574 37.6391 52.3438C36.151 51.972 36.2255 50.1748 36.2255 50.1748Z" fill="#F17E65"/>
<path d="M33.3655 56.1038C33.3837 55.8248 33.3991 55.5574 33.4064 55.3083C33.4152 55.0796 33.5211 54.4046 33.5211 54.4046L33.5328 54.3564C33.5452 54.3052 33.5583 54.257 33.5708 54.2088L33.5846 54.1649C33.5993 54.116 33.6146 54.0663 33.6307 54.0188V54.0181C33.6847 53.8567 33.7454 53.7105 33.8075 53.5798L33.8199 53.5535C33.8389 53.5162 33.8557 53.4819 33.8747 53.4468L33.8929 53.4132C33.9105 53.3803 33.9302 53.3489 33.9477 53.3182L33.966 53.2861C33.985 53.2561 34.0032 53.2262 34.023 53.197L34.0332 53.1816C34.096 53.0867 34.1581 53.0012 34.2188 52.9296L34.2348 52.9106L34.2845 52.8536L34.3057 52.8317L34.3503 52.782L34.3722 52.7594L34.4145 52.7185L34.4343 52.7002C34.4788 52.6593 34.5183 52.6242 34.5519 52.5987L34.5709 52.5826L34.5943 52.5651L34.6125 52.5526L34.6286 52.5402L34.6447 52.5293L34.6564 52.5227L34.6673 52.5146L34.6732 52.511L34.6783 52.5081C34.7331 52.4525 34.7864 52.3978 34.8368 52.3437C35.0596 52.1055 35.2466 51.8813 35.392 51.6562L35.3906 51.6614C36.2241 52.7608 36.8969 53.094 37.5143 53.1568C37.618 53.167 37.8445 53.0889 38.022 53.0121C38.1739 53.2043 38.3602 53.4432 38.5443 53.6835L38.5473 53.6857L38.5509 53.6923C38.6671 53.8457 38.7839 54.0006 38.8877 54.1445L38.8906 54.1467L38.8965 54.1555C38.9286 54.2015 38.9593 54.2431 38.9907 54.287L38.9965 54.295L39.0017 54.3016C39.0301 54.3439 39.0586 54.3848 39.0849 54.4228L39.0922 54.4353C39.1193 54.4725 39.1426 54.5098 39.1653 54.5441L39.1675 54.547L39.1711 54.5543C39.1938 54.5887 39.2135 54.6208 39.2325 54.6508C39.3465 54.8487 39.627 55.4003 39.8308 56.1038H33.3655Z" fill="#7097D6"/>
<path d="M33.4064 55.3085C33.41 55.2011 33.4356 54.9944 33.4619 54.8044C33.6204 54.7738 33.8498 54.6934 33.9645 54.4815C33.9645 54.4815 34.1282 51.9115 35.9816 52.344C36.1065 52.4674 37.5559 52.9459 38.0402 55.5927C38.0402 55.5927 38.6955 55.5182 39.562 55.3385C39.9309 56.2327 40.3568 57.7537 39.7775 59.0292C39.7775 59.0292 39.0995 62.6578 38.9856 64.4418C38.9856 64.4418 38.9227 65.5289 38.5765 65.6991C38.2309 65.8686 33.5087 64.8108 32.979 64.2197C32.4216 63.4994 33.307 58.2146 33.4064 55.3085Z" fill="#456BBD"/>
<path d="M39.2807 47.127C39.2807 47.127 39.4115 47.3929 38.9804 47.2592C38.7401 47.1861 37.7173 47.0773 37.3849 47.2592C37.0533 47.4426 37.1102 48.4449 36.932 48.5771C36.932 48.5771 36.7493 48.8226 36.4725 48.8226C36.2665 48.8226 35.9406 48.3725 35.7573 48.4719C35.5754 48.572 35.7463 49.5677 36.2255 49.7007C36.2255 49.7007 36.2402 49.9681 36.1225 50.1748C36.0064 50.383 35.8763 50.7929 35.7427 50.7461C35.609 50.6979 35.5257 49.9505 35.3262 49.735C35.1268 49.5188 33.9302 47.642 35.4263 46.2635C35.4263 46.2635 37.7838 44.4371 39.2807 47.127Z" fill="#532F28"/>
<path d="M39.0192 46.7137C39.0192 46.7137 35.8318 47.0527 34.8762 48.9083C34.8762 48.9083 34.7389 49.0741 34.5394 48.7709C34.34 48.4663 33.8644 46.6823 35.08 45.8093C36.2935 44.9363 38.2112 44.9224 39.0192 46.7137Z" fill="#7097D6"/>
<path d="M37.0393 47.2122C37.0393 47.2122 38.2396 47.7828 39.1513 47.2948C39.1513 47.2948 39.6547 47.0143 40.7468 46.8382C40.7468 46.8382 40.7644 46.7812 40.6124 46.744C40.4612 46.7052 38.8496 46.3896 38.8496 46.3896C38.8496 46.3896 37.1072 47.0179 37.0393 47.2122Z" fill="#7097D6"/>
<path d="M42.2373 51.925C41.9093 52.5277 41.3789 52.7462 41.3789 52.7462C40.2378 53.514 36.8736 54.6543 36.8736 54.6543C36.2308 54.8574 34.774 55.6815 34.4643 53.9669C34.4643 53.9669 33.7571 52.7096 40.6126 51.101C40.6126 51.101 43.0636 46.9777 43.3945 46.584C43.3945 46.584 43.9767 46.7206 44.3186 47.2817C44.3186 47.2817 42.4521 51.532 42.2373 51.925Z" fill="#7097D6"/>
<path d="M37.6355 55.5759C37.6604 55.7074 37.7429 55.8016 37.8196 55.787C37.8978 55.7717 37.9387 55.654 37.9139 55.5233C37.889 55.3918 37.8065 55.2975 37.7298 55.3114C37.6531 55.326 37.6107 55.4451 37.6355 55.5759Z" fill="#EE9D2B"/>
<path d="M44.6316 45.8388C44.6316 45.8388 44.6032 46.6475 44.3862 46.8725C44.2839 46.9821 43.6688 46.7315 43.6403 46.2311C43.6403 46.2311 43.5775 45.2997 43.9617 44.6831C44.1078 44.45 44.7493 44.2323 45.0093 44.2608C45.0093 44.2608 45.1912 44.3251 45.07 44.4654C44.9465 44.6049 44.4928 44.8255 44.4928 44.8255C44.4928 44.8255 44.601 44.9432 44.5622 45.014C44.5622 45.014 44.6389 45.5875 44.6316 45.8388Z" fill="#885138"/>
<path d="M32.7926 62.8314C34.3874 63.5459 37.1211 63.1163 38.3126 63.4911C39.6195 62.6911 42.8391 61.8663 44.3542 61.8232C44.3542 61.8232 44.7063 61.9606 44.8956 62.7963C45.0862 63.6313 43.5565 69.098 42.8142 71.0661C42.8142 71.0661 41.3824 71.8785 40.8513 71.6893C40.3194 71.5001 41.2808 66.0253 41.2808 66.0253C41.2808 66.0253 38.6954 68.0775 36.9326 68.6575C31.6741 70.3889 32.6501 63.0235 32.7926 62.8314Z" fill="#456BBD"/>
<defs>
<linearGradient id="paint0_linear_1269_9311" x1="106.508" y1="42.6305" x2="114.502" y2="41.4673" gradientUnits="userSpaceOnUse">
<stop stop-color="white"/>
<stop offset="0.125" stop-color="white"/>
<stop offset="0.1875" stop-color="white"/>
<stop offset="0.203125" stop-color="white"/>
<stop offset="0.210937" stop-color="white"/>
<stop offset="0.214844" stop-color="#FFFEFE"/>
<stop offset="0.21875" stop-color="#FFFDFD"/>
<stop offset="0.222656" stop-color="#FFFCFB"/>
<stop offset="0.226562" stop-color="#FFFAF9"/>
<stop offset="0.230469" stop-color="#FEF9F8"/>
<stop offset="0.234375" stop-color="#FEF7F6"/>
<stop offset="0.238281" stop-color="#FEF6F5"/>
<stop offset="0.242187" stop-color="#FEF4F3"/>
<stop offset="0.246094" stop-color="#FEF3F1"/>
<stop offset="0.25" stop-color="#FEF1EF"/>
<stop offset="0.253906" stop-color="#FEF0EE"/>
<stop offset="0.257812" stop-color="#FEEEEC"/>
<stop offset="0.261719" stop-color="#FEEDEA"/>
<stop offset="0.265625" stop-color="#FEEBE8"/>
<stop offset="0.269531" stop-color="#FDEAE7"/>
<stop offset="0.273438" stop-color="#FDE8E5"/>
<stop offset="0.277344" stop-color="#FDE7E3"/>
<stop offset="0.28125" stop-color="#FDE5E1"/>
<stop offset="0.285156" stop-color="#FDE4E0"/>
<stop offset="0.289062" stop-color="#FDE2DF"/>
<stop offset="0.292969" stop-color="#FDE1DE"/>
<stop offset="0.296875" stop-color="#FDE0DC"/>
<stop offset="0.300781" stop-color="#FDDEDA"/>
<stop offset="0.304688" stop-color="#FCDCD8"/>
<stop offset="0.308594" stop-color="#FCDBD7"/>
<stop offset="0.3125" stop-color="#FCD9D5"/>
<stop offset="0.316406" stop-color="#FCD8D4"/>
<stop offset="0.320312" stop-color="#FCD7D2"/>
<stop offset="0.324219" stop-color="#FCD5D1"/>
<stop offset="0.328125" stop-color="#FCD4CF"/>
<stop offset="0.332031" stop-color="#FCD3CE"/>
<stop offset="0.335937" stop-color="#FCD1CC"/>
<stop offset="0.339844" stop-color="#FCD0CB"/>
<stop offset="0.34375" stop-color="#FBCEC9"/>
<stop offset="0.347656" stop-color="#FBCDC8"/>
<stop offset="0.351562" stop-color="#FBCBC6"/>
<stop offset="0.355469" stop-color="#FBCAC4"/>
<stop offset="0.359375" stop-color="#FBC8C2"/>
<stop offset="0.363281" stop-color="#FBC7C1"/>
<stop offset="0.367187" stop-color="#FBC5BF"/>
<stop offset="0.371094" stop-color="#FBC4BE"/>
<stop offset="0.375" stop-color="#FBC2BD"/>
<stop offset="0.378906" stop-color="#FAC1BC"/>
<stop offset="0.382812" stop-color="#FAC0BA"/>
<stop offset="0.386719" stop-color="#FABFB9"/>
<stop offset="0.390625" stop-color="#FABDB7"/>
<stop offset="0.394531" stop-color="#FABCB6"/>
<stop offset="0.398437" stop-color="#FABAB4"/>
<stop offset="0.402344" stop-color="#FAB8B3"/>
<stop offset="0.40625" stop-color="#FAB7B1"/>
<stop offset="0.410156" stop-color="#FAB6B0"/>
<stop offset="0.414062" stop-color="#FAB4AE"/>
<stop offset="0.417969" stop-color="#F9B3AD"/>
<stop offset="0.421875" stop-color="#F9B1AB"/>
<stop offset="0.425781" stop-color="#F9B0AA"/>
<stop offset="0.429687" stop-color="#F9AEA9"/>
<stop offset="0.433594" stop-color="#F9ADA8"/>
<stop offset="0.4375" stop-color="#F9ACA7"/>
<stop offset="0.441406" stop-color="#F9ABA6"/>
<stop offset="0.445312" stop-color="#F9A9A4"/>
<stop offset="0.449219" stop-color="#F9A8A2"/>
<stop offset="0.453125" stop-color="#F8A6A1"/>
<stop offset="0.457031" stop-color="#F8A5A0"/>
<stop offset="0.460937" stop-color="#F8A39E"/>
<stop offset="0.464844" stop-color="#F8A29D"/>
<stop offset="0.46875" stop-color="#F8A19C"/>
<stop offset="0.472656" stop-color="#F8A09B"/>
<stop offset="0.476562" stop-color="#F89E9A"/>
<stop offset="0.480469" stop-color="#F89D99"/>
<stop offset="0.484375" stop-color="#F89B97"/>
<stop offset="0.488281" stop-color="#F89A95"/>
<stop offset="0.492187" stop-color="#F79894"/>
<stop offset="0.496094" stop-color="#F79793"/>
<stop offset="0.5" stop-color="#F79692"/>
<stop offset="0.503906" stop-color="#F79591"/>
<stop offset="0.507812" stop-color="#F7938F"/>
<stop offset="0.511719" stop-color="#F7928E"/>
<stop offset="0.515625" stop-color="#F7908D"/>
<stop offset="0.519531" stop-color="#F78F8C"/>
<stop offset="0.523437" stop-color="#F78E8B"/>
<stop offset="0.527344" stop-color="#F78D8A"/>
<stop offset="0.53125" stop-color="#F68B89"/>
<stop offset="0.535156" stop-color="#F68A87"/>
<stop offset="0.539062" stop-color="#F68886"/>
<stop offset="0.542969" stop-color="#F68785"/>
<stop offset="0.546875" stop-color="#F68584"/>
<stop offset="0.550781" stop-color="#F68483"/>
<stop offset="0.554687" stop-color="#F68381"/>
<stop offset="0.558594" stop-color="#F68280"/>
<stop offset="0.5625" stop-color="#F6807F"/>
<stop offset="0.566406" stop-color="#F67F7F"/>
<stop offset="0.570312" stop-color="#F57D7E"/>
<stop offset="0.574219" stop-color="#F57C7C"/>
<stop offset="0.578125" stop-color="#F57B7B"/>
<stop offset="0.582031" stop-color="#F57A7A"/>
<stop offset="0.585937" stop-color="#F57879"/>
<stop offset="0.589844" stop-color="#F57778"/>
<stop offset="0.59375" stop-color="#F57677"/>
<stop offset="0.597656" stop-color="#F57576"/>
<stop offset="0.601562" stop-color="#F47375"/>
<stop offset="0.605469" stop-color="#F47274"/>
<stop offset="0.609375" stop-color="#F47073"/>
<stop offset="0.613281" stop-color="#F46F72"/>
<stop offset="0.617187" stop-color="#F46E71"/>
<stop offset="0.621094" stop-color="#F46D70"/>
<stop offset="0.625" stop-color="#F46B6F"/>
<stop offset="0.628906" stop-color="#F46A6E"/>
<stop offset="0.632812" stop-color="#F4686D"/>
<stop offset="0.636719" stop-color="#F4676C"/>
<stop offset="0.640625" stop-color="#F3666B"/>
<stop offset="0.644531" stop-color="#F3656A"/>
<stop offset="0.648437" stop-color="#F36469"/>
<stop offset="0.652344" stop-color="#F36269"/>
<stop offset="0.65625" stop-color="#F36168"/>
<stop offset="0.660156" stop-color="#F36067"/>
<stop offset="0.664062" stop-color="#F35E66"/>
<stop offset="0.667969" stop-color="#F35D65"/>
<stop offset="0.671875" stop-color="#F35C64"/>
<stop offset="0.675781" stop-color="#F35B63"/>
<stop offset="0.679687" stop-color="#F25962"/>
<stop offset="0.683594" stop-color="#F25861"/>
<stop offset="0.6875" stop-color="#F25760"/>
<stop offset="0.691406" stop-color="#F2565F"/>
<stop offset="0.695312" stop-color="#F2545E"/>
<stop offset="0.699219" stop-color="#F2535E"/>
<stop offset="0.703125" stop-color="#F2525D"/>
<stop offset="0.707031" stop-color="#F2515C"/>
<stop offset="0.710937" stop-color="#F24F5B"/>
<stop offset="0.714844" stop-color="#F24E5B"/>
<stop offset="0.71875" stop-color="#F14C5A"/>
<stop offset="0.722656" stop-color="#F14B59"/>
<stop offset="0.726562" stop-color="#F14A58"/>
<stop offset="0.730469" stop-color="#F14957"/>
<stop offset="0.734375" stop-color="#F14856"/>
<stop offset="0.738281" stop-color="#F14755"/>
<stop offset="0.742187" stop-color="#F14555"/>
<stop offset="0.746094" stop-color="#F14454"/>
<stop offset="0.75" stop-color="#F14353"/>
<stop offset="0.753906" stop-color="#F04253"/>
<stop offset="0.757812" stop-color="#F04052"/>
<stop offset="0.761719" stop-color="#F03F52"/>
<stop offset="0.765625" stop-color="#F03E51"/>
<stop offset="0.769531" stop-color="#F03D50"/>
<stop offset="0.773437" stop-color="#F03B4F"/>
<stop offset="0.777344" stop-color="#F03A4F"/>
<stop offset="0.78125" stop-color="#F0394E"/>
<stop offset="0.785156" stop-color="#F0384D"/>
<stop offset="0.789062" stop-color="#F0364C"/>
<stop offset="0.792969" stop-color="#EF354C"/>
<stop offset="0.796875" stop-color="#EF344B"/>
<stop offset="0.800781" stop-color="#EF334B"/>
<stop offset="0.804687" stop-color="#EF324A"/>
<stop offset="0.808594" stop-color="#EF314A"/>
<stop offset="0.8125" stop-color="#EF2F49"/>
<stop offset="0.816406" stop-color="#EF2E48"/>
<stop offset="0.820312" stop-color="#EF2C47"/>
<stop offset="0.824219" stop-color="#EF2B47"/>
<stop offset="0.828125" stop-color="#EF2A46"/>
<stop offset="0.832031" stop-color="#EE2A46"/>
<stop offset="0.835937" stop-color="#EE2945"/>
<stop offset="0.84375" stop-color="#EE2945"/>
<stop offset="0.875" stop-color="#EE2945"/>
<stop offset="1" stop-color="#EE2945"/>
</linearGradient>
</defs>
</svg>
