<svg width="132" height="93" viewBox="0 0 132 93" fill="none" xmlns="http://www.w3.org/2000/svg">
<rect width="132" height="93" fill="white"/>
<path d="M62.3345 39.9669L69.9629 44.5681C69.9629 44.5681 74.8298 37.0096 83.6754 41.6109C83.6754 41.6109 89.6196 46.1186 85.6415 53.8649L104.736 64.9922C104.736 64.9922 110.586 57.6208 118.355 61.4709C118.355 61.4709 122.673 63.7376 121.537 69.1711C121.537 69.1711 120.929 72.6924 120.227 74.148C120.227 74.148 126.451 75.9791 129.024 73.3968C131.599 70.8145 131.084 68.0443 130.381 66.5888C130.381 66.5888 130.147 66.1196 130.615 65.4152C131.083 64.7108 132.16 60.2031 131.551 58.795C130.943 57.3862 125.842 47.7613 120.366 43.9119C114.89 40.0618 111.192 37.0103 106.98 35.7893C102.768 34.569 93.8775 32.7464 86.5059 35.8407L76.2322 30.9534C76.2322 30.9534 71.6688 29.8866 67.4805 33.2544C63.2922 36.6215 62.3364 39.6849 62.3345 39.9669Z" fill="#ED1C24"/>
<path d="M92.3911 38.7808L109.33 48.8757L112.673 42.9379C112.673 42.9379 102.978 36.7391 92.3911 38.7808Z" fill="#29ABE2"/>
<path d="M115.515 44.4775L112.184 50.3616L127.334 58.8948C127.334 58.8948 123.649 50.6795 115.515 44.4775Z" fill="#29ABE2"/>
<path d="M85.0602 48.8759C85.0602 52.5197 82.1058 55.4733 78.4625 55.4733C74.8185 55.4733 71.8647 52.5197 71.8647 48.8759C71.8647 45.2321 74.8185 42.2778 78.4625 42.2778C82.1058 42.2778 85.0602 45.2321 85.0602 48.8759Z" fill="#666666"/>
<path d="M81.1503 49.3645C81.1503 49.46 81.1452 49.5562 81.1357 49.6517C81.1262 49.7473 81.1123 49.8422 81.094 49.9365C81.075 50.0301 81.0516 50.1232 81.0237 50.2155C80.9959 50.3073 80.9636 50.3978 80.9269 50.4864C80.8902 50.575 80.8491 50.6617 80.8035 50.7465C80.7586 50.8312 80.7092 50.9135 80.6561 50.9932C80.6023 51.073 80.5453 51.1502 80.4846 51.2242C80.4239 51.2989 80.3593 51.3697 80.291 51.4375C80.2233 51.5058 80.1524 51.5697 80.0777 51.6311C80.0037 51.6918 79.9265 51.7488 79.8468 51.8026C79.767 51.8557 79.6848 51.9051 79.6 51.95C79.5152 51.9956 79.4285 52.0367 79.3399 52.0734C79.2513 52.1101 79.1608 52.1424 79.0691 52.1702C78.9773 52.1981 78.8843 52.2215 78.79 52.2398C78.6957 52.2588 78.6008 52.2727 78.5053 52.2822C78.4097 52.2917 78.3142 52.2968 78.218 52.2968C78.1218 52.2968 78.0262 52.2917 77.9307 52.2822C77.8351 52.2727 77.7402 52.2588 77.6459 52.2398C77.5516 52.2215 77.4586 52.1981 77.3669 52.1702C77.2751 52.1424 77.1846 52.1101 77.096 52.0734C77.0075 52.0367 76.9201 51.9956 76.836 51.95C76.7512 51.9051 76.6689 51.8557 76.5892 51.8026C76.5088 51.7488 76.4322 51.6918 76.3576 51.6311C76.2835 51.5697 76.2127 51.5058 76.1443 51.4375C76.0766 51.3697 76.0121 51.2989 75.9513 51.2242C75.8906 51.1502 75.8336 51.073 75.7798 50.9932C75.7267 50.9135 75.6773 50.8312 75.6318 50.7465C75.5868 50.6617 75.5457 50.575 75.509 50.4864C75.4723 50.3978 75.44 50.3073 75.4122 50.2155C75.3844 50.1232 75.3609 50.0301 75.342 49.9365C75.3236 49.8422 75.3097 49.7473 75.3002 49.6517C75.2907 49.5562 75.2856 49.46 75.2856 49.3645C75.2856 49.2683 75.2907 49.1721 75.3002 49.0765C75.3097 48.981 75.3236 48.8861 75.342 48.7918C75.3609 48.6981 75.3844 48.6051 75.4122 48.5127C75.44 48.421 75.4723 48.3305 75.509 48.2419C75.5457 48.1533 75.5868 48.0666 75.6318 47.9818C75.6773 47.897 75.7267 47.8148 75.7798 47.735C75.8336 47.6553 75.8906 47.5781 75.9513 47.5041C76.0121 47.4294 76.0766 47.3585 76.1443 47.2908C76.2127 47.2225 76.2835 47.1586 76.3576 47.0972C76.4322 47.0364 76.5088 46.9795 76.5892 46.9257C76.6689 46.8725 76.7512 46.8232 76.836 46.7783C76.9201 46.7327 77.0075 46.6916 77.096 46.6549C77.1846 46.6182 77.2751 46.5859 77.3669 46.5581C77.4586 46.5302 77.5516 46.5068 77.6459 46.4884C77.7402 46.4695 77.8351 46.4555 77.9307 46.4461C78.0262 46.4366 78.1218 46.4321 78.218 46.4321C78.3142 46.4321 78.4097 46.4366 78.5053 46.4461C78.6008 46.4555 78.6957 46.4695 78.79 46.4884C78.8843 46.5068 78.9773 46.5302 79.0691 46.5581C79.1608 46.5859 79.2513 46.6182 79.3399 46.6549C79.4285 46.6916 79.5152 46.7327 79.6 46.7783C79.6848 46.8232 79.767 46.8725 79.8468 46.9257C79.9265 46.9795 80.0037 47.0364 80.0777 47.0972C80.1524 47.1586 80.2233 47.2225 80.291 47.2908C80.3593 47.3585 80.4239 47.4294 80.4846 47.5041C80.5453 47.5781 80.6023 47.6553 80.6561 47.735C80.7092 47.8148 80.7586 47.897 80.8035 47.9818C80.8491 48.0666 80.8902 48.1533 80.9269 48.2419C80.9636 48.3305 80.9959 48.421 81.0237 48.5127C81.0516 48.6051 81.075 48.6981 81.094 48.7918C81.1123 48.8861 81.1262 48.981 81.1357 49.0765C81.1452 49.1721 81.1503 49.2683 81.1503 49.3645Z" fill="#B3B3B3"/>
<path d="M119.515 69.2794C119.515 72.8564 116.615 75.7553 113.039 75.7553C109.463 75.7553 106.563 72.8564 106.563 69.2794C106.563 65.7031 109.463 62.8042 113.039 62.8042C116.615 62.8042 119.515 65.7031 119.515 69.2794Z" fill="#666666"/>
<path d="M115.849 69.7684C115.849 69.8686 115.845 69.9688 115.835 70.0683C115.825 70.1678 115.81 70.2667 115.791 70.3642C115.771 70.4625 115.747 70.5594 115.718 70.6556C115.689 70.7512 115.655 70.8448 115.617 70.9377C115.578 71.03 115.536 71.1203 115.489 71.2086C115.442 71.2969 115.39 71.3826 115.334 71.4657C115.279 71.5487 115.22 71.6292 115.156 71.7063C115.092 71.7834 115.025 71.8579 114.955 71.9284C114.884 71.9989 114.81 72.0662 114.733 72.1294C114.655 72.1934 114.575 72.2527 114.492 72.3081C114.409 72.3641 114.323 72.4155 114.235 72.4623C114.146 72.5098 114.056 72.5526 113.964 72.5909C113.872 72.6291 113.777 72.6627 113.682 72.6917C113.586 72.7207 113.489 72.7451 113.391 72.7642C113.293 72.784 113.194 72.7985 113.094 72.8084C112.995 72.8183 112.895 72.8229 112.795 72.8229C112.695 72.8229 112.595 72.8183 112.495 72.8084C112.396 72.7985 112.297 72.784 112.199 72.7642C112.101 72.7451 112.004 72.7207 111.908 72.6917C111.812 72.6627 111.719 72.6291 111.626 72.5909C111.533 72.5526 111.443 72.5098 111.355 72.4623C111.267 72.4155 111.181 72.3641 111.098 72.3081C111.015 72.2527 110.934 72.1934 110.857 72.1294C110.78 72.0662 110.706 71.9989 110.635 71.9284C110.564 71.8579 110.497 71.7834 110.434 71.7063C110.37 71.6292 110.31 71.5487 110.255 71.4657C110.2 71.3826 110.148 71.2969 110.101 71.2086C110.054 71.1203 110.011 71.03 109.973 70.9377C109.935 70.8448 109.901 70.7512 109.872 70.6556C109.843 70.5594 109.819 70.4625 109.799 70.3642C109.779 70.2667 109.765 70.1678 109.755 70.0683C109.746 69.9688 109.74 69.8686 109.74 69.7684C109.74 69.6688 109.746 69.5686 109.755 69.4691C109.765 69.3696 109.78 69.2707 109.799 69.1725C109.819 69.0743 109.843 68.9774 109.872 68.8818C109.901 68.7862 109.935 68.692 109.973 68.5997C110.011 68.5074 110.054 68.4171 110.101 68.3288C110.148 68.2405 110.2 68.1548 110.255 68.0717C110.31 67.9887 110.37 67.9082 110.434 67.8311C110.497 67.7533 110.564 67.6795 110.635 67.609C110.706 67.5378 110.78 67.4706 110.857 67.4073C110.934 67.344 111.015 67.2847 111.098 67.2287C111.181 67.1733 111.267 67.1219 111.355 67.0751C111.443 67.0276 111.533 66.9848 111.626 66.9465C111.719 66.9083 111.812 66.8747 111.908 66.8457C112.004 66.8167 112.101 66.7923 112.199 66.7725C112.297 66.7534 112.396 66.7389 112.495 66.729C112.595 66.7191 112.695 66.7139 112.795 66.7139C112.895 66.7139 112.995 66.7191 113.094 66.729C113.194 66.7389 113.293 66.7534 113.391 66.7725C113.489 66.7923 113.586 66.8167 113.682 66.8457C113.777 66.8747 113.872 66.9083 113.964 66.9465C114.056 66.9848 114.146 67.0276 114.235 67.0751C114.323 67.1219 114.409 67.1733 114.492 67.2287C114.575 67.2847 114.655 67.344 114.733 67.4073C114.81 67.4706 114.884 67.5378 114.955 67.609C115.025 67.6795 115.092 67.7533 115.156 67.8311C115.22 67.9082 115.279 67.9887 115.334 68.0717C115.39 68.1548 115.442 68.2405 115.489 68.3288C115.536 68.4171 115.578 68.5074 115.617 68.5997C115.655 68.692 115.689 68.7862 115.718 68.8818C115.747 68.9774 115.771 69.0743 115.791 69.1725C115.81 69.2707 115.825 69.3696 115.835 69.4691C115.845 69.5686 115.849 69.6688 115.849 69.7684Z" fill="#B3B3B3"/>
<path d="M71.1068 34.0016C71.1068 34.0016 72.8339 33.0252 73.9251 33.2789C75.0169 33.5325 75.037 34.8218 74.243 35.642C73.4491 36.4628 73.2904 36.6579 72.0005 36.6579C70.7098 36.6579 69.6381 35.0563 71.1068 34.0016Z" fill="#FFBF00"/>
<path d="M26.6575 67.0803C26.6575 71.7365 22.8287 75.5108 18.1045 75.5108C13.381 75.5108 9.55225 71.7365 9.55225 67.0803C9.55225 62.4249 13.381 58.6499 18.1045 58.6499C22.8287 58.6499 26.6575 62.4249 26.6575 67.0803Z" fill="#4D4D4D"/>
<path d="M70.8867 67.0803C70.8867 71.7365 67.1121 75.5108 62.4563 75.5108C57.7998 75.5108 54.0259 71.7365 54.0259 67.0803C54.0259 62.4249 57.7998 58.6499 62.4563 58.6499C67.1121 58.6499 70.8867 62.4249 70.8867 67.0803Z" fill="#4D4D4D"/>
<path d="M66.2441 67.0802C66.2441 69.1724 64.5488 70.8681 62.4562 70.8681C60.365 70.8681 58.6689 69.1724 58.6689 67.0802C58.6689 64.9887 60.365 63.293 62.4562 63.293C64.5488 63.293 66.2441 64.9887 66.2441 67.0802Z" fill="#E6E6E6"/>
<path d="M21.7707 67.0802C21.7707 69.1724 20.1301 70.8681 18.105 70.8681C16.0812 70.8681 14.4399 69.1724 14.4399 67.0802C14.4399 64.9887 16.0812 63.293 18.105 63.293C20.1301 63.293 21.7707 64.9887 21.7707 67.0802Z" fill="#E6E6E6"/>
<path d="M41.3193 52.0519L51.5645 52.0526L55.736 31.3604L59.08 19.5493L61.2019 33.8129C61.2019 33.8129 58.5274 34.9057 57.9629 37.5867C57.3985 40.2678 59.6569 42.8184 61.3942 43.2104C63.1315 43.603 64.9554 42.0115 65.021 41.6406C65.086 41.2704 62.6537 40.0932 62.6537 40.0932C62.6537 40.0932 61.068 39.6795 61.003 38.1315C60.938 36.5842 60.938 36.4965 61.3942 36.8022C61.8503 37.1072 63.0665 37.6744 63.4353 36.1481C63.8042 34.6224 63.1964 34.3168 63.0225 33.8155C62.8486 33.3149 60.6558 15.9862 60.6558 15.9862C60.6558 15.9862 62.697 11.6484 59.9824 11.4956C57.2685 11.3434 55.6612 13.763 55.1834 16.2042C54.7056 18.6455 41.3193 52.0519 41.3193 52.0519Z" fill="#CCCCCC"/>
<path d="M83.3334 54.766L54.7992 54.4156C54.7992 54.4156 54.5488 52.9117 54.2984 52.3605C54.048 51.8087 52.0456 51.8093 52.0456 51.8093C52.0456 51.8093 41.2321 51.8592 40.3308 51.9097C39.4296 51.9596 38.529 52.2102 38.0283 52.5108C37.5275 52.8119 37.6278 54.3651 37.6278 54.3651H35.9262C35.9262 54.3651 36.6767 30.8595 36.5266 27.9527C36.3765 25.0459 36.4762 22.8904 35.5251 21.5374C34.5741 20.1844 31.1198 20.5853 30.469 20.5853C29.8181 20.5853 23.8614 20.5853 22.209 20.7356C20.5573 20.8858 19.506 21.9882 19.506 21.9882L1.58475 42.1356C1.58475 42.1356 1.43531 55.869 1.50937 59.01C1.58409 62.1517 2.03635 63.9877 3.48817 64.9903C4.93998 65.9929 7.24191 65.4411 7.24191 65.4411C7.24191 65.4411 7.44248 56.0691 17.2545 55.869C27.0659 55.6682 29.4688 64.9404 29.4688 64.9404L51.2447 65.1405C51.946 63.2364 56.0006 55.4176 64.4605 56.1695C72.9203 56.9215 74.4226 65.5414 74.4226 65.5414C84.1337 67.4463 83.3334 54.766 83.3334 54.766ZM6.59171 42.2366L19.407 27.2014C19.407 27.2014 19.5571 27.2512 20.9591 25.6476C22.3611 24.0433 23.2617 23.9435 23.2617 23.9435L26.4157 24.1437L26.7159 41.7852L6.59171 42.2366Z" fill="#999999"/>
<path d="M26.7521 34.5387C26.7304 31.0074 27.0649 27.2884 26.5809 23.7896C26.5671 23.6881 26.4782 23.6656 26.4025 23.6915C26.3649 23.5814 26.2727 23.4986 26.1259 23.5277C25.1961 23.7107 24.1814 23.3561 23.2464 23.4959C22.5214 23.484 21.5245 24.0898 21.1274 24.799C18.2426 27.2858 15.8734 30.7403 13.3528 33.5604C10.9236 36.2792 8.42604 38.9801 6.2129 41.8811C6.04894 42.0965 6.15562 42.3153 6.33801 42.42C6.37225 42.4617 6.42032 42.4929 6.48288 42.4936C10.306 42.5552 14.1416 42.3338 17.968 42.3411C20.6066 42.3458 23.7593 42.8183 26.3511 42.2192C26.3867 42.2105 26.4176 42.196 26.4466 42.1794C26.6178 42.2497 26.8483 42.1854 26.8608 41.962C26.9938 39.515 26.7673 36.9911 26.7521 34.5387ZM18.0431 41.6624C14.43 41.685 10.7228 41.569 7.12424 42.0051C9.24387 39.2479 11.6104 36.6663 13.9151 34.0681C16.3337 31.3401 19.4852 28.5146 21.3388 25.2808C21.593 25.0661 21.7852 24.7619 22.0328 24.5378C22.4009 24.2051 22.8092 24.0785 23.2464 23.9135C24.1557 24.1481 25.1902 23.9009 26.1022 24.0977C26.1707 24.113 26.224 24.1011 26.2701 24.0792C25.8744 27.2241 26.1536 30.5368 26.1694 33.6983C26.1825 36.3084 26.0555 38.9861 26.2438 41.5955C23.6803 41.1468 20.6303 41.6452 18.0431 41.6624Z" fill="black"/>
<path d="M130.984 67.6246C130.929 67.2164 130.671 66.8939 130.554 66.5003C130.505 66.3377 130.502 66.1856 130.523 66.0362C130.651 66.048 130.781 65.9967 130.862 65.8367C133.351 60.9057 131.31 56.1841 128.301 52.0456C126.577 49.672 124.528 47.5109 122.419 45.4802C120.818 43.9353 119.01 42.1804 116.961 41.1838C116.948 41.0955 116.906 41.0087 116.817 40.9409C108.518 34.6361 96.6033 31.7918 86.6126 35.7709C86.5909 35.7505 86.5686 35.7295 86.5364 35.7143C84.0734 34.563 81.6741 33.3051 79.2354 32.1058C77.6357 31.3191 75.6141 30.5319 73.789 30.8544C73.7273 30.7616 73.6268 30.6931 73.4855 30.701C70.6342 30.8689 68.1948 32.2005 66.0426 34.016C64.4704 35.3411 62.5652 37.4692 62.3366 39.6079C62.332 39.6415 62.3753 39.6698 62.3996 39.6395C63.661 38.1018 64.5052 36.3482 65.9329 34.9086C67.9616 32.8614 70.5744 31.803 73.3738 31.3889C75.5701 31.722 77.5811 32.1084 79.6499 33.0622C81.8765 34.0891 84.0714 35.1864 86.2933 36.2258C86.3571 36.2547 86.4142 36.2547 86.4674 36.2429C86.5108 36.2633 86.5634 36.2732 86.6264 36.2567C91.582 35.012 96.489 34.3609 101.588 35.0857C107.035 35.8604 112.04 38.2578 116.389 41.5609C116.494 41.6419 116.6 41.6511 116.695 41.6202C118.334 43.1342 120.22 44.429 121.856 45.9515C123.471 47.4556 124.953 49.0947 126.391 50.7686C129.98 54.9459 132.754 59.9572 130.152 65.3931C130.101 65.4984 130.101 65.6011 130.126 65.6939C129.86 66.4924 129.908 67.5094 130.483 67.899C130.52 67.9241 130.56 67.9379 130.601 67.9478C130.81 70.6591 130.348 72.6793 127.772 73.9695C125.765 74.9727 123.22 74.7581 120.473 73.9089C120.492 73.8701 122.833 68.8404 122.088 66.2607C121.447 64.041 119.992 62.1946 118.052 60.9834C113.33 58.0371 107.934 61.2415 104.698 64.8368C101.435 63.2709 98.3318 61.4949 95.2664 59.5721C92.2824 57.7007 89.32 55.4106 86.0792 53.975C86.1133 53.9427 86.1475 53.9111 86.1764 53.8604C89.0389 48.9663 87.6349 42.8274 82.2877 40.4709C78.1093 38.6297 72.0789 40.1812 70.037 44.4527C67.8033 42.3844 64.8896 40.9902 62.2222 39.5822C62.0803 39.5072 61.9555 39.6151 61.9509 39.7356C61.9404 39.7277 61.9286 39.7231 61.9181 39.7158C61.5731 39.4631 61.357 39.076 61.1914 38.6916C61.0239 38.2953 61.0003 37.8648 61.0351 37.4422C61.0502 37.2579 61.1126 37.0848 61.1652 36.9123C61.4128 37.2211 61.8143 37.4416 62.1828 37.4304C62.6243 37.4159 63.0054 37.0894 63.2465 36.7484C63.7412 36.052 63.9619 34.5564 63.2681 33.8784C63.2793 33.8429 63.2859 33.8041 63.2826 33.76C63.0474 30.5589 62.5862 27.3597 62.2393 24.1692C61.97 21.7001 62.0429 18.5938 60.8669 16.3175C60.9221 16.2945 60.9733 16.2616 61.0187 16.2161C61.9568 15.2821 62.305 13.9544 61.7886 12.6787C61.3938 11.7005 60.4773 10.8882 59.3512 11.0126C56.6484 11.3115 54.575 14.1486 54.504 16.7994C53.037 19.4014 52.0489 22.4485 50.9577 25.1375C49.4591 28.8316 48.0196 32.5514 46.5703 36.2646C45.2813 39.5691 44.0232 42.886 42.7704 46.2043C42.1607 47.8163 40.9683 49.9274 40.9512 51.6665C40.4775 51.5862 39.9749 51.625 39.4999 51.6605C39.2292 51.6816 38.8699 51.6921 38.6038 51.8264C38.1932 51.8383 37.8207 52.0285 37.5671 52.3932C37.393 52.6433 37.2465 53.1798 37.3128 53.5886C37.3122 53.6287 37.3089 53.6676 37.3089 53.7084C37.3076 53.8407 37.2944 53.9802 37.2938 54.1172C37.1604 54.1185 37.0277 54.1257 36.897 54.1283C36.7465 54.1316 36.5994 54.1349 36.4522 54.1415C36.7511 53.0481 36.5823 51.6605 36.6473 50.5738C36.8181 47.7183 36.9213 44.8641 36.9765 42.0026C37.0362 38.868 37.0527 35.7314 37.0724 32.5962C37.0882 30.1073 37.3326 27.4275 36.9508 24.9374C36.9784 24.8807 36.9995 24.8169 37.0041 24.7432C37.0796 23.5043 36.7478 22.1714 35.8458 21.2814C35.3826 20.8246 34.6737 20.4382 33.9517 20.3C33.2849 20.0037 32.3592 20.1834 31.6576 20.1815C30.1439 20.1769 28.6479 20.0393 27.1408 19.903C24.7231 19.6838 22.0275 19.6417 20.1394 21.213C20.0809 21.1563 19.9896 21.1359 19.9193 21.2077C16.5418 24.6852 13.6221 28.6229 10.2853 32.1545C7.31053 35.3016 3.99278 38.3171 1.31427 41.7235C1.18025 41.8927 1.18156 42.0842 1.25383 42.2383C0.89315 43.7431 1.02323 45.3492 1.02126 46.8902C1.01863 48.8722 1.02323 50.8542 1.03374 52.8362C1.04951 56.0643 0.969359 59.3174 1.08499 62.5422C1.09221 62.7291 1.18748 62.8469 1.31033 62.9121C1.48706 63.7863 2.28332 64.6585 2.8654 65.1673C3.82657 66.0052 5.18783 66.2205 6.41047 66.1264C7.15548 66.0684 6.95708 64.9428 6.22454 64.9869C5.06826 65.0547 4.05717 64.7315 3.15973 64.0055C2.67159 63.6112 2.39041 62.9924 1.99622 62.5093C2.10593 59.2957 1.92001 56.061 1.88125 52.8467C1.85694 50.8693 1.84577 48.8932 1.83592 46.9158C1.82935 45.469 1.94826 43.9596 1.66773 42.5338C1.78007 42.5365 1.89767 42.4897 1.99753 42.3712C7.75071 35.5366 14.7147 29.4425 19.7616 22.0226C22.7384 20.7456 25.3637 20.6896 28.5973 20.9727C29.7648 21.0754 31.9263 21.4716 33.3427 21.1807C33.957 21.3749 34.5719 21.5362 35.0647 22.0621C35.0962 22.0957 35.1198 22.1332 35.1494 22.1681C35.0206 22.1582 34.8925 22.149 34.7644 22.1385C34.0345 22.0766 33.2987 22.0305 32.5721 22.1431C32.4906 22.1556 32.4584 22.2852 32.5478 22.3136C33.2376 22.5341 33.9511 22.594 34.6652 22.6861C34.949 22.7223 35.2407 22.7743 35.5311 22.798C35.6362 23.0436 35.7026 23.3036 35.7551 23.5688C35.4667 23.4846 35.1501 23.4681 34.8544 23.4352C34.179 23.3595 33.5083 23.4234 32.8368 23.5037C32.6601 23.5247 32.6805 23.8183 32.8579 23.8144C33.4925 23.8006 34.1186 23.8585 34.7493 23.9269C35.1126 23.9664 35.4766 24.0889 35.8399 24.1007C35.8655 24.3166 35.8872 24.5325 35.9056 24.7458C35.9115 24.8202 35.9352 24.8827 35.9654 24.9374C35.5797 24.8307 35.1698 24.8465 34.7592 24.8215C34.0391 24.7781 33.3158 24.7787 32.5944 24.7629C32.4262 24.7596 32.4039 24.9999 32.5708 25.0243C33.1929 25.1138 33.8131 25.2066 34.4372 25.2843C34.9661 25.3501 35.587 25.4837 36.1158 25.3527C36.0757 25.6542 36.0488 25.959 36.0265 26.2631C35.7183 26.2052 35.3833 26.217 35.083 26.1979C34.4379 26.1571 33.7763 26.2282 33.139 26.3164C33.0083 26.3342 33.0405 26.5145 33.1647 26.5139C33.7921 26.5099 34.411 26.56 35.0331 26.637C35.338 26.6752 35.6704 26.7726 35.9923 26.7982C35.9752 27.1583 35.968 27.519 35.9647 27.8811C35.6862 27.8396 35.3997 27.8719 35.1126 27.8745C34.5581 27.8811 33.9997 27.9403 33.4459 27.9693C33.2501 27.9798 33.2205 28.2727 33.4281 28.2833C33.9268 28.3096 34.4261 28.3372 34.926 28.3675C35.2657 28.3873 35.6277 28.4241 35.9667 28.3688C35.9693 29.2621 35.993 30.1534 35.9897 31.0282C35.9798 34.1424 36.0304 37.2559 36.0041 40.3702C35.9779 43.5877 35.9726 46.8349 35.7183 50.0426C35.6165 51.3242 35.2361 53.1081 35.6218 54.3791C35.585 54.522 35.6691 54.7089 35.8294 54.7432C36.1224 54.8064 36.4016 54.8143 36.7005 54.8202C37.0133 54.8261 37.3431 54.8656 37.6532 54.8129C37.914 54.7695 37.9836 54.5141 37.8943 54.3271C37.9107 54.2146 37.9094 54.0981 37.9041 53.9802C38.1446 53.7005 38.0749 53.2022 38.1925 52.8638C38.3252 52.4827 38.6688 52.3537 39.0249 52.2418C39.04 52.2378 39.0479 52.224 39.0617 52.2161C39.2247 52.2056 39.3869 52.1852 39.5295 52.1779C39.9841 52.1536 40.4315 52.1687 40.8835 52.2168C41.0405 52.2339 41.145 52.1371 41.1838 52.0219C41.3007 52.0693 41.438 52.0509 41.5385 51.9159C42.5496 50.5567 42.9129 48.4259 43.4957 46.8421C44.7663 43.3876 46.1269 39.9673 47.3738 36.5029C48.7134 32.7772 50.0734 29.0653 51.5384 25.3876C52.8734 22.0338 54.824 18.6543 55.6846 15.1504C56.1439 14.1341 56.632 13.1493 57.6707 12.5135C58.3303 12.1086 59.3834 11.9638 60.0772 12.3489C61.2249 12.9854 60.7401 14.8364 60.1915 15.6606C60.0365 15.8936 60.1238 16.1102 60.2986 16.2385C60.9576 22.1029 62.1204 27.9265 62.6887 33.8212C62.6907 33.8337 62.6966 33.8416 62.6992 33.8534C62.6946 33.8929 62.6992 33.9364 62.7189 33.9785C62.9002 34.3609 63.142 34.6677 63.2419 35.0936C63.3476 35.5458 63.2537 35.998 63.0382 36.4002C62.8825 36.6898 62.5908 37.0288 62.2295 36.9722C61.7847 36.9031 61.6099 36.4595 61.2782 36.2225C61.1159 36.106 60.9405 36.2798 60.9431 36.4437C60.2368 36.8531 60.4234 38.3118 60.6159 38.9174C60.8544 39.6645 61.8609 40.906 62.759 40.6012C62.8142 40.5834 62.8543 40.5393 62.8825 40.4906C63.437 40.8625 64.0033 41.2127 64.5755 41.5544C64.5282 41.582 64.4836 41.6195 64.4448 41.6709C62.3799 44.4237 59.323 42.3726 58.3296 39.9285C57.2548 37.281 58.9275 35.4207 60.9556 34.1154C61.1592 34.1891 61.4529 34.0667 61.4023 33.7909C60.9536 31.3185 60.5575 28.8375 60.0943 26.3677C59.6383 23.9322 59.8302 21.3676 59.1896 18.967C59.2014 18.8347 59.2133 18.7017 59.2205 18.5694C59.2212 18.5404 59.1837 18.5398 59.1699 18.5589C59.1456 18.5957 59.1265 18.6359 59.1029 18.6727C59.0694 18.6464 59.0083 18.6602 59.0024 18.7096C58.9958 18.7616 58.9932 18.8143 58.9879 18.8656C58.053 20.4388 57.672 22.3787 57.1622 24.1238C56.2207 27.338 55.3548 30.5858 54.5816 33.8455C53.2045 39.6434 51.9444 45.4914 50.9596 51.3696C50.9031 51.7106 51.16 51.9179 51.4129 51.9067C51.3939 51.9456 51.3952 51.991 51.4386 52.0226C51.9247 52.3708 52.7315 52.5097 53.3859 52.4175C53.6822 52.7091 54.0185 52.9316 54.1585 53.3562C54.2472 53.6241 54.2058 53.8907 54.1709 54.1626C54.1059 54.6503 54.6459 54.8715 54.9344 54.6049C60.1508 55.3066 65.6017 55.1848 70.8504 55.2902C73.5827 55.3455 76.3138 55.3395 79.0462 55.3218C80.2912 55.3132 81.9165 55.4837 83.0945 55.0104C83.1411 54.9913 83.1766 54.9617 83.2062 54.9281C83.084 57.785 82.5919 60.3456 80.824 62.7304C79.9298 63.9363 78.5561 64.6466 77.1331 65.0001C76.3085 65.2042 75.4512 65.1048 74.6405 65.2384C75.0918 64.744 74.4644 63.6046 74.3067 63.1879C72.1801 57.5927 66.7561 54.99 60.9129 55.826C57.8803 56.2604 55.7582 57.9383 53.849 60.2277C53.1769 61.0348 51.1961 63.2169 51.1961 64.6341C50.3697 64.3254 49.1497 64.5512 48.3186 64.5518C46.3358 64.5531 44.3537 64.5301 42.3709 64.4985C38.4139 64.4347 33.9898 63.9515 30.0558 64.7559C30.0328 64.6743 29.9967 64.567 29.9396 64.4169C29.6787 63.7362 29.3706 63.0681 29.0539 62.4118C28.3746 61.0051 27.3668 59.79 26.2618 58.7026C24.5149 56.9832 21.4514 55.458 18.8024 55.6634C18.7479 55.5864 18.6704 55.5238 18.5705 55.5021C15.2081 54.7675 11.7307 56.6969 9.48119 59.0692C8.55617 60.0454 5.402 64.6262 7.28031 65.7584C7.28294 65.7597 7.28622 65.7584 7.28622 65.7584C7.84728 65.2858 7.65413 64.6341 7.79932 63.9219C8.12716 62.3276 9.06664 60.9097 10.1119 59.7005C12.3509 57.1102 15.0773 56.585 18.2387 56.2466C19.5474 56.6008 20.8785 56.7759 22.174 57.2946C23.7902 57.9423 25.1745 59.0804 26.3288 60.3627C27.2959 61.4376 27.9555 62.7166 28.5146 64.0371C28.6749 64.4162 28.8056 64.9889 29.0828 65.3825C29.1144 65.5096 29.205 65.6188 29.3509 65.6636C29.4133 65.7064 29.4803 65.7446 29.5539 65.7702C29.8266 65.8644 29.9514 65.8269 29.9934 65.7314C34.024 66.0836 38.2602 65.6695 42.3033 65.7419C44.288 65.7775 46.2714 65.8025 48.2562 65.8038C49.1976 65.8051 50.5989 66.0902 51.457 65.6057C51.6593 65.4905 51.706 65.2726 51.6541 65.0738C52.1474 64.6907 52.3991 64.0048 52.7131 63.4868C53.5744 62.0695 54.6124 60.7583 55.747 59.553C58.7862 56.3223 63.5907 56.0847 67.5326 57.65C69.2848 58.3464 71.0553 59.6761 72.0231 61.3073C72.6971 62.4415 72.8469 63.8699 73.517 64.9738C73.6432 65.1831 73.8212 65.3444 74.0177 65.4069C73.95 65.4326 73.8817 65.4536 73.8153 65.4846C73.6872 65.5445 73.7043 65.7071 73.8002 65.7841C75.9314 67.4699 79.7787 65.5385 81.4034 63.9107C83.6963 61.6107 84.3066 57.5269 83.8573 54.4351C83.8067 54.0889 83.2357 54.0599 83.2252 54.4331C83.2239 54.4568 83.2233 54.4799 83.2219 54.5036C83.174 54.4371 83.103 54.3877 83.0071 54.3778C81.5887 54.2442 80.0573 54.5312 78.6244 54.5477C75.7619 54.5799 72.9021 54.5799 70.0396 54.5358C65.0965 54.4581 60.068 53.9394 55.1242 54.1494C55.2464 53.2996 54.7852 52.201 53.9522 51.9798C53.9305 51.8725 53.8595 51.7817 53.7295 51.7751C53.3024 51.7527 52.8787 51.8106 52.449 51.7803C52.1777 51.7619 51.9142 51.7665 51.6501 51.8126C51.7152 51.7626 51.773 51.6968 51.8084 51.5987C52.4878 49.7312 52.5331 47.6445 52.8984 45.7014C53.4726 42.6504 54.0593 39.6059 54.7195 36.5733C55.3837 33.5243 56.0716 30.4746 56.8646 27.4565C57.4552 25.2119 58.4669 22.8632 58.9531 20.531C59.0563 22.4959 59.5996 24.4812 59.932 26.3862C60.3623 28.8388 60.6028 31.3856 60.7697 33.8719C60.7697 33.8784 60.7736 33.8824 60.7743 33.8877C57.7784 34.3998 57.0038 38.1025 57.9374 40.6038C59.116 43.7602 63.0119 44.9872 65.1662 42.1158C65.2076 42.0606 65.2319 42.0066 65.2437 41.9533C66.8007 42.8722 68.3663 43.774 69.7749 44.9457C69.8242 44.9878 69.8761 45.0023 69.9266 45.0056C70.0075 45.0846 70.1487 45.1129 70.2243 45.0155C72.8831 41.6057 76.4912 39.9377 80.8292 41.0245C86.585 42.4674 87.4384 48.6773 85.4202 53.4135C85.3775 53.5135 85.3775 53.6096 85.3946 53.6978C85.2533 53.7189 85.1968 53.9447 85.3322 54.0395C88.1874 56.0689 91.3646 57.7487 94.3427 59.6024C97.6413 61.6588 101.067 63.5434 104.554 65.2568C104.671 65.3147 104.779 65.2614 104.838 65.1772C104.861 65.1693 104.884 65.1561 104.906 65.1357C108.43 61.8563 112.799 59.0409 117.624 61.6009C121.709 63.7678 121.752 69.5427 120.339 73.5508C120.333 73.5614 120.006 74.1308 119.86 74.4118C119.77 74.5869 120.264 74.6527 120.362 74.6929C123.036 75.7856 126.531 75.8982 128.929 74.3263C130.788 73.1072 132.011 69.8277 130.983 67.7174C130.988 67.6884 130.989 67.6575 130.984 67.6246Z" fill="black"/>
<path d="M115.241 44.501C114.553 45.3778 114.062 46.4772 113.487 47.44C113.033 48.2022 112.021 49.2942 111.94 50.1897C111.932 50.283 112.04 50.3822 112.129 50.3256C112.818 49.8899 113.242 48.6579 113.649 47.9517C114.256 46.8949 115.049 45.7496 115.358 44.5563C115.376 44.4877 115.28 44.4504 115.241 44.501Z" fill="black"/>
<path d="M128.036 59.133C126.842 56.2065 124.809 53.5469 122.737 51.2058C120.639 48.8362 118.103 45.9144 115.41 44.2407C115.359 44.2089 115.311 44.2824 115.339 44.3267C116.907 46.838 119.711 48.8799 121.713 51.0502C123.783 53.2927 125.351 55.7576 126.817 58.3881C124.472 57.0646 122.101 55.7908 119.779 54.4222C117.484 53.0709 114.636 50.6821 111.976 50.2577C111.945 50.2524 111.927 50.2901 111.949 50.312C113.732 52.1162 116.725 53.2464 118.897 54.5467C121.699 56.2257 124.488 57.9114 127.384 59.421C127.385 59.4236 127.387 59.4263 127.389 59.4296C127.607 59.8315 128.211 59.5653 128.036 59.133Z" fill="black"/>
<path d="M112.894 42.8556C112.882 42.7349 112.821 42.6189 112.684 42.541C106.552 39.0465 99.3274 36.7424 92.2324 38.4629C92.1817 38.4754 92.154 38.5163 92.1395 38.5612C92.1185 38.5552 92.0987 38.5486 92.0783 38.5434C91.9057 38.4972 91.8313 38.7227 91.9867 38.8005C97.9711 41.811 103.285 45.6458 109.031 49.0539C109.402 49.2742 109.735 48.9042 109.673 48.5771C110.217 47.8919 110.616 47.0458 111.045 46.2914C111.666 45.1974 112.34 44.1481 112.898 43.0178C112.927 42.9591 112.919 42.9018 112.894 42.8556ZM110.975 45.7863C110.491 46.6205 109.835 47.3822 109.369 48.2256C106.621 46.4319 103.762 44.7826 100.976 43.0462C98.394 41.4345 95.6479 39.64 92.7054 38.7241C96.1248 38.6607 99.3195 38.4965 102.724 39.2424C106.146 39.9915 109.209 41.6072 112.235 43.3126C112.27 43.3317 112.303 43.335 112.336 43.3456C111.887 44.162 111.444 44.9811 110.975 45.7863Z" fill="black"/>
<mask id="mask0_1269_9309" style="mask-type:luminance" maskUnits="userSpaceOnUse" x="106" y="62" width="14" height="14">
<path d="M106.049 62.2949H119.849V76.0002H106.049V62.2949Z" fill="white"/>
</mask>
<g mask="url(#mask0_1269_9309)">
<path d="M112.976 75.9941C109.22 75.9941 106.164 72.9387 106.164 69.1805C106.164 65.4244 109.22 62.3677 112.976 62.3677C116.733 62.3677 119.789 65.4244 119.789 69.1805C119.789 72.9387 116.733 75.9941 112.976 75.9941ZM112.976 62.814C109.467 62.814 106.61 65.6702 106.61 69.1805C106.61 72.6908 109.467 75.5477 112.976 75.5477C116.487 75.5477 119.343 72.6908 119.343 69.1805C119.343 65.6702 116.487 62.814 112.976 62.814Z" fill="black"/>
</g>
<path d="M112.795 72.5787C110.976 72.5787 109.496 71.0984 109.496 69.2792C109.496 67.4612 110.976 65.981 112.795 65.981C114.614 65.981 116.094 67.4612 116.094 69.2792C116.094 71.0984 114.614 72.5787 112.795 72.5787ZM112.795 66.4289C111.223 66.4289 109.944 67.7072 109.944 69.2792C109.944 70.8517 111.223 72.1301 112.795 72.1301C114.367 72.1301 115.646 70.8517 115.646 69.2792C115.646 67.7072 114.367 66.4289 112.795 66.4289Z" fill="black"/>
<path d="M74.3666 54.7402C74.4947 54.7028 74.632 54.6774 74.7898 54.6821C74.8895 54.6847 74.9905 54.6907 75.0902 54.6948C73.2792 53.5498 72.0684 51.5207 72.0684 49.2041C72.0684 45.635 74.937 42.731 78.4625 42.731C81.9881 42.731 84.856 45.635 84.856 49.2041C84.856 51.4264 83.7436 53.3901 82.0528 54.5571C82.0976 54.545 82.1425 54.5397 82.1855 54.5277C82.4027 54.4668 82.6271 54.4735 82.8391 54.523C84.3437 53.2517 85.3043 51.3402 85.3043 49.2041C85.3043 45.3851 82.235 42.2778 78.4625 42.2778C74.6894 42.2778 71.6201 45.3851 71.6201 49.2041C71.6201 51.4685 72.7022 53.4757 74.3666 54.7402Z" fill="black"/>
<path d="M78.0962 52.5414C76.2768 52.5414 74.7964 51.1166 74.7964 49.3647C74.7964 47.6134 76.2768 46.188 78.0962 46.188C79.915 46.188 81.3941 47.6134 81.3941 49.3647C81.3941 51.1166 79.915 52.5414 78.0962 52.5414ZM78.0962 46.6193C76.5242 46.6193 75.245 47.851 75.245 49.3647C75.245 50.8784 76.5242 52.11 78.0962 52.11C79.667 52.11 80.9462 50.8784 80.9462 49.3647C80.9462 47.851 79.667 46.6193 78.0962 46.6193Z" fill="black"/>
<path d="M73.3016 33.0137C72.544 33.1198 71.1766 33.4811 70.5195 34.1295C70.4523 34.123 70.3838 34.1399 70.3339 34.1933C69.2332 35.3807 70.4596 36.9464 71.8989 36.9015C72.6857 36.8781 73.4619 36.5031 74.1789 36.2192C74.8293 35.9621 75.2377 35.4146 75.2816 34.7317C75.3548 33.5872 74.4136 32.8574 73.3016 33.0137ZM73.4998 36.3338C73.136 36.6326 72.3818 36.673 71.9215 36.6274C71.5351 36.5897 71.2158 36.3781 70.9272 36.1411C70.32 35.6431 70.5275 35.0097 70.7383 34.4081C70.7416 34.3984 70.7403 34.3893 70.7416 34.3801C71.8231 33.7936 73.1506 32.7604 74.2966 33.6914C75.2563 34.4693 74.127 35.8176 73.4998 36.3338Z" fill="black"/>
<path d="M115.781 66.001C115.699 65.9414 115.571 66.0259 115.613 66.1085C116.027 66.902 116.518 67.6115 116.671 68.4862C116.843 69.4788 116.316 70.2991 116.088 71.2366C116.067 71.325 116.213 71.3954 116.29 71.3333C117.978 69.9757 117.423 67.2049 115.781 66.001Z" fill="black"/>
<path d="M117.301 67.015C117.233 66.9043 117.022 66.9707 117.082 67.0899C117.373 67.6721 117.48 68.3448 117.476 68.9699C117.469 69.4948 117.183 70.0086 117.257 70.5217C117.269 70.6057 117.41 70.6591 117.487 70.5966C118.556 69.7409 117.872 67.9312 117.301 67.015Z" fill="black"/>
<path d="M118.503 67.273C118.456 67.1682 118.331 67.1817 118.317 67.3106C118.267 67.7975 118.31 68.2891 118.313 68.7786C118.316 69.2151 118.273 69.6315 118.381 70.0532C118.406 70.1526 118.538 70.1647 118.577 70.0741C118.897 69.3273 118.819 68.001 118.503 67.273Z" fill="black"/>
<path d="M111.181 65.395C111.26 65.3128 111.133 65.211 111.048 65.2616C108.79 66.6221 107.638 69.8093 109.318 72.0421C109.398 72.1479 109.598 72.0644 109.561 71.9317C109.24 70.7867 108.923 69.7935 109.133 68.5868C109.359 67.3024 110.305 66.3014 111.181 65.395Z" fill="black"/>
<path d="M109.145 65.9968C107.624 67.2408 106.988 69.6485 108.113 71.2653C108.234 71.4388 108.51 71.3464 108.483 71.1499C108.388 70.4678 108.191 69.8174 108.176 69.1268C108.153 68.0423 108.738 67.012 109.245 66.0535C109.275 65.9961 109.192 65.9579 109.145 65.9968Z" fill="black"/>
<path d="M107.678 66.9855C107.062 67.9324 106.72 69.6304 107.523 70.5946C107.59 70.6763 107.689 70.5712 107.679 70.4743C107.628 69.952 107.466 69.4793 107.429 68.9446C107.385 68.3166 107.577 67.6301 107.78 67.0652C107.808 66.9855 107.721 66.9195 107.678 66.9855Z" fill="black"/>
<path d="M35.8813 29.3314C35.622 29.1453 35.2293 29.1262 34.9001 29.0962C34.4702 29.0564 34.0298 29.1104 33.6058 29.1709C33.4353 29.1955 33.4863 29.3914 33.649 29.3849C34.0253 29.3712 34.3787 29.4203 34.7518 29.4553C35.1058 29.4875 35.4724 29.6091 35.8265 29.5595C35.9682 29.5393 35.9748 29.398 35.8813 29.3314Z" fill="black"/>
<path d="M35.8539 30.6932C35.5876 30.5443 35.2464 30.5638 34.9388 30.5516C34.497 30.5351 34.0489 30.5956 33.6092 30.634C33.4554 30.6475 33.4694 30.8526 33.6176 30.8654C33.965 30.8959 34.3118 30.9368 34.6585 30.9649C35.0137 30.9942 35.4478 31.0876 35.7945 31.0028C35.9567 30.9637 36.0014 30.7757 35.8539 30.6932Z" fill="black"/>
<path d="M35.8235 32.0112C35.3043 31.7032 34.651 31.7179 34.1027 31.906C33.9486 31.9586 33.9444 32.2484 34.1251 32.2484C34.651 32.2491 35.1538 32.4035 35.6688 32.5003C35.9151 32.5466 36.0588 32.1516 35.8235 32.0112Z" fill="black"/>
<path d="M35.9403 33.5504C35.9472 33.5324 35.9397 33.5139 35.9383 33.4954C35.9383 33.4913 35.9383 33.4884 35.9376 33.4844C35.9356 33.463 35.9349 33.4433 35.924 33.423C35.9117 33.3964 35.8953 33.3703 35.868 33.3472C35.4063 32.9586 34.7352 32.9384 34.1398 33.0553C33.914 33.0993 33.9495 33.4126 34.1868 33.4004C34.7011 33.3732 35.143 33.4572 35.5748 33.6928C35.746 33.786 35.9083 33.6656 35.9328 33.5284C35.9356 33.5353 35.9376 33.5429 35.9403 33.5504Z" fill="black"/>
<path d="M34.695 34.4585C34.3948 34.46 34.4119 34.9505 34.7062 34.9665C34.8979 34.9774 35.0829 35.0304 35.2534 35.1271C35.4141 35.2179 35.6373 35.2404 35.69 35.0086C35.7973 34.5385 34.9492 34.4564 34.695 34.4585Z" fill="black"/>
<path d="M35.8014 35.7177C35.6996 35.6319 35.5964 35.553 35.4744 35.5097C35.2727 35.4355 35.083 35.4177 34.8739 35.4548C34.6601 35.4935 34.6816 35.8592 34.8712 35.9195C35.1225 35.9984 35.2398 36.2744 35.4683 36.3826C35.5843 36.4375 35.7022 36.4128 35.8128 36.3579C35.8477 36.3347 35.8751 36.3022 35.8952 36.262C35.9026 36.2466 35.9274 36.0571 35.916 36.0656C36.0058 35.9999 35.8463 35.754 35.8014 35.7177Z" fill="black"/>
<path d="M35.1637 36.9024C34.8965 36.9046 34.9027 37.2641 35.1693 37.268C35.1923 37.268 35.2797 37.262 35.2933 37.2718C35.3436 37.3062 35.3721 37.3472 35.4328 37.3723C35.5544 37.4215 35.6846 37.3718 35.6976 37.2472C35.7261 36.9762 35.4068 36.9002 35.1637 36.9024Z" fill="black"/>
<path d="M35.3419 37.8843C34.9708 37.8394 34.8314 38.1476 35.1233 38.2479C35.1433 38.2706 35.1599 38.2961 35.1912 38.3151C35.3027 38.4055 35.5728 38.3736 35.6469 38.2771C35.7802 38.1054 35.653 37.9217 35.3419 37.8843Z" fill="black"/>
<path d="M9.6964 44.3693C8.06672 43.884 6.39281 43.8579 4.72815 43.8217C3.75126 43.7997 2.36712 43.5124 1.50707 44.205C1.48 44.2278 1.48396 44.2783 1.51235 44.2969C2.3823 44.8715 3.66875 44.5783 4.63706 44.6002C6.3268 44.6372 8.01325 44.8117 9.70168 44.6617C9.84425 44.649 9.81389 44.4047 9.6964 44.3693Z" fill="black"/>
<path d="M10.1279 47.3438C9.65763 47.2668 9.17825 47.2009 8.69498 47.1403C8.69498 47.1265 8.69433 47.1114 8.69433 47.0962C8.68655 46.8156 8.28047 46.8202 8.26231 47.0923C7.85817 47.0462 7.4521 47.0007 7.04277 46.9645C7.0525 46.7346 7.06094 46.5054 7.07002 46.2762C7.07067 46.2637 7.06223 46.2591 7.06094 46.2479C7.89904 46.2505 8.72547 46.2216 9.50389 46.1564C9.71536 46.1386 9.7971 45.7941 9.55708 45.7546C7.09402 45.3449 4.29883 45.125 1.80333 45.2415C1.60029 45.2514 1.53607 45.5518 1.74819 45.6117C2.76663 45.8982 3.88562 46.0714 5.02341 46.1662C5.01433 46.3836 5.00849 46.6016 5.00071 46.8189C4.31764 46.7873 3.63652 46.7676 2.96513 46.7669C2.94826 46.6661 2.93594 46.5621 2.91907 46.462C2.89896 46.3408 2.72901 46.3645 2.7342 46.485C2.73874 46.5792 2.74263 46.674 2.74717 46.7689C2.46305 46.7702 2.18087 46.7728 1.90063 46.7801C1.66776 46.786 1.60548 47.1588 1.84939 47.2036C2.15297 47.2582 2.46305 47.3089 2.77377 47.3564C2.79128 47.7146 2.8088 48.0736 2.82372 48.4325C2.46305 48.4273 2.11275 48.447 1.78452 48.5155C1.75209 48.5214 1.74235 48.5761 1.7696 48.5952C2.08097 48.8086 2.45332 48.943 2.84707 49.0398C2.85939 49.3184 2.86977 49.5963 2.8808 49.8762C2.49807 49.8993 2.12443 49.9283 1.7696 49.9704C1.61975 49.9875 1.59964 50.2424 1.75079 50.274C2.13092 50.3524 2.51559 50.4077 2.90221 50.4551C2.91453 50.8457 2.92361 51.2356 2.93464 51.6262C2.43321 51.6486 1.93696 51.6815 1.45888 51.7381C1.26816 51.7612 1.31357 52.0378 1.48223 52.0608C1.96356 52.1234 2.45526 52.1827 2.95151 52.238C2.96124 52.6273 2.96383 53.0152 2.96772 53.4038C2.43385 53.4018 1.90712 53.4057 1.39855 53.4202C1.24676 53.4255 1.17086 53.6613 1.34147 53.7061C1.86042 53.8417 2.41245 53.9596 2.97681 54.0644C2.97745 54.0953 2.9781 54.1263 2.9781 54.1579C2.98005 54.4958 2.97681 54.8336 2.97097 55.1728C2.54867 55.155 2.12638 55.1465 1.70408 55.1728C1.53218 55.184 1.45109 55.4521 1.647 55.5001C2.06086 55.6029 2.50262 55.6944 2.95605 55.7768C2.94632 56.135 2.93529 56.494 2.92232 56.8536C2.59603 56.872 2.27493 56.8984 1.9668 56.9399C1.79295 56.9636 1.78776 57.2435 1.95448 57.2843C2.25806 57.3588 2.57592 57.4213 2.89961 57.4799C2.88534 57.8527 2.87172 58.2262 2.86069 58.5996C2.37612 58.6286 1.90453 58.6747 1.46082 58.7333C1.31098 58.7524 1.29217 59 1.44266 59.0362C1.88247 59.1429 2.35471 59.2259 2.84123 59.2852C2.83409 59.5579 2.83085 59.8312 2.82826 60.1039C2.37807 60.1427 1.94345 60.2079 1.56332 60.2982C1.4232 60.3317 1.38623 60.5629 1.54515 60.6011C1.96615 60.7025 2.39493 60.7309 2.82566 60.744C2.82696 60.9357 2.8315 61.126 2.83604 61.3164C2.47278 61.3085 2.11275 61.3223 1.76506 61.4356C1.61456 61.4843 1.58148 61.7036 1.74949 61.7596C2.10757 61.8788 2.48056 61.9164 2.85485 61.9414C2.86653 62.1923 2.87756 62.4426 2.89572 62.6922C2.65311 62.7041 2.41115 62.7324 2.17827 62.7969C2.03297 62.8365 1.99599 63.065 2.16141 63.1104C2.59278 63.2277 3.04427 63.2369 3.48992 63.2586C3.81491 63.2744 4.13341 63.3561 4.42922 63.1934C4.50446 63.1513 4.54922 63.0347 4.47852 62.9649C4.19115 62.6843 3.80064 62.7113 3.42051 62.6929C3.33942 62.6889 3.25639 62.6883 3.17466 62.6863C3.21033 62.4505 3.23563 62.2062 3.26612 61.9677C3.31153 61.9704 3.35694 61.973 3.40234 61.9757C3.90118 62.0112 4.3877 62.0619 4.85605 61.8578C5.01044 61.7899 4.95011 61.595 4.82945 61.5383C4.40716 61.3414 3.9414 61.3539 3.48473 61.3394C3.43932 61.3375 3.39326 61.3348 3.34656 61.3335C3.36926 61.1405 3.39845 60.9548 3.41856 60.7605C4.12239 60.7809 4.85865 60.8204 5.54106 60.636C5.71686 60.5886 5.73502 60.3212 5.55015 60.2705C4.94687 60.1072 4.20866 60.0479 3.47565 60.0663C3.4964 59.8279 3.51586 59.5915 3.53338 59.3524C4.73864 59.438 5.9906 59.3748 7.06353 59.1304C7.18808 59.1021 7.23089 58.8914 7.08559 58.8578C6.02498 58.6134 4.78989 58.5364 3.59046 58.566C3.60798 58.2459 3.61641 57.9212 3.62809 57.5978C5.25045 57.8257 7.0071 57.8685 8.5114 57.6953C8.67357 57.6769 8.6859 57.4062 8.52762 57.3706C7.04731 57.042 5.29521 56.8161 3.65922 56.8292C3.66636 56.517 3.66376 56.2035 3.66571 55.8907C5.28937 56.1252 7.0298 56.1825 8.49583 55.8769C8.6353 55.8472 8.61779 55.6668 8.48999 55.6378C7.4748 55.4093 6.42652 55.3908 5.39122 55.3342C4.81648 55.3026 4.2411 55.2492 3.66571 55.2097C3.66376 54.8659 3.65987 54.5228 3.65014 54.1796C5.61047 54.4872 7.71416 54.5814 9.52141 54.3074C9.65893 54.2863 9.63493 54.1072 9.51686 54.0788C8.25128 53.7706 6.85725 53.5934 5.45609 53.4966C5.50214 53.1594 5.52096 52.8123 5.52096 52.4626C6.62502 52.5311 7.72714 52.5607 8.78255 52.5094C8.98819 52.4988 9.06019 52.1774 8.83769 52.1293C8.22857 51.9943 7.59027 51.8903 6.93963 51.8099C6.98699 51.4707 7.00126 51.1263 7.00191 50.7805C7.88088 50.8457 8.76244 50.8826 9.6252 50.7654C9.74001 50.7495 9.76531 50.5691 9.64985 50.5335C8.84093 50.2852 7.93083 50.116 6.98958 50.004C6.98569 49.8334 6.9818 49.6635 6.9805 49.4942C7.39177 49.5232 7.80368 49.5364 8.21495 49.537C8.24544 49.7254 8.28696 49.9078 8.35507 50.0771C8.40242 50.193 8.56135 50.1713 8.60416 50.0666C8.67811 49.8828 8.71184 49.705 8.72936 49.5265C9.13479 49.5107 9.53892 49.4811 9.93721 49.4191C10.089 49.3961 10.0663 49.1834 9.92684 49.1596C9.53438 49.0925 9.13998 49.0497 8.74493 49.0154C8.74298 48.9403 8.74039 48.8666 8.73909 48.7875C8.73001 48.4444 8.72093 48.1013 8.71184 47.7588C9.18539 47.7482 9.65504 47.7272 10.1143 47.689C10.3336 47.6712 10.3465 47.3794 10.1279 47.3438ZM3.52235 51.6084C3.4964 51.2435 3.47435 50.8767 3.44191 50.5144C3.92908 50.5605 4.41624 50.5921 4.90276 50.6224C4.88978 50.9504 4.87032 51.287 4.85605 51.6262C4.40975 51.6084 3.96411 51.6018 3.52235 51.6084ZM3.62225 53.411C3.60798 53.0415 3.59565 52.6727 3.5736 52.3052C3.9946 52.3487 4.41819 52.3862 4.84243 52.4205C4.84373 52.7741 4.86513 53.1232 4.91314 53.4624C4.48176 53.4387 4.04973 53.4202 3.62225 53.411ZM4.92222 49.8459C4.39808 49.8321 3.87653 49.8341 3.37056 49.8538C3.34526 49.6108 3.31866 49.3704 3.29077 49.1294C3.84021 49.2216 4.41235 49.2551 4.93324 49.3006C4.93065 49.4824 4.92481 49.6641 4.92222 49.8459ZM4.94557 48.667C4.37278 48.5774 3.78442 48.4872 3.21487 48.4497C3.16947 48.094 3.11173 47.7482 3.05919 47.3979C3.68647 47.4894 4.32737 47.5645 4.97152 47.6244C4.96114 47.9722 4.954 48.3186 4.94557 48.667ZM5.45544 49.869C5.45219 49.6964 5.44895 49.5232 5.44571 49.3513C5.74735 49.3849 6.05353 49.4158 6.36036 49.4442C6.34933 49.6075 6.33765 49.7708 6.33311 49.9335C6.0412 49.9078 5.74864 49.8835 5.45544 49.869ZM5.50279 51.6703C5.49047 51.3272 5.4749 50.9873 5.46971 50.658C5.75902 50.6778 6.04963 50.7021 6.34154 50.7265C6.36165 51.0848 6.41614 51.4259 6.49009 51.7566C6.16315 51.723 5.83427 51.6927 5.50279 51.6703ZM6.41095 48.86C6.10023 48.835 5.77005 48.7908 5.43468 48.7408C5.42625 48.3805 5.41652 48.0202 5.40549 47.6606C5.78886 47.6909 6.17288 47.7153 6.55626 47.7337C6.49917 48.1032 6.45052 48.4813 6.41095 48.86ZM6.80211 46.2538C6.76643 46.4718 6.72621 46.6997 6.68665 46.9322C6.25138 46.8966 5.81481 46.8663 5.3776 46.842C5.37046 46.626 5.36462 46.4093 5.35619 46.1926C5.84011 46.2255 6.32468 46.2407 6.8073 46.2453C6.806 46.2499 6.80341 46.2499 6.80211 46.2538ZM8.1637 48.9693C7.7719 48.943 7.38009 48.9219 6.98699 48.8982C6.99218 48.5149 6.99737 48.1315 7.01099 47.7482C7.41707 47.7621 7.8199 47.7654 8.22014 47.764C8.1903 48.1586 8.15592 48.5708 8.1637 48.9693Z" fill="black"/>
<path d="M3.85092 64.1C3.60433 63.9645 3.34153 64.048 3.08075 64.0908C2.88889 64.1206 2.93145 64.4244 3.10372 64.4512C3.34693 64.4917 3.60366 64.5721 3.83606 64.4489C3.9482 64.3877 3.9732 64.1673 3.85092 64.1Z" fill="black"/>
<mask id="mask1_1269_9309" style="mask-type:luminance" maskUnits="userSpaceOnUse" x="9" y="58" width="18" height="18">
<path d="M9.11816 58.2559H26.9563V76H9.11816V58.2559Z" fill="white"/>
</mask>
<g mask="url(#mask1_1269_9309)">
<path d="M18.0941 75.9941C13.2303 75.9941 9.27295 72.0375 9.27295 67.1723C9.27295 62.3072 13.2303 58.3506 18.0941 58.3506C22.9585 58.3506 26.9158 62.3072 26.9158 67.1723C26.9158 72.0375 22.9585 75.9941 18.0941 75.9941ZM18.0941 58.9284C13.5491 58.9284 9.85143 62.6261 9.85143 67.1723C9.85143 71.718 13.5491 75.4163 18.0941 75.4163C22.6397 75.4163 26.338 71.718 26.338 67.1723C26.338 62.6261 22.6397 58.9284 18.0941 58.9284Z" fill="black"/>
</g>
<path d="M18.1058 71.3568C15.8154 71.3568 13.9517 69.4382 13.9517 67.0805C13.9517 64.7221 15.8154 62.8042 18.1058 62.8042C20.3962 62.8042 22.2599 64.7221 22.2599 67.0805C22.2599 69.4382 20.3962 71.3568 18.1058 71.3568ZM18.1058 63.3854C16.1266 63.3854 14.5156 65.0424 14.5156 67.0805C14.5156 69.1186 16.1266 70.7763 18.1058 70.7763C20.085 70.7763 21.696 69.1186 21.696 67.0805C21.696 65.0424 20.085 63.3854 18.1058 63.3854Z" fill="black"/>
<path d="M21.8369 62.8082C21.799 62.7925 21.7619 62.8258 21.7723 62.8658C22.0671 63.9711 22.8284 64.8229 23.0633 65.9996C23.3725 67.5508 22.7475 68.9762 22.0658 70.3212C21.9739 70.5025 22.2133 70.7369 22.3613 70.5621C23.3849 69.3567 23.7763 67.9371 23.7202 66.3682C23.6765 65.1457 23.0261 63.2993 21.8369 62.8082Z" fill="black"/>
<path d="M23.6643 63.5737C23.587 63.4895 23.447 63.5621 23.4885 63.6752C23.7794 64.4628 24.1239 65.2093 24.2857 66.0406C24.5765 67.5253 23.927 68.6251 23.6995 70.034C23.6886 70.1053 23.7794 70.167 23.8369 70.1162C25.5725 68.5872 25.0854 65.1393 23.6643 63.5737Z" fill="black"/>
<path d="M25.3927 65.0376C25.3489 64.9801 25.2442 64.9964 25.2385 65.0774C25.1954 65.6966 25.3591 66.3139 25.3769 66.9345C25.3965 67.6301 25.2436 68.3186 25.1922 69.0097C25.1833 69.1358 25.3629 69.22 25.4308 69.0985C26.0253 68.0403 26.1649 66.0468 25.3927 65.0376Z" fill="black"/>
<path d="M16.0139 61.8375C14.1111 62.8428 12.9938 64.59 12.7599 66.6798C12.594 68.1609 13.081 70.596 14.5821 71.3339C14.7474 71.415 14.9246 71.2664 14.8446 71.0964C14.1957 69.7042 13.4009 68.7787 13.3362 67.1198C13.2549 65.0313 14.4828 63.2426 16.1132 62.0069C16.2011 61.9413 16.1172 61.7843 16.0139 61.8375Z" fill="black"/>
<path d="M14.4267 61.686C14.4688 61.6302 14.4037 61.554 14.3456 61.5934C12.5251 62.8651 11.7268 65.1412 11.5398 67.32C11.4192 68.7264 11.5927 71.2416 12.885 72.0666C12.9896 72.1336 13.1268 72.0482 13.1051 71.9188C13.003 71.3092 12.6814 70.808 12.4766 70.2247C12.1052 69.1691 12.109 67.9756 12.1977 66.8766C12.3591 64.8659 13.2576 63.2408 14.4267 61.686Z" fill="black"/>
<path d="M12.4787 62.6574C12.5067 62.6011 12.4292 62.5291 12.3791 62.5743C10.5437 64.2448 9.92676 67.6082 11.205 69.785C11.3314 70.0005 11.6207 69.8558 11.5862 69.6298C11.4116 68.4838 11.1145 67.4792 11.192 66.3011C11.278 64.9829 11.9119 63.8146 12.4787 62.6574Z" fill="black"/>
<path d="M59.1044 14.1122C58.8328 13.8329 58.5791 13.5404 58.4656 13.1727C58.3305 12.7457 58.5086 12.2649 58.5976 11.8468C58.6206 11.7399 58.4648 11.6957 58.3973 11.7709C57.6517 12.6063 57.8156 13.8515 58.8484 14.3958C59.0428 14.4979 59.2609 14.2723 59.1044 14.1122Z" fill="black"/>
<path d="M58.1722 15.0102C57.9918 14.5827 57.5917 14.3177 57.4027 13.8888C57.1618 13.3416 57.2684 12.661 57.4034 12.1048C57.4311 11.992 57.252 11.9298 57.1902 12.0225C56.7916 12.6215 56.6061 13.24 56.7781 13.9476C56.9181 14.5287 57.4318 15.181 58.0877 15.1534C58.158 15.1506 58.1978 15.0683 58.1722 15.0102Z" fill="black"/>
<path d="M56.53 14.802C56.3868 14.316 56.4827 13.7675 56.593 13.286C56.6094 13.2106 56.4964 13.168 56.4485 13.2267C55.7306 14.1123 55.782 15.8571 57.006 16.3663C57.1046 16.4076 57.2252 16.3083 57.1992 16.2103C57.0649 15.7069 56.68 15.3099 56.53 14.802Z" fill="black"/>
<path d="M55.9109 16.5772C55.6838 16.0345 55.6791 15.3084 55.6802 14.7293C55.6808 14.6482 55.5752 14.6482 55.5451 14.7079C55.2778 15.2563 55.1628 15.8216 55.318 16.4378C55.4543 16.9761 55.7481 17.7807 56.3469 17.8416C56.4201 17.8492 56.4797 17.7795 56.4685 17.7028C56.4101 17.2788 56.072 16.966 55.9109 16.5772Z" fill="black"/>
<path d="M55.2792 17.9827C55.0385 17.5236 55.0263 16.9671 54.9511 16.465C54.9334 16.3508 54.7917 16.3508 54.7436 16.4401C54.4304 17.012 54.471 17.6175 54.6744 18.2224C54.8338 18.697 55.2799 19.3649 55.846 19.3045C55.9456 19.2944 55.9911 19.187 55.9795 19.1017C55.9246 18.6869 55.4738 18.3526 55.2792 17.9827Z" fill="black"/>
<path d="M54.6773 19.9961C54.4598 19.5168 54.4035 18.9364 54.366 18.4073C54.359 18.3153 54.2447 18.3055 54.213 18.3836C53.9656 18.9903 53.9715 19.5825 54.1837 20.2023C54.3326 20.6382 54.6656 21.3118 55.1445 21.2606C55.1973 21.2547 55.2477 21.1917 55.2477 21.1326C55.2494 20.6934 54.8502 20.3736 54.6773 19.9961Z" fill="black"/>
<path d="M54.0642 21.3173C53.803 20.9299 53.684 20.4085 53.6649 19.9535C53.659 19.7997 53.413 19.7219 53.3709 19.8967C53.2387 20.4353 53.2696 20.9395 53.5031 21.4468C53.6432 21.7519 53.9629 22.3422 54.3825 22.2254C54.4345 22.2107 54.4963 22.1737 54.5068 22.1156C54.57 21.7774 54.2411 21.5808 54.0642 21.3173Z" fill="black"/>
<path d="M53.3756 22.8099C53.1267 22.4536 53.0242 22.028 52.9715 21.6177C52.9539 21.4772 52.7189 21.4714 52.6684 21.5972C52.4898 22.0505 52.5425 22.5108 52.7497 22.9505C52.9078 23.2869 53.1816 23.7312 53.6553 23.7055C53.7219 23.7023 53.7746 23.64 53.7797 23.5861C53.8083 23.2856 53.544 23.052 53.3756 22.8099Z" fill="black"/>
<path d="M53.5258 25.2369C53.3441 24.8824 52.9433 24.6804 52.7203 24.3403C52.4903 23.9927 52.4703 23.51 52.5354 23.1161C52.5638 22.9498 52.3189 22.926 52.257 23.0611C52.0193 23.5781 51.9941 24.1177 52.2732 24.6279C52.4851 25.0155 52.9311 25.5089 53.433 25.4026C53.5071 25.3869 53.5625 25.3082 53.5258 25.2369Z" fill="black"/>
<path d="M52.2776 26.1818C52.034 25.6974 51.9676 25.1263 51.9961 24.5953C52.0049 24.4347 51.7471 24.3717 51.7023 24.5376C51.5348 25.1617 51.5382 25.7426 51.743 26.3608C51.9024 26.8414 52.3318 27.5763 52.9071 27.6163C52.9905 27.6222 53.0611 27.5533 53.0468 27.472C52.9702 27.0105 52.4913 26.6067 52.2776 26.1818Z" fill="black"/>
<path d="M51.6511 27.8478C51.3258 27.3163 51.2527 26.6677 51.2521 26.0555C51.2521 25.9055 51.0374 25.8382 50.9874 25.997C50.8004 26.5991 50.7984 27.2134 51.0144 27.8108C51.1928 28.3033 51.5905 29.0239 52.1495 29.0818C52.2509 29.0919 52.3326 28.9882 52.3128 28.89C52.2338 28.4863 51.8611 28.193 51.6511 27.8478Z" fill="black"/>
<path d="M51.0417 29.5572C50.8475 28.8825 50.8166 28.1658 50.7586 27.4652C50.7489 27.3534 50.5989 27.3387 50.5638 27.4405C50.4428 27.8012 50.372 28.2637 50.366 28.7467C50.3103 28.6995 50.2166 28.7035 50.1639 28.768C49.2178 29.9358 49.5403 32.698 50.9951 33.229C51.101 33.2676 51.2238 33.1558 51.1929 33.032C51.0078 32.2927 50.4749 31.7504 50.2831 30.9879C50.1204 30.3391 50.2734 29.7276 50.3757 29.0974C50.4247 29.9997 50.7096 30.9087 51.3393 31.3172C51.4651 31.3984 51.5988 31.2826 51.5807 31.1329C51.5129 30.5846 51.1947 30.0862 51.0417 29.5572Z" fill="black"/>
<path d="M50.5909 35.4445C50.3286 34.8116 49.7536 34.3496 49.4711 33.7047C49.0976 32.8477 49.3114 31.9708 49.3497 31.0899C49.3519 31.0381 49.2695 31.0201 49.2384 31.0573C48.201 32.2806 48.508 35.1992 50.3756 35.6732C50.5338 35.7138 50.6451 35.5762 50.5909 35.4445Z" fill="black"/>
<path d="M48.7038 35.8236C48.3309 34.9576 48.6516 34.1436 48.6395 33.2612C48.6395 33.244 48.6141 33.2288 48.5987 33.2415C47.3877 34.2013 47.873 37.1726 49.4094 37.6284C49.5245 37.6626 49.6537 37.5644 49.6236 37.4477C49.4669 36.8563 48.9515 36.3985 48.7038 35.8236Z" fill="black"/>
<path d="M47.9654 37.603C47.7086 36.8298 47.7825 36.0408 47.6465 35.2557C47.6333 35.1802 47.5421 35.1689 47.5052 35.2339C46.7867 36.5105 47.3196 39.0691 48.6324 39.8124C48.7493 39.8786 48.9316 39.7872 48.8873 39.6355C48.6813 38.9213 48.2025 38.3171 47.9654 37.603Z" fill="black"/>
<path d="M47.3469 39.6294C47.0261 38.8589 47.0763 38.0326 46.9592 37.2295C46.9446 37.1289 46.8042 37.1187 46.7599 37.2044C46.3336 38.0238 46.3889 39.0287 46.6827 39.8842C46.9534 40.6765 47.4611 41.8112 48.4133 42.0286C48.5356 42.0565 48.6832 41.9661 48.644 41.835C48.4097 41.0448 47.6735 40.4183 47.3469 39.6294Z" fill="black"/>
<path d="M48.1516 43.989C47.8535 43.1945 47.1193 42.6186 46.8039 41.7957C46.5093 41.0277 46.5959 40.2099 46.4989 39.4161C46.4878 39.3268 46.372 39.3261 46.3297 39.3934C45.4839 40.7502 46.1349 43.6965 47.8916 44.2251C48.0337 44.2678 48.2036 44.1274 48.1516 43.989Z" fill="black"/>
<path d="M45.9485 43.3912C45.7368 42.648 45.7744 41.8688 45.7553 41.1029C45.7541 41.0626 45.6949 41.0368 45.6722 41.0746C45.2584 41.7403 45.1812 42.4798 45.2536 43.2583C45.3331 44.1269 45.8713 45.4062 46.7008 45.6902C46.8389 45.7375 46.9699 45.585 46.934 45.4458C46.7426 44.7039 46.1644 44.1521 45.9485 43.3912Z" fill="black"/>
<path d="M46.6741 47.8767C46.3097 47.1529 45.5962 46.6884 45.2242 45.9347C44.7733 45.0212 44.9347 44.0676 44.8564 43.0997C44.8495 43.0147 44.7185 42.9766 44.6693 43.0507C44.102 43.9207 44.1858 45.0008 44.4906 45.9483C44.7636 46.7958 45.5131 47.9528 46.4538 48.1385C46.6083 48.1691 46.751 48.0304 46.6741 47.8767Z" fill="black"/>
<path d="M44.3818 47.8293C44.0326 46.9873 44.0495 45.9912 44.0357 45.0911C44.0351 44.9664 43.8758 44.911 43.8244 45.0376C43.4558 45.9573 43.4426 46.7928 43.6664 47.7542C43.8658 48.6151 44.3899 49.8272 45.2696 50.0909C45.378 50.1236 45.4965 50.0276 45.4696 49.9049C45.2978 49.1465 44.6802 48.5531 44.3818 47.8293Z" fill="black"/>
<path d="M50.4983 51.4987C48.8384 51.2066 47.1097 51.3681 45.4337 51.4101C45.1119 51.4186 44.7761 51.4134 44.4342 51.4075C44.1465 50.762 43.616 50.2151 43.3758 49.5185C43.1202 48.7791 43.2594 47.9971 43.1537 47.2407C43.1443 47.1738 43.0446 47.1337 43.0011 47.1981C42.3114 48.2361 42.5522 50.3458 43.5203 51.3917C43.2774 51.3884 43.0339 51.3891 42.7917 51.3943C42.7201 51.2315 42.6512 51.0674 42.6077 50.8901C42.5362 50.59 42.5061 50.2683 42.5027 49.9603C42.5 49.7929 42.2766 49.7108 42.1789 49.8605C41.8992 50.288 41.8839 50.9065 42.0585 51.4337C41.5888 51.4725 41.1319 51.5434 40.7084 51.6767C40.5639 51.7226 40.5351 51.9104 40.6883 51.9695C42.0846 52.5112 43.919 52.2263 45.3936 52.1895C47.0816 52.1468 48.8619 52.1468 50.5043 51.7364C50.6401 51.7023 50.6381 51.523 50.4983 51.4987Z" fill="black"/>
<path d="M66.1882 38.5847C65.1086 37.7437 62.9514 38.0671 62.3421 39.4489C62.3086 39.5245 62.3919 39.6205 62.463 39.581C62.9753 39.2957 63.4069 38.9391 63.9741 38.7647C64.6893 38.5437 65.3883 38.805 66.1009 38.8502C66.2334 38.8579 66.2986 38.6701 66.1882 38.5847Z" fill="black"/>
<path d="M67.4493 37.7697C67.0535 37.0867 66.0886 37.1198 65.4131 37.17C64.5486 37.2334 63.7569 37.6258 63.1012 38.2C63.0244 38.2668 63.0894 38.399 63.1872 38.3618C63.8442 38.1029 64.5105 37.8998 65.207 37.7966C65.956 37.685 66.6308 38.0795 67.341 37.9942C67.4329 37.9838 67.4979 37.8537 67.4493 37.7697Z" fill="black"/>
<path d="M68.3608 36.3373C67.1235 35.5248 64.8866 36.0093 63.8424 36.9522C63.7455 37.0395 63.8328 37.1747 63.951 37.1414C64.6625 36.9397 65.3211 36.679 66.0628 36.5896C66.8038 36.4995 67.5222 36.7061 68.2564 36.6721C68.4296 36.6645 68.5203 36.4419 68.3608 36.3373Z" fill="black"/>
<path d="M68.8472 34.9216C67.538 34.3622 65.7032 34.9659 64.5784 35.73C64.4714 35.8033 64.5764 35.9555 64.6848 35.9195C65.3094 35.7127 65.9239 35.5053 66.564 35.3566C67.3179 35.1823 68.0711 35.3089 68.8236 35.1865C68.9603 35.1644 68.9677 34.9728 68.8472 34.9216Z" fill="black"/>
<path d="M69.8038 33.8869C68.5664 33.4619 67.1016 33.9401 66.0279 34.5844C65.9631 34.623 66.0204 34.7243 66.0884 34.699C66.647 34.4925 67.2074 34.331 67.7969 34.241C68.4568 34.1403 69.0916 34.2366 69.7478 34.1922C69.9147 34.1802 69.9821 33.9484 69.8038 33.8869Z" fill="black"/>
<path d="M71.5878 33.0448C70.7319 32.2139 68.8659 32.5138 67.8174 32.8059C67.6511 32.8528 67.6875 33.0845 67.866 33.0572C68.5179 32.9565 69.1736 32.9221 69.8337 32.9571C70.396 32.9873 70.9212 33.2451 71.4777 33.2368C71.5763 33.2356 71.6722 33.1272 71.5878 33.0448Z" fill="black"/>
<path d="M74.2633 32.4433C73.269 31.4371 71.2155 31.3257 69.9799 31.7867C69.8658 31.8292 69.9001 32.0214 70.0156 32.0304C70.6441 32.0805 71.2693 32.0791 71.8946 32.1808C72.6541 32.3041 73.3702 32.6843 74.1291 32.7476C74.2698 32.7602 74.3703 32.5527 74.2633 32.4433Z" fill="black"/>
<path d="M73.3665 31.4198C73.3147 31.4408 73.3198 31.5151 73.3761 31.5266C74.2005 31.6994 74.9206 31.9681 75.5416 32.5494C76.1729 33.1389 76.3737 33.9781 76.8822 34.6363C76.9999 34.7881 77.241 34.6547 77.2403 34.4895C77.2314 32.8219 75.0799 30.7204 73.3665 31.4198Z" fill="black"/>
<path d="M76.1572 31.5312C76.0531 31.4998 75.9643 31.6293 76.0584 31.6986C76.8889 32.3093 77.693 32.8802 78.2988 33.7161C78.8277 34.4448 78.9252 35.2961 79.3156 36.0736C79.4031 36.248 79.6417 36.1608 79.6629 35.9959C79.9121 34.0817 77.9011 32.0668 76.1572 31.5312Z" fill="black"/>
<path d="M78.8157 32.267C78.7423 32.2321 78.6782 32.3233 78.7205 32.387C79.1394 33.0333 79.6317 33.6172 80.0281 34.2816C80.4595 35.0063 80.5778 35.9242 81.0615 36.5993C81.1374 36.7039 81.3324 36.6596 81.3568 36.5343C81.6587 35.0238 80.1107 32.8838 78.8157 32.267Z" fill="black"/>
<path d="M83.2026 35.4608C82.8842 34.663 82.366 33.9994 81.6509 33.5065C81.5262 33.4202 81.3272 33.5737 81.4172 33.7085C81.846 34.3568 82.2767 35.0056 82.5834 35.7191C82.8336 36.3053 82.8329 37.0175 83.1895 37.5532C83.265 37.667 83.4226 37.665 83.4791 37.534C83.7661 36.8749 83.4541 36.0911 83.2026 35.4608Z" fill="black"/>
<path d="M83.4224 34.7098C83.3818 34.6847 83.3398 34.7356 83.3516 34.7737C83.5155 35.3161 83.7764 35.8238 83.9868 36.3507C84.2437 36.9964 84.3329 37.753 84.7458 38.3187C84.8075 38.4038 84.9582 38.3735 84.9871 38.2761C85.3305 37.1319 84.405 35.3258 83.4224 34.7098Z" fill="black"/>
<path d="M86.2609 37.0799C86.131 36.6166 85.9884 36.0979 85.6943 35.7089C85.6575 35.66 85.5777 35.6759 85.5669 35.7388C85.501 36.1793 85.6195 36.6331 85.7178 37.0615C85.8268 37.5338 85.88 38.2056 86.2293 38.5635C86.3047 38.6417 86.4422 38.627 86.4783 38.5145C86.6273 38.0594 86.3852 37.523 86.2609 37.0799Z" fill="black"/>
<path d="M87.1665 36.8248C87.0915 36.4873 86.9407 36.1713 86.6693 35.9436C86.6119 35.8947 86.514 35.9486 86.5271 36.021C86.5734 36.2925 86.6504 36.559 86.7104 36.828C86.7822 37.1484 86.7333 37.4897 86.8794 37.7917C86.9479 37.9332 87.13 37.8882 87.1861 37.7683C87.3244 37.4726 87.2357 37.1294 87.1665 36.8248Z" fill="black"/>
<path d="M56.3932 61.8363C55.5545 62.6041 54.8286 64.3852 55.0407 65.619C55.0608 65.7334 55.2089 65.7858 55.268 65.6762C55.4789 65.2847 55.5643 64.8628 55.666 64.4231C55.8672 63.5546 56.2365 62.7475 56.4682 61.8921C56.4791 61.8466 56.4237 61.808 56.3932 61.8363Z" fill="black"/>
<mask id="mask2_1269_9309" style="mask-type:luminance" maskUnits="userSpaceOnUse" x="53" y="58" width="19" height="18">
<path d="M53.5449 58.2559H71.383V76H53.5449V58.2559Z" fill="white"/>
</mask>
<g mask="url(#mask2_1269_9309)">
<path d="M62.5096 75.9941C57.6458 75.9941 53.6885 72.0375 53.6885 67.1723C53.6885 62.3072 57.6458 58.3506 62.5096 58.3506C67.374 58.3506 71.3313 62.3072 71.3313 67.1723C71.3313 72.0375 67.374 75.9941 62.5096 75.9941ZM62.5096 58.9284C57.9646 58.9284 54.267 62.6261 54.267 67.1723C54.267 71.718 57.9646 75.4163 62.5096 75.4163C67.0552 75.4163 70.7529 71.718 70.7529 67.1723C70.7529 62.6261 67.0552 58.9284 62.5096 58.9284Z" fill="black"/>
</g>
<path d="M62.4563 71.3568C60.0986 71.3568 58.1807 69.4382 58.1807 67.0805C58.1807 64.7221 60.0986 62.8042 62.4563 62.8042C64.8147 62.8042 66.7333 64.7221 66.7333 67.0805C66.7333 69.4382 64.8147 71.3568 62.4563 71.3568ZM62.4563 63.3854C60.4189 63.3854 58.7605 65.0424 58.7605 67.0805C58.7605 69.1186 60.4189 70.7763 62.4563 70.7763C64.4944 70.7763 66.1521 69.1186 66.1521 67.0805C66.1521 65.0424 64.4944 63.3854 62.4563 63.3854Z" fill="black"/>
<path d="M60.7639 61.5849C59.1836 61.9022 58.0002 63.2669 57.2603 64.5846C56.7595 65.475 55.9596 67.7943 56.9193 68.6186C57.0136 68.6997 57.1417 68.6834 57.1935 68.5656C57.3593 68.1914 57.2744 67.9559 57.234 67.5457C57.1531 66.7298 57.3863 65.8944 57.6889 65.1452C58.317 63.5836 59.6048 62.807 60.834 61.7517C60.9001 61.6961 60.867 61.5633 60.7639 61.5849Z" fill="black"/>
<path d="M58.7938 61.589C57.4695 62.1561 56.5329 63.2391 55.8946 64.469C55.4525 65.3216 54.9218 66.7879 55.5056 67.6516C55.5519 67.7206 55.6514 67.6917 55.6841 67.6293C55.9075 67.1909 55.8387 67.2099 55.8782 66.6153C55.9204 65.953 56.1459 65.3131 56.415 64.7099C56.9572 63.499 57.9477 62.628 58.8919 61.719C58.9545 61.6593 58.868 61.5555 58.7938 61.589Z" fill="black"/>
<path d="M67.4183 65.3207C67.3479 65.1914 67.1689 65.246 67.1808 65.3955C67.3077 66.9148 67.4453 68.2061 66.8654 69.6637C66.354 70.9472 65.2432 71.6451 64.331 72.5744C64.2436 72.6648 64.3008 72.8545 64.4428 72.8188C67.3121 72.0916 68.8344 67.9065 67.4183 65.3207Z" fill="black"/>
<path d="M68.9986 66.052C68.9448 65.9489 68.7443 65.9541 68.7489 66.0936C68.7923 67.4074 68.9204 68.537 68.4171 69.7971C67.9952 70.8547 67.0726 71.4756 66.5068 72.4144C66.4522 72.5033 66.5258 72.6058 66.6297 72.5721C69.0065 71.8019 70.0809 68.1211 68.9986 66.052Z" fill="black"/>
<path d="M70.3563 67.7152C70.3277 67.6706 70.267 67.6955 70.2534 67.7342C70.034 68.3729 70.0561 69.0484 69.8138 69.6858C69.5293 70.4353 68.8903 70.9376 68.4693 71.6039C68.3828 71.7403 68.5272 71.8931 68.6866 71.8315C70.1447 71.2741 71.1669 69.009 70.3563 67.7152Z" fill="black"/>
<path d="M83.7522 55.4739C83.2746 55.5125 82.8433 55.7338 82.3908 55.8762C81.627 56.1152 80.836 56.1733 80.0556 56.3242C79.8608 56.362 79.9058 56.6148 80.0801 56.6428C81.1619 56.8205 83.1388 56.5664 83.8225 55.6C83.8609 55.5458 83.8244 55.4681 83.7522 55.4739Z" fill="black"/>
<path d="M83.5169 56.6989C82.9299 56.8922 82.352 57.1039 81.7524 57.2681C81.1264 57.4395 80.4693 57.4552 79.8287 57.5605C79.6471 57.5914 79.6273 57.853 79.8221 57.8799C81.1264 58.0597 82.6783 57.5807 83.579 56.7768C83.62 56.7415 83.5685 56.6815 83.5169 56.6989Z" fill="black"/>
<path d="M83.2197 58.1651C82.6498 58.3388 82.1176 58.6227 81.5509 58.8131C80.8044 59.0617 80.0318 58.9703 79.2835 59.1579C79.1783 59.1849 79.163 59.3282 79.2605 59.3802C80.4398 60.0102 82.4663 59.3538 83.3262 58.3569C83.3906 58.2835 83.3102 58.1374 83.2197 58.1651Z" fill="black"/>
<path d="M82.5187 59.8743C81.9115 60.0358 81.3397 60.3091 80.7377 60.4964C79.9422 60.7438 79.123 60.6572 78.3217 60.8277C78.1909 60.8557 78.1838 61.0395 78.2992 61.0954C79.54 61.7008 81.6994 61.1108 82.5979 60.0267C82.6456 59.9687 82.5934 59.8547 82.5187 59.8743Z" fill="black"/>
<path d="M82.1411 61.3444C81.374 61.5453 80.6594 61.8155 79.8658 61.9523C79.1253 62.0807 78.3658 62.0576 77.6212 62.1555C77.4458 62.1792 77.4369 62.4038 77.6069 62.4415C79.0566 62.7601 81.1503 62.4184 82.3117 61.6129C82.4532 61.5149 82.3226 61.2977 82.1411 61.3444Z" fill="black"/>
<path d="M81.0046 62.8084C80.3119 62.9981 79.6684 63.2549 78.9526 63.3511C78.0816 63.4674 77.217 63.2677 76.3549 63.3619C76.2667 63.3713 76.2264 63.5118 76.3057 63.5629C77.6157 64.4028 79.9387 64.0229 81.1062 63.0431C81.2015 62.9638 81.1312 62.7735 81.0046 62.8084Z" fill="black"/>
<path d="M78.0012 64.6745C77.2083 64.7378 76.3538 64.5966 75.6429 64.2952C75.3598 64.175 75.1343 64.5262 75.4128 64.6534C76.2811 65.0527 77.1164 65.037 78.0806 64.9602C78.3108 64.9418 78.2294 64.6561 78.0012 64.6745Z" fill="black"/>
<path d="M42.71 52.7359C41.9833 52.587 41.2247 52.5951 40.4808 52.5773C39.7592 52.5601 39.0025 52.501 38.2847 52.587C38.0984 52.6096 38.094 52.8703 38.279 52.8983C38.8526 52.9843 39.4561 52.9789 40.0367 52.9929C40.9089 53.0144 41.8296 53.0934 42.687 52.9251C42.7885 52.9052 42.8351 52.7617 42.71 52.7359Z" fill="black"/>
<path d="M43.6844 53.4258C42.7825 53.2362 41.8491 53.2755 40.9301 53.2825C39.8688 53.2907 38.7859 53.2425 37.7377 53.4208C37.6262 53.4398 37.6268 53.5913 37.7377 53.6104C38.6481 53.7632 39.5697 53.7309 40.49 53.7423C41.5493 53.7556 42.6441 53.8247 43.6838 53.6059C43.7894 53.5837 43.79 53.4474 43.6844 53.4258Z" fill="black"/>
<path d="M44.8876 54.4701C42.6518 53.9537 39.6574 53.8114 37.437 54.3439C37.3953 54.3545 37.4049 54.4116 37.4415 54.421C38.5533 54.6863 39.7242 54.6266 40.8637 54.6676C42.2028 54.7161 43.5568 54.7938 44.8928 54.6863C45.0309 54.6738 45.0007 54.4955 44.8876 54.4701Z" fill="black"/>
<path d="M54.9595 52.531C54.2648 52.2716 53.3862 52.3582 52.6472 52.3236C52.2086 52.3025 51.7625 52.2932 51.3239 52.2982C51.2156 52.2994 51.1026 52.3322 50.9963 52.3471C50.9725 52.3502 50.9623 52.357 50.95 52.3626C50.9282 52.3595 50.9057 52.3558 50.8853 52.3601C50.8376 52.3713 50.8397 52.4338 50.8798 52.4511C51.4513 52.6951 52.1807 52.6766 52.7978 52.7057C53.4761 52.7372 54.307 52.8927 54.9548 52.6592C55.0154 52.6375 55.0229 52.5546 54.9595 52.531Z" fill="black"/>
<path d="M54.7087 53.4396C53.9819 53.1791 53.1302 53.2986 52.3685 53.3227C51.545 53.3494 50.6651 53.318 49.8832 53.6073C49.8691 53.6126 49.8684 53.6353 49.8846 53.6387C50.6893 53.8137 51.5463 53.7302 52.3658 53.7335C53.1288 53.7362 53.9785 53.8551 54.706 53.5966C54.7745 53.5732 54.7799 53.465 54.7087 53.4396Z" fill="black"/>
<path d="M55.2274 54.0074C53.9613 54.0268 52.6814 54.16 51.429 54.2987C51.2866 54.3148 51.3236 54.4707 51.4598 54.4691C52.715 54.4545 54.0065 54.5662 55.2534 54.4189C55.5814 54.3796 55.5712 54.0015 55.2274 54.0074Z" fill="black"/>
<path d="M80.5809 45.4719C80.4698 45.4034 80.3535 45.554 80.4576 45.6443C81.1258 46.2244 81.6283 46.9023 81.9746 47.7437C82.312 48.5633 82.1301 49.381 82.3023 50.2108C82.3293 50.3398 82.5131 50.3988 82.5806 50.2692C83.5033 48.4975 81.9656 46.333 80.5809 45.4719Z" fill="black"/>
<path d="M81.9888 45.4571C81.9051 45.4367 81.855 45.5464 81.9005 45.6068C82.4131 46.2929 82.9652 46.8051 83.2709 47.6311C83.5246 48.3172 83.4436 49.0395 83.605 49.7374C83.6406 49.8871 83.8284 49.8891 83.889 49.7571C84.5189 48.3776 83.5398 45.8287 81.9888 45.4571Z" fill="black"/>
<path d="M75.5176 51.876C75.1753 51.2664 74.7462 50.7529 74.5103 50.084C74.2242 49.2713 74.3632 48.3714 74.4601 47.5445C74.4784 47.3909 74.2615 47.3632 74.1992 47.489C73.4894 48.9133 73.7199 51.2503 75.3543 52.0417C75.4539 52.0901 75.5678 51.965 75.5176 51.876Z" fill="black"/>
<path d="M74.5411 52.5844C74.2809 51.9034 73.858 51.3443 73.6673 50.6191C73.4377 49.7426 73.6469 48.8594 73.7853 47.9903C73.7975 47.9119 73.6967 47.8644 73.6501 47.928C72.733 49.211 72.916 51.8941 74.3389 52.7639C74.4563 52.8349 74.5934 52.721 74.5411 52.5844Z" fill="black"/>
<path d="M87.3293 35.9444C87.134 35.8572 86.9009 36.0798 87.0781 36.2378C87.3677 36.4974 87.6741 36.7332 87.9287 37.026C88.2183 37.3583 88.3961 37.7716 88.7147 38.08C88.7955 38.1584 88.9679 38.1315 88.97 38.0042C88.978 37.2097 88.0654 36.2686 87.3293 35.9444Z" fill="black"/>
<path d="M90.9126 36.7277C90.5603 35.9006 89.259 35.3286 88.3902 35.453C88.1375 35.4889 88.2267 35.839 88.4439 35.8595C89.3754 35.9493 89.9378 36.4648 90.7206 36.8841C90.8285 36.9418 90.9669 36.854 90.9126 36.7277Z" fill="black"/>
<path d="M92.8705 36.49C92.6654 35.9275 91.9296 35.6339 91.3969 35.4324C90.8224 35.2153 90.1659 35.1082 89.5645 35.2682C89.4176 35.3079 89.4232 35.5028 89.5782 35.5245C90.1928 35.6099 90.7786 35.7031 91.3563 35.9329C91.832 36.1224 92.224 36.5152 92.7142 36.6518C92.823 36.6819 92.9067 36.5898 92.8705 36.49Z" fill="black"/>
<path d="M95.2987 36.3785C94.7214 35.2603 92.8714 34.4549 91.7599 34.7733C91.6487 34.8049 91.6094 34.9989 91.7387 35.0424C92.266 35.2231 92.8102 35.3081 93.3319 35.5224C93.971 35.7867 94.4546 36.292 95.0531 36.6357C95.1962 36.7179 95.3924 36.5598 95.2987 36.3785Z" fill="black"/>
<path d="M95.7743 34.942C95.2421 34.7491 94.3647 34.5267 93.8794 34.9243C93.8497 34.9486 93.8456 34.9971 93.8863 35.0148C94.4606 35.2576 95.1323 35.2189 95.7287 35.4669C96.428 35.7576 96.9008 36.3612 97.5808 36.6493C97.6705 36.6867 97.7892 36.5974 97.7623 36.5043C97.5359 35.7018 96.5329 35.2163 95.7743 34.942Z" fill="black"/>
<path d="M99.4419 35.9664C98.7578 35.2553 97.4178 34.5284 96.339 34.7406C96.2853 34.751 96.2913 34.8205 96.3336 34.8394C96.8432 35.0657 97.399 35.1693 97.9092 35.4054C98.3785 35.6237 98.8075 35.8987 99.2553 36.15C99.3855 36.222 99.55 36.0774 99.4419 35.9664Z" fill="black"/>
<path d="M98.3268 34.233C98.2431 34.2454 98.231 34.3629 98.3038 34.4016C98.9204 34.7263 99.5716 34.8997 100.172 35.2749C100.757 35.6404 101.126 36.285 101.696 36.6367C101.795 36.6975 101.95 36.6222 101.917 36.4806C101.606 35.1471 99.5134 34.0575 98.3268 34.233Z" fill="black"/>
<path d="M102.732 35.2626C102.211 34.8546 101.456 34.195 100.751 34.2148C100.704 34.2161 100.687 34.2678 100.708 34.3023C101.009 34.8092 101.733 35.1387 102.203 35.4905C102.854 35.9771 103.398 36.7548 104.116 37.1283C104.22 37.1826 104.404 37.1124 104.357 36.9713C104.114 36.2568 103.311 35.7166 102.732 35.2626Z" fill="black"/>
<path d="M103.196 34.7033C103.127 34.7039 103.13 34.7956 103.176 34.8259C103.699 35.1622 104.233 35.4473 104.698 35.8739C105.198 36.3308 105.554 36.9339 106.072 37.3612C106.181 37.4508 106.347 37.3228 106.315 37.1887C106.008 35.9359 104.425 34.6878 103.196 34.7033Z" fill="black"/>
<path d="M108.753 38.1572C108.412 37.137 106.99 35.6681 105.855 35.9633C105.82 35.9717 105.826 36.0194 105.851 36.0348C106.308 36.3216 106.778 36.5628 107.205 36.9049C107.707 37.3081 108.067 37.8522 108.511 38.3178C108.63 38.4412 108.807 38.3199 108.753 38.1572Z" fill="black"/>
<path d="M109.691 37.5407C109.209 37.0236 108.593 36.5655 107.905 36.4161C107.794 36.3912 107.742 36.5596 107.827 36.6225C108.367 37.023 108.908 37.3802 109.378 37.8737C109.806 38.3239 110.083 38.9033 110.54 39.3214C110.615 39.3889 110.731 39.305 110.716 39.212C110.604 38.5487 110.128 38.0106 109.691 37.5407Z" fill="black"/>
<path d="M111.909 38.426C111.356 37.8947 110.65 37.3169 109.855 37.1483C109.774 37.131 109.703 37.2407 109.762 37.2977C110.231 37.7404 110.807 38.0677 111.289 38.4998C111.893 39.0404 112.298 39.8054 112.936 40.297C113.035 40.3726 113.182 40.2709 113.159 40.1631C113.017 39.4985 112.403 38.9003 111.909 38.426Z" fill="black"/>
<path d="M116.605 41.6644C116.144 41.1231 115.584 40.5264 114.883 40.3156C114.847 40.3045 114.812 40.3175 114.785 40.3384C114.575 40.0766 114.343 39.8338 114.148 39.6229C113.603 39.0288 112.885 38.3694 112.098 38.1292C111.999 38.0978 111.886 38.216 111.967 38.3068C112.477 38.8682 113.113 39.3089 113.633 39.8677C114.158 40.4324 114.54 41.3373 115.182 41.7538C115.258 41.8021 115.389 41.7642 115.388 41.6591C115.385 41.3941 115.291 41.1349 115.156 40.8849C115.516 41.2459 115.9 41.5821 116.214 41.994C116.617 42.5242 116.86 43.286 117.352 43.7182C117.428 43.7842 117.55 43.715 117.556 43.6236C117.609 42.9505 117.022 42.1527 116.605 41.6644Z" fill="black"/>
<path d="M116.724 41.3047C116.639 41.28 116.534 41.3756 116.607 41.4556C117.244 42.1467 117.995 42.6597 118.566 43.4275C119.083 44.1251 119.338 44.9768 119.852 45.6673C119.892 45.7213 120 45.7057 120.002 45.6296C120.056 44.0146 118.25 41.7495 116.724 41.3047Z" fill="black"/>
<path d="M121.357 45.6072C120.998 44.8271 120.454 43.9444 119.702 43.5193C119.582 43.4518 119.464 43.5739 119.537 43.6954C119.94 44.3648 120.458 44.9351 120.823 45.6349C121.187 46.3306 121.242 47.2504 121.722 47.8564C121.77 47.9172 121.887 47.9158 121.91 47.8281C122.107 47.0891 121.66 46.2658 121.357 45.6072Z" fill="black"/>
<path d="M122.843 46.6491C122.574 46.1027 122.137 45.0598 121.493 44.9661C121.481 44.9641 121.468 44.973 121.469 44.988C121.523 45.7252 122.268 46.5568 122.575 47.2174C123.028 48.1913 123.185 49.2937 123.629 50.2546C123.695 50.3975 123.888 50.3551 123.902 50.1971C124.005 48.9949 123.346 47.6736 122.843 46.6491Z" fill="black"/>
<path d="M123.567 46.9416C123.492 46.8758 123.384 46.9814 123.441 47.0544C123.918 47.6894 124.343 48.3485 124.709 49.0468C125.119 49.8291 125.157 50.7366 125.58 51.4942C125.64 51.6044 125.795 51.577 125.821 51.459C126.151 49.9034 124.693 47.9228 123.567 46.9416Z" fill="black"/>
<path d="M128.738 54.2474C128.534 53.4437 128.271 52.5048 127.664 51.9028C127.596 51.8349 127.481 51.8565 127.449 51.9348C127.133 50.7694 126.346 49.5909 125.478 49.1267C125.428 49.0999 125.359 49.16 125.385 49.2116C125.742 49.9239 126.268 50.518 126.592 51.2552C126.939 52.0432 126.923 52.9077 127.223 53.6944C127.268 53.8113 127.452 53.7936 127.489 53.6813C127.603 53.3294 127.621 52.9207 127.564 52.4944C127.732 53.0356 127.977 53.5632 128.136 54.1077C128.375 54.9284 128.389 55.8039 128.681 56.6057C128.73 56.7376 128.969 56.7193 128.995 56.5809C129.144 55.7993 128.931 55.0074 128.738 54.2474Z" fill="black"/>
<path d="M128.847 53.5731C128.709 53.4339 128.499 53.5849 128.571 53.7596C128.996 54.8026 129.5 55.728 129.742 56.8418C129.934 57.7324 129.805 58.64 129.966 59.5286C129.988 59.6521 130.149 59.66 130.198 59.5523C131.004 57.8119 130.146 54.8879 128.847 53.5731Z" fill="black"/>
<path d="M131.604 60.6441C131.351 61.3696 131.034 62.0807 130.624 62.7305C130.19 63.4152 129.494 63.8796 129.068 64.5551C128.996 64.6695 129.106 64.7932 129.228 64.7504C130.724 64.2282 131.761 62.1701 131.732 60.6659C131.731 60.5994 131.625 60.5803 131.604 60.6441Z" fill="black"/>
<path d="M131.557 62.8431C131.182 63.5061 130.779 64.1739 130.303 64.7661C129.872 65.3029 129.299 65.6732 128.851 66.1836C128.726 66.3265 128.85 66.52 129.027 66.4576C130.382 65.9846 131.409 64.2661 131.73 62.9173C131.753 62.8237 131.606 62.7592 131.557 62.8431Z" fill="black"/>
<path d="M130.287 66.0548C130.048 66.5596 129.83 67.0583 129.462 67.4812C129.123 67.8727 128.647 68.1224 128.33 68.5289C128.283 68.5896 128.334 68.6729 128.406 68.6688C129.482 68.5951 130.531 67.166 130.51 66.1101C130.508 65.9764 130.346 65.928 130.287 66.0548Z" fill="black"/>
<path d="M130.464 67.2672C130.447 67.1835 130.334 67.181 130.314 67.2647C130.195 67.739 130.048 68.1996 129.816 68.6342C129.543 69.1438 129.027 69.5536 128.599 69.9362C128.498 70.0261 128.592 70.1674 128.717 70.129C129.927 69.7644 130.716 68.4823 130.464 67.2672Z" fill="black"/>
<path d="M130.741 68.4868C130.733 68.4138 130.643 68.4036 130.613 68.465C130.27 69.1465 130.093 69.845 129.563 70.4152C128.881 71.1513 128.036 71.137 127.182 71.4671C127.043 71.5217 127.068 71.7673 127.21 71.7986C128.89 72.1711 130.945 70.272 130.741 68.4868Z" fill="black"/>
<path d="M130.836 70.9011C130.288 71.6191 129.833 72.2789 128.94 72.6081C128.139 72.905 127.355 72.6478 126.539 72.6729C126.383 72.6782 126.276 72.895 126.437 72.9823C128.117 73.892 130.623 72.8197 130.998 70.9685C131.016 70.8806 130.889 70.8317 130.836 70.9011Z" fill="black"/>
</svg>
