<svg width="132" height="93" viewBox="0 0 132 93" fill="none" xmlns="http://www.w3.org/2000/svg">
<g clip-path="url(#clip0_1269_9304)">
<rect width="132" height="93" fill="white"/>
<path d="M21.7912 52.7837H11.0253C9.8985 52.7837 8.98584 53.6964 8.98584 54.8231V83.9874C8.98584 85.1141 9.8985 86.0268 11.0253 86.0268H21.7912C22.9179 86.0268 23.8315 85.1141 23.8315 83.9874V54.8231C23.8315 53.6964 22.9179 52.7837 21.7912 52.7837Z" fill="#212121"/>
<path d="M15.6432 83.4167C15.6432 83.8395 15.9853 84.1815 16.4089 84.1815C16.8317 84.1815 17.1737 83.8395 17.1737 83.4167V60.5149H15.6432V83.4167ZM11.5254 83.4167C11.5254 83.8395 11.8683 84.1815 12.292 84.1815C12.7157 84.1815 13.0577 83.8395 13.0577 83.4167V60.4759C12.5306 60.426 12.0189 60.3217 11.5254 60.1738V83.4167ZM19.7593 60.5149V83.4167C19.7593 83.8395 20.1013 84.1815 20.525 84.1815C20.9486 84.1815 21.2916 83.8395 21.2916 83.4167V60.5149H19.7593Z" fill="#454545"/>
<path d="M97.1073 52.7837H107.873C109 52.7837 109.913 53.6964 109.913 54.8231V83.9874C109.913 85.1141 109 86.0268 107.873 86.0268H97.1073C95.9814 86.0268 95.0679 85.1141 95.0679 83.9874V54.8231C95.0679 53.6964 95.9814 52.7837 97.1073 52.7837Z" fill="#212121"/>
<path d="M103.257 83.4167C103.257 83.8395 102.915 84.1815 102.491 84.1815C102.067 84.1815 101.725 83.8395 101.725 83.4167V60.5149H103.257V83.4167ZM107.374 83.4167C107.374 83.8395 107.031 84.1815 106.607 84.1815C106.183 84.1815 105.841 83.8395 105.841 83.4167V60.4759C106.37 60.426 106.88 60.3217 107.374 60.1738V83.4167ZM99.1398 60.5149V83.4167C99.1398 83.8395 98.7969 84.1815 98.3741 84.1815C97.9504 84.1815 97.6084 83.8395 97.6084 83.4167V60.5149H99.1398Z" fill="#454545"/>
<path d="M25.6418 28.5383H93.2584C95.854 28.5383 98.366 29.1643 100.594 30.3083H100.601L93.1287 11.2005C92.7068 10.1209 92.0745 9.13115 91.2471 8.31919C89.0544 6.16093 85.9009 4.78649 82.4517 4.54971L81.6306 4.49346C75.4543 4.06979 67.4971 3.82666 59.4501 3.82666C51.4022 3.82666 43.4459 4.06979 37.2696 4.49346L36.4486 4.54971C32.9993 4.78649 29.8468 6.16093 27.6531 8.31919C26.8257 9.13115 26.1934 10.1209 25.7707 11.2005L18.2988 30.3083H18.3052C20.5333 29.1643 23.0454 28.5383 25.6418 28.5383Z" fill="#F13E23"/>
<path d="M95.3239 24.0868C96.1695 25.4875 95.0454 27.1777 93.3008 27.174L93.2582 27.1731H25.6416L25.599 27.174C23.8544 27.1777 22.7304 25.4875 23.5759 24.0868L26.9063 13.7064C27.72 11.1698 29.6089 9.03697 32.1581 7.95648C33.5054 7.38584 35.0059 7.02839 36.579 6.92588L37.4 6.87235C43.6408 6.46683 51.4719 6.24365 59.4499 6.24365C67.4271 6.24365 75.2581 6.46683 81.5007 6.87235L82.3208 6.92588C83.7696 7.02023 85.1577 7.3314 86.4214 7.82674C89.1168 8.88274 91.1471 11.0664 91.9981 13.7164L95.3239 24.0868Z" fill="#A6CDE0"/>
<path d="M74.5768 23.4289H44.3221C40.9872 23.4289 38.7636 19.987 40.1335 16.9469L42.6528 11.3575C43.3958 9.71002 45.0343 8.65039 46.8414 8.65039H72.0584C73.8647 8.65039 75.504 9.71002 76.247 11.3575L78.7663 16.9469C80.1362 19.987 77.9117 23.4289 74.5768 23.4289Z" fill="#BDE9FF"/>
<path d="M54.7369 27.173V26.2214C54.7369 23.1359 52.2357 20.6356 49.1512 20.6356H46.5348C47.4238 20.2428 48.0453 19.3565 48.0453 18.3231V17.2181C48.0453 15.8201 46.9122 14.687 45.5151 14.687H39.9865C38.5885 14.687 37.4554 15.8201 37.4554 17.2181V18.3231C37.4554 19.3565 38.0777 20.2428 38.9659 20.6356H36.3504C33.2649 20.6356 30.7646 23.1359 30.7646 26.2214V27.173H54.7369Z" fill="#94B7C9"/>
<path d="M88.1353 27.173V26.2214C88.1353 23.1359 85.6351 20.6356 82.5496 20.6356H79.9332C80.8223 20.2428 81.4437 19.3565 81.4437 18.3231V17.2181C81.4437 15.8201 80.3106 14.687 78.9126 14.687H73.3858C71.9878 14.687 70.8547 15.8201 70.8547 17.2181V18.3231C70.8547 19.3565 71.4762 20.2428 72.3643 20.6356H69.7488C66.6643 20.6356 64.1631 23.1359 64.1631 26.2214V27.173H88.1353Z" fill="#94B7C9"/>
<path d="M64.1627 27.1731H59.3662L61.7222 23.429H64.9102C64.4348 24.25 64.1627 25.2035 64.1627 26.2214V27.1731ZM75.9592 10.8187C75.1291 9.4833 73.6585 8.65047 72.0582 8.65047H71.0194L72.4056 6.44775C74.5476 6.5158 76.6106 6.60107 78.5556 6.70268L75.9592 10.8187Z" fill="#C4E0EC"/>
<path d="M64.9106 23.4289H61.7227L71.0198 8.65039H72.0586C73.6589 8.65039 75.1295 9.48321 75.9596 10.8186L73.5192 14.687H73.3858C71.9878 14.687 70.8547 15.8201 70.8547 17.2181V18.3231C70.8547 18.4973 70.8719 18.667 70.9055 18.8312L69.7669 20.6356H69.7488C67.6812 20.6356 65.8759 21.7587 64.9106 23.4289Z" fill="#D3F1FF"/>
<path d="M54.7344 26.06C54.7072 25.1038 54.4395 24.2065 53.9896 23.429H56.3928L54.7344 26.06ZM38.9661 20.6357H37.7686L38.1387 20.0497C38.3709 20.2964 38.6522 20.4969 38.9661 20.6357ZM45.1161 8.98707L46.7237 6.43961C50.7408 6.31351 55.0265 6.24456 59.3666 6.24365C59.3938 6.24365 59.4229 6.24365 59.4501 6.24365C59.4764 6.24365 59.5018 6.24365 59.5272 6.24365C62.1101 6.24365 64.6711 6.26996 67.1723 6.31532L65.7017 8.6505H46.8416C46.2383 8.6505 45.6541 8.76843 45.1161 8.98707Z" fill="#C4E0EC"/>
<path d="M56.3925 23.4289H53.9893C53.024 21.7587 51.2177 20.6356 49.1511 20.6356H46.5347C47.4238 20.2428 48.0452 19.3564 48.0452 18.3231V17.2181C48.0452 15.8201 46.9121 14.687 45.515 14.687H41.5205L45.1158 8.98697C45.6538 8.76833 46.238 8.65039 46.8413 8.65039H65.7014L56.3925 23.4289Z" fill="#D3F1FF"/>
<path d="M54.0328 27.173H33.644L37.7682 20.6356H38.9658C38.6519 20.4968 38.3706 20.2963 38.1384 20.0496L41.5205 14.687H45.515C46.9121 14.687 48.0452 15.8201 48.0452 17.2181V18.3231C48.0452 19.3565 47.4237 20.2428 46.5347 20.6356H49.1511C51.2177 20.6356 53.024 21.7588 53.9893 23.4289C54.4392 24.2064 54.7069 25.1037 54.7341 26.0599L54.0328 27.173Z" fill="#B8D2DF"/>
<path d="M65.6428 27.173H64.1631V26.2214C64.1631 25.2035 64.4353 24.25 64.9106 23.4289C65.8759 21.7588 67.6813 20.6356 69.7488 20.6356H69.767L65.6428 27.173ZM70.9055 18.8312C70.8719 18.667 70.8547 18.4973 70.8547 18.3231V17.2181C70.8547 15.8201 71.9878 14.687 73.3858 14.687H73.5192L70.9055 18.8312Z" fill="#B8D2DF"/>
<path d="M55.198 24.8823C55.198 24.8823 56.4944 24.886 58.4359 24.9368C59.4066 24.9694 60.5397 24.993 61.7526 25.0447C62.9647 25.0991 64.2584 25.1563 65.5521 25.2144C66.8439 25.2897 68.1376 25.3641 69.3488 25.4348C70.5608 25.501 71.6903 25.6008 72.6583 25.668C74.5952 25.8168 75.8843 25.9501 75.8843 25.9501C76.1529 25.9782 76.3461 26.1561 76.3171 26.3466C76.2908 26.5217 76.0876 26.6469 75.849 26.6469C75.849 26.6469 74.5525 26.6478 72.6102 26.5961C71.6404 26.5625 70.5064 26.5453 69.2943 26.4863C68.0814 26.4328 66.7886 26.3738 65.4949 26.3148C64.2021 26.2395 62.9102 26.1642 61.6982 26.0925C60.4871 26.02 59.3576 25.9265 58.3887 25.8594C56.4509 25.7097 55.1617 25.58 55.1617 25.58C54.8932 25.5528 54.6999 25.3749 54.7272 25.1835C54.7535 25.0084 54.9576 24.8823 55.198 24.8823Z" fill="black"/>
<path d="M56.9243 25.3202C56.9243 25.3202 58.003 25.293 59.6187 25.313C60.4262 25.3311 61.3688 25.3366 62.3776 25.3719C63.3864 25.4019 64.4615 25.4536 65.5365 25.5035C66.6116 25.5643 67.6857 25.6232 68.6927 25.6976C69.6997 25.7648 70.6378 25.8582 71.4434 25.9226C73.0519 26.0687 74.1224 26.2084 74.1224 26.2084C74.1224 26.2084 73.0437 26.2374 71.428 26.2175C70.6196 26.1975 69.678 26.1948 68.6691 26.1576C67.6603 26.1277 66.5853 26.0759 65.5102 26.026C64.4352 25.9653 63.361 25.9054 62.354 25.831C61.347 25.763 60.408 25.6704 59.6033 25.606C57.9948 25.459 56.9243 25.3202 56.9243 25.3202Z" fill="#51646E"/>
<path d="M83.9993 29.2507L66.3803 26.9672L66.3767 26.9663C66.3077 26.9572 66.2496 26.9155 66.2179 26.8601L65.7371 26.0282L64.0007 25.8849C63.8818 25.8758 63.7938 25.7715 63.8029 25.6517C63.8129 25.5338 63.9172 25.4449 64.0351 25.4549L65.8949 25.6091C65.9675 25.6145 66.0301 25.6572 66.0646 25.7161L66.5472 26.5499L84.1164 28.2101C84.4039 28.2382 84.6144 28.4931 84.5872 28.7807C84.5609 29.0683 84.3051 29.2806 84.0166 29.2534L83.9993 29.2507Z" fill="black"/>
<path d="M26.8317 24.8823C26.8317 24.8823 28.1281 24.886 30.0704 24.9368C31.0403 24.9694 32.1734 24.993 33.3863 25.0447C34.5993 25.0991 35.892 25.1563 37.1857 25.2144C38.4785 25.2897 39.7704 25.3641 40.9824 25.4348C42.1945 25.501 43.324 25.6008 44.2929 25.668C46.2298 25.8168 47.5189 25.9501 47.5189 25.9501C47.7875 25.9782 47.9807 26.1561 47.9508 26.3466C47.9244 26.5217 47.7212 26.6469 47.4835 26.6469C47.4835 26.6469 46.1862 26.6478 44.2448 26.5961C43.2741 26.5625 42.14 26.5453 40.928 26.4863C39.716 26.4328 38.4223 26.3738 37.1286 26.3148C35.8367 26.2395 34.5439 26.1642 33.3328 26.0925C32.1208 26.02 30.9913 25.9265 30.0224 25.8594C28.0855 25.7097 26.7963 25.58 26.7963 25.58C26.5278 25.5528 26.3327 25.3749 26.3617 25.1835C26.3872 25.0084 26.5913 24.8823 26.8317 24.8823Z" fill="black"/>
<path d="M28.5586 25.3202C28.5586 25.3202 29.6382 25.293 31.2539 25.313C32.0614 25.3311 33.003 25.3366 34.0119 25.3719C35.0207 25.4019 36.0957 25.4536 37.1708 25.5035C38.2458 25.5643 39.3209 25.6232 40.327 25.6976C41.334 25.7648 42.273 25.8582 43.0777 25.9226C44.6862 26.0687 45.7567 26.2084 45.7567 26.2084C45.7567 26.2084 44.678 26.2374 43.0622 26.2175C42.2548 26.1975 41.3122 26.1948 40.3034 26.1576C39.2946 26.1277 38.2195 26.0759 37.1445 26.026C36.0694 25.9653 34.9953 25.9054 33.9883 25.831C32.9813 25.763 32.0432 25.6704 31.2376 25.606C29.6291 25.459 28.5586 25.3202 28.5586 25.3202Z" fill="#51646E"/>
<path d="M55.6331 29.2507L38.015 26.9672L38.0104 26.9663C37.9415 26.9572 37.8843 26.9155 37.8517 26.8601L37.3718 26.0282L35.6345 25.8849C35.5156 25.8758 35.4276 25.7715 35.4367 25.6517C35.4476 25.5338 35.551 25.4449 35.6698 25.4549L37.5287 25.6091C37.6022 25.6145 37.6639 25.6572 37.6993 25.7161L38.181 26.5499L55.7492 28.2101C56.0368 28.2382 56.2491 28.4931 56.2219 28.7807C56.1947 29.0683 55.9397 29.2806 55.6513 29.2534L55.6331 29.2507Z" fill="black"/>
<path d="M59.4498 28.5381H93.2581C98.3158 28.5381 103.061 30.9005 105.994 34.8813L107.266 37.3925C108.135 39.1081 109.055 40.7982 110.081 42.4248C112.403 46.1081 111.793 47.9607 111.793 53.0647V66.2392C111.793 70.6211 108.241 74.1719 103.86 74.1719H15.0389C10.6579 74.1719 7.10619 70.6211 7.10619 66.2392V53.0647C7.10619 47.9607 6.49564 46.1081 8.81811 42.4248C9.84326 40.7982 10.765 39.1081 11.6332 37.3925L12.9051 34.8813C15.8381 30.9005 20.5829 28.5381 25.6415 28.5381H59.4498Z" fill="#F13E23"/>
<path d="M95.1789 59.7093C93.0805 60.0695 91.0919 60.9041 89.3645 62.1506C86.9831 63.868 84.1208 64.7915 81.1842 64.7915H37.7158C34.7792 64.7915 31.9169 63.868 29.5364 62.1506C27.8081 60.9041 25.8186 60.0695 23.7202 59.7093L14.2099 58.0781C11.9999 57.6989 9.93055 56.789 8.15967 55.4535V66.2394C8.15967 70.0343 11.246 73.1198 15.0391 73.1198H103.86C107.654 73.1198 110.741 70.0343 110.741 66.2394V55.4526C108.97 56.789 106.9 57.6989 104.69 58.0781L95.1789 59.7093Z" fill="#B3230D"/>
<path d="M8.90526 46.8298L8.59318 51.0828C8.43078 53.3009 10.1445 55.2097 12.3672 55.2859L25.0029 57.0359C25.9899 57.0695 26.732 56.1432 26.4826 55.1879L25.1707 50.1429C24.5692 47.8331 22.7067 46.0668 20.3688 45.5869L12.6448 44.0011C10.8004 43.6228 9.04225 44.9518 8.90526 46.8298Z" fill="#CFCFCF"/>
<path d="M12.4526 54.2996L12.4018 54.2978C11.598 54.2697 10.8596 53.9249 10.3216 53.3271C9.78541 52.7283 9.52141 51.9572 9.58038 51.1552L9.89246 46.9022C9.9732 45.7945 10.9049 44.9263 12.0117 44.9263C12.156 44.9263 12.302 44.9408 12.4454 44.9707L20.1694 46.5556C22.1544 46.963 23.703 48.4327 24.2138 50.3922L25.5247 55.4373C25.5773 55.6387 25.4938 55.7865 25.4385 55.8573C25.3859 55.9263 25.2698 56.0397 25.0747 56.0469L12.4526 54.2996Z" fill="#F2F2F2"/>
<path d="M12.216 53.4186C11.2289 53.3497 10.4841 52.4942 10.5522 51.508L10.8434 47.3221C10.9114 46.3351 11.7669 45.5903 12.7549 45.6592C13.741 45.7273 14.4859 46.5828 14.4178 47.5707L14.1275 51.7557C14.0595 52.7427 13.203 53.4867 12.216 53.4186Z" fill="#EC944C"/>
<path d="M23.2738 51.3601C23.2738 53.1645 21.8114 54.627 20.006 54.627C18.2006 54.627 16.7373 53.1645 16.7373 51.3601C16.7373 49.5547 18.2006 48.0923 20.006 48.0923C21.8114 48.0923 23.2738 49.5547 23.2738 51.3601Z" fill="#707070"/>
<path d="M22.1125 51.3604C22.1125 52.5234 21.1699 53.4669 20.0059 53.4669C18.8428 53.4669 17.8984 52.5234 17.8984 51.3604C17.8984 50.1964 18.8428 49.2529 20.0059 49.2529C21.1699 49.2529 22.1125 50.1964 22.1125 51.3604Z" fill="#F2F2F2"/>
<path d="M109.995 46.8298L110.307 51.0828C110.469 53.3009 108.756 55.2097 106.533 55.2859L93.897 57.0359C92.91 57.0695 92.1678 56.1432 92.4173 55.1879L93.7292 50.1429C94.3307 47.8331 96.1932 46.0668 98.5311 45.5869L106.255 44.0011C108.099 43.6228 109.858 44.9518 109.995 46.8298Z" fill="#CFCFCF"/>
<path d="M106.447 54.2996L106.499 54.2978C107.302 54.2697 108.04 53.9249 108.577 53.3271C109.114 52.7283 109.378 51.9572 109.319 51.1552L109.007 46.9022C108.927 45.7945 107.995 44.9263 106.888 44.9263C106.744 44.9263 106.598 44.9408 106.454 44.9707L98.7295 46.5556C96.7463 46.963 95.1968 48.4327 94.687 50.3922L93.3751 55.4373C93.3225 55.6387 93.406 55.7865 93.4604 55.8573C93.5139 55.9263 93.6301 56.0397 93.8251 56.0469L106.447 54.2996Z" fill="#F2F2F2"/>
<path d="M106.684 53.4186C107.671 53.3497 108.416 52.4942 108.348 51.508L108.057 47.3221C107.989 46.3351 107.133 45.5903 106.145 45.6592C105.159 45.7273 104.413 46.5828 104.482 47.5707L104.773 51.7557C104.841 52.7427 105.696 53.4867 106.684 53.4186Z" fill="#EC944C"/>
<path d="M95.626 51.3601C95.626 53.1645 97.0893 54.627 98.8938 54.627C100.699 54.627 102.162 53.1645 102.162 51.3601C102.162 49.5547 100.699 48.0923 98.8938 48.0923C97.0893 48.0923 95.626 49.5547 95.626 51.3601Z" fill="#707070"/>
<path d="M96.7861 51.3604C96.7861 52.5234 97.7305 53.4669 98.8936 53.4669C100.058 53.4669 101.001 52.5234 101.001 51.3604C101.001 50.1964 100.058 49.2529 98.8936 49.2529C97.7305 49.2529 96.7861 50.1964 96.7861 51.3604Z" fill="#F2F2F2"/>
<path d="M91.2741 68.9232L90.493 67.2793C89.3962 64.9768 87.7242 63.6323 85.9551 63.6323H32.9438C31.1747 63.6323 29.5027 64.9768 28.4068 67.2793L27.6248 68.9232C27.0542 70.1225 27.5695 71.8834 28.4912 71.8834H90.4077C91.3295 71.8834 91.8457 70.1225 91.2741 68.9232Z" fill="#212121"/>
<path d="M77.2793 71.8834H78.5158V63.6323H77.2793V71.8834ZM72.6679 71.8834H73.9045V63.6323H72.6679V71.8834ZM81.8907 71.8834H83.129V63.6323H81.8907V71.8834ZM31.1592 71.8834H32.3966V63.6849C31.972 63.7512 31.5584 63.8972 31.1592 64.1122V71.8834ZM86.503 63.6849V71.8834H87.7395V64.1122C87.3412 63.8972 86.9266 63.7521 86.503 63.6849ZM68.0547 71.8834H69.2922V63.6323H68.0547V71.8834ZM63.4434 71.8834H64.6808V63.6323H63.4434V71.8834ZM35.7706 71.8834H37.008V63.6323H35.7706V71.8834ZM44.996 71.8834H46.2326V63.6323H44.996V71.8834ZM40.3828 71.8834H41.6203V63.6323H40.3828V71.8834ZM58.8311 63.6323V71.8834H60.0685V63.6323H58.8311ZM49.6074 71.8834H50.8439V63.6323H49.6074V71.8834ZM54.2197 71.8834H55.4562V63.6323H54.2197V71.8834Z" fill="#454545"/>
<path d="M22.4008 43.0209C24.2679 43.4137 25.9254 44.4579 27.0667 45.9594C28.1599 47.3964 29.8101 48.3299 31.5955 48.5213L45.064 49.9656C54.6097 50.989 64.2897 50.989 73.8354 49.9656L87.3039 48.5213C89.0893 48.3299 90.7396 47.3964 91.8319 45.9594C92.974 44.4579 94.6306 43.4137 96.4986 43.0209C97.2062 42.8721 97.8086 42.4276 98.1488 41.8025C98.4836 41.1892 98.5298 40.4925 98.2803 39.8384L98.2676 39.7994L96.5095 32.3938C95.986 31.0946 94.6923 30.2219 93.2852 30.2183H25.6414C24.2071 30.2219 22.9134 31.0946 22.39 32.3938L20.6309 39.7994L20.6191 39.8384C20.3696 40.4925 20.4159 41.1892 20.7506 41.8025C21.0908 42.4276 21.6932 42.8721 22.4008 43.0209ZM59.4497 51.3655C54.6206 51.3655 49.7915 51.1087 44.996 50.5943L31.5283 49.15C29.5706 48.9405 27.7607 47.9171 26.5632 46.3422C25.5135 44.9614 23.9885 44.0016 22.2711 43.6396C21.382 43.4518 20.6245 42.893 20.1954 42.1046C19.7799 41.3444 19.7173 40.4453 20.0203 39.6333L21.7803 32.225L21.7939 32.1815C22.4063 30.6329 23.9413 29.5896 25.6133 29.5859H93.258C94.9581 29.5896 96.4931 30.6329 97.1055 32.1815L97.1191 32.225L98.8782 39.6333C99.1821 40.4453 99.1186 41.3444 98.704 42.1046C98.2749 42.893 97.5183 43.4518 96.6283 43.6396C94.9109 44.0016 93.3859 44.9614 92.3354 46.3422C91.1387 47.9171 89.3288 48.9405 87.3711 49.15L73.9035 50.5943C69.1079 51.1087 64.2788 51.3655 59.4497 51.3655Z" fill="#8F1C0A"/>
<path d="M90.5412 50.1735L75.603 51.6169C70.2595 52.134 64.8243 52.3961 59.45 52.3961C54.0757 52.3961 48.6405 52.134 43.297 51.6169L28.3588 50.1735L28.3488 50.1717C27.9179 50.1299 27.5859 50.5037 27.7392 50.8684L28.9295 53.6917C30.4345 57.2643 34.0516 59.7618 38.2692 60.142L52.9897 61.4692C57.2854 61.8566 61.6137 61.8566 65.9103 61.4692L80.6308 60.142C84.8493 59.7618 88.4655 57.2643 89.9705 53.6917L91.1599 50.8684C91.3141 50.5037 90.9821 50.1299 90.5521 50.1717L90.5412 50.1735Z" fill="#212121"/>
<path d="M59.4501 58.0002C54.1003 58.0002 48.6906 57.7398 43.3725 57.2254L30.2804 55.9598C30.6814 56.4652 31.1296 56.9342 31.6204 57.3615L43.2228 58.4828C48.5908 59.0026 54.0504 59.2648 59.4501 59.2648C64.8508 59.2648 70.3095 59.0026 75.6775 58.4828L87.279 57.3615C87.7707 56.9342 88.2198 56.4652 88.6189 55.9598L75.5287 57.2254C70.2097 57.7398 64.8009 58.0002 59.4501 58.0002ZM75.5287 54.1127C70.2097 54.6262 64.8009 54.8875 59.4501 54.8875C54.1003 54.8875 48.6906 54.6262 43.3725 54.1127L28.5005 52.6748L28.9296 53.6918C28.9741 53.797 29.0258 53.8986 29.0738 54.0012L43.2228 55.3692C48.5908 55.8882 54.0504 56.1522 59.4501 56.1522C64.8508 56.1522 70.3095 55.8882 75.6775 55.3692L89.8264 54.0021C89.8745 53.8986 89.9262 53.797 89.9707 53.6918L90.3998 52.6748L75.5287 54.1127Z" fill="#454545"/>
<path d="M63.0341 56.9921C63.0341 58.9708 61.4292 60.5756 59.4496 60.5756C57.4701 60.5756 55.8652 58.9708 55.8652 56.9921C55.8652 55.0117 57.4701 53.4077 59.4496 53.4077C61.4292 53.4077 63.0341 55.0117 63.0341 56.9921Z" fill="#D6D6D6"/>
<path d="M62.029 56.9923C62.029 58.4157 60.8741 59.5706 59.4498 59.5706C58.0255 59.5706 56.8706 58.4157 56.8706 56.9923C56.8706 55.5671 58.0255 54.4131 59.4498 54.4131C60.8741 54.4131 62.029 55.5671 62.029 56.9923Z" fill="#707070"/>
<path d="M9.2419 64.4042L9.38978 67.3999C9.45782 68.7716 10.4403 69.9255 11.7839 70.2104L19.4535 71.8416C20.906 72.1509 22.1062 70.6994 21.531 69.3313L20.7681 67.5169C20.1729 66.1007 19.0244 64.9894 17.591 64.4405L12.0915 62.3385C10.6744 61.7969 9.16751 62.8892 9.2419 64.4042Z" fill="#212121"/>
<path d="M17.3858 67.3944C17.3858 68.5955 16.4115 69.569 15.2103 69.569C14.0101 69.569 13.0366 68.5955 13.0366 67.3944C13.0366 66.1941 14.0101 65.2207 15.2103 65.2207C16.4115 65.2207 17.3858 66.1941 17.3858 67.3944Z" fill="#D6D6D6"/>
<path d="M109.658 64.4042L109.51 67.3999C109.442 68.7716 108.459 69.9255 107.116 70.2104L99.4463 71.8416C97.9929 72.1509 96.7936 70.6994 97.3688 69.3313L98.1317 67.5169C98.726 66.1007 99.8754 64.9894 101.31 64.4405L106.809 62.3385C108.226 61.7969 109.732 62.8892 109.658 64.4042Z" fill="#212121"/>
<path d="M101.514 67.3944C101.514 68.5955 102.487 69.569 103.689 69.569C104.889 69.569 105.863 68.5955 105.863 67.3944C105.863 66.1941 104.889 65.2207 103.689 65.2207C102.487 65.2207 101.514 66.1941 101.514 67.3944Z" fill="#D6D6D6"/>
<path d="M18.3058 30.3084H18.2994L19.623 28.0014C18.6777 28.0858 17.7397 27.614 17.2924 26.7531L16.5113 25.2462C15.7166 23.7121 14.0927 22.7432 12.3163 22.7432H9.20277C7.77481 22.7432 6.44302 23.439 5.66372 24.5939L5.3335 25.0829L17.7633 30.6015C17.9429 30.4999 18.1234 30.4028 18.3058 30.3084Z" fill="#F13E23"/>
<path d="M5.33349 25.0825L4.88895 25.7412C3.99081 27.073 4.53877 28.8638 6.04202 29.5097L14.2151 33.34C15.2621 32.2577 16.4578 31.3378 17.7632 30.6011L5.33349 25.0825Z" fill="#212121"/>
<path d="M100.594 30.3084H100.6L99.2769 28.0014C100.222 28.0858 101.16 27.614 101.607 26.7531L102.389 25.2462C103.183 23.7121 104.808 22.7432 106.584 22.7432H109.697C111.125 22.7432 112.457 23.439 113.236 24.5939L113.566 25.0829L101.136 30.6015C100.957 30.4999 100.777 30.4028 100.594 30.3084Z" fill="#F13E23"/>
<path d="M113.566 25.0825L114.01 25.7412C114.909 27.073 114.361 28.8638 112.858 29.5097L104.685 33.34C103.638 32.2577 102.442 31.3378 101.136 30.6011L113.566 25.0825Z" fill="#212121"/>
<path d="M75.4167 36.5564C85.2427 36.1845 93.8386 34.0326 101.046 30.1406V24.0977C92.573 29.404 82.0566 31.5894 70.0913 31.2774C71.3233 54.3742 75.814 81.5289 101.046 93.0778V87.2444C82.0194 77.3703 77.0206 56.7375 75.4167 36.5564Z" fill="#11AACC"/>
<mask id="mask0_1269_9304" style="mask-type:luminance" maskUnits="userSpaceOnUse" x="100" y="24" width="32" height="70">
<path d="M100.829 24.0894H132V93.299H100.829V24.0894Z" fill="white"/>
</mask>
<g mask="url(#mask0_1269_9304)">
<path d="M101.047 24.0977V30.1406C108.254 34.0326 116.85 36.1845 126.676 36.5564C125.072 56.7375 120.073 77.3703 101.047 87.2444V93.0778C126.277 81.5289 130.769 54.3742 132 31.2774C120.035 31.5894 109.519 29.404 101.047 24.0977Z" fill="#0C7B94"/>
</g>
<path d="M126.675 36.5555C116.849 36.1845 108.253 34.0326 101.046 30.1406V58.6925H122.926C125.01 51.6362 126.078 44.0646 126.675 36.5555Z" fill="#199FBD"/>
<path d="M101.046 58.6924V87.2443C112.994 81.0444 119.408 70.6014 122.926 58.6924H101.046Z" fill="#199FBD"/>
<path d="M101.047 30.1406C93.8389 34.0326 85.243 36.1845 75.417 36.5555C76.013 44.0646 77.0817 51.6362 79.1665 58.6925H101.047V30.1406Z" fill="#2ABDDE"/>
<path d="M79.1665 58.6924C82.6838 70.6014 89.0987 81.0444 101.047 87.2443V58.6924H79.1665Z" fill="#2ABDDE"/>
<path d="M76.051 37.1541C77.5243 54.9427 81.7955 76.3902 101.046 86.5492C120.296 76.3902 124.568 54.9427 126.04 37.1541C116.517 36.7195 108.114 34.5957 101.046 30.838C93.9785 34.5957 85.574 36.7204 76.051 37.1541ZM101.046 87.9382L100.791 87.8057C80.5562 77.3047 76.2905 54.93 74.8353 36.6088L74.7827 35.9556L75.396 35.932C85.1204 35.5646 93.6619 33.4281 100.783 29.5824L101.046 29.4409L101.31 29.5824C108.43 33.4281 116.971 35.5646 126.696 35.932L127.309 35.9556L127.257 36.6088C125.801 54.93 121.536 77.3047 101.301 87.8057L101.046 87.9382Z" fill="white"/>
<path d="M115.029 40.8848C106.537 47.0974 98.9629 59.7576 97.876 69.2643C96.0362 62.8757 94.0884 58.2498 90.0731 51.6489C89.4072 54.395 87.9892 57.0713 85.9126 59.4201C91.0674 63.3991 94.8233 68.9921 97.0369 75.7209C97.5023 75.2655 98.3587 74.7493 99.4473 74.6604C102.47 64.0433 110.024 51.7759 120.878 47.8649C117.46 46.4959 115.022 42.9151 115.029 40.8848Z" fill="white"/>
<path d="M115.028 40.8848C109.434 44.9781 104.252 51.8702 101.046 58.815V69.9901C104.73 60.6757 111.59 51.2107 120.877 47.8649C117.46 46.4959 115.021 42.9151 115.028 40.8848Z" fill="#E0E0E0"/>
</g>
<defs>
<clipPath id="clip0_1269_9304">
<rect width="132" height="93" fill="white"/>
</clipPath>
</defs>
</svg>
