<svg width="132" height="93" viewBox="0 0 132 93" fill="none" xmlns="http://www.w3.org/2000/svg">
<rect width="132" height="93" fill="white"/>
<path d="M40.9116 72.1643C40.9896 72.027 41.3858 72.1019 41.6291 72.5199C41.8692 72.941 41.8318 73.2623 41.7913 73.4993C41.5386 73.1281 40.9116 72.1643 40.9116 72.1643Z" fill="#FCF6C6"/>
<path d="M59.1902 39.2593C59.3929 39.2593 59.5551 39.094 59.5551 38.8943V37.8369H58.8252V38.8943C58.8252 39.094 58.9874 39.2593 59.1902 39.2593Z" fill="#704922"/>
<path d="M105.668 76.1362H113.023V77.5506H105.668V76.1362Z" fill="#D3CBCD"/>
<path d="M108.922 76.1362H116.276V77.5506H108.922V76.1362Z" fill="white"/>
<path d="M91.3951 52.9271C92.5465 53.1154 93.8827 52.0778 94.238 50.1552L93.6712 49.3379C92.8059 49.7412 92.0401 51.328 90.8016 51.2924L91.3951 52.9271Z" fill="#0E0F0F"/>
<path d="M92.2673 51.9281C92.2784 52.1749 92.1939 52.4164 92.0314 52.6024C91.8689 52.7884 91.6409 52.9046 91.3949 52.9267C90.9152 52.9409 90.3288 52.5483 90.3288 52.0099C90.3288 51.4715 90.3679 51.3169 90.8494 51.2991C91.331 51.2814 92.2691 51.3898 92.2673 51.9281Z" fill="#0E0F0F"/>
<path d="M99.8869 50.8035C99.8518 50.6722 99.8097 50.5429 99.7607 50.4161C98.9221 48.195 96.6868 48.2288 95.1641 48.5504H95.1392C94.6035 48.7229 94.102 48.9874 93.6573 49.3322L93.7604 51.3934C93.8956 51.4764 94.0534 51.5149 94.2117 51.5035C94.2885 51.4953 94.3632 51.473 94.432 51.4378C95.786 52.2391 100.228 52.0277 99.8869 50.8035Z" fill="#EF0C0C"/>
<path d="M99.7655 50.416C98.7941 50.7004 97.7705 50.7582 96.7733 50.5848C95.3518 50.3289 94.9396 49.4334 95.1741 48.5503H95.1492C94.6136 48.7227 94.1121 48.9873 93.6674 49.3321L93.7775 51.507C93.8006 51.5265 93.8255 51.5443 93.8522 51.5638C94.3355 51.9192 100.071 53.0919 99.8934 50.798C99.8698 50.6651 99.8266 50.5363 99.7655 50.416Z" fill="#FF0000"/>
<path d="M106.8 62.0792L109.931 61.7665C112.873 61.4964 115.617 65.7715 116.049 71.3135C116.48 76.8554 114.449 81.5676 111.514 81.8377L108.378 82.1007L106.8 62.0792Z" fill="#0E0F0F"/>
<path d="M102.321 72.4988C102.758 78.0407 105.496 82.314 108.439 82.044C111.381 81.7739 113.414 77.0688 112.975 71.5197C112.536 65.9707 109.798 61.7045 106.857 61.9745C103.916 62.2446 101.884 66.9568 102.321 72.4988Z" fill="#2B2B2B"/>
<path d="M106.168 64.204L106.292 65.1901L106.962 70.4745L107.091 71.5032L107.614 71.4766L107.639 70.4389L107.772 65.1084L107.797 64.1151C107.262 63.9406 106.681 63.9723 106.168 64.204Z" fill="white"/>
<path d="M107.349 71.2941L107.754 71.9799L108.159 71.3332L110.245 68.0016L110.635 67.3832C110.33 66.6043 109.903 65.8795 109.368 65.2368L109.096 66.0542L107.633 70.4394L107.349 71.2941Z" fill="white"/>
<path d="M107.632 71.5072L107.683 72.5058L108.231 72.6284L111.052 73.2574L111.585 73.3747C111.638 72.3308 111.585 71.2842 111.427 70.251L110.917 70.4198L108.174 71.3313L107.632 71.5072Z" fill="white"/>
<path d="M107.429 72.7508L107.797 73.5717L109.695 77.7882L110.05 78.5718C110.518 77.8789 110.87 77.1151 111.093 76.3098L110.646 75.7324L108.238 72.63L107.769 72.0259L107.429 72.7508Z" fill="white"/>
<path d="M106.962 79.9243C107.496 80.1028 108.078 80.0756 108.593 79.8479L108.469 78.8635L107.797 73.5721L107.668 72.5415L107.145 72.5682L107.12 73.6058L106.987 78.9363L106.962 79.9243Z" fill="white"/>
<path d="M104.131 76.6459C104.435 77.4242 104.862 78.1489 105.395 78.7924L105.667 77.9768L107.124 73.604L107.408 72.7511L107.003 72.0635L106.598 72.712L104.522 76.0258L104.131 76.6459Z" fill="white"/>
<path d="M103.2 72.2344C103.226 72.7551 103.279 73.274 103.359 73.7892L103.868 73.6115L106.594 72.7071L107.127 72.5294L107.076 71.5308L106.528 71.4082L103.725 70.797L103.2 70.6797C103.174 71.1976 103.174 71.7165 103.2 72.2344Z" fill="white"/>
<path d="M103.68 67.7528L104.13 68.3285L106.529 71.4148L106.998 72.019L107.332 71.294L106.962 70.4749L105.072 66.2709L104.716 65.4873C104.252 66.1824 103.903 66.9472 103.68 67.7528Z" fill="white"/>
<path d="M103.2 70.6717C103.246 69.6832 103.407 68.7035 103.68 67.7523C103.903 66.9467 104.253 66.1819 104.718 65.4869C105.075 64.9351 105.576 64.4915 106.167 64.204C106.681 63.9723 107.262 63.9406 107.797 64.1151C108.415 64.3374 108.96 64.7252 109.373 65.2363C109.908 65.879 110.336 66.6038 110.64 67.3828C111.009 68.306 111.27 69.2689 111.418 70.2523C111.576 71.2856 111.629 72.3321 111.576 73.376C111.529 74.3694 111.366 75.3538 111.091 76.3096C110.868 77.1148 110.515 77.8787 110.048 78.5715C109.689 79.1222 109.186 79.5636 108.593 79.8473C108.078 80.075 107.496 80.1022 106.962 79.9237C106.346 79.6953 105.805 79.3041 105.395 78.7918C104.863 78.1475 104.437 77.4223 104.135 76.6436C103.767 75.7246 103.507 74.7657 103.362 73.7865C103.282 73.2713 103.229 72.7524 103.204 72.2317C103.176 71.7121 103.175 71.1914 103.2 70.6717ZM104.519 76.0271C104.789 76.7375 105.176 77.3981 105.663 77.9816C106.013 78.4096 106.469 78.7381 106.987 78.934C107.229 79.019 107.486 79.0564 107.744 79.0442C107.994 79.0302 108.24 78.97 108.468 78.8665C108.964 78.6248 109.386 78.2571 109.694 77.8004C110.123 77.1727 110.444 76.4779 110.643 75.7446C110.871 74.9378 111.008 74.1082 111.052 73.2712C111.076 72.7977 111.076 72.3232 111.052 71.8497C111.028 71.3736 110.979 70.8991 110.905 70.4283C110.777 69.5993 110.557 68.7875 110.247 68.0082C109.977 67.2967 109.588 66.6359 109.097 66.0537C108.746 65.6262 108.287 65.2999 107.768 65.1084C107.283 64.9402 106.752 64.9696 106.288 65.1901C105.794 65.4367 105.372 65.8093 105.068 66.2704C104.641 66.8992 104.323 67.5946 104.126 68.328C103.9 69.133 103.765 69.9609 103.724 70.7961C103.698 71.2695 103.698 71.7441 103.724 72.2175C103.748 72.6901 103.797 73.1611 103.872 73.6283C103.997 74.4495 104.214 75.2541 104.519 76.0271Z" fill="#0E0F0F"/>
<path d="M106.649 72.0599C106.688 72.831 107.047 73.4405 107.451 73.4209C107.854 73.4014 108.149 72.7582 108.11 71.9852C108.071 71.2123 107.712 70.6064 107.308 70.6259C106.905 70.6455 106.61 71.2887 106.649 72.0599Z" fill="#2B2B2B"/>
<path d="M60.3662 75.9865C60.442 77.6378 60.7853 79.2658 61.3826 80.8071L63.4508 81.1784L74.3215 81.5516C75.1202 79.5444 75.4672 77.386 75.3379 75.2296C75.0305 69.1652 71.4288 64.4193 67.2959 64.6272C63.163 64.8351 60.0588 69.9222 60.3662 75.9865Z" fill="#0E0F0F"/>
<path d="M67.4008 67.1894L70.4214 66.8891C73.2537 66.6296 75.8905 70.743 76.3116 76.0789C76.7327 81.4147 74.7764 85.9492 71.9459 86.2069C71.8642 86.2069 69.6165 86.3206 68.0369 86.4538L67.4008 67.1894Z" fill="#0E0F0F"/>
<path d="M62.1412 77.2674C62.5623 82.5979 65.1973 86.7166 68.0296 86.4572C70.8619 86.1978 72.8164 81.6597 72.3953 76.3292C71.9742 70.9987 69.3392 66.88 66.5069 67.1412C63.6746 67.4024 61.7201 71.9333 62.1412 77.2674Z" fill="#2B2B2B"/>
<path d="M65.8439 69.2821L65.9629 70.2327L66.6079 75.318L66.7341 76.3113L67.2352 76.2846L67.26 75.2861L67.388 70.1528L67.4128 69.1986C67.1604 69.1154 66.8947 69.0798 66.6292 69.0938C66.3581 69.1074 66.0918 69.1713 65.8439 69.2821Z" fill="white"/>
<path d="M66.9866 76.1076L67.3758 76.7704L67.7667 76.1467L69.7763 72.9395L70.1494 72.3443C69.8565 71.5942 69.4443 70.8964 68.9287 70.2778L68.6675 71.0632L67.2603 75.2867L66.9866 76.1076Z" fill="white"/>
<path d="M67.2552 76.3168L67.3032 77.2763L67.8362 77.3953L70.5513 78.0012L71.0559 78.1149C71.0816 77.6124 71.0816 77.1089 71.0559 76.6064C71.0311 76.1036 70.9801 75.6025 70.9031 75.105L70.4127 75.2685L67.7723 76.1462L67.2552 76.3168Z" fill="white"/>
<path d="M67.058 77.511L67.4134 78.3017L69.24 82.36L69.5794 83.1151C70.0298 82.4482 70.3688 81.7124 70.5833 80.9367L70.1533 80.3806L67.8309 77.3955L67.3796 76.8145L67.058 77.511Z" fill="white"/>
<path d="M66.6097 84.4175C66.8674 84.502 67.1384 84.5387 67.4093 84.5258C67.6746 84.5147 67.9354 84.4544 68.1787 84.3482L68.0579 83.3993L67.4129 78.3069L67.2867 77.3154L66.7857 77.3403L66.7608 78.3389L66.6328 83.4651L66.6097 84.4175Z" fill="white"/>
<path d="M63.8843 81.2604C64.1747 82.0107 64.5845 82.7091 65.0979 83.3286L65.3591 82.5433L66.761 78.3339L67.0347 77.513L66.6456 76.8521L66.2546 77.4739L64.2557 80.6723L63.8843 81.2604Z" fill="white"/>
<path d="M62.9869 77.0152C63.0125 77.5162 63.0635 78.0155 63.1398 78.5113L63.6302 78.3478L66.2546 77.4754L66.7681 77.2977L66.7183 76.3382L66.1853 76.2209L63.4862 75.6186L62.9816 75.5049C62.9574 76.0081 62.9591 76.5122 62.9869 77.0152Z" fill="white"/>
<path d="M63.4489 72.6992L63.8806 73.2536L66.1905 76.2263L66.6419 76.8055L66.9617 76.109L66.6063 75.3183L64.7868 71.2742L64.4475 70.519C63.9999 71.1876 63.6627 71.9237 63.4489 72.6992Z" fill="white"/>
<path d="M62.9887 75.5107C63.0333 74.5591 63.1877 73.6159 63.449 72.6997C63.6634 71.9241 64.0011 71.188 64.4493 70.5196C64.7924 69.9857 65.2747 69.5557 65.8441 69.2758C66.092 69.1649 66.3583 69.101 66.6295 69.0874C66.8949 69.0735 67.1606 69.109 67.4131 69.1923C68.0081 69.405 68.5327 69.7783 68.9287 70.2708C69.4443 70.8894 69.8565 71.5872 70.1494 72.3373C70.5055 73.2254 70.7565 74.1521 70.8974 75.0985C70.9745 75.5959 71.0255 76.0971 71.0503 76.5999C71.076 77.1024 71.076 77.6059 71.0503 78.1084C71.0043 79.0639 70.8475 80.0108 70.5829 80.9301C70.3685 81.7058 70.0295 82.4415 69.579 83.1085C69.234 83.6386 68.7495 84.0634 68.1789 84.3363C67.9356 84.4425 67.6747 84.5028 67.4095 84.514C67.1386 84.5268 66.8676 84.4901 66.6099 84.4056C66.0165 84.1862 65.4939 83.8097 65.0978 83.3164C64.5845 82.6969 64.1747 81.9984 63.8843 81.2481C63.5304 80.3632 63.2806 79.4402 63.1398 78.4976C63.0635 78.0018 63.0125 77.5024 62.987 77.0015C62.9622 76.5048 62.9628 76.0073 62.9887 75.5107ZM64.2556 80.6635C64.5172 81.3462 64.89 81.9809 65.3591 82.5417C65.6961 82.9535 66.1354 83.2697 66.633 83.4585C67.0973 83.6231 67.6075 83.5995 68.0545 83.3928C68.5331 83.1589 68.9409 82.802 69.2361 82.3586C69.6486 81.7543 69.9572 81.0853 70.1494 80.3792C70.3685 79.6033 70.5002 78.8053 70.5421 78.0001C70.5661 77.5437 70.5661 77.0864 70.5421 76.6301C70.5191 76.1736 70.4717 75.7187 70.3999 75.2673C70.2775 74.4697 70.0659 73.6883 69.7692 72.9378C69.5063 72.2552 69.1316 71.6211 68.6604 71.0615C68.3216 70.6508 67.8803 70.337 67.3811 70.1518C67.1524 70.0747 66.9114 70.0409 66.6704 70.0523C66.4242 70.065 66.1828 70.1254 65.9596 70.2299C65.4837 70.4682 65.0787 70.8272 64.7851 71.2712C64.3754 71.8764 64.0687 72.5452 63.8772 73.2506C63.661 74.024 63.5311 74.8189 63.4898 75.6209C63.464 76.0754 63.464 76.531 63.4898 76.9855C63.5123 77.4402 63.5591 77.8933 63.6302 78.343C63.7526 79.1377 63.9623 79.9166 64.2556 80.6653V80.6635Z" fill="white"/>
<path d="M64.769 76.9018C64.8792 79.0908 65.8955 80.8197 67.0416 80.7628C68.1876 80.706 69.0228 78.8812 68.9126 76.6921C68.8024 74.503 67.7843 72.7724 66.64 72.831C65.4957 72.8897 64.6571 74.7056 64.769 76.9018Z" fill="#2B2B2B"/>
<path d="M65.5206 76.8857C65.5756 77.9713 66.0803 78.8296 66.6489 78.8011C67.2174 78.7727 67.6315 77.8683 67.5764 76.7809C67.5213 75.6934 67.0167 74.837 66.4499 74.8654C65.883 74.8939 65.4655 75.8001 65.5206 76.8857Z" fill="white"/>
<path d="M75.3787 75.2259C75.464 76.7957 75.3082 78.3693 74.9167 79.8919C74.7703 80.456 74.5851 81.0093 74.3624 81.5479H74.5241L80.1638 81.7469C80.1638 81.7469 121.107 79.1811 121.147 76.7042C121.18 74.6324 122.188 73.5503 121.969 72.024C121.92 71.6937 121.825 71.3719 121.687 71.0681C121.476 70.5632 121.313 70.0397 121.2 69.5045C120.665 67.1697 120.498 64.0442 120.498 64.0442L120.336 63.7226H120.324C118.657 62.7773 116.667 62.8182 114.725 63.1096C113.481 63.298 112.495 63.5947 111.189 63.5396C109.384 63.4632 107.655 63.3904 105.859 63.7173C103.938 64.062 102.046 64.5595 100.121 64.8456C98.9894 65.0233 97.3298 64.9735 96.5675 65.8921L91.4147 66.6491C91.173 67.4291 87.1503 67.8556 86.0344 67.9106C84.0462 68.0084 82.1023 68.0403 80.2135 67.836C78.5273 67.6583 76.6349 67.3651 75.0731 66.5158C73.3567 65.5847 69.8048 65.0286 69.6182 65.0339C72.7152 66.2582 75.13 70.3094 75.3787 75.2259Z" fill="#292959"/>
<path d="M57.3315 40.0575C64.9719 39.5369 73.7601 39.2615 77.479 39.8923C83.4688 40.9086 98.9433 52.7637 98.9433 52.7637C98.9433 52.7637 104.526 53.6095 106.374 54.1105C107.685 54.4659 110.525 55.2655 112.593 56.1308L112.671 56.1628L112.995 56.2978C113.988 56.7136 114.826 57.0743 114.826 57.0743C116.144 57.4104 117.398 57.9596 118.538 58.7001C118.653 58.775 118.761 58.8581 118.863 58.9489L118.949 59.0288C119.012 59.0918 119.071 59.1583 119.126 59.2278C119.251 59.3753 119.359 59.5362 119.448 59.7076C119.517 59.8419 119.576 59.9808 119.626 60.1233C119.714 60.3797 119.773 60.6448 119.803 60.914C119.829 61.1423 119.84 61.372 119.835 61.6017C119.828 61.8397 119.807 62.0771 119.77 62.3124C119.745 62.4599 119.722 62.5576 119.715 62.5878C119.714 62.5914 119.714 62.5949 119.715 62.5985L119.738 62.6447L119.915 62.9858L120.29 63.7268L120.452 64.0466C120.452 64.0466 120.61 67.181 121.147 69.5157C121.147 69.5601 121.166 69.6046 121.177 69.649C121.286 70.1384 121.439 70.6171 121.634 71.0793C121.771 71.3836 121.866 71.7052 121.916 72.0353C122.135 73.5616 121.127 74.6437 121.093 76.7155C121.054 79.1924 80.1088 81.7582 80.1088 81.7582L74.4708 81.5662H74.3092C74.5311 81.0274 74.7163 80.4741 74.8635 79.9102C75.2557 78.3884 75.4116 76.8153 75.3255 75.246C75.0768 70.3277 72.6603 66.2765 69.5526 65.0328C68.8336 64.7393 68.0592 64.6065 67.2835 64.6436C65.496 64.7342 63.9075 65.7364 62.6904 67.3373C61.1019 69.4358 60.178 72.5612 60.3521 76.003C60.4293 77.6542 60.7731 79.2821 61.3702 80.8235L60.8923 80.7382L57.319 80.1092L57.3315 40.0575Z" fill="#EF0C0C"/>
<path d="M57.3315 66.7095C60.114 66.9529 62.1698 67.1626 62.7029 67.3189C61.1855 69.4138 60.3059 72.5375 60.4801 75.9792C60.5558 77.6282 60.8886 79.2552 61.4662 80.8016L61.3756 80.7838L61.0078 80.7145L57.3315 80.0358V66.7095Z" fill="#FF0000"/>
<g style="mix-blend-mode:multiply" opacity="0.6">
<path d="M67.2959 64.6274C66.9071 64.6311 66.5211 64.6946 66.1516 64.8158C69.7799 65.4466 72.7561 69.8549 73.0351 75.3453C73.1205 76.9152 72.9641 78.4889 72.5713 80.0113C72.6406 79.9918 72.7064 79.9705 72.7757 79.9474C73.5557 79.7004 74.2984 79.4392 75.0412 79.194C75.3088 77.8901 75.4085 76.5573 75.3379 75.2281C75.0305 69.1655 70.727 64.7358 67.2959 64.6274Z" fill="#22B9E4"/>
</g>
<g style="mix-blend-mode:multiply" opacity="0.6">
<path d="M57.3313 54.8335C57.5285 54.8335 57.7648 54.8584 58.042 54.8797C57.8074 54.9046 57.5747 54.9223 57.3313 54.9348V54.8335Z" fill="#22B9E4"/>
</g>
<path d="M57.3314 56.5038H57.4113C57.9604 56.4932 58.3921 56.4949 58.6871 56.4932H59.1384L58.6907 56.5536C58.3993 56.5909 57.971 56.6531 57.4256 56.717L57.3314 56.7295V56.5038Z" fill="#F43B70"/>
<path d="M115.167 62.5875H115.156C115.264 62.5731 115.264 62.5785 115.167 62.5875Z" fill="#19AACC"/>
<path d="M121.159 69.5067C120.626 67.1719 120.464 64.0375 120.464 64.0375L120.303 63.7177L119.928 62.9768C119.928 62.9768 116.401 62.9075 115.047 61.7721C114.869 61.6264 114.718 61.5038 114.572 61.3989C114.533 61.1893 114.503 60.9565 114.473 60.6989C114.473 60.6456 114.46 60.5923 114.453 60.5372C114.372 59.7962 113.989 58.5826 113.639 57.6125C113.622 57.5734 113.604 57.5343 113.588 57.4934L113.535 57.3744C113.515 57.3353 113.496 57.2962 113.474 57.2571L113.353 57.0155C113.222 56.7649 113.076 56.5091 112.916 56.2532L112.678 56.1537L112.6 56.1217C112.6 56.1413 112.614 56.159 112.62 56.1786C113.371 58.6662 103.025 62.6196 91.4752 58.8438C89.4442 58.1793 81.1304 55.1516 77.8717 55.5638C89.0764 57.792 90.9563 60.8943 92.5875 63.3819C92.8167 63.7373 92.4364 64.6506 90.7093 65.1072C89.6432 65.3915 87.6887 65.5834 87.1432 64.7767L82.7011 64.8798C82.3102 67.3478 78.0813 67.3673 75.6488 66.8627C79.2025 71.1005 79.0426 75.9655 77.5767 78.2167C80.2171 79.5422 85.1123 77.7583 88.1525 77.5646C91.898 77.323 95.887 77.275 99.5242 76.5376C104.053 75.6172 108.677 75.5675 113.249 74.4907C115.025 74.0731 117.403 73.9434 118.465 72.4793C119.441 71.1325 119.933 70.4093 121.182 69.6364C121.179 69.5955 121.168 69.5529 121.159 69.5067Z" fill="#FF0000"/>
<path d="M57.3314 58.0032C57.5091 57.0934 57.7312 56.5053 58.0421 56.3347C58.6996 55.9669 59.0816 55.4463 59.1793 54.7871L59.3428 54.812C59.2362 55.5227 58.8257 56.0842 58.1221 56.4787C57.8485 56.6315 57.5446 57.2925 57.3385 59.1777L57.3314 58.0032Z" fill="#FF0000"/>
<path d="M57.331 74.7856C57.3808 75.9761 57.4323 77.0316 57.4714 77.872C57.5265 79.0181 57.562 79.775 57.562 80.0451H57.3968C57.3968 79.8212 57.3701 79.2242 57.331 78.3873V74.7856Z" fill="#FF0000"/>
<path d="M117.214 62.0636C117.81 62.6251 118.778 62.897 119.927 62.9769L119.75 62.6358L119.728 62.5896C119.728 62.5896 119.755 62.483 119.784 62.3035C119.821 62.0683 119.842 61.8308 119.848 61.5928C119.854 61.3631 119.844 61.1333 119.817 60.9051C119.787 60.6359 119.727 60.3707 119.64 60.1144C119.591 59.9716 119.531 59.8326 119.462 59.6987C119.373 59.5273 119.265 59.3664 119.14 59.2189C119.085 59.1494 119.025 59.0829 118.963 59.0199L118.877 58.9399C117.664 59.6844 116.935 60.221 116.935 60.221C116.911 60.2459 116.889 60.272 116.868 60.2992C116.687 60.5213 116.303 61.2019 117.214 62.0636Z" fill="#FF0000"/>
<path d="M117.387 61.834C117.907 62.3245 118.751 62.5643 119.754 62.6354L119.732 62.5892C119.732 62.5892 119.759 62.4826 119.787 62.3031C119.824 62.0679 119.846 61.8305 119.851 61.5924C119.857 61.3628 119.847 61.133 119.821 60.9048C119.791 60.6355 119.731 60.3704 119.643 60.1141C119.595 59.9713 119.535 59.8323 119.466 59.6983C119.377 59.5269 119.269 59.366 119.144 59.2185C119.089 59.149 119.029 59.0826 118.966 59.0195C117.831 59.7089 117.145 60.2136 117.145 60.2136C117.091 60.2698 117.045 60.3325 117.007 60.4001C116.847 60.6684 116.708 61.2015 117.387 61.834Z" fill="#FFFCD7"/>
<path d="M119.679 62.3048H119.787C119.824 62.0696 119.846 61.8321 119.851 61.594C119.857 61.3644 119.847 61.1346 119.821 60.9064C119.791 60.6372 119.731 60.372 119.643 60.1157L119.656 60.9117L119.668 61.5976L119.679 62.2906V62.3048Z" fill="#E0DCC6"/>
<path d="M118.396 60.8463C118.477 61.5961 119.011 62.1895 119.679 62.2819C119.715 62.2873 119.752 62.2909 119.789 62.2926C119.826 62.0574 119.847 61.8199 119.853 61.5819C119.859 61.3522 119.849 61.1224 119.823 60.8942C119.792 60.625 119.733 60.3598 119.645 60.1035C119.596 59.9607 119.537 59.8217 119.467 59.6878C119.378 59.5164 119.27 59.3555 119.146 59.208C118.904 59.3666 118.708 59.5846 118.576 59.8411C118.444 60.0975 118.38 60.3838 118.39 60.6721C118.385 60.7396 118.39 60.7965 118.396 60.8463Z" fill="#FFFEF3"/>
<path d="M118.899 60.898C118.94 61.0791 119.035 61.2432 119.173 61.3682C119.31 61.4931 119.482 61.5727 119.666 61.5963C119.695 61.5989 119.723 61.5989 119.752 61.5963C119.785 61.5981 119.818 61.5981 119.851 61.5963C119.857 61.3666 119.847 61.1368 119.821 60.9086C119.791 60.6394 119.731 60.3742 119.643 60.1179C119.595 59.9751 119.535 59.8361 119.466 59.7021C119.281 59.7787 119.125 59.9102 119.018 60.0787C118.912 60.2472 118.859 60.4446 118.869 60.6439C118.867 60.7295 118.877 60.815 118.899 60.898Z" fill="#E0DCC6"/>
<g style="mix-blend-mode:multiply">
<path d="M117.214 62.0637C117.81 62.6252 118.778 62.897 119.927 62.977L119.75 62.6358L119.728 62.5896C119.728 62.5896 119.755 62.483 119.784 62.3036C119.821 62.0683 119.842 61.8309 119.848 61.5928C119.854 61.3632 119.844 61.1334 119.817 60.9052H119.65C119.393 60.9052 119.139 60.9052 118.895 60.8927C118.717 60.8839 118.554 60.8696 118.391 60.8483C117.895 60.8061 117.416 60.6512 116.99 60.3952C116.944 60.3632 116.898 60.3295 116.855 60.2939C116.687 60.5214 116.303 61.2019 117.214 62.0637Z" fill="#B5B09A"/>
</g>
<path d="M92.4239 63.0353L92.3777 62.9465C92.3777 62.9323 92.3617 62.9163 92.3528 62.9003L92.3226 62.8505L92.1911 62.6338L92.1183 62.5112C92.1041 62.4916 92.0917 62.4685 92.0792 62.4472C92.0668 62.4259 92.049 62.4063 92.0348 62.3832L91.8447 62.1096C91.5125 61.6477 91.1416 61.215 90.7359 60.8161C90.2088 60.2997 89.6395 59.8284 89.0337 59.407C88.3172 58.9072 87.566 58.4589 86.786 58.0655C85.916 57.626 85.022 57.2357 84.1083 56.8963C83.1595 56.541 82.1538 56.2176 81.1374 55.928C80.1211 55.6384 79.0621 55.386 78.0049 55.1622C76.9476 54.9383 75.8833 54.7428 74.8332 54.5758C73.7831 54.4088 72.7454 54.2684 71.7397 54.1511C69.7266 53.9148 67.8307 53.7691 66.2209 53.6803L66.0769 53.6714L66.1143 54.4052H66.1906C67.7898 54.455 69.675 54.5509 71.6775 54.7357C72.6797 54.8281 73.712 54.94 74.7586 55.0804C75.8051 55.2208 76.8659 55.386 77.9213 55.5815C78.9768 55.7769 80.0251 56.0026 81.0468 56.2656C82.0685 56.5285 83.0653 56.8217 84.0159 57.154C84.9296 57.4674 85.8247 57.8322 86.6972 58.2467C87.4799 58.6169 88.2357 59.0414 88.9591 59.5172C89.5693 59.9216 90.1452 60.3757 90.6808 60.8747C91.094 61.2602 91.4733 61.6805 91.8144 62.1309L92.0117 62.3992L92.0561 62.4632C92.0703 62.4845 92.0828 62.5058 92.097 62.5254L92.1734 62.6444C92.2231 62.7226 92.2675 62.7937 92.3102 62.8577L92.3404 62.9056L92.3671 62.9536L92.4168 63.0407L92.5945 63.38L92.4239 63.0353Z" fill="#FF0000"/>
<path d="M114.581 61.4483C114.581 61.4056 114.57 61.3559 114.563 61.299C114.556 61.2422 114.547 61.1817 114.538 61.1125C114.529 61.0432 114.522 60.9685 114.506 60.8886C114.49 60.8086 114.485 60.766 114.472 60.6984C114.451 60.5865 114.43 60.4657 114.407 60.3431C114.361 60.1387 114.309 59.9131 114.247 59.6661C114.211 59.5453 114.176 59.4191 114.137 59.2876C114.117 59.2237 114.099 59.1561 114.076 59.0886C114.053 59.0211 114.03 58.9536 114.005 58.8861C113.98 58.8186 113.957 58.7457 113.932 58.6764C113.907 58.6071 113.883 58.5325 113.851 58.4614C113.792 58.3175 113.73 58.1718 113.673 58.0208C113.616 57.8697 113.531 57.7205 113.456 57.5659L113.399 57.4504C113.38 57.4113 113.358 57.374 113.337 57.3367L113.209 57.1039C113.03 56.7878 112.835 56.4812 112.625 56.1853C112.625 56.1657 112.612 56.148 112.605 56.1284L112.683 56.1604L112.921 56.2599C113.081 56.5158 113.227 56.7716 113.358 57.0222L113.479 57.2638C113.501 57.3029 113.52 57.342 113.54 57.3811L113.593 57.5001C113.609 57.541 113.627 57.5801 113.644 57.6192C113.698 57.7382 113.749 57.8537 113.795 57.9746L113.973 58.4276C114.002 58.5005 114.023 58.5751 114.046 58.648C114.069 58.7208 114.09 58.7919 114.114 58.8612C114.137 58.9305 114.156 59.0016 114.178 59.0691C114.199 59.1366 114.213 59.2059 114.231 59.2716C114.265 59.4049 114.297 59.5328 114.329 59.6572C114.382 59.906 114.424 60.1352 114.465 60.3431C114.506 60.551 114.522 60.7375 114.545 60.8992C114.56 60.981 114.563 61.0556 114.57 61.1249C114.577 61.1942 114.583 61.2564 114.588 61.3132C114.588 61.4021 114.602 61.4731 114.606 61.5282C114.609 61.5833 114.616 61.6331 114.618 61.6491C114.602 61.6135 114.593 61.5567 114.581 61.4483Z" fill="#FF0000"/>
<path d="M57.3316 42.4719C60.3522 42.049 66.1856 41.5834 77.067 41.6652C80.8126 41.6972 95.9814 52.8877 95.9814 52.8877C95.9814 52.8877 92.9413 52.9854 88.2202 53.2306C86.6566 53.3124 84.9082 53.4083 83.0247 53.5256C82.035 53.586 81.0062 53.6517 79.9472 53.7228L78.5453 53.8188C77.3602 53.9005 76.1341 53.9964 74.9081 54.1066C68.9308 54.6183 63.0033 55.2242 62.4809 54.2416C61.4574 52.3422 59.2026 49.2772 57.3281 46.8411L57.3316 42.4719Z" fill="#0E0F0F"/>
<path d="M57.3314 43.3033C60.297 42.9266 67.5198 42.1856 77.5128 42.3331C80.0394 42.3704 93.9663 52.0631 93.9663 52.0631C93.9663 52.0631 88.5167 49.9913 79.3518 50.7998C72.4541 51.4092 63.3833 53.8399 63.3833 53.8399C63.3833 53.8399 60.9366 49.7532 59.9647 48.4206C59.469 47.7418 58.2998 46.3559 57.3314 45.2311V43.3033Z" fill="#879093"/>
<g style="mix-blend-mode:screen" opacity="0.6">
<path d="M73.7314 42.5732C79.1241 47.1184 81.6241 50.8693 83.0242 53.5257C84.9077 53.4102 86.6561 53.3125 88.2197 53.2307C85.3289 49.2878 81.9307 45.7432 78.1131 42.6887C76.6099 42.623 75.1493 42.5857 73.7314 42.5732Z" fill="#244E74"/>
</g>
<g style="mix-blend-mode:screen" opacity="0.6">
<path d="M64.8421 42.7758C70.6186 47.4365 73.3709 51.3135 74.9079 54.1067C76.1339 54.0019 77.3599 53.9006 78.5451 53.8189L79.947 53.7229C77.3973 50.2954 73.195 45.7609 68.7529 42.6177C67.3706 42.6532 66.0646 42.7101 64.8421 42.7758Z" fill="#244E74"/>
</g>
<path d="M87.8555 52.0151C87.848 51.907 87.8331 51.7995 87.8111 51.6935C87.8111 51.6544 87.7951 51.6171 87.7862 51.5797C87.7856 51.575 87.7856 51.5702 87.7862 51.5655C87.7862 51.5655 87.7862 51.5513 87.7773 51.5406C87.7505 51.4555 87.719 51.3719 87.6832 51.2901C87.6512 51.2208 87.6174 51.1533 87.5801 51.0858C87.5623 51.052 87.5428 51.0183 87.5233 50.9863L87.5144 50.9721L87.5002 50.9525C87.4045 50.8159 87.2968 50.6881 87.1785 50.5705L87.0933 50.4905C87.0889 50.4843 87.0835 50.4789 87.0773 50.4745L87.0631 50.4639C87.0026 50.4124 86.9405 50.3662 86.8747 50.32C86.809 50.2738 86.7432 50.2311 86.6739 50.1885L86.5691 50.1298C86.5584 50.1298 86.4856 50.0854 86.4678 50.0783C86.3266 50.0126 86.1811 49.9562 86.0325 49.9095C85.9632 49.8882 85.8939 49.8704 85.8246 49.8527L85.7411 49.8349L85.5634 49.8065C85.3867 49.7823 85.2087 49.7698 85.0304 49.7691H84.9806C84.9362 49.7691 84.89 49.7691 84.8438 49.7691C84.7372 49.7691 84.6288 49.7905 84.5222 49.8065C84.4156 49.8224 84.3445 49.8384 84.2503 49.858H84.2272H84.2041L84.0744 49.8971C83.8918 49.9529 83.7136 50.0224 83.5414 50.105L83.4685 50.1423L83.3886 50.1885C83.3139 50.2293 83.2428 50.2755 83.1735 50.3217C83.1042 50.3679 83.0367 50.4195 82.971 50.471L82.8875 50.5367C82.9372 50.4959 82.8253 50.5936 82.8129 50.606C82.6644 50.7465 82.5293 50.9006 82.4095 51.0662C82.4255 51.0467 82.358 51.1462 82.3509 51.1586C82.3225 51.2031 82.2976 51.2475 82.2727 51.2937C82.2238 51.3848 82.18 51.4785 82.1412 51.5744C82.1412 51.5851 82.1057 51.6668 82.1021 51.6757C82.0897 51.7166 82.079 51.7556 82.0684 51.7947C82.0421 51.8935 82.0219 51.9938 82.008 52.095C81.9991 52.1466 81.9955 52.1981 81.9902 52.2478C81.9902 52.2691 81.9902 52.2887 81.9902 52.31V52.326C81.9896 52.4306 81.9961 52.5351 82.0097 52.6387C82.0097 52.6814 82.0222 52.724 82.0293 52.7667L81.0467 52.8964C81.0467 52.8537 81.0325 52.8129 81.0271 52.7702C80.8619 51.3487 81.7592 49.9966 83.2215 49.3054C84.6839 48.6142 86.4945 48.815 87.6459 49.7283C87.9787 49.9833 88.2553 50.3043 88.4583 50.6712C88.6613 51.0381 88.7864 51.443 88.8257 51.8605L87.8555 52.0151Z" fill="#0E0F0F"/>
<path d="M57.3316 50.478C58.1036 51.8584 58.7575 53.3016 59.2861 54.7922C59.2861 54.7922 58.6003 54.8793 57.3316 54.993V50.478Z" fill="#0E0F0F"/>
<path d="M57.3312 52.3174C57.8643 53.4634 58.145 54.2577 58.145 54.2577C58.145 54.2577 57.8643 54.2932 57.3312 54.3465V52.3174Z" fill="#879093"/>
<path d="M57.3312 51.6069L57.4432 51.8521C57.9762 52.1435 58.1361 52.8276 58.3742 53.3411C58.7296 54.1158 59.22 54.4588 58.2872 54.7111C57.9731 54.7929 57.6537 54.8523 57.3312 54.8888V51.6069Z" fill="#0E0F0F"/>
<path d="M77.6457 65.9615C79.7051 66.4768 88.3547 68.0511 90.5082 65.5582C91.3291 64.6093 90.8778 63.9715 90.6859 63.7671C90.6624 63.742 90.6368 63.7188 90.6095 63.6978C90.6095 63.6978 82.1216 58.6836 75.0942 59.5329C74.5064 59.5889 73.9289 59.7246 73.3777 59.9363C69.7974 61.4484 76.8568 65.7661 77.6457 65.9615Z" fill="#FF0000"/>
<path d="M78.2894 65.3557C78.514 65.4949 78.7521 65.611 79.0001 65.7021C80.8125 66.1552 88.4174 67.5394 90.3115 65.3468C91.1999 64.3215 90.3985 63.7103 90.3985 63.7103C90.3985 63.7103 84.7126 60.3467 79.1476 59.9932C78.3504 59.9384 77.5498 59.9568 76.7559 60.0482C71.4823 60.6879 76.2886 64.222 78.2894 65.3557Z" fill="#FFFCD7"/>
<path d="M84.9046 64.6688C84.8281 63.7626 85.4234 62.9737 86.2336 62.9061C86.3367 62.9061 87.8079 62.8066 87.8079 62.8066L88.0815 66.0494L86.4095 66.1897C85.6419 66.1915 84.9774 65.5341 84.9046 64.6688Z" fill="#E0DCC6"/>
<path d="M86.2703 64.5523C86.3467 65.4567 87.0663 66.1336 87.8695 66.0661C88.6726 65.9986 89.2749 65.2079 89.1985 64.3017C89.1221 63.3955 88.4025 62.7203 87.5905 62.7879C86.7785 62.8554 86.1921 63.6461 86.2703 64.5523Z" fill="#FFFEF3"/>
<path d="M86.9848 64.4571C87.0176 64.6233 87.0979 64.7765 87.2159 64.8982C87.3339 65.0198 87.4846 65.1047 87.6498 65.1425C87.815 65.1804 87.9876 65.1696 88.1468 65.1115C88.306 65.0534 88.445 64.9505 88.5469 64.8151C88.6489 64.6798 88.7095 64.5178 88.7215 64.3487C88.7334 64.1797 88.6961 64.0108 88.6142 63.8625C88.5322 63.7141 88.4091 63.5927 88.2596 63.5128C88.1101 63.4329 87.9408 63.398 87.7719 63.4123C87.5291 63.4467 87.3098 63.576 87.1622 63.7719C87.0146 63.9677 86.9508 64.2142 86.9848 64.4571Z" fill="#E0DCC6"/>
<path d="M78.9198 63.6395C78.8185 62.433 79.611 61.3811 80.6967 61.2905C80.8335 61.2781 82.7951 61.1572 82.7951 61.1572L83.1611 65.4785L80.9312 65.6686C79.9006 65.6686 79.0158 64.7944 78.9198 63.6395Z" fill="#E0DCC6"/>
<path d="M80.7397 63.4849C80.841 64.6914 81.8058 65.594 82.8719 65.5034C83.938 65.4128 84.7447 64.3591 84.6487 63.1526C84.5528 61.9461 83.5826 61.0435 82.5165 61.1359C81.4504 61.2283 80.6366 62.2784 80.7397 63.4849Z" fill="#FFFEF3"/>
<path d="M81.6898 63.359C81.752 64.0697 82.3188 64.6027 82.9603 64.5548C83.6017 64.5068 84.0708 63.8778 84.0104 63.1617C83.95 62.4457 83.3814 61.9179 82.7399 61.9659C82.0985 62.0139 81.6294 62.6429 81.6898 63.359Z" fill="#E0DCC6"/>
<path d="M76.7395 64.3436C77.2369 64.7095 77.7541 65.0476 78.2889 65.3564C77.9335 64.3525 77.6972 63.281 77.9335 62.2469C78.1414 61.4068 78.5576 60.6325 79.1436 59.9956C78.6414 59.9631 78.1378 59.9572 77.635 59.9779C77.3383 59.9921 77.0433 60.0152 76.7466 60.0507C72.6154 60.5518 74.689 62.835 76.7395 64.3436Z" fill="#FFA608"/>
<path d="M76.7397 64.3427C76.5111 63.5836 76.4733 62.7799 76.6295 62.0027C76.8137 61.2611 77.1595 60.5693 77.6423 59.9771C77.3456 59.9913 77.0506 60.0144 76.7539 60.0499C72.6157 60.551 74.6892 62.8342 76.7397 64.3427Z" fill="#FFB43B"/>
<g style="mix-blend-mode:multiply">
<path d="M77.6457 65.9616C79.7051 66.4769 88.3547 68.0512 90.5082 65.5583C91.3291 64.6094 90.8778 63.9716 90.6859 63.7672C89.3622 65.1247 84.9201 64.6556 83.5786 64.4566C80.7516 64.0266 78.591 63.3337 76.0217 61.8891C75.0614 61.3509 74.1726 60.6943 73.376 59.9346C69.7974 61.4484 76.8568 65.7662 77.6457 65.9616Z" fill="#B5B09A"/>
</g>
<path d="M74.3213 81.5516H74.483L80.1227 81.7453C80.1227 81.7453 121.066 79.1831 121.106 76.7061C121.138 74.6486 122.133 73.5665 121.932 72.0562C121.933 72.0461 121.933 72.036 121.932 72.026C121.932 72.0082 121.932 71.9904 121.932 71.9709C121.932 71.9513 121.919 71.8945 121.912 71.8554C121.905 71.8163 121.912 71.8198 121.9 71.8003C121.887 71.7807 121.884 71.7292 121.875 71.6919C121.866 71.6546 121.862 71.6493 121.857 71.6262L121.841 71.5693L121.822 71.5107C121.79 71.4041 121.749 71.2939 121.703 71.1802C121.408 71.3916 120.841 71.6013 120.054 71.811L119.681 71.9069C119.425 71.9691 119.147 72.0313 118.858 72.0846C109.332 74.1084 80.9507 75.887 80.9507 75.887L75.3679 75.6969C75.4248 77.6996 75.0685 79.6926 74.3213 81.5516Z" fill="#0E0F0F"/>
<path d="M82.1841 73.6394C82.8025 73.0406 88.5221 73.451 89.8601 74.1582C90.9262 74.7268 92.8061 75.5282 93.46 76.2904L82.2659 77.7226C82.225 76.8093 81.5694 74.24 82.1841 73.6394Z" fill="#0E0F0F"/>
<path d="M83.0812 76.3725C82.9586 75.5783 82.7827 74.498 83.1043 74.187C83.5361 73.7695 87.5268 74.0555 88.4597 74.5424C89.1811 74.9244 90.4142 75.4575 90.9153 75.9639L83.0812 76.3725Z" fill="#FFA608"/>
<g style="mix-blend-mode:multiply">
<path d="M84.2345 76.2813C84.135 75.6363 83.9929 74.7568 84.2541 74.5045C84.6094 74.1651 87.8504 74.3979 88.6073 74.7977C89.1955 75.1086 90.2065 75.5422 90.6045 75.9597L84.2345 76.2813Z" fill="#ED4800"/>
</g>
<path d="M118.437 72.8095L121.756 72.065L121.934 72.026C121.934 72.0082 121.934 71.9904 121.934 71.9709C121.934 71.9513 121.921 71.8945 121.914 71.8554C121.907 71.8163 121.914 71.8198 121.902 71.8003C121.889 71.7807 121.886 71.7292 121.877 71.6919C121.868 71.6546 121.864 71.6493 121.859 71.6262L121.843 71.5693L121.823 71.5107C121.791 71.4041 121.751 71.2939 121.704 71.182C121.69 71.1464 121.676 71.1109 121.66 71.0753C121.621 70.9918 121.585 70.8977 121.55 70.8088L121.496 70.6596C121.367 70.2835 121.259 69.9002 121.173 69.5117C121.15 69.5335 121.128 69.5566 121.107 69.581C120.48 70.2704 119.462 71.2512 118.86 72.0952C118.69 72.3153 118.548 72.5552 118.437 72.8095Z" fill="#0E0F0F"/>
<path d="M119.396 72.184L121.932 72.0561C121.933 72.046 121.933 72.0359 121.932 72.0259C121.932 72.0081 121.932 71.9903 121.932 71.9708C121.932 71.9513 121.92 71.8944 121.912 71.8553C121.905 71.8162 121.912 71.8198 121.9 71.8002C121.888 71.7807 121.884 71.7292 121.875 71.6918C121.866 71.6545 121.863 71.6492 121.857 71.6261L121.841 71.5692L121.822 71.5106C121.79 71.404 121.749 71.2938 121.703 71.1801C121.689 71.1446 121.674 71.109 121.658 71.0735C121.619 70.99 121.584 70.8958 121.548 70.807L121.495 70.6577C120.93 71.0131 120.16 71.4751 119.681 71.9015C119.578 71.9869 119.482 72.0814 119.396 72.184Z" fill="#FFA608"/>
<g style="mix-blend-mode:multiply">
<path d="M119.703 72.136L121.919 72.0241C121.919 72.0063 121.919 71.9886 121.919 71.969C121.919 71.9495 121.907 71.8926 121.9 71.8535C121.893 71.8144 121.9 71.818 121.887 71.7984C121.875 71.7789 121.871 71.7274 121.862 71.69C121.853 71.6527 121.85 71.6474 121.845 71.6243L121.829 71.5674L121.809 71.5088C121.777 71.4022 121.736 71.292 121.69 71.1783C121.676 71.1428 121.662 71.1072 121.646 71.0717C121.606 70.9882 121.571 70.894 121.535 70.8052C121.111 71.0859 120.469 71.4519 120.041 71.8091C119.918 71.9063 119.805 72.0158 119.703 72.136Z" fill="#ED4800"/>
</g>
<path d="M57.3313 74.0786L60.9631 74.7165C60.9471 75.1643 61.1408 75.8093 61.1604 76.2695C61.2492 78.0072 61.3132 79.4891 61.8711 80.923L61.0004 80.7169L57.3241 80.0719L57.3313 74.0786Z" fill="#0E0F0F"/>
<path d="M116.702 66.3112C116.676 66.5848 116.638 66.8815 116.59 67.1996C116.521 67.6367 116.436 68.1022 116.336 68.5731C116.315 68.6821 116.292 68.7904 116.267 68.8982C116.226 69.0901 116.184 69.2803 116.137 69.4686C116.022 69.9555 115.899 70.4299 115.782 70.8616C115.688 71.1921 115.594 71.4978 115.505 71.7678C115.407 72.0691 115.289 72.363 115.149 72.6474C114.753 73.415 97.2034 74.8969 93.7172 74.4544C93.5776 73.9612 93.469 73.4598 93.392 72.953C93.3476 72.6829 93.3068 72.3968 93.2694 72.1019C93.2144 71.6772 93.1682 71.2348 93.1291 70.7835C93.106 70.5027 93.0847 70.2184 93.0687 69.9359C93.042 69.4917 93.0242 69.0475 93.0189 68.6246C93.0189 68.335 93.0189 68.0525 93.0189 67.7824C93.0253 67.3471 93.0538 66.9124 93.1042 66.48C93.1237 66.3307 93.1451 66.1921 93.1699 66.0642C93.1699 66.0642 93.3476 65.9114 93.6177 65.668C93.9517 65.3748 94.4404 64.9483 94.9752 64.4988C95.2915 64.2323 95.6238 63.9551 95.9489 63.6939C96.7858 63.0169 97.5729 62.4359 97.9034 62.3346C98.472 62.1569 99.8011 61.9792 101.42 61.8158C104.973 61.4462 109.949 61.1281 111.308 61.0571C112.362 61.0037 113.426 61.7056 114.329 62.5212C114.593 62.7557 114.842 63.0027 115.075 63.2426C115.444 63.621 115.77 63.9853 116.036 64.2696C116.192 64.4457 116.361 64.6097 116.542 64.76C116.611 64.8236 116.657 64.9078 116.674 64.9999C116.752 65.4328 116.762 65.8753 116.702 66.3112Z" fill="#B1B1BA"/>
<path d="M115.978 65.0445C115.267 64.5292 113.135 61.5512 111.036 61.6596C109.155 61.7556 100.091 62.3419 98.3711 62.8483C97.552 63.0882 93.8899 66.2723 93.8899 66.2723C93.5346 68.0491 93.8668 72.2603 94.3928 73.9607C97.6906 74.3623 114.265 72.9781 114.649 72.2745C115.288 71.0573 116.637 65.526 115.978 65.0445Z" fill="#0E0F0F"/>
<path d="M116.687 64.9932C116.472 65.0376 116.258 65.0803 116.043 65.1211C112.098 65.8734 108.104 66.3483 104.092 66.5426C103.492 66.5728 102.911 66.5959 102.351 66.6155C101.791 66.635 101.224 66.6457 100.697 66.6545C97.9462 66.6972 95.6008 66.6226 93.847 66.5248L93.1079 66.4804C93.1274 66.3312 93.1487 66.1926 93.1736 66.0646C93.1736 66.0646 93.3513 65.9118 93.6214 65.6684C93.9128 65.6862 94.2219 65.7022 94.5471 65.7181C96.2458 65.7999 98.4064 65.855 100.855 65.8105L101.813 65.7892C106.343 65.6787 110.858 65.2177 115.317 64.4104C115.56 64.366 115.803 64.318 116.049 64.27C116.205 64.4461 116.374 64.6101 116.555 64.7604C116.622 64.8222 116.668 64.9036 116.687 64.9932Z" fill="#B1B1BA"/>
<path d="M116.702 66.312C116.676 66.5856 116.638 66.8824 116.59 67.2004L116.001 67.3159C112.253 68.0222 108.462 68.4769 104.654 68.677L104.202 68.7019C102.985 68.7623 101.846 68.7978 100.805 68.8138C97.9408 68.8582 95.5171 68.7765 93.7421 68.6717C93.488 68.6574 93.2463 68.6414 93.0207 68.6255C93.0207 68.3358 93.0207 68.0533 93.0207 67.7832L93.7421 67.8277C95.5473 67.9343 98.0491 68.0213 100.961 67.9698C101.77 67.9556 102.637 67.9307 103.556 67.8898C107.773 67.7167 111.971 67.2309 116.116 66.4364C116.313 66.392 116.509 66.3547 116.702 66.312Z" fill="#B1B1BA"/>
<path d="M115.087 63.2359C114.826 63.2839 114.554 63.3283 114.304 63.3727C110.952 63.9298 107.57 64.2922 104.176 64.4584C103.161 64.5081 102.202 64.5419 101.308 64.5597L100.775 64.5703C98.9874 64.5987 97.3705 64.5703 95.9775 64.5295C95.6328 64.5188 95.3005 64.5063 94.9842 64.4921C95.3005 64.2256 95.6328 63.9484 95.9579 63.6872C96.2991 63.6979 96.6527 63.7085 97.024 63.7157C98.211 63.7423 99.5276 63.7512 100.933 63.7263H101.15C105.28 63.6523 109.401 63.2961 113.483 62.6602L114.345 62.5181C114.606 62.7491 114.855 62.996 115.087 63.2359Z" fill="#B1B1BA"/>
<path d="M116.337 68.5664C116.316 68.6754 116.292 68.7838 116.268 68.8916C116.227 69.0835 116.184 69.2736 116.138 69.4619C115.934 69.5028 115.727 69.5401 115.523 69.5774C111.817 70.2452 108.072 70.6713 104.311 70.8532C103.096 70.9136 101.955 70.9491 100.916 70.9651C98.0586 71.0096 95.6385 70.9278 93.8634 70.8248L93.1314 70.7768C93.1083 70.4961 93.087 70.2118 93.071 69.9292L93.7959 69.9772C95.6047 70.0838 98.1296 70.1727 101.081 70.1211C102.902 70.0909 105.034 70.0003 107.353 69.8066C110.167 69.5766 112.967 69.2018 115.742 68.6837L116.337 68.5664Z" fill="#B1B1BA"/>
<path d="M115.777 70.8555C115.683 71.186 115.589 71.4916 115.5 71.7617L114.816 71.8825C111.376 72.4656 107.905 72.8424 104.421 73.0108C103.204 73.073 102.065 73.1085 101.024 73.1245C98.2661 73.1671 95.9171 73.0925 94.1616 72.993C93.8898 72.9788 93.6285 72.9628 93.394 72.9468C93.3496 72.6767 93.3087 72.3907 93.2714 72.0957L94.0195 72.1419C95.8194 72.2467 98.2999 72.3302 101.182 72.2805C105.859 72.2119 110.523 71.7752 115.132 70.9745C115.346 70.9354 115.561 70.8957 115.777 70.8555Z" fill="#B1B1BA"/>
<g style="mix-blend-mode:multiply" opacity="0.5">
<path d="M116.267 68.8916C116.226 69.0835 116.184 69.2736 116.137 69.4619C116.022 69.9488 115.899 70.4232 115.782 70.855C115.688 71.1855 115.594 71.4911 115.505 71.7612C115.407 72.0624 115.289 72.3563 115.149 72.6407C114.753 73.4083 97.2034 74.8902 93.7172 74.4477C93.5776 73.9545 93.469 73.4531 93.392 72.9463C93.3476 72.6762 93.3068 72.3902 93.2695 72.0952C93.2144 71.6705 93.1682 71.2281 93.1291 70.7768C93.106 70.4961 93.0847 70.2118 93.0687 69.9292C93.042 69.485 93.0242 69.0408 93.0189 68.6179C93.0189 68.3283 93.0189 68.0458 93.0189 67.7757C93.0253 67.3404 93.0538 66.9057 93.1042 66.4733C93.1237 66.324 93.1451 66.1854 93.1699 66.0575C93.1699 66.0575 93.3476 65.9047 93.6177 65.6613C93.9518 65.3681 94.4404 64.9416 94.9752 64.4921C95.2915 64.2256 95.6238 63.9484 95.9489 63.6872C96.7858 63.0102 97.573 62.4292 97.9034 62.3279C98.472 62.1502 99.8011 61.9726 101.42 61.8091C101.349 62.0074 101.29 62.2097 101.242 62.415C101.237 62.4313 101.233 62.4479 101.23 62.4647C101.133 62.8766 101.103 63.3015 101.143 63.7227C101.168 64.006 101.219 64.2862 101.297 64.5596C101.419 64.986 101.59 65.3963 101.809 65.7821C101.967 66.0698 102.145 66.3459 102.342 66.6083C102.698 67.0744 103.102 67.5015 103.548 67.8823C103.891 68.1754 104.258 68.4387 104.645 68.6695C105.485 69.1658 106.388 69.5471 107.33 69.8031C110.045 70.5422 112.918 70.194 115.611 69.1474C115.72 69.1066 115.828 69.0621 115.937 69.0177L116.267 68.8916Z" fill="#0E0F0F"/>
</g>
<path d="M69.7991 83.4842L31.7346 92.1652L20.187 41.6204L58.2515 32.9395L69.7991 83.4842Z" fill="#ED9F01"/>
<path d="M67.9028 82.3985L32.97 90.362L22.0837 42.7057L57.0165 34.7422L67.9028 82.3985Z" fill="#FFF3DE"/>
<path d="M34.8353 52.5875L34.33 52.7029L33.5688 49.3591L34.0711 49.2437L34.8353 52.5875Z" fill="#666666"/>
<path d="M35.088 49.01L36.2734 51.1061L35.7587 48.8571L36.264 48.7417L37.0282 52.0887L36.4855 52.2103L35.3033 50.2265L35.793 52.3694L35.2877 52.4848L34.5234 49.141L35.088 49.01Z" fill="#666666"/>
<path d="M38.9275 50.7781C38.9837 51.012 38.9712 51.2242 38.8839 51.4175C38.8277 51.5486 38.7279 51.6546 38.5906 51.7357C38.5158 51.7763 38.4253 51.8106 38.3193 51.8355C38.1196 51.8792 37.945 51.8698 37.7952 51.8012C37.6673 51.7451 37.555 51.6577 37.4615 51.533C37.3679 51.4082 37.293 51.2585 37.2431 51.0838L37.7141 50.9403C37.7796 51.1306 37.8639 51.2585 37.9668 51.3271C38.0417 51.3801 38.1196 51.3957 38.1945 51.3739C38.3068 51.3458 38.3817 51.2709 38.4222 51.1524C38.4472 51.0931 38.4472 51.0152 38.4222 50.9185C38.391 50.7781 38.2974 50.6564 38.1384 50.5473C38.0167 50.4755 37.8358 50.3695 37.5956 50.226C37.3897 50.1012 37.24 49.9827 37.1402 49.8704C37.031 49.7456 36.9593 49.5959 36.9187 49.4275C36.8501 49.1218 36.9 48.8691 37.0684 48.6663C37.1745 48.5416 37.3211 48.4605 37.5051 48.4168C37.6861 48.3763 37.8483 48.3794 37.9949 48.4324C38.1103 48.4698 38.2101 48.5385 38.2974 48.6383C38.3848 48.735 38.4503 48.8566 38.4971 49.0001L38.0323 49.1966C37.9886 49.0656 37.9231 48.9658 37.842 48.9034C37.7828 48.8597 37.711 48.8473 37.6237 48.866C37.5301 48.8878 37.4708 48.9471 37.4396 49.0375C37.4178 49.1124 37.4147 49.1997 37.4365 49.2964C37.4739 49.4493 37.5738 49.5897 37.7422 49.7175C37.8046 49.7675 37.8982 49.8205 38.0167 49.8797C38.1539 49.9515 38.2475 50.0014 38.2943 50.0326C38.4472 50.1293 38.5719 50.2291 38.6686 50.3352C38.7123 50.3851 38.7497 50.4319 38.7809 50.4755C38.8558 50.5847 38.9057 50.6845 38.9275 50.7781Z" fill="#666666"/>
<path d="M40.3407 51.3708C40.1193 51.4207 39.9134 51.3864 39.7231 51.2679C39.5328 51.1493 39.4112 50.9778 39.3613 50.7594L38.7717 48.1735L39.2646 48.0613L39.8541 50.6409C39.8728 50.722 39.9165 50.7813 39.9882 50.8249C40.0569 50.8686 40.1317 50.8811 40.2128 50.8624C40.2908 50.8437 40.3532 50.8 40.3969 50.7314C40.4405 50.6627 40.453 50.5879 40.4343 50.5068L39.8448 47.9271L40.3719 47.8086L40.9615 50.3945C41.0114 50.6191 40.9771 50.8249 40.8554 51.0121C40.7338 51.2024 40.5622 51.3209 40.3407 51.3708Z" fill="#666666"/>
<path d="M42.0999 48.2613C42.0563 48.0679 41.9377 47.9931 41.7444 48.0367L41.4418 48.1085L41.6851 49.1753L41.9908 49.1067C42.0719 49.0879 42.1311 49.0443 42.1748 48.9756C42.2185 48.907 42.231 48.8322 42.2122 48.7511L42.0999 48.2613ZM41.6133 47.5252C41.8972 47.4628 42.1218 47.4909 42.2871 47.6156C42.4337 47.7248 42.5335 47.8995 42.5897 48.1428L42.702 48.6294C42.755 48.8634 42.7113 49.0848 42.5678 49.2907L43.2759 50.6632L42.73 50.7879L42.1374 49.5995C42.1218 49.6026 42.1062 49.6057 42.0906 49.6089L41.8005 49.6744L42.0875 50.9346L41.5821 51.05L40.821 47.7061L41.6133 47.5252Z" fill="#666666"/>
<path d="M44.0058 47.7867L44.1213 49.1467L44.4956 49.0594L44.0058 47.7867ZM44.1524 49.6552L44.2055 50.4506L43.6814 50.5691L43.488 47.0974L44.1805 46.9414L45.5062 50.1543L44.9759 50.2759L44.6796 49.5335L44.1524 49.6552Z" fill="#666666"/>
<path d="M45.7342 46.5827L46.9164 48.6789L46.4017 46.4299L46.9071 46.3145L47.6713 49.6614L47.1285 49.7862L45.9463 47.7992L46.436 49.9422L45.9307 50.0576L45.1665 46.7137L45.7342 46.5827Z" fill="#666666"/>
<path d="M48.9249 49.4217C48.7034 49.4716 48.4944 49.4373 48.3041 49.3156C48.1107 49.1971 47.9922 49.0255 47.9423 48.8041L47.5243 46.9824C47.4744 46.7578 47.5087 46.5519 47.6304 46.3617C47.752 46.1683 47.9204 46.0497 48.1419 45.9967C48.3665 45.9468 48.5724 45.9811 48.7627 46.1028C48.9529 46.2244 49.0746 46.396 49.1245 46.6174L49.2118 46.998L48.6878 47.1165L48.5973 46.7266C48.5786 46.6455 48.5349 46.5831 48.4663 46.5395C48.3946 46.4958 48.3197 46.4833 48.2417 46.4989C48.1606 46.5176 48.0982 46.5644 48.0546 46.633C48.0109 46.7017 48.0015 46.7765 48.0203 46.8576L48.4351 48.6855C48.4538 48.7666 48.4975 48.829 48.5661 48.8727C48.6348 48.9164 48.7096 48.9257 48.7907 48.9101C48.8718 48.8914 48.9342 48.8477 48.9779 48.7791C49.0216 48.7105 49.034 48.6356 49.0153 48.5545L48.9093 48.0929L49.4333 47.9743L49.5394 48.4391C49.5924 48.6637 49.5549 48.8696 49.4333 49.0598C49.3116 49.2501 49.1432 49.3718 48.9249 49.4217Z" fill="#666666"/>
<path d="M50.1258 49.1001L49.3616 45.7562L50.7996 45.4287L50.915 45.934L49.9823 46.1461L50.1913 47.0601L50.8744 46.9041L50.9898 47.4126L50.3067 47.5654L50.5157 48.4794L51.4484 48.2673L51.5638 48.7726L50.1258 49.1001Z" fill="#666666"/>
<path d="M38.1103 54.5557C38.0822 54.4403 38.0261 54.353 37.9388 54.2968C37.8514 54.2407 37.7516 54.2282 37.6331 54.2532L37.2276 54.3467L37.552 55.7785L37.9606 55.688C38.0698 55.6631 38.1509 55.6038 38.2101 55.5102C38.2663 55.4167 38.2819 55.3168 38.26 55.2108L38.1103 54.5557ZM37.4584 53.57C37.7859 53.4921 38.0729 53.5389 38.3162 53.7011C38.5439 53.857 38.6905 54.0878 38.7623 54.3967L38.9089 55.0455C38.9775 55.3418 38.9307 55.6163 38.7747 55.8752C38.6156 56.131 38.3879 56.2932 38.0947 56.3587L37.7079 56.446L38.0916 58.1336L37.4147 58.2895L36.3916 53.8102L37.4584 53.57Z" fill="#666666"/>
<path d="M40.6496 53.8949C40.6246 53.7889 40.5653 53.7047 40.4749 53.6454C40.3813 53.5892 40.2815 53.5736 40.1723 53.5986C40.0662 53.6204 39.982 53.6797 39.9259 53.7733C39.8635 53.8637 39.8479 53.9636 39.8729 54.0696L40.4312 56.5214C40.4562 56.6305 40.5154 56.7116 40.609 56.7709C40.7026 56.8271 40.8024 56.8426 40.9116 56.8208C41.0176 56.7959 41.1018 56.7366 41.158 56.643C41.2173 56.5526 41.2329 56.4527 41.2079 56.3436L40.6496 53.8949ZM40.0382 52.9217C40.3376 52.8531 40.6121 52.8999 40.871 53.0621C41.1268 53.2243 41.289 53.452 41.3576 53.7483L41.916 56.1907C41.9815 56.4902 41.9347 56.7678 41.7725 57.0236C41.6103 57.2793 41.3826 57.4415 41.0863 57.5071C40.7899 57.5757 40.5123 57.5289 40.2565 57.3667C40.0007 57.2045 39.8385 56.9768 39.773 56.6804L39.2147 54.2349C39.1461 53.9386 39.1928 53.661 39.3551 53.4052C39.5173 53.1494 39.745 52.9872 40.0382 52.9217Z" fill="#666666"/>
<path d="M44.5859 56.6549L42.7455 57.0729L41.7224 52.5967L42.3962 52.4438L43.2665 56.2462L44.4331 55.9811L44.5859 56.6549Z" fill="#666666"/>
<path d="M45.7278 56.3927L45.051 56.5486L44.0278 52.0693L44.7047 51.9165L45.7278 56.3927Z" fill="#666666"/>
<path d="M47.4089 56.0689C47.1126 56.1375 46.8349 56.0907 46.5792 55.9316C46.3234 55.7694 46.1612 55.5417 46.0925 55.2454L45.5342 52.803C45.4687 52.5067 45.5155 52.229 45.6777 51.9701C45.8399 51.7144 46.0676 51.5522 46.3639 51.4867C46.6603 51.418 46.9379 51.4648 47.1937 51.627C47.4494 51.7892 47.6085 52.0201 47.6771 52.3133L47.7926 52.8248L47.0938 52.9839L46.9722 52.4599C46.9472 52.3538 46.888 52.2696 46.7944 52.2103C46.7008 52.1511 46.601 52.1355 46.4949 52.1604C46.3858 52.1823 46.3047 52.2415 46.2454 52.3351C46.1892 52.4287 46.1736 52.5285 46.1986 52.6377L46.757 55.0863C46.7819 55.1955 46.8381 55.2766 46.9316 55.3358C47.0252 55.392 47.125 55.4107 47.2311 55.3858C47.3403 55.3608 47.4214 55.3015 47.4806 55.2111C47.5399 55.1175 47.5555 55.0177 47.5337 54.9116L47.3902 54.294L48.092 54.1318L48.2355 54.7588C48.3041 55.0551 48.2573 55.3327 48.092 55.5854C47.9329 55.8412 47.7021 56.0034 47.4089 56.0689Z" fill="#666666"/>
<path d="M49.1965 53.629L47.6992 51.2303L48.4416 51.0587L49.3088 52.5529L49.4398 50.8342L50.1853 50.6626L49.8734 53.4762L50.3007 55.3509L49.6269 55.5037L49.1965 53.629Z" fill="#666666"/>
<path d="M49.3178 80.0122L36.6691 82.8944L36.4976 82.1427L49.1462 79.2573L49.3178 80.0122Z" fill="#999999"/>
<path d="M49.8048 82.1458L37.1562 85.0311L36.9846 84.2794L49.6333 81.394L49.8048 82.1458Z" fill="#999999"/>
<path d="M50.2941 84.2825L37.6454 87.1678L37.4739 86.413L50.1194 83.5308L50.2941 84.2825Z" fill="#999999"/>
<path d="M56.0774 73.3525C53.8533 73.8578 52.4559 76.0788 52.9612 78.3028C53.4696 80.5269 55.6937 81.9212 57.9177 81.4158C60.1449 80.9074 61.5423 78.6865 61.0339 76.4624C60.5254 74.2384 58.3014 72.8441 56.0774 73.3525ZM58.0831 82.1364C55.4597 82.7353 52.8396 81.0883 52.2406 78.4681C51.6417 75.8448 53.2887 73.2277 55.912 72.6288C58.5354 72.0299 61.1587 73.6769 61.7544 76.2971C62.3533 78.9204 60.7064 81.5375 58.0831 82.1364Z" fill="#906EA3"/>
<path d="M56.3645 74.6157C54.8391 74.9619 53.8784 76.4873 54.2278 78.0126C54.5771 79.541 56.1024 80.4987 57.6309 80.1493C59.1593 79.8031 60.117 78.2777 59.7676 76.7493C59.4214 75.224 57.8929 74.2663 56.3645 74.6157ZM57.7962 80.873C55.8685 81.3128 53.9439 80.1025 53.5041 78.1779C53.0643 76.2533 54.2746 74.3318 56.1991 73.892C58.1269 73.4522 60.0515 74.6625 60.4913 76.5871C60.9311 78.5117 59.7208 80.4332 57.7962 80.873Z" fill="#906EA3"/>
<path d="M57.9927 78.6271L56.6452 78.9359C56.2428 79.0263 55.8436 78.7768 55.75 78.3744L55.4443 77.03C55.3507 76.6276 55.6034 76.2283 56.0058 76.1379L57.3533 75.8291C57.7526 75.7386 58.1518 75.9881 58.2454 76.3905L58.5511 77.7349C58.6447 78.1373 58.392 78.5366 57.9927 78.6271Z" fill="#906EA3"/>
<path d="M52.4279 72.0675L63.6386 69.5129L63.4545 68.6987L52.2438 71.2565L52.4279 72.0675ZM37.7704 67.8128L50.7341 64.8589L50.5501 64.0448L37.5864 67.0018L37.7704 67.8128ZM45.8368 60.0552L39.33 61.54L39.5172 62.351L46.0209 60.8693L45.8368 60.0552ZM52.9925 64.3442L61.9885 62.2917L61.8044 61.4807L52.8084 63.5301L52.9925 64.3442ZM56.4642 61.0191L61.4395 59.8836L61.2554 59.0726L56.2771 60.208L56.4642 61.0191ZM48.0952 59.5405L48.2792 60.3515L60.8905 57.4787L60.7033 56.6646L48.0952 59.5405ZM59.6428 65.358L62.5406 64.6998L62.3534 63.8857L59.4556 64.547L59.6428 65.358ZM37.0717 62.0547L33.4128 62.8875L33.5999 63.7016L37.2588 62.8657L37.0717 62.0547ZM55.5846 68.8173L63.0896 67.1048L62.9055 66.2938L55.3974 68.0031L55.5846 68.8173ZM37.9232 74.5224L32.2711 75.8107L32.4551 76.6217L38.1104 75.3334L37.9232 74.5224ZM53.1391 68.5209L46.6354 70.0026L46.8194 70.8136L53.3262 69.3319L53.1391 68.5209ZM57.1973 65.0616L49.0653 66.9145L49.2525 67.7286L57.3813 65.8758L57.1973 65.0616ZM49.9855 71.7712L40.1847 74.0046L40.3688 74.8187L50.1695 72.5822L49.9855 71.7712ZM54.0187 60.7227L43.722 63.0684L43.906 63.8826L54.2059 61.5337L54.0187 60.7227ZM34.7104 72.7226L31.7221 73.4026L31.9062 74.2167L34.8944 73.5336L34.7104 72.7226ZM35.328 67.5165L30.621 68.5895L30.8082 69.4006L35.512 68.3275L35.328 67.5165ZM39.5796 69.0793L31.17 70.9976L31.3572 71.8086L39.7667 69.8903L39.5796 69.0793ZM37.1528 73.0189L44.5611 71.3283L44.377 70.5173L36.9687 72.2079L37.1528 73.0189ZM46.8069 67.4292L41.8379 68.5646L42.0251 69.3756L46.9941 68.2433L46.8069 67.4292ZM41.4605 63.5862L30.072 66.1815L30.2561 66.9956L41.6477 64.3972L41.4605 63.5862Z" fill="#999999"/>
<path d="M54.9638 40.9308L39.1242 44.5398L38.7966 43.1111L54.6363 39.499L54.9638 40.9308Z" fill="#999999"/>
<path d="M37.6769 44.87L27.8605 47.1097L27.5361 45.6779L37.3525 43.4414L37.6769 44.87Z" fill="#999999"/>
<path d="M75.3699 64.244C75.1048 64.4967 75.0923 64.9147 75.3449 65.1829C75.4947 65.3389 75.7037 65.4044 75.9033 65.3826C75.6912 65.4169 75.4666 65.3514 75.3106 65.1829C75.058 64.9178 75.0673 64.4967 75.3325 64.244C75.4416 64.1411 75.5758 64.0849 75.7161 64.0693C75.5914 64.0912 75.4697 64.1473 75.3699 64.244Z" fill="#E6E6E6"/>
<path d="M65.4478 88.5059C65.5226 88.5121 65.5975 88.5152 65.6723 88.5184V88.1035C65.5975 88.1004 65.5226 88.0941 65.4478 88.0879V88.5059Z" fill="#F5CF64"/>
<path d="M64.2842 88.2407C64.3559 88.2688 64.4308 88.2969 64.5056 88.3187V87.9039C64.4308 87.8789 64.3559 87.8508 64.2842 87.8228V88.2407Z" fill="#F5CF64"/>
<path d="M64.8677 88.4149C64.9394 88.4336 65.0143 88.4461 65.0891 88.4585V88.0437C65.0143 88.0312 64.9394 88.0156 64.8677 88V88.4149Z" fill="#F5CF64"/>
<mask id="mask0_1269_9307" style="mask-type:luminance" maskUnits="userSpaceOnUse" x="61" y="0" width="4" height="3">
<path d="M61.6013 0H64.7955V2.72937H61.6013V0Z" fill="white"/>
</mask>
<g mask="url(#mask0_1269_9307)">
<path d="M64.2906 0.788993C64.2906 0.386606 63.8196 0.059082 63.2394 0.059082C62.6561 0.059082 62.1851 0.386606 62.1851 0.788993V2.53267H64.2906V0.788993Z" fill="#704922"/>
</g>
<path d="M62.5527 2.95427C62.9988 2.96363 63.239 2.96987 63.239 2.96987C63.239 2.96987 63.476 2.96363 63.9221 2.95427C64.181 2.9418 64.5147 2.94492 64.9047 2.96987C64.8953 2.64235 64.6551 2.36473 64.3307 2.3117L63.9502 2.25244C63.4823 2.17757 63.0081 2.17757 62.5402 2.25244L62.1597 2.3117C61.8353 2.36473 61.5951 2.63923 61.5889 2.96675C61.9694 2.94492 62.2969 2.9418 62.5527 2.95427Z" fill="#704922"/>
<path d="M38.1196 45.2697C38.1196 42.7369 43.7406 40.6844 50.6778 40.6844C57.6151 40.6844 63.2392 42.7369 63.2392 45.2697V2.96924C49.3677 2.96924 38.1196 21.9095 38.1196 45.2697Z" fill="#F6D94D"/>
<mask id="mask1_1269_9307" style="mask-type:luminance" maskUnits="userSpaceOnUse" x="13" y="2" width="51" height="44">
<path d="M13 2.52979H63.9971V45.6507H13V2.52979Z" fill="white"/>
</mask>
<g mask="url(#mask1_1269_9307)">
<path d="M13 45.2702C13 42.7374 18.6241 40.6849 25.5613 40.6849C32.4955 40.6849 38.1195 42.7374 38.1195 45.2702C38.1195 21.91 49.3677 2.96973 63.2391 2.96973C35.4962 2.96973 13 21.91 13 45.2702Z" fill="#ED9F01"/>
</g>
<path d="M38.1194 45.2698C38.1194 45.2698 38.0476 44.4681 37.9728 43.0644C37.9634 42.3626 37.9291 41.5079 37.9353 40.5285C37.9384 39.5459 37.9509 38.4386 38.0445 37.2345C38.1973 34.8202 38.5498 32.0066 39.208 29.0246C39.548 27.5398 39.9285 26.002 40.437 24.4642C40.9298 22.9264 41.5194 21.3792 42.1682 19.8508C42.8669 18.3348 43.5999 16.8313 44.4608 15.3965C45.3062 13.9616 46.2451 12.5891 47.2744 11.3227C49.3051 8.78047 51.71 6.67184 54.1306 5.27441C55.3471 4.59129 56.5293 4.03917 57.6554 3.70853C58.195 3.50578 58.7503 3.41532 59.2306 3.28119C59.7266 3.17825 60.1914 3.11587 60.6031 3.04412C61.4453 2.9599 62.1035 2.92871 62.5527 2.95367C62.9987 2.96302 63.2389 2.96926 63.2389 2.96926C63.2389 2.96926 63.0018 2.99422 62.5589 3.041C62.1128 3.06284 61.4765 3.19697 60.678 3.34046C60.2849 3.44963 59.8482 3.55257 59.3866 3.69293C58.9374 3.86761 58.4259 3.99862 57.933 4.24193C56.913 4.65679 55.8649 5.28377 54.7701 5.99808C53.6877 6.73111 52.6334 7.64194 51.5884 8.65258C50.5434 9.66947 49.5921 10.8423 48.6469 12.0775C47.6987 13.3097 46.8908 14.6759 46.0735 16.0609C45.2625 17.4489 44.5731 18.9181 43.9119 20.3935C43.263 21.8752 42.6673 23.3724 42.1651 24.8728C41.903 25.6183 41.6847 26.3701 41.4352 27.1031C41.2262 27.8486 40.9953 28.5785 40.8082 29.3053C40.437 30.7558 40.0814 32.1657 39.81 33.5101C39.5293 34.8576 39.2953 36.1334 39.1019 37.3187C38.9148 38.5041 38.7557 39.5927 38.6216 40.5597C38.4906 41.5266 38.4157 42.372 38.3315 43.0707C38.2129 44.4681 38.1194 45.2698 38.1194 45.2698Z" fill="#FFF297"/>
<path d="M88.3557 45.2697C88.3557 42.7369 82.7316 40.6844 75.7975 40.6844C68.8602 40.6844 63.2393 42.7369 63.2393 45.2697V2.96924C77.1076 2.96924 88.3557 21.9095 88.3557 45.2697Z" fill="#ED9F01"/>
<mask id="mask2_1269_9307" style="mask-type:luminance" maskUnits="userSpaceOnUse" x="63" y="2" width="51" height="44">
<path d="M63.2048 2.86328H113.469V45.351H63.2048V2.86328Z" fill="white"/>
</mask>
<g mask="url(#mask2_1269_9307)">
<path d="M113.475 45.2707C113.475 42.7379 107.851 40.6854 100.914 40.6854C93.9795 40.6854 88.3554 42.7379 88.3554 45.2707C88.3554 21.9105 77.1073 2.97021 63.239 2.97021C90.9787 2.97021 113.475 21.9105 113.475 45.2707Z" fill="#F6D94D"/>
</g>
<path d="M88.3557 45.2698C88.3557 45.2698 88.2621 44.4681 88.1404 43.0707C88.0593 42.372 87.9845 41.5266 87.8535 40.5597C87.7193 39.5927 87.5603 38.5041 87.3731 37.3187C87.1797 36.1334 86.9458 34.8576 86.665 33.5101C86.3937 32.1657 86.0381 30.7558 85.6669 29.3053C85.4797 28.5785 85.2489 27.8486 85.0399 27.1031C84.7903 26.3701 84.572 25.6183 84.31 24.8728C83.8078 23.3724 83.212 21.8752 82.5632 20.3935C81.9019 18.9181 81.2125 17.4489 80.4015 16.0609C79.5843 14.6759 78.7764 13.3097 77.8281 12.0775C76.883 10.8423 75.9316 9.66947 74.8866 8.65258C73.8417 7.64194 72.7874 6.73111 71.705 5.99808C70.6101 5.28377 69.562 4.65679 68.542 4.24193C68.0492 3.99862 67.5376 3.86761 67.0884 3.69293C66.6268 3.55257 66.1901 3.44963 65.7971 3.34046C64.9985 3.19697 64.3622 3.06284 63.9161 3.041C63.4732 2.99422 63.2393 2.96926 63.2393 2.96926C63.2393 2.96926 63.4763 2.96302 63.9224 2.95367C64.3716 2.92871 65.0297 2.9599 65.8719 3.04412C66.2837 3.11587 66.7453 3.17825 67.2444 3.28119C67.7248 3.41532 68.28 3.50578 68.8196 3.70853C69.9457 4.03917 71.1279 4.59129 72.3444 5.27441C74.765 6.67184 77.1699 8.78047 79.2006 11.3227C80.23 12.5891 81.1689 13.9616 82.0173 15.3965C82.8751 16.8313 83.6081 18.3348 84.3069 19.8508C84.9557 21.3792 85.5452 22.9264 86.0381 24.4642C86.5465 26.002 86.927 27.5398 87.267 29.0246C87.9252 32.0066 88.2777 34.8202 88.4305 37.2345C88.5241 38.4386 88.5366 39.5459 88.5397 40.5285C88.546 41.5079 88.5116 42.3626 88.5023 43.0644C88.4274 44.4681 88.3557 45.2698 88.3557 45.2698Z" fill="#FFF297"/>
<path d="M63.2393 45.2697C63.2393 45.2697 62.9274 42.6246 62.7059 38.66C62.5874 36.6761 62.4876 34.3648 62.4221 31.8849C62.3971 30.6435 62.3441 29.3646 62.341 28.0638C62.3285 26.7631 62.3191 25.4405 62.3066 24.1179C62.3191 22.7954 62.3285 21.4759 62.341 20.172C62.341 18.8713 62.394 17.5924 62.4189 16.3509C62.4844 13.8742 62.5843 11.5597 62.7028 9.57899C62.9243 5.61127 63.2393 2.96924 63.2393 2.96924C63.2393 2.96924 63.5512 5.61127 63.7727 9.57899C63.8912 11.5597 63.9911 13.8742 64.0566 16.3509C64.0815 17.5924 64.1345 18.8713 64.1345 20.172C64.147 21.4759 64.1564 22.7954 64.1688 24.1179C64.1564 25.4405 64.147 26.7631 64.1345 28.0638C64.1314 29.3646 64.0784 30.6435 64.0534 31.8849C63.9879 34.3648 63.8881 36.6761 63.7696 38.66C63.5481 42.6246 63.2393 45.2697 63.2393 45.2697Z" fill="#FFF297"/>
<path d="M63.2392 45.5879C63.0364 45.5879 62.8711 45.4257 62.8711 45.223V44.1655H63.6041V45.223C63.6041 45.4257 63.4388 45.5879 63.2392 45.5879Z" fill="#704922"/>
<path d="M88.3552 45.5821C88.1556 45.5821 87.9902 45.4167 87.9902 45.2171V44.1597H88.7201V45.2171C88.7201 45.4167 88.5579 45.5821 88.3552 45.5821Z" fill="#704922"/>
<mask id="mask3_1269_9307" style="mask-type:luminance" maskUnits="userSpaceOnUse" x="112" y="43" width="2" height="3">
<path d="M112.708 43.6636H113.469V45.6506H112.708V43.6636Z" fill="white"/>
</mask>
<g mask="url(#mask3_1269_9307)">
<path d="M113.11 45.5822C112.907 45.5822 112.742 45.4169 112.742 45.2173V43.7231H113.44L113.475 45.2173C113.475 45.4169 113.309 45.5822 113.11 45.5822Z" fill="#704922"/>
</g>
<mask id="mask4_1269_9307" style="mask-type:luminance" maskUnits="userSpaceOnUse" x="13" y="43" width="2" height="3">
<path d="M13 43.2549H14.4879V45.6505H13V43.2549Z" fill="white"/>
</mask>
<g mask="url(#mask4_1269_9307)">
<path d="M13.365 45.5822C13.5677 45.5822 13.7299 45.4169 13.7299 45.2173V43.7231H13.0343L13 45.2173C13 45.4169 13.1653 45.5822 13.365 45.5822Z" fill="#704922"/>
</g>
</svg>
