<svg width="23" height="19" viewBox="0 0 23 19" fill="none" xmlns="http://www.w3.org/2000/svg">
<mask id="mask0_66_21" style="mask-type:luminance" maskUnits="userSpaceOnUse" x="6" y="0" width="10" height="9">
<path d="M6.91621 0.185791H15.624V8.75408H6.91621V0.185791Z" fill="white"/>
</mask>
<g mask="url(#mask0_66_21)">
<path d="M11.3272 8.74769C10.1811 8.74769 9.10299 8.30272 8.29219 7.49469C7.48208 6.68666 7.03572 5.61276 7.03572 4.47014C7.03572 3.32751 7.48208 2.25292 8.29219 1.44489C9.10299 0.636865 10.1811 0.191895 11.3272 0.191895C12.4732 0.191895 13.5513 0.636865 14.3614 1.44489C15.1722 2.25292 15.6186 3.32751 15.6186 4.47014C15.6186 5.61276 15.1722 6.68666 14.3614 7.49469C13.5513 8.30272 12.4732 8.74769 11.3272 8.74769ZM11.3272 0.860392C9.33069 0.860392 7.7063 2.47992 7.7063 4.47014C7.7063 6.46036 9.33069 8.07919 11.3272 8.07919C13.3236 8.07919 14.948 6.46036 14.948 4.47014C14.948 2.47992 13.3236 0.860392 11.3272 0.860392Z" fill="black"/>
</g>
<path d="M16.5266 10.9146H6.89347C6.42043 10.9146 5.9607 10.8259 5.52691 10.651L3.86602 9.97943C3.69432 9.91013 3.61654 9.72621 3.69152 9.56819C3.76721 9.41082 3.96623 9.33894 4.13793 9.40823L5.79882 10.0798C6.14642 10.2197 6.51433 10.2909 6.89347 10.2909H16.5266C16.9058 10.2909 17.2737 10.2197 17.6213 10.0798L19.2822 9.40823C19.4532 9.33894 19.6529 9.41082 19.7279 9.56819C19.8036 9.72621 19.7251 9.91013 19.5541 9.97943L17.8932 10.651C17.4594 10.8259 16.9997 10.9146 16.5266 10.9146Z" fill="black"/>
<path d="M19.24 16.2792H3.41395C2.70633 16.2792 2.13052 15.7064 2.13052 15.0021V11.9309C2.13052 11.5408 2.25962 11.1549 2.49458 10.8433L5.52932 6.81202C6.01838 6.16287 6.72737 5.71692 7.52653 5.55668C7.7048 5.52054 7.87898 5.63578 7.91518 5.81307C7.95138 5.99104 7.83594 6.16423 7.65699 6.19969C7.01698 6.32857 6.44869 6.68587 6.05731 7.20546L3.02257 11.2374C2.87299 11.4358 2.79034 11.682 2.79034 11.9309V15.0021C2.79034 15.3444 3.07038 15.6226 3.41395 15.6226H19.24C19.5835 15.6226 19.8636 15.3444 19.8636 15.0021V11.9309C19.8636 11.682 19.7809 11.4358 19.6313 11.2374L16.5966 7.20546C16.2045 6.68587 15.6369 6.32857 14.9969 6.19969C14.818 6.16423 14.7025 5.99104 14.7387 5.81307C14.7749 5.63578 14.9484 5.52054 15.1274 5.55668C15.9265 5.71692 16.6355 6.16287 17.1246 6.81202L20.1593 10.8433C20.3936 11.1549 20.5234 11.5408 20.5234 11.9309V15.0021C20.5234 15.7064 19.9476 16.2792 19.24 16.2792Z" fill="black"/>
<path d="M14.1878 13.98H9.23243C8.89318 13.98 8.59117 13.8249 8.49772 13.6026L8.29119 13.1122C8.22483 12.9534 8.2702 12.7867 8.41579 12.6547C8.56205 12.5232 8.78415 12.4473 9.02657 12.4473H14.3936C14.6354 12.4473 14.8582 12.5232 15.0038 12.6547C15.15 12.7867 15.1954 12.9534 15.1283 13.1122L14.9225 13.6026C14.829 13.8249 14.527 13.98 14.1878 13.98ZM9.02657 12.8932C8.9785 12.8932 8.95073 12.9122 8.93854 12.9233C8.92568 12.9344 8.9074 12.958 8.92026 12.9895L9.12611 13.4799C9.13966 13.5118 9.18367 13.5341 9.23243 13.5341H14.1878C14.2365 13.5341 14.2806 13.5118 14.2934 13.4799L14.5 12.9895C14.5128 12.958 14.4939 12.9344 14.4817 12.9233C14.4695 12.9122 14.4417 12.8932 14.3936 12.8932H9.02657Z" fill="black"/>
<path d="M18.0336 13.98C18.0178 13.98 18.0021 13.98 17.987 13.9795L16.8331 13.9358C16.3236 13.9165 15.9246 13.5996 15.9246 13.2136C15.9246 12.828 16.3236 12.5106 16.8331 12.4913L17.987 12.4482C18.2468 12.4383 18.504 12.5106 18.6932 12.6464C18.8817 12.7822 18.9901 12.9732 18.9901 13.1704V13.2573C18.9901 13.4545 18.8817 13.6454 18.6932 13.7812C18.5156 13.9087 18.2777 13.98 18.0336 13.98ZM18.035 12.9482C18.0295 12.9482 18.0247 12.9482 18.0199 12.9487L16.866 12.9919C16.7096 12.9981 16.5869 13.0954 16.5869 13.2136C16.5869 13.3322 16.7096 13.4295 16.866 13.4352L18.0199 13.4789C18.1008 13.4821 18.1776 13.4602 18.2366 13.4181C18.2955 13.3759 18.3277 13.3187 18.3277 13.2573V13.1704C18.3277 13.109 18.2955 13.0517 18.2366 13.0096C18.181 12.9695 18.1104 12.9482 18.035 12.9482Z" fill="black"/>
<path d="M4.61944 13.98C4.37535 13.98 4.13744 13.9087 3.95986 13.7812C3.77131 13.6454 3.66298 13.4545 3.66298 13.2573V13.1704C3.66298 12.9732 3.77131 12.7822 3.95986 12.6464C4.14841 12.5106 4.40621 12.4383 4.66606 12.4482L5.81999 12.4913C6.32942 12.5106 6.72846 12.828 6.72846 13.2136C6.72846 13.5996 6.32942 13.9165 5.81999 13.9358L4.66606 13.9795C4.65029 13.98 4.63521 13.98 4.61944 13.98ZM4.61807 12.9482C4.54265 12.9482 4.47134 12.9695 4.41649 13.0096C4.35753 13.0517 4.3253 13.109 4.3253 13.1704V13.2573C4.3253 13.3187 4.35753 13.3759 4.41649 13.4181C4.47546 13.4602 4.55225 13.4821 4.63315 13.4789L5.78708 13.4352C5.9434 13.4295 6.06613 13.3322 6.06613 13.2136C6.06613 13.0954 5.9434 12.9981 5.78708 12.9919L4.63315 12.9487C4.62835 12.9482 4.62355 12.9482 4.61807 12.9482Z" fill="black"/>
<mask id="mask1_66_21" style="mask-type:luminance" maskUnits="userSpaceOnUse" x="3" y="15" width="4" height="4">
<path d="M3.18755 15.3286H6.38634V18.0449H3.18755V15.3286Z" fill="white"/>
</mask>
<g mask="url(#mask1_66_21)">
<path d="M5.20387 18.0386H4.52565C3.87868 18.0386 3.35179 17.5138 3.35179 16.869V15.8388C3.35179 15.6541 3.50243 15.5049 3.68708 15.5049H6.04175C6.22709 15.5049 6.37704 15.6541 6.37704 15.8388V16.869C6.37704 17.5138 5.85085 18.0386 5.20387 18.0386ZM4.02237 16.1734V16.869C4.02237 17.1452 4.24798 17.3701 4.52565 17.3701H5.20387C5.48085 17.3701 5.70646 17.1452 5.70646 16.869V16.1734H4.02237Z" fill="black"/>
</g>
<mask id="mask2_66_21" style="mask-type:luminance" maskUnits="userSpaceOnUse" x="16" y="15" width="4" height="4">
<path d="M16.1571 15.3286H19.3558V18.0449H16.1571V15.3286Z" fill="white"/>
</mask>
<g mask="url(#mask2_66_21)">
<path d="M18.129 18.0377H17.4507C16.8038 18.0377 16.2776 17.5129 16.2776 16.868V15.8378C16.2776 15.6532 16.4275 15.5039 16.6129 15.5039H18.9668C19.1522 15.5039 19.3021 15.6532 19.3021 15.8378V16.868C19.3021 17.5129 18.7759 18.0377 18.129 18.0377ZM16.9482 16.1724V16.868C16.9482 17.1443 17.1738 17.3692 17.4507 17.3692H18.129C18.4059 17.3692 18.6315 17.1443 18.6315 16.868V16.1724H16.9482Z" fill="black"/>
</g>
<mask id="mask3_66_21" style="mask-type:luminance" maskUnits="userSpaceOnUse" x="0" y="8" width="4" height="3">
<path d="M0.596497 8.22021H3.71754V10.5305H0.596497V8.22021Z" fill="white"/>
</mask>
<g mask="url(#mask3_66_21)">
<path d="M3.17538 10.4312H1.29484C0.909573 10.4312 0.596497 10.1188 0.596497 9.73423V9.08933C0.596497 8.70545 0.909573 8.39307 1.29484 8.39307H2.58949C2.85745 8.39307 3.10458 8.54856 3.21981 8.78944L3.66062 9.70924C3.73975 9.87514 3.67103 10.073 3.50581 10.1535C3.47874 10.3111 3.34129 10.4312 3.17538 10.4312ZM1.29484 9.06156C1.27957 9.06156 1.26708 9.07406 1.26708 9.08933V9.73423C1.26708 9.75019 1.27957 9.76269 1.29484 9.76269H2.94283L2.61518 9.07753C2.61032 9.06781 2.6006 9.06156 2.58949 9.06156H1.29484Z" fill="black"/>
</g>
<mask id="mask4_66_21" style="mask-type:luminance" maskUnits="userSpaceOnUse" x="18" y="8" width="5" height="3">
<path d="M18.8248 8.2207H22.0569V10.5309H18.8248V8.2207Z" fill="white"/>
</mask>
<g mask="url(#mask4_66_21)">
<path d="M21.3573 10.4309H19.4775C19.3115 10.4309 19.1741 10.3108 19.147 10.1533C18.9818 10.0727 18.9124 9.8749 18.9915 9.70899L19.4323 8.7892C19.5476 8.54832 19.7954 8.39282 20.0633 8.39282H21.3573C21.7426 8.39282 22.0563 8.7052 22.0563 9.08909V9.73398C22.0563 10.1186 21.7426 10.4309 21.3573 10.4309ZM19.7093 9.76244H21.3573C21.3733 9.76244 21.3858 9.74995 21.3858 9.73398V9.08909C21.3858 9.07381 21.3733 9.06132 21.3573 9.06132H20.0633C20.0522 9.06132 20.0425 9.06757 20.0377 9.07729L19.7093 9.76244Z" fill="black"/>
</g>
<path d="M11.0172 6.31623L9.79378 4.29405V3.81748H10.2016C10.3647 3.81748 10.5075 3.79602 10.6298 3.75308C10.7567 3.70585 10.8609 3.63931 10.9425 3.55344C11.0286 3.46757 11.0875 3.36453 11.1192 3.24432H9.79378V2.76775H11.1124C11.0852 2.65612 11.0376 2.55737 10.9697 2.47151C10.9062 2.38564 10.8201 2.31909 10.7114 2.27186C10.6072 2.22034 10.4803 2.19458 10.3307 2.19458H9.79378V1.71802H12.8593V2.19458H11.7921C11.8691 2.27616 11.9326 2.36417 11.9824 2.45863C12.0368 2.55308 12.0731 2.65612 12.0912 2.76775H12.8593V3.24432H12.1048C12.0595 3.56203 11.9303 3.81104 11.7173 3.99136C11.5044 4.16739 11.2302 4.28761 10.8949 4.35201L12.2271 6.31623H11.0172Z" fill="#FF0000"/>
</svg>
