<svg width="18" height="18" viewBox="0 0 18 18" fill="none" xmlns="http://www.w3.org/2000/svg">
<mask id="mask0_66_114" style="mask-type:luminance" maskUnits="userSpaceOnUse" x="1" y="0" width="17" height="18">
<path d="M1.43103 0.185303H17.4649V17.318H1.43103V0.185303Z" fill="white"/>
</mask>
<g mask="url(#mask0_66_114)">
<path d="M9.45826 0.215576C5.04244 0.215576 1.45016 3.80933 1.45016 8.22589C1.45016 8.46867 1.4605 8.71366 1.48263 8.95423L2.04273 8.90331C2.02207 8.67972 2.01174 8.45096 2.01174 8.22589C2.01174 4.11853 5.35238 0.777884 9.45826 0.777884C13.5649 0.777884 16.9055 4.11853 16.9055 8.22589C16.9055 12.2403 13.7139 15.5197 9.7372 15.668L10.36 15.0444L9.96227 14.6467L8.63989 15.9698L9.94825 17.2782L10.3453 16.8812L9.6944 16.231C14.0017 16.1048 17.4671 12.5642 17.4671 8.22589C17.4671 3.80933 13.8748 0.215576 9.45826 0.215576Z" fill="black"/>
</g>
<path d="M14.0949 8.08561H5.10242V4.15019H14.0949V8.08561ZM14.6565 3.58862H4.54012V8.64792H14.6565V3.58862Z" fill="black"/>
<path d="M9.59867 5.5562C9.90787 5.5562 10.1602 5.80858 10.1602 6.11851C10.1602 6.42771 9.90787 6.68008 9.59867 6.68008C9.28874 6.68008 9.03636 6.42771 9.03636 6.11851C9.03636 5.80858 9.28874 5.5562 9.59867 5.5562ZM9.59867 7.24239C10.2185 7.24239 10.7225 6.73838 10.7225 6.11851C10.7225 5.49791 10.2185 4.9939 9.59867 4.9939C8.97807 4.9939 8.47479 5.49791 8.47479 6.11851C8.47479 6.73838 8.97807 7.24239 9.59867 7.24239Z" fill="#FF0000"/>
<path d="M6.22588 5.27447H6.78819V4.71216H5.66431V5.83677H6.22588V5.27447Z" fill="black"/>
<path d="M6.78819 6.96098H6.22588V6.39941H5.66431V7.52329H6.78819V6.96098Z" fill="black"/>
<path d="M13.5314 6.39941H12.9691V6.96098H12.4075V7.52329H13.5314V6.39941Z" fill="black"/>
<path d="M12.9691 5.83677H13.5314V4.71216H12.4075V5.27447H12.9691V5.83677Z" fill="black"/>
<path d="M7.9113 5.83691H7.06857V6.39922H7.9113V5.83691Z" fill="black"/>
<path d="M12.128 5.83691H11.2853V6.39922H12.128V5.83691Z" fill="black"/>
<mask id="mask1_66_114" style="mask-type:luminance" maskUnits="userSpaceOnUse" x="0" y="9" width="15" height="6">
<path d="M0.607185 9.44214H14.6575V14.9206H0.607185V9.44214Z" fill="white"/>
</mask>
<g mask="url(#mask1_66_114)">
<path d="M3.41725 13.7075H1.16949V10.0533H2.29337V11.7395H2.85568V10.0533H3.41725V13.7075ZM4.83262 10.0894C4.87394 10.0651 4.92117 10.0533 4.97061 10.0533H8.47581C8.78501 10.0533 9.03738 10.3056 9.03738 10.6156C9.03738 10.9248 8.78501 11.1779 8.47581 11.1779H6.50847V11.4583L6.46198 11.735L9.70743 12.2767C9.8314 12.2973 9.9598 12.2907 10.0823 12.2545L13.4849 11.2657C13.631 11.2229 13.7838 11.2509 13.9048 11.3425C14.0266 11.4332 14.0959 11.572 14.0959 11.7232C14.0959 11.9343 13.9609 12.1173 13.7594 12.18L7.18221 14.2219C7.11875 14.2411 7.05086 14.2374 6.99034 14.2123L3.97956 12.9585V10.5713L4.83262 10.0894ZM3.97956 13.5666L6.77413 14.7318C6.87744 14.7746 6.98813 14.796 7.09882 14.796C7.18221 14.796 7.26707 14.7842 7.34824 14.7576L13.9262 12.7158C14.3631 12.5807 14.6575 12.1807 14.6575 11.7232C14.6575 11.3941 14.5062 11.0908 14.2428 10.8923C13.9779 10.6945 13.6458 10.6333 13.3285 10.7255L9.92586 11.7144C9.88453 11.7269 9.84173 11.7291 9.80041 11.7225L9.02115 11.5926C9.36429 11.3993 9.59969 11.0362 9.59969 10.6156C9.59969 9.99498 9.09568 9.49097 8.47581 9.49097H4.97061C4.8245 9.49097 4.6806 9.52934 4.55589 9.60018L3.97956 9.92487V9.49097H0.607185V14.2691H3.97956V13.5666Z" fill="black"/>
</g>
<path d="M2.29272 13.145H2.85503V12.3015H2.29272V13.145Z" fill="black"/>
</svg>
