<svg width="65" height="88" viewBox="0 0 65 88" fill="none" xmlns="http://www.w3.org/2000/svg">
<circle cx="4" cy="4" r="4" fill="#B5E6EA"/>
<circle cx="4" cy="22" r="4" fill="#B5E6EA"/>
<circle cx="4" cy="40" r="4" fill="#B5E6EA"/>
<circle cx="4" cy="58" r="4" fill="#B5E6EA"/>
<circle cx="4" cy="76" r="4" fill="#B5E6EA"/>
<circle cx="21" cy="4" r="4" fill="#B5E6EA"/>
<circle cx="21" cy="22" r="4" fill="#B5E6EA"/>
<circle cx="21" cy="40" r="4" fill="#B5E6EA"/>
<circle cx="21" cy="58" r="4" fill="#B5E6EA"/>
<circle cx="21" cy="76" r="4" fill="#B5E6EA"/>
<circle cx="38" cy="4" r="4" fill="#B5E6EA"/>
<circle cx="38" cy="22" r="4" fill="#B5E6EA"/>
<circle cx="38" cy="40" r="4" fill="#B5E6EA"/>
<circle cx="38" cy="58" r="4" fill="#B5E6EA"/>
<circle cx="38" cy="76" r="4" fill="#B5E6EA"/>
<circle cx="55" cy="4" r="4" fill="#B5E6EA"/>
<circle cx="55" cy="22" r="4" fill="#B5E6EA"/>
<circle cx="55" cy="40" r="4" fill="#B5E6EA"/>
<circle cx="55" cy="58" r="4" fill="#B5E6EA"/>
<circle cx="55" cy="76" r="4" fill="#B5E6EA"/>
</svg>
