<svg width="76" height="98" viewBox="0 0 76 98" fill="none" xmlns="http://www.w3.org/2000/svg">
<circle cx="4" cy="4" r="4" fill="#FABF42"/>
<circle cx="4" cy="22" r="4" fill="#FABF42"/>
<circle cx="4" cy="40" r="4" fill="#FABF42"/>
<circle cx="4" cy="58" r="4" fill="#FABF42"/>
<circle cx="4" cy="76" r="4" fill="#FABF42"/>
<circle cx="4" cy="94" r="4" fill="#FABF42"/>
<circle cx="21" cy="4" r="4" fill="#FABF42"/>
<circle cx="21" cy="22" r="4" fill="#FABF42"/>
<circle cx="21" cy="40" r="4" fill="#FABF42"/>
<circle cx="21" cy="58" r="4" fill="#FABF42"/>
<circle cx="21" cy="76" r="4" fill="#FABF42"/>
<circle cx="21" cy="94" r="4" fill="#FABF42"/>
<circle cx="38" cy="4" r="4" fill="#FABF42"/>
<circle cx="38" cy="22" r="4" fill="#FABF42"/>
<circle cx="38" cy="40" r="4" fill="#FABF42"/>
<circle cx="38" cy="58" r="4" fill="#FABF42"/>
<circle cx="38" cy="76" r="4" fill="#FABF42"/>
<circle cx="38" cy="94" r="4" fill="#FABF42"/>
<circle cx="55" cy="4" r="4" fill="#FABF42"/>
<circle cx="55" cy="22" r="4" fill="#FABF42"/>
<circle cx="55" cy="40" r="4" fill="#FABF42"/>
<circle cx="55" cy="58" r="4" fill="#FABF42"/>
<circle cx="55" cy="76" r="4" fill="#FABF42"/>
<circle cx="55" cy="94" r="4" fill="#FABF42"/>
<circle cx="72" cy="4" r="4" fill="#FABF42"/>
<circle cx="72" cy="22" r="4" fill="#FABF42"/>
<circle cx="72" cy="40" r="4" fill="#FABF42"/>
<circle cx="72" cy="58" r="4" fill="#FABF42"/>
<circle cx="72" cy="76" r="4" fill="#FABF42"/>
<circle cx="72" cy="94" r="4" fill="#FABF42"/>
</svg>
