<svg width="149" height="123" viewBox="0 0 149 123" fill="none" xmlns="http://www.w3.org/2000/svg">
<path d="M32.5991 13.1932C32.9248 14.2004 33.1027 15.185 33.1854 16.1572C35.1447 15.185 37.2643 14.5035 39.3865 13.9523C46.3718 12.1358 54.2366 14.5987 60.2197 18.2242C61.6429 19.0861 62.4672 19.8377 63.2063 21.2909C63.9604 22.7667 64.1784 24.498 63.7299 26.104C63.1837 28.0483 61.6829 29.6994 59.7988 30.421C59.7111 30.456 59.6234 30.4811 59.5357 30.5112C59.4506 31.1426 59.3629 31.7313 59.2852 32.255C59.5833 32.4955 59.7086 32.9415 59.6259 33.3048C59.5508 33.633 59.3127 33.846 59.0271 33.9437C58.9419 34.5024 58.8542 35.0662 58.759 35.6349C58.987 35.6725 59.2125 35.7076 59.4405 35.7502C59.7111 35.7978 59.8339 36.111 59.7813 36.354C59.3804 38.2106 58.8392 40.0696 58.06 41.806C58.0349 41.8611 58.0099 41.9137 57.9823 41.9713C58.2229 42.5726 58.536 43.1489 58.7841 43.7577C58.8593 43.9431 58.9369 44.1386 58.9144 44.3365C58.8718 44.7073 58.511 44.9504 58.1652 45.0857L58.1276 45.0982C57.7017 45.256 56.8348 45.449 56.2335 45.3036C55.4142 47.6388 54.5874 49.9739 53.4173 52.1812C52.9262 53.1083 52.1746 54.1781 51.1097 54.4612C50.4508 54.6391 49.7518 54.5765 49.0753 54.4988C49.0352 54.4938 48.9976 54.4888 48.96 54.4838C46.9681 54.2433 45.0715 53.7848 43.3452 53.0381C43.3627 53.2035 43.3026 53.3764 43.1848 53.4866C43.1222 53.7923 43.0646 54.0954 43.0019 54.3986C42.5685 56.5583 42.1852 58.7256 41.8519 60.9029C41.8219 61.1033 41.7492 61.2411 41.6515 61.3388C42.3054 62.1281 42.9619 62.9424 43.5832 63.7892C48.4639 65.7986 53.277 67.9784 58.0074 70.3211C58.1276 70.3812 58.2454 70.4413 58.3657 70.5014L74.005 70.0905C74.466 69.9502 74.9295 69.8099 75.388 69.6671C78.337 68.7501 81.2659 67.773 84.2174 66.866C84.6584 66.7307 85.0918 66.5854 85.5278 66.4425C86.7129 65.0094 88.0308 63.7241 89.1958 62.2233C89.9625 62.7469 89.9926 64.0974 89.6744 65.0545C90.5438 64.7689 91.4157 64.4882 92.3027 64.2352C92.3478 64.2227 92.3954 64.2101 92.443 64.1976C93.4026 63.3507 94.4298 62.1907 95.665 61.8049C96.2664 61.0632 96.9854 60.4644 97.6243 59.7529C98.4186 58.8709 99.3381 58.1243 100.263 57.3827C100.984 56.8039 101.706 56.2251 102.427 55.6463C102.595 55.5135 103.006 55.0726 103.227 55.0701C103.425 55.0676 103.422 55.3833 103.477 55.5762C103.562 55.8718 103.597 56.175 103.595 56.4782C104.865 55.7315 106.186 55.0726 107.564 54.5264C109.836 53.6244 112.292 53.1784 114.709 53.2761C110.107 45.2836 104.682 36.1586 99.8267 28.0833C98.3484 28.2161 96.8677 28.3239 95.3844 28.384C92.0271 28.5218 88.5244 28.384 85.5328 26.8456C83.2227 25.6605 81.3987 23.7288 79.5447 21.9098C73.8371 16.3 67.4256 11.4092 60.5229 7.36035L29.9082 8.71082C31.1259 9.96607 32.0629 11.5345 32.5991 13.1932Z" fill="#B5E6EA"/>
<path d="M58.7134 36.6172C58.6733 36.6097 58.6332 36.6047 58.5956 36.5972C58.4904 37.1885 58.3777 37.7798 58.2549 38.3711C58.4253 37.7923 58.5756 37.206 58.7134 36.6172Z" fill="#B5E6EA"/>
<path d="M138.401 32.9369C132.824 28.0261 125.004 26.4778 117.578 26.5404C113.301 26.578 109.046 27.0841 104.792 27.5651L118.374 53.8679C119.564 54.2161 120.714 54.7172 121.797 55.3912C123.919 56.7066 125.773 58.5607 126.981 60.758C128.264 63.0881 128.74 65.6537 128.644 68.297C128.632 68.718 128.602 69.1389 128.567 69.5573L146.478 74.874C147.441 72.1806 148.187 69.417 148.603 66.5883C149.583 59.9262 148.683 53.0711 146.614 46.6646C144.955 41.5258 142.45 36.5023 138.401 32.9369Z" fill="#B5E6EA"/>
<path d="M117.741 59.4772C117.665 59.4396 117.59 59.4021 117.518 59.3845C117.59 59.4171 117.665 59.4472 117.741 59.4772Z" fill="#B5E6EA"/>
<mask id="mask0_181_15882" style="mask-type:luminance" maskUnits="userSpaceOnUse" x="0" y="19" width="34" height="46">
<path d="M0 19.3042H33.8067V64.2028H0V19.3042Z" fill="white"/>
</mask>
<g mask="url(#mask0_181_15882)">
<path d="M5.23178 63.7445C6.26154 59.5854 7.96779 55.5941 10.2904 51.9937C10.8241 51.1694 11.4053 50.3476 12.2196 49.7989C13.3446 49.0422 14.7652 48.9069 16.1207 48.8794C20.7634 48.7841 25.4186 49.7237 29.6804 51.5678C30.0012 51.7056 30.3143 51.8509 30.6225 52.0012C31.6523 50.1321 32.6795 48.2605 33.7093 46.3939C33.6116 46.4215 33.5139 46.4465 33.4111 46.4666C32.3413 46.6595 31.2915 46.0682 30.4196 45.4167C27.9592 43.5777 26.8993 41.4205 26.4208 38.474C26.3131 37.8101 25.9573 34.5679 26.0174 31.872C25.6942 30.6518 25.5038 29.4216 25.4662 28.2065C21.4799 28.4245 17.2106 27.6102 15.0709 24.358C14.1914 23.0176 13.8056 21.4266 13.7029 19.8105C5.95838 31.2582 1.25305 44.7703 0.255859 58.5656C2.43314 59.648 4.02413 61.5271 5.23178 63.7445Z" fill="#B5E6EA"/>
</g>
<path d="M108.736 61.8404C108.769 62.7499 108.428 63.6493 107.864 64.3534C107.581 64.7066 107.238 65.0148 106.854 65.2553C106.539 65.4558 105.977 65.4508 105.835 65.8316C105.752 66.0496 105.754 66.3252 105.684 66.5557C105.604 66.8238 105.499 67.0869 105.371 67.3374C104.978 68.1141 104.384 68.7831 103.692 69.3118L123.095 68.8031C123.102 68.6879 123.107 68.5751 123.113 68.4624C121.917 66.1223 120.319 63.1808 118.455 59.8585C118.272 59.7583 118.089 59.6531 117.899 59.5629C117.856 59.5428 117.811 59.5178 117.766 59.4927C117.731 59.4777 117.696 59.4626 117.661 59.4501C117.397 59.3499 117.132 59.2572 116.866 59.1745C116.403 59.0342 115.929 58.934 115.453 58.8538C114.496 58.7586 113.539 58.7661 112.582 58.8713C111.89 58.9841 111.209 59.1419 110.537 59.3449C110.147 59.4601 109.756 59.5954 109.372 59.7382C109.372 59.7382 109.372 59.7382 109.37 59.7382C109.437 59.8334 109.498 59.9337 109.543 60.0414C109.833 60.7354 109.468 61.6875 108.736 61.8404Z" fill="#B5E6EA"/>
<path d="M123.069 66.1748C122.979 65.6486 122.859 65.1275 122.688 64.6188C122.648 64.4986 122.603 64.3783 122.558 64.2581C122.445 64.02 122.333 63.7845 122.207 63.554C122.06 63.2859 121.902 63.0254 121.734 62.7723C121.583 62.5418 120.972 61.8603 121.591 62.5368C121.193 62.1033 120.832 61.6473 120.401 61.2414C120.193 61.046 119.975 60.8631 119.757 60.6777C119.664 60.6126 119.574 60.5449 119.479 60.4823C119.151 60.2543 118.805 60.0513 118.454 59.8584C120.318 63.1807 121.917 66.1221 123.112 68.4623C123.147 67.7006 123.139 66.9339 123.069 66.1748Z" fill="#483077"/>
<path d="M60.5227 7.36056C56.9449 5.26096 53.2367 3.38434 49.4234 1.75827C40.5439 -2.02754 32.5714 0.690924 25.7539 6.1905C27.3324 6.60891 28.748 7.5159 29.908 8.71103L60.5227 7.36056Z" fill="#483077"/>
<path d="M118.375 53.8649L104.793 27.5647C103.139 27.7526 101.483 27.933 99.8271 28.0833C104.683 36.1586 110.107 45.2836 114.71 53.2736C115.953 53.3237 117.183 53.5167 118.375 53.8649Z" fill="#483077"/>
<path d="M102.767 98.1221C102.577 98.4127 102.386 98.7009 102.198 98.9915C101.542 100.001 100.87 101.119 100.986 102.319C100.998 102.464 101.026 102.607 101.061 102.745C101.068 102.742 101.076 102.737 101.081 102.735C101.92 102.281 102.74 101.788 103.536 101.264C103.92 101.011 104.298 100.75 104.669 100.482C104.832 100.367 104.992 100.249 105.152 100.129C105.205 100.091 105.408 99.9336 105.498 99.8659C105.518 99.8534 105.531 99.8409 105.538 99.8359C105.603 99.7832 105.668 99.7306 105.736 99.678C105.886 99.5552 106.039 99.43 106.19 99.3047C106.488 99.0566 106.781 98.8061 107.074 98.5505C108.247 97.5233 109.367 96.4384 110.434 95.3059C109.407 95.9724 108.322 96.5336 107.179 96.9595C105.749 97.4932 104.268 97.864 102.767 98.1221Z" fill="#5D359B"/>
<path d="M124.311 84.1918C122.201 89.0374 119.327 93.5072 115.887 97.5135C112.595 101.347 108.679 104.845 104.244 107.313C105.008 108.252 105.77 109.192 106.529 110.129C108.093 112.053 109.198 114.391 110.43 116.62C124.93 109.69 136.34 96.594 143.455 81.9819C144.58 79.6668 145.617 77.2966 146.482 74.8738L128.57 69.5571C128.149 74.6458 126.333 79.5491 124.311 84.1918Z" fill="#5D359B"/>
<path d="M121.439 76.3919C121.935 74.8836 122.358 73.3527 122.674 71.7993C120.86 73.8789 119.086 75.991 117.345 78.1332C118.73 77.592 120.096 76.9982 121.439 76.3919Z" fill="#5D359B"/>
<path d="M104.244 107.312C104.021 107.438 103.795 107.563 103.567 107.681C101.117 108.971 98.4737 110.018 95.7402 110.51C98.6767 113.346 101.613 116.182 104.547 119.018C106.559 118.329 108.523 117.53 110.43 116.62C109.197 114.391 108.092 112.053 106.529 110.129C105.77 109.192 105.006 108.252 104.244 107.312Z" fill="#483077"/>
<path d="M102.199 98.9921C102.387 98.7014 102.577 98.4133 102.768 98.1227C100.611 98.496 98.4032 98.6288 96.2134 98.6238C93.2018 98.6188 90.5985 98.1377 88.8021 95.527C87.5594 93.718 86.8077 91.6009 86.4995 89.4236C86.0661 91.1774 85.7228 92.9538 85.4673 94.7352C85.2944 96.1859 85.2268 97.6466 85.3771 99.1048C85.4873 99.7788 85.6477 100.443 85.8807 101.089C85.8932 101.127 85.9057 101.157 85.9133 101.182C85.9834 101.322 86.0486 101.465 86.1212 101.603C86.2891 101.916 86.4745 102.214 86.6799 102.505C86.8077 102.65 86.933 102.798 87.0658 102.938C87.3063 103.189 87.5644 103.417 87.8225 103.647C87.9628 103.745 88.1006 103.845 88.2459 103.938C88.5415 104.131 88.8497 104.304 89.1629 104.467C89.2907 104.532 89.421 104.592 89.5487 104.652C89.8093 104.742 90.0649 104.842 90.3305 104.92C90.7865 105.058 91.2525 105.156 91.721 105.236C92.4501 105.303 93.1792 105.301 93.9058 105.228C95.6421 104.94 97.3108 104.429 98.9469 103.783C99.0371 103.743 99.1273 103.702 99.2175 103.662C99.4279 103.567 99.6384 103.469 99.8463 103.367C100.255 103.169 100.661 102.963 101.062 102.745C101.026 102.608 100.999 102.465 100.986 102.319C100.871 101.119 101.543 100.002 102.199 98.9921Z" fill="#483077"/>
<path d="M44.7663 111.667C45.072 112.306 45.4102 112.927 45.7836 113.529C46.678 113.273 47.57 113.02 48.4619 112.767C46.8359 111.727 45.3025 110.61 43.8418 109.427C44.1149 110.189 44.4206 110.938 44.7663 111.667Z" fill="#483077"/>
<path d="M103.093 69.7197C101.82 70.4889 100.35 70.8497 98.8714 71.0602C98.8639 72.2353 98.9992 73.4429 99.1445 74.5428C99.2272 75.1692 99.3424 75.8106 99.5303 76.422C99.7734 77.2087 100.137 77.9453 100.71 78.5316C101.6 79.4436 102.875 79.8695 104.128 80.105C108.585 80.9519 113.053 79.8094 117.347 78.1332C119.086 75.991 120.862 73.8789 122.674 71.7993C122.789 71.2281 122.894 70.6568 122.977 70.0805C123.027 69.6571 123.067 69.2312 123.095 68.8027L103.692 69.3114C103.499 69.4592 103.301 69.597 103.093 69.7197Z" fill="#483077"/>
<path d="M80.2265 92.5898C76.7213 97.6033 73.0207 102.482 69.2725 107.317C71.104 106.826 72.918 106.3 74.6919 105.691C76.814 104.962 79.0088 104.333 81.2137 104.075C80.4019 102.446 79.9659 100.645 79.8106 98.7759C79.6402 96.7189 79.8732 94.6343 80.2265 92.5898Z" fill="#483077"/>
<path d="M55.8704 98.1472C60.7562 93.7876 65.6945 89.4907 70.6178 85.1787C68.438 85.998 65.8924 86.5893 64.0634 85.785C62.5977 85.5996 61.142 85.2488 59.7189 84.878C57.7345 84.3594 55.7577 83.8257 53.7808 83.2795C53.2071 83.1192 52.6358 82.9563 52.0621 82.796C52.0621 82.7935 52.0596 82.7935 52.0596 82.7935C54.0765 87.0227 56.1511 91.8358 54.4273 96.1703C54.8983 96.8368 55.3769 97.4932 55.8654 98.1472C55.8679 98.1472 55.8679 98.1472 55.8704 98.1472Z" fill="#483077"/>
<path d="M10.2324 81.4005C10.3602 82.1095 10.4855 82.8186 10.6032 83.5302C10.9565 82.2699 11.3449 81.0171 11.7758 79.7744C11.3223 80.3657 10.8087 80.9545 10.2324 81.4005Z" fill="#483077"/>
<path d="M63.497 73.0223C63.5071 73.0172 63.5171 73.0147 63.5296 73.0122C63.5647 72.9997 63.5998 72.9922 63.6374 72.9897C63.6599 72.9872 63.6774 72.9772 63.7025 72.9772C63.7877 72.9772 63.8804 73.0072 63.9606 73.0573C65.4639 72.3232 67.0924 71.9825 68.726 71.5716C70.4999 71.1256 72.2563 70.622 74.0051 70.0908L58.3633 70.5017C60.0545 71.3411 61.7332 72.2005 63.4018 73.0799C63.4319 73.0573 63.4645 73.0373 63.497 73.0223Z" fill="#483077"/>
<path d="M125.019 66.7036C125.052 66.1123 125.974 66.1098 125.941 66.7036C125.736 70.5495 125.034 74.3629 123.867 78.0309C121.8 84.5352 118.322 90.571 113.795 95.6672C109.265 100.766 103.647 104.91 97.3685 107.573C96.8273 107.801 96.3588 107.007 96.9025 106.777C100.358 105.311 103.62 103.399 106.601 101.117C111.925 97.0377 116.343 91.7836 119.532 85.8832C122.719 79.9852 124.661 73.4108 125.019 66.7036ZM117.515 59.385C117.59 59.4026 117.666 59.4401 117.738 59.4802C117.666 59.4477 117.59 59.4176 117.515 59.385ZM107.561 54.5269C106.183 55.0731 104.865 55.732 103.595 56.4786C103.592 56.6891 103.575 56.8996 103.535 57.1075C105.474 55.9049 107.526 54.8826 109.681 54.1636C110.244 53.9756 110.487 54.8676 109.926 55.053C107.476 55.8723 105.143 57.0975 102.968 58.5457C102.76 58.9065 102.517 59.2497 102.262 59.5804C102.001 59.9162 101.726 60.2394 101.455 60.5701C101.232 60.8457 100.906 61.1464 100.844 61.5022C100.718 62.2563 100.763 63.0731 100.708 63.8373C100.668 64.386 100.613 64.9372 100.533 65.4834C101.114 64.9197 101.726 64.386 102.382 63.9125C101.771 63.0581 102.207 61.8003 102.836 61.0837C103.903 59.8611 106.11 58.6559 107.759 58.8513C108.385 58.9265 109.014 59.2297 109.37 59.7383H109.372C109.756 59.5955 110.144 59.4602 110.537 59.3449C111.209 59.142 111.89 58.9866 112.582 58.8714C113.536 58.7687 114.496 58.7586 115.453 58.8538C115.929 58.934 116.403 59.0342 116.866 59.1771C117.132 59.2572 117.397 59.3499 117.658 59.4502C117.696 59.4627 117.731 59.4777 117.766 59.4928C117.811 59.5178 117.856 59.5429 117.899 59.5629C118.086 59.6531 118.272 59.7583 118.455 59.8586C118.806 60.0515 119.149 60.2569 119.48 60.4824C119.572 60.5476 119.665 60.6127 119.755 60.6779C119.973 60.8633 120.194 61.0462 120.402 61.2441C120.833 61.65 121.193 62.1035 121.592 62.5394C120.973 61.863 121.584 62.5445 121.734 62.7725C121.902 63.028 122.06 63.2886 122.206 63.5542C122.333 63.7847 122.446 64.0202 122.559 64.2582C122.604 64.3785 122.649 64.4987 122.689 64.6215C122.859 65.1276 122.98 65.6488 123.067 66.1749C123.14 66.9341 123.148 67.7008 123.11 68.4624C123.105 68.5777 123.102 68.6904 123.095 68.8032C123.067 69.2316 123.027 69.6576 122.977 70.081C122.892 70.6573 122.789 71.231 122.674 71.7998C122.358 73.3532 121.935 74.884 121.439 76.3923C121.664 76.2921 121.892 76.1894 122.118 76.0867C120.777 83.1246 116.713 91.2349 110.435 95.3064C109.365 96.4388 108.245 97.5237 107.075 98.551C106.782 98.8065 106.489 99.0571 106.19 99.3051C106.04 99.4304 105.887 99.5557 105.734 99.6785C105.669 99.7311 105.604 99.7837 105.536 99.8363C105.531 99.8413 105.519 99.8538 105.499 99.8689C105.409 99.934 105.203 100.092 105.153 100.129C104.993 100.25 104.832 100.367 104.67 100.483C104.296 100.751 103.92 101.011 103.535 101.264C102.74 101.788 101.921 102.282 101.082 102.735C101.074 102.74 101.069 102.743 101.062 102.745C100.661 102.963 100.255 103.169 99.8464 103.367C99.636 103.469 99.428 103.567 99.2176 103.662C99.1274 103.702 99.0372 103.742 98.947 103.782C97.3109 104.429 95.6422 104.94 93.9059 105.228C93.1768 105.301 92.4477 105.303 91.7211 105.236C91.2526 105.155 90.7866 105.058 90.3306 104.92C90.065 104.842 89.8094 104.742 89.5488 104.654C89.4211 104.592 89.2908 104.532 89.1605 104.466C88.8498 104.304 88.5416 104.131 88.246 103.938C88.1007 103.845 87.9629 103.747 87.8226 103.647C87.5645 103.417 87.3064 103.189 87.0659 102.938C86.9306 102.798 86.8078 102.65 86.68 102.505C86.4746 102.217 86.2892 101.916 86.1213 101.603C86.0462 101.465 85.981 101.325 85.9134 101.184C85.9058 101.157 85.8933 101.127 85.8808 101.089C85.6478 100.443 85.4874 99.7787 85.3747 99.1047C85.2269 97.6465 85.2945 96.1883 85.4674 94.7351C85.7229 92.9537 86.0662 91.1773 86.4971 89.4235C86.3568 88.4263 86.3092 87.4165 86.3493 86.4169C86.4069 84.9236 86.6349 83.5255 86.9882 82.1926C86.868 82.2452 86.7477 82.2928 86.6249 82.3329C86.3368 83.3827 85.3822 84.6881 84.9187 85.4898C84.2397 86.6649 83.4956 87.7999 82.7414 88.9249C82.6587 89.2907 82.5735 89.6565 82.5009 90.0273C81.7217 93.991 81.6239 98.1 82.4232 102.069C82.5385 102.65 81.6515 102.896 81.5337 102.314C80.7746 98.5385 80.7921 94.6625 81.4185 90.8741C81.0226 91.4479 80.6268 92.0191 80.2259 92.5904C79.8726 94.6349 79.6371 96.7195 79.81 98.7765C79.9653 100.646 80.4013 102.447 81.213 104.076C84.0593 103.74 86.9256 104.02 89.6666 105.489C91.6109 106.528 93.2294 108.084 94.8179 109.62C95.1261 109.918 95.4318 110.214 95.7399 110.51C98.4709 110.019 101.117 108.971 103.567 107.681C103.795 107.563 104.018 107.438 104.244 107.313C108.678 104.845 112.594 101.347 115.887 97.5137C119.327 93.5099 122.198 89.0376 124.31 84.192C126.332 79.5493 128.149 74.646 128.569 69.5573C128.602 69.1389 128.632 68.718 128.645 68.2971C128.74 65.6563 128.264 63.0881 126.981 60.758C125.773 58.5607 123.919 56.7066 121.797 55.3912C120.715 54.7198 119.565 54.2162 118.375 53.8679C117.182 53.5171 115.952 53.3242 114.709 53.2766C112.291 53.1789 109.833 53.6274 107.561 54.5269Z" fill="#1E1A3A"/>
<path d="M99.6628 68.5901C99.53 68.8683 99.2895 69.1639 98.9914 69.4545C98.9112 69.9732 98.8736 70.5119 98.8711 71.0606C100.349 70.8501 101.82 70.4893 103.095 69.7201C103.301 69.5974 103.499 69.4596 103.692 69.3117C104.383 68.7831 104.977 68.1141 105.37 67.3374C105.498 67.0868 105.603 66.8238 105.684 66.5557C105.754 66.3252 105.751 66.0496 105.834 65.8316C105.977 65.4508 106.538 65.4558 106.854 65.2553C107.237 65.0148 107.58 64.7066 107.863 64.3533C108.43 63.6493 108.768 62.7498 108.735 61.8403C109.469 61.6875 109.833 60.7354 109.542 60.0414C109.497 59.9336 109.437 59.8334 109.369 59.7382C109.013 59.2296 108.384 58.9264 107.758 58.8513C106.109 58.6558 103.902 59.861 102.835 61.0837C102.206 61.8002 101.77 63.058 102.381 63.9124C101.725 64.3859 101.114 64.9196 100.535 65.4833C100.379 66.5532 100.126 67.6055 99.6628 68.5901Z" fill="#9F5D4C"/>
<path d="M92.0647 96.8066C88.7524 95.1154 86.9209 91.0966 86.991 87.4837C87.0011 86.8899 87.9231 86.8899 87.9105 87.4837C87.8479 90.7909 89.494 94.4615 92.5307 96.0099C93.0594 96.278 92.5908 97.0747 92.0647 96.8066ZM104.126 80.105C102.876 79.8695 101.601 79.4435 100.711 78.5315C100.137 77.9452 99.7741 77.2086 99.5311 76.4219C99.3431 75.8131 99.2279 75.1691 99.1452 74.5428C98.9999 73.4429 98.8646 72.2352 98.8721 71.0601C98.8746 70.5114 98.9097 69.9727 98.9924 69.4541C98.2357 70.1932 97.1032 70.8998 96.3791 71.2631C96.4568 71.5863 96.5495 71.9546 96.547 72.0623C96.5445 72.6586 96.3741 73.2098 96.1236 73.741C95.7653 74.5002 95.2717 75.342 94.7756 76.0235C93.1571 78.2459 90.599 80.0649 88.2864 81.488C87.9607 81.6885 87.4871 81.9766 86.9885 82.1921C86.6352 83.525 86.4072 84.9231 86.3496 86.4163C86.3095 87.416 86.3571 88.4257 86.4974 89.4229C86.8081 91.6002 87.5598 93.7174 88.8025 95.5288C90.5964 98.1396 93.2022 98.6181 96.2138 98.6256C98.4036 98.6281 100.611 98.4953 102.768 98.122C104.269 97.864 105.75 97.4931 107.18 96.9595C108.323 96.5335 109.408 95.9723 110.435 95.3058C116.714 91.2344 120.778 83.1241 122.118 76.0862C121.893 76.1889 121.665 76.2916 121.439 76.3918C120.099 76.9982 118.731 77.592 117.345 78.1332C113.053 79.8093 108.586 80.9518 104.126 80.105Z" fill="#1E1A3A"/>
<mask id="mask1_181_15882" style="mask-type:luminance" maskUnits="userSpaceOnUse" x="0" y="58" width="11" height="37">
<path d="M0 58.4302H10.716V94.9904H0V58.4302Z" fill="white"/>
</mask>
<g mask="url(#mask1_181_15882)">
<path d="M10.6021 83.5305C10.4843 82.8189 10.3591 82.1099 10.2313 81.4008C9.57483 81.9094 8.83822 82.2276 8.01391 82.1399C6.48305 81.9771 5.48085 80.4562 4.96973 79.003C4.20054 76.8132 4.04019 74.4556 4.09531 72.138C4.16296 69.3093 4.55131 66.4906 5.2303 63.7445C4.02265 61.5272 2.43166 59.648 0.254377 58.5657C0.101541 60.6653 0.0313873 62.7699 0.0539366 64.8745C0.136618 72.9447 1.50462 81.0951 4.94718 88.3886C5.96191 90.5409 7.15202 92.5904 8.48494 94.5371C8.84573 91.4453 9.36688 88.3736 10.1185 85.3495C10.2714 84.7406 10.4342 84.1368 10.6021 83.5305Z" fill="#5D359B"/>
</g>
<path d="M102.971 58.5456C105.143 57.0974 107.476 55.8722 109.926 55.0529C110.487 54.865 110.247 53.973 109.68 54.1635C107.526 54.8825 105.474 55.9048 103.534 57.1074C103.507 57.2502 103.474 57.393 103.429 57.5334C103.319 57.8891 103.156 58.2224 102.971 58.5456Z" fill="#37296F"/>
<path d="M81.4177 90.8738C80.7938 94.6622 80.7738 98.5382 81.5329 102.314C81.6507 102.895 82.5376 102.65 82.4224 102.068C81.6231 98.0997 81.7234 93.9907 82.5001 90.027C82.5727 89.6562 82.6579 89.2904 82.7406 88.9246C82.7381 88.9296 82.7331 88.9346 82.7306 88.9421C82.2971 89.5885 81.8561 90.2324 81.4177 90.8738Z" fill="#37296F"/>
<path d="M92.5309 96.0101C89.4942 94.4617 87.8481 90.7912 87.9132 87.4839C87.9232 86.8901 87.0012 86.8901 86.9912 87.4839C86.921 91.0969 88.7526 95.1157 92.0648 96.8069C92.5935 97.075 93.0595 96.2782 92.5309 96.0101Z" fill="#37296F"/>
<path d="M119.53 85.8828C116.343 91.7833 111.926 97.0373 106.604 101.116C103.623 103.401 100.358 105.31 96.903 106.776C96.3593 107.007 96.8278 107.801 97.369 107.573C103.648 104.91 109.265 100.765 113.795 95.6668C118.322 90.5706 121.798 84.5348 123.867 78.0306C125.035 74.3625 125.736 70.5491 125.942 66.7032C125.974 66.1094 125.052 66.1119 125.02 66.7032C124.661 73.4104 122.72 79.9849 119.53 85.8828Z" fill="#37296F"/>
<path d="M96.7189 62.1261C96.8968 62.3967 96.9469 62.7349 96.9444 63.0581C96.9419 63.5442 96.8366 64.0302 96.6362 64.4737C96.5585 64.6441 96.4658 64.8094 96.4358 64.9949C96.4057 65.1828 96.4433 65.3757 96.4783 65.5636C96.6638 66.5032 97.1198 67.6156 97.1348 68.5577C97.1473 69.3419 96.7038 70.051 96.2779 70.7074C96.2679 70.7224 96.2754 70.7901 96.2929 70.8853C96.328 70.9579 96.3456 71.0381 96.3431 71.1183C96.3531 71.1634 96.3656 71.2135 96.3781 71.2636C97.1022 70.9003 98.2347 70.1938 98.9914 69.4546C99.2895 69.164 99.53 68.8684 99.6628 68.5902C100.126 67.6056 100.379 66.5533 100.535 65.4834C100.612 64.9372 100.668 64.386 100.708 63.8373C100.763 63.0731 100.718 62.2563 100.845 61.5022C100.906 61.1464 101.231 60.8457 101.457 60.5701C101.725 60.2394 102 59.9162 102.261 59.578C102.517 59.2497 102.76 58.9065 102.97 58.5457C103.156 58.2225 103.318 57.8893 103.429 57.5335C103.474 57.3932 103.506 57.2504 103.534 57.1075C103.574 56.8971 103.594 56.6891 103.594 56.4787C103.596 56.1755 103.561 55.8748 103.476 55.5767C103.421 55.3838 103.424 55.0681 103.226 55.0706C103.005 55.0731 102.594 55.514 102.426 55.6468C101.705 56.2256 100.983 56.8044 100.259 57.3831C99.3371 58.1248 98.4176 58.8714 97.6234 59.7533C96.982 60.4649 96.2654 61.0637 95.6641 61.8054C95.7367 61.7828 95.8119 61.7603 95.8896 61.7427C96.2053 61.6701 96.5385 61.8555 96.7189 62.1261Z" fill="#9F5D4C"/>
<path d="M51.9313 82.3102C51.9439 82.3553 51.9564 82.4029 51.9714 82.4505C52.0065 82.5758 52.0391 82.6935 52.0616 82.7963C52.6354 82.9566 53.2066 83.1195 53.7804 83.2798C55.5342 79.0931 56.7745 74.7311 58.0072 70.3214C53.2768 67.9787 48.4637 65.799 43.583 63.7896C44.9711 65.6737 46.1912 67.7006 46.8627 69.8629C47.5166 71.975 51.0745 79.4915 51.9313 82.3102Z" fill="#8789CD"/>
<path d="M51.9717 82.4507C51.9567 82.4031 51.9467 82.358 51.9316 82.3104C51.5884 81.2005 50.9269 80.0429 50.1953 78.938C50.516 79.5769 50.8292 80.2183 51.1349 80.8647C51.433 81.4911 51.7437 82.135 52.0594 82.794C52.0594 82.794 52.0619 82.794 52.0619 82.7965C52.0369 82.6812 52.0043 82.566 51.9717 82.4507Z" fill="#8789CD"/>
<path d="M53.7803 83.28C55.7571 83.8262 57.734 84.3598 59.7183 84.8785C61.1414 85.2493 62.5971 85.6001 64.0628 85.7855C63.216 85.4122 62.522 84.7407 62.0885 83.6483C61.0237 80.9499 59.6181 76.906 61.9758 74.4255C62.2739 74.1098 62.6122 73.8418 62.9704 73.6062C63.0155 73.5787 63.0606 73.5561 63.1057 73.5286C63.1634 73.4258 63.216 73.3206 63.2786 73.2204C63.3137 73.1603 63.3563 73.1152 63.4014 73.0801C61.7327 72.2007 60.054 71.3413 58.3628 70.5019C58.2451 70.4418 58.1273 70.3817 58.0071 70.3215C56.7743 74.7312 55.5341 79.0933 53.7803 83.28Z" fill="#FBC7A5"/>
<path d="M87.7549 68.6204C89.1555 67.1121 90.6537 65.6965 92.2322 64.3786C92.3024 64.321 92.3725 64.2609 92.4427 64.1982C92.3951 64.2108 92.3475 64.2233 92.3024 64.2358C91.4154 64.4889 90.5435 64.7695 89.6741 65.0576C89.6716 65.0651 89.6691 65.0777 89.6641 65.0877C89.168 66.5359 88.4865 67.5005 87.7549 68.6204Z" fill="#FBC7A5"/>
<path d="M63.9603 73.0574C64.0856 73.1326 64.1808 73.2578 64.1908 73.3981C64.2008 73.4558 64.1958 73.5159 64.1808 73.5785C64.0229 74.919 64.2359 76.2569 64.6318 77.5422C64.8172 78.1461 63.8726 78.4041 63.6872 77.8028C63.4517 77.0436 63.2788 76.2569 63.1961 75.4627C62.7727 76.3596 62.4119 77.2842 62.1288 78.2388C61.9509 78.8451 61.0038 78.5845 61.1842 77.9782C61.6427 76.4248 62.2941 74.929 63.1059 73.5284C63.0608 73.556 63.0157 73.5785 62.9706 73.6061C62.6123 73.8416 62.2741 74.1097 61.9759 74.4254C59.6183 76.9058 61.0238 80.9497 62.0887 83.6481C62.5221 84.7405 63.2162 85.412 64.063 85.7853C65.892 86.5896 68.4376 85.9983 70.6174 85.179C71.7098 84.2194 72.8047 83.2648 73.8946 82.3027C75.7737 80.6491 77.6478 78.9854 79.5094 77.3117C79.9303 76.9334 80.3838 76.3596 80.8724 76.0815C81.0102 76.0039 81.118 75.9563 81.2157 75.9362C81.2332 74.7611 81.4938 73.6737 81.8646 72.5438C82.3456 71.0705 83.5408 69.2039 84.4077 67.9261C84.7584 67.4075 85.1368 66.9164 85.5276 66.4429C85.0917 66.5857 84.6557 66.731 84.2173 66.8663C81.2658 67.7733 78.3368 68.7504 75.3879 69.6674C74.9269 69.8103 74.4659 69.9506 74.0048 70.0909C72.256 70.622 70.4996 71.1257 68.7258 71.5716C67.0922 71.9825 65.4636 72.3233 63.9603 73.0574Z" fill="#FBC7A5"/>
<path d="M63.5293 73.0127C63.5621 72.9976 63.5999 72.995 63.6378 72.99C63.5999 72.9925 63.5646 73.0001 63.5293 73.0127Z" fill="#F89F8C"/>
<path d="M64.1807 73.5783C64.1957 73.5157 64.2007 73.4556 64.1907 73.3979C64.1907 73.4205 64.1932 73.443 64.1907 73.4681C64.1857 73.5032 64.1857 73.5408 64.1807 73.5783Z" fill="#F89F8C"/>
<path d="M62.1284 78.2387C62.4116 77.2841 62.7724 76.3595 63.1958 75.4626C63.1281 74.7986 63.1231 74.1296 63.2108 73.4682C63.2359 73.2728 63.3311 73.1024 63.4964 73.0222C63.4639 73.0373 63.4313 73.0573 63.4012 73.0798C63.3561 73.1149 63.3135 73.16 63.2785 73.2202C63.2158 73.3204 63.1632 73.4256 63.1056 73.5283C62.2938 74.9289 61.6424 76.4247 61.1839 77.9781C61.0035 78.5844 61.9505 78.845 62.1284 78.2387Z" fill="#F89F8C"/>
<path d="M63.2113 73.4681C63.1236 74.1296 63.1287 74.7985 63.1963 75.4625C63.279 76.2567 63.4519 77.0435 63.6874 77.8026C63.8728 78.404 64.8174 78.1459 64.632 77.5421C64.2361 76.2567 64.0231 74.9188 64.181 73.5784C64.186 73.5408 64.186 73.5032 64.191 73.4681C64.1935 73.4431 64.191 73.4205 64.191 73.398C64.181 73.2577 64.0858 73.1324 63.9605 73.0572C63.8803 73.0071 63.7876 72.9771 63.7024 72.9771C63.6774 72.9771 63.6598 72.9871 63.6373 72.9896C63.5997 72.9946 63.5621 72.9971 63.5295 73.0121C63.517 73.0146 63.507 73.0171 63.497 73.0221C63.3316 73.1023 63.2364 73.2727 63.2113 73.4681Z" fill="#F89F8C"/>
<mask id="mask2_181_15882" style="mask-type:luminance" maskUnits="userSpaceOnUse" x="43" y="103" width="63" height="20">
<path d="M43.4268 103.329H105.002V122.561H43.4268V103.329Z" fill="white"/>
</mask>
<g mask="url(#mask2_181_15882)">
<path d="M94.8177 109.62C93.2292 108.084 91.6106 106.528 89.6664 105.488C86.9254 104.02 84.0591 103.74 81.2128 104.075C79.008 104.333 76.8132 104.962 74.691 105.691C72.9171 106.3 71.1031 106.826 69.2716 107.317C69.2516 107.343 69.2315 107.368 69.214 107.393C67.5829 109.495 64.3658 114.386 60.9934 115.378C60.104 115.811 59.1795 116.119 58.3852 116.272C55.4613 116.836 52.0513 114.949 49.651 113.506C49.2502 113.263 48.8543 113.018 48.4609 112.767C47.569 113.02 46.677 113.273 45.7825 113.529C45.8727 113.669 45.9604 113.809 46.0531 113.95C46.9802 115.343 44.4872 117.026 43.6353 117.801C43.5952 117.836 43.5552 117.868 43.5176 117.903C53.4118 120.692 63.8021 121.774 74.1072 122.188C83.5028 122.568 93.0538 122.401 102.094 119.797C102.92 119.559 103.735 119.294 104.547 119.018C101.613 116.182 98.6762 113.346 95.7397 110.509C95.434 110.214 95.1259 109.918 94.8177 109.62Z" fill="#D45283"/>
</g>
<path d="M25.4655 28.2063C25.3477 24.443 26.6781 20.8426 29.9152 18.2268C30.925 17.4126 32.0274 16.7336 33.1849 16.1598C33.1022 15.1852 32.9243 14.2005 32.5986 13.1933C32.0625 11.5347 31.1254 9.96622 29.9077 8.71096C28.7477 7.51584 27.3321 6.60885 25.7536 6.19043C23.6014 7.92674 21.5619 9.93866 19.6477 12.1134C17.503 14.5488 15.5211 17.1244 13.7021 19.8103C13.8049 21.4264 14.1907 23.0174 15.0702 24.3578C17.2098 27.6099 21.4792 28.4267 25.4655 28.2063Z" fill="#371225"/>
<path d="M30.1291 40.1953C28.7986 38.1358 27.4983 36.0362 26.6239 33.7462C26.3858 33.1273 26.1854 32.501 26.0175 31.8721C25.9574 34.568 26.3132 37.8101 26.4209 38.4741C26.8995 41.4205 27.9593 43.5778 30.4197 45.4168C31.2916 46.0682 32.3414 46.6595 33.4113 46.4666C33.514 46.4466 33.6117 46.4215 33.7094 46.3939C33.8372 46.1584 33.9675 45.9204 34.0978 45.6849C32.6396 44.0187 31.3217 42.0394 30.1291 40.1953Z" fill="#371225"/>
<path d="M46.0538 113.95C45.9611 113.809 45.8734 113.669 45.7832 113.529C45.4099 112.928 45.0716 112.306 44.766 111.667C44.4202 110.938 44.1145 110.189 43.8414 109.427C39.7174 106.077 36.1896 102.176 32.8999 97.8344C32.7421 97.6264 32.5842 97.4185 32.4289 97.2105C32.3161 97.2205 32.2009 97.1754 32.1057 97.0552C29.1742 93.3696 25.9346 89.907 23.2638 86.0285C23.2337 86.026 23.2036 86.0235 23.1711 86.0159C21.3295 85.6075 19.1698 85.0137 18.3354 83.1121C18.2352 82.8841 18.2653 82.6185 18.5008 82.4807C18.6962 82.3654 19.0295 82.418 19.1297 82.646C19.736 84.0241 21.1466 84.5678 22.5271 84.9185C22.2315 84.4625 21.9459 84.0015 21.6703 83.533C21.3696 83.0194 22.1664 82.5559 22.4645 83.067C23.6772 85.1365 25.0878 87.0607 26.576 88.9273C26.4508 88.7294 26.3255 88.5315 26.2052 88.331C23.9628 84.6053 22.021 80.7243 21.8106 76.5176C21.7404 75.122 21.8607 73.6914 22.224 72.2207C22.7201 70.2163 23.6321 68.277 25.1003 66.8288C26.5685 65.3807 28.6356 64.4737 30.6851 64.6766C32.1182 64.8194 33.4561 65.4809 34.6312 66.3127C37.6979 68.4774 39.765 71.7446 41.6566 75.0068C40.4816 72.832 39.2639 70.6347 37.7531 68.6904C36.0919 66.5507 33.6841 64.2582 30.8254 64.1655C28.3399 64.0853 26.0499 65.4207 24.3311 67.127C22.6123 68.8332 21.2769 71.0255 20.7432 73.4058C20.6155 73.987 19.726 73.739 19.8563 73.1602C20.4852 70.3415 22.1939 67.7133 24.3662 65.8392C26.2879 64.178 28.7809 62.9954 31.3691 63.281C34.3205 63.6068 36.7759 65.9218 38.5147 68.1793C40.4089 70.6372 41.8796 73.4584 43.3428 76.1869C45.024 79.3238 46.585 82.5233 48.3914 85.59C48.5718 85.8932 48.3664 86.1763 48.1083 86.2565C50.0952 89.6364 52.1672 92.9712 54.4272 96.1707C56.151 91.8362 54.0764 87.0232 52.0595 82.7939C51.7438 82.1349 51.4331 81.491 51.1349 80.8646C50.8293 80.2182 50.5161 79.5768 50.1954 78.9379C49.4613 77.828 48.657 76.7681 48.0331 75.8637C46.2066 73.2078 44.1822 70.6823 41.9748 68.3371C39.9805 66.2175 37.3797 63.1057 34.6989 61.9356C31.9203 60.7229 28.5353 61.3568 25.9998 62.8576C22.8629 64.7142 20.618 67.7358 18.4582 70.6773C16.3185 73.5937 14.1763 76.5126 12.0366 79.429C11.9514 79.5442 11.8637 79.6595 11.776 79.7747C11.3451 81.0175 10.9568 82.2702 10.6035 83.5305C10.4356 84.1368 10.2727 84.7406 10.1199 85.3495C9.36826 88.3736 8.84712 91.4454 8.48633 94.5372C14.735 103.667 24.2133 110.532 34.4934 114.797C37.4424 116.017 40.4565 117.039 43.5182 117.903C43.5558 117.868 43.5959 117.836 43.636 117.801C44.4879 117.027 46.9808 115.343 46.0538 113.95Z" fill="#8789CD"/>
<path d="M40.5949 60.0889C40.9432 60.4973 41.2965 60.9132 41.6523 61.3391C41.75 61.2439 41.8226 61.1036 41.8527 60.9032C42.1859 58.7259 42.5693 56.5586 43.0027 54.3989C43.0654 54.0957 43.123 53.7925 43.1856 53.4869C43.0804 53.5846 42.9301 53.6322 42.7472 53.5771C39.8333 52.6801 37.5157 50.2197 36.8668 47.2256C36.8567 47.1906 36.8542 47.1555 36.8542 47.1229C36.3331 46.0982 36.0625 45.0634 35.8821 43.9885C35.376 44.6725 34.91 45.3916 34.2736 45.8877C34.2159 45.8226 34.1583 45.7524 34.0982 45.6847C33.9679 45.9203 33.8376 46.1583 33.7098 46.3938C32.6801 48.2604 31.6528 50.132 30.623 52.0011C34.6243 53.9253 37.6785 56.6689 40.5949 60.0889Z" fill="#9F5D4C"/>
<path d="M51.971 82.4511C51.9559 82.4031 51.9433 82.3552 51.9307 82.3098C51.9458 82.3577 51.9559 82.4031 51.971 82.4511Z" fill="#FFF8CD"/>
<path d="M46.8632 69.8627C46.1917 67.7005 44.9715 65.6735 43.5835 63.7894C42.9621 62.945 42.3057 62.1282 41.6517 61.339C41.2959 60.9131 40.9427 60.4971 40.5944 60.0887C37.678 56.6687 34.6238 53.9252 30.6225 52.001C30.3143 51.8507 30.0011 51.7053 29.6804 51.5675C25.4186 49.7235 20.7634 48.7839 16.1207 48.8791C14.7652 48.9067 13.3446 49.042 12.2196 49.7987C11.4053 50.3474 10.8241 51.1692 10.2904 51.9935C7.96778 55.5939 6.26154 59.5851 5.23178 63.7443C4.55278 66.4903 4.16443 69.309 4.09678 72.1377C4.04166 74.4553 4.20201 76.813 4.9712 79.0028C5.48233 80.4559 6.48453 81.9768 8.01539 82.1396C8.8397 82.2273 9.57631 81.9091 10.2328 81.4005C10.809 80.9545 11.3226 80.3658 11.7761 79.7745C11.8638 79.6592 11.9515 79.5439 12.0367 79.4287C14.1764 76.5123 16.3186 73.5934 18.4583 70.677C20.618 67.7355 22.863 64.7139 25.9999 62.8573C28.5354 61.3565 31.9204 60.7226 34.699 61.9353C37.3798 63.1054 39.9805 66.2172 41.9749 68.3368C44.1823 70.682 46.2067 73.2075 48.0332 75.8634C48.6571 76.7679 49.4614 77.8277 50.1955 78.9376C50.9271 80.0425 51.5885 81.2001 51.9318 82.31C51.0749 79.4913 47.5171 71.9748 46.8632 69.8627Z" fill="#FFF8CD"/>
<path d="M52.0619 82.796C52.0393 82.6932 52.0068 82.5755 51.9717 82.4502C52.0043 82.5654 52.0368 82.6807 52.0619 82.796Z" fill="#FFF8CD"/>
<path d="M52.9082 46.1883C52.6702 46.5767 52.3971 46.95 52.0113 47.198C51.6029 47.4611 51.0943 47.5238 50.6232 47.5663C50.1397 47.6114 49.6461 47.5413 49.2327 47.2757C48.8493 47.0277 48.5587 46.6744 48.3157 46.291C48.1728 46.0681 48.2706 45.7499 48.491 45.6196C48.7266 45.4818 49.0197 45.572 49.1625 45.7975C49.3153 46.038 49.5008 46.281 49.7263 46.4289C49.9918 46.5992 50.285 46.6168 50.6232 46.5867C50.9339 46.5591 51.2772 46.519 51.5402 46.3336C51.7507 46.1883 51.9161 45.9328 52.0639 45.6922C52.3921 45.1536 53.239 45.6471 52.9082 46.1883ZM55.6167 44.7877C55.5791 44.6499 55.5766 44.5096 55.5891 44.3668C55.2584 44.4746 54.9051 44.5247 54.5243 44.4921C52.7579 44.3368 51.9311 42.5754 51.6805 41.0245C51.3899 39.2105 51.45 37.3665 51.8158 35.57C49.0422 35.2092 46.2611 34.9236 43.4725 34.7131C43.3297 35.8206 43.0741 36.923 42.7835 37.9928C42.761 38.0705 42.7384 38.1507 42.7159 38.2284C42.4453 39.203 42.2574 39.9972 41.413 40.4958C41.4255 40.6061 41.4456 40.7138 41.4531 40.824C41.5358 41.924 41.5734 43.3822 41.2401 44.437C40.6839 46.2009 39.1255 46.266 37.785 45.2914C37.1887 44.8579 36.6526 44.2591 36.1865 43.5926C36.0813 43.7229 35.9811 43.8532 35.8809 43.9885C36.0613 45.0634 36.3318 46.0981 36.853 47.1229C36.8405 46.5817 37.6823 46.3838 37.8101 46.965C38.3864 49.6259 40.4058 51.8307 43.0065 52.63C43.222 52.6976 43.3272 52.863 43.3447 53.0384C45.071 53.785 46.9652 54.2435 48.9596 54.484C48.9972 54.489 49.0347 54.4941 49.0748 54.4991C49.7513 54.5767 50.4503 54.6394 51.1093 54.4615C52.1741 54.1784 52.9258 53.1085 53.4169 52.1815C54.5869 49.9741 55.4137 47.639 56.233 45.3039C55.9324 45.2312 55.6969 45.0759 55.6167 44.7877Z" fill="#9F5D4C"/>
<path d="M43.2529 30.2837C43.5661 31.4212 43.6413 32.5812 43.5686 33.7388C48.6573 34.1271 53.7284 34.761 58.7595 35.6354C58.8547 35.0667 58.9424 34.503 59.0251 33.9442C58.8346 34.0094 58.6217 34.0269 58.4212 33.9893C58.3285 33.9743 58.2383 33.9593 58.1456 33.9442C58.113 33.9417 57.9928 33.9242 57.9778 33.9242C57.7723 33.9041 57.5643 33.8916 57.3564 33.8866C56.9555 33.8766 56.5596 33.9041 56.1613 33.9417C56.1137 33.9492 56.0686 33.9568 56.0235 33.9618C55.9333 33.9793 55.8481 33.9943 55.7604 34.0119C55.5574 34.052 55.3545 34.0996 55.1541 34.1547C54.9536 34.2123 54.7557 34.275 54.5603 34.3451C54.4776 34.3752 54.3949 34.4077 54.3122 34.4403C54.2947 34.4478 54.2821 34.4503 54.2721 34.4553C54.227 34.4754 54.1819 34.4954 54.1368 34.5155C53.6357 34.7435 53.1071 34.6483 52.7964 34.1647C52.5308 33.7488 52.6811 33.0347 53.1471 32.8218C54.9812 31.9849 56.9605 31.7344 58.9424 32.0977C59.0752 32.1202 59.1879 32.1778 59.2856 32.2555C59.3633 31.7344 59.451 31.1431 59.5362 30.5117C58.9674 30.7046 58.3786 30.8299 57.7873 30.9351C52.9718 31.7845 47.9733 31.5615 43.2529 30.2837Z" fill="#9F5D4C"/>
<path d="M56.5137 38.5943C56.5187 38.5918 56.5212 38.5918 56.5263 38.5893L56.554 38.5691C56.5414 38.5792 56.5263 38.5842 56.5137 38.5943Z" fill="#9F5D4C"/>
<path d="M57.2336 37.5917C57.4491 37.747 57.5543 38.0176 57.409 38.2631C57.3639 38.3433 57.2887 38.4085 57.2035 38.4536C57.201 38.5087 57.196 38.5638 57.1835 38.634C57.1684 38.7091 57.1359 38.7818 57.1033 38.8494C57.0306 39.0048 56.9079 39.12 56.7726 39.2177C56.5947 39.348 56.3692 39.3881 56.1562 39.343C55.9959 39.3104 55.838 39.2002 55.7228 39.09C55.6326 39.0048 55.5549 38.902 55.5023 38.7893C55.4672 38.7141 55.4321 38.639 55.4096 38.5588C55.387 38.4811 55.3795 38.3984 55.372 38.3208C55.367 38.2757 55.3645 38.2281 55.3695 38.183C55.3745 38.1278 55.3845 38.0727 55.3945 38.0151C55.352 38.0176 55.3119 38.0126 55.2693 38.0151C54.8233 38.0502 54.3347 38.2757 53.989 38.6089C53.7985 38.7943 53.4854 38.8018 53.2949 38.6089C53.112 38.4235 53.1045 38.1003 53.2949 37.9149C54.3523 36.8976 56.0259 36.7323 57.2336 37.5917ZM52.5859 40.4705C52.7437 41.6831 53.2448 43.6124 54.8258 43.5172C55.1916 43.4946 55.5098 43.3794 55.7904 43.204C55.9959 42.2369 56.279 41.2873 56.6423 40.3703C56.6874 40.26 56.735 40.1448 56.8302 40.0721C57.0231 39.9268 57.3163 40.0345 57.4566 40.23C57.5042 40.2951 57.5342 40.3678 57.5618 40.4404C57.8174 39.7589 58.0504 39.0699 58.2558 38.3709C58.3786 37.7796 58.4913 37.1883 58.5966 36.597C56.6648 36.2612 54.7281 35.9606 52.7863 35.6975C52.4556 37.2634 52.3779 38.8795 52.5859 40.4705Z" fill="#9F5D4C"/>
<path d="M52.0643 45.6922C51.9165 45.9328 51.7511 46.1883 51.5407 46.3336C51.2776 46.519 50.9343 46.5591 50.6237 46.5867C50.2854 46.6168 49.9923 46.5992 49.7267 46.4288C49.5012 46.281 49.3158 46.038 49.163 45.7975C49.0201 45.572 48.727 45.4818 48.4915 45.6196C48.271 45.7499 48.1733 46.068 48.3161 46.291C48.5591 46.6744 48.8498 47.0277 49.2331 47.2757C49.6465 47.5413 50.1401 47.6114 50.6237 47.5663C51.0947 47.5237 51.6033 47.4611 52.0117 47.198C52.3976 46.95 52.6707 46.5767 52.9087 46.1883C53.2394 45.6471 52.3925 45.1535 52.0643 45.6922Z" fill="#823F35"/>
<path d="M55.5898 44.3667C55.5773 44.5095 55.5798 44.6498 55.6173 44.7876C55.6975 45.0757 55.933 45.2311 56.2337 45.3038C56.835 45.4491 57.7019 45.2561 58.1279 45.0983L58.1654 45.0858C58.5112 44.953 58.872 44.7074 58.9146 44.3391C58.9371 44.1387 58.8595 43.9433 58.7843 43.7579C58.5363 43.149 58.2231 42.5728 57.9825 41.9714C57.4864 42.9987 56.6722 44.0134 55.5898 44.3667Z" fill="#9F5D4C"/>
<path d="M56.8298 40.0726C56.7346 40.1452 56.687 40.2605 56.6419 40.3707C56.2786 41.2877 55.9955 42.2373 55.79 43.2044C56.6645 42.6532 57.1631 41.4932 57.5138 40.5762C57.5314 40.5311 57.5439 40.486 57.5614 40.4409C57.5339 40.3682 57.5038 40.2955 57.4562 40.2304C57.3159 40.035 57.0227 39.9272 56.8298 40.0726Z" fill="#9F5D4C"/>
<path d="M53.2943 38.6093C53.4847 38.8022 53.7979 38.7947 53.9883 38.6093C54.3341 38.2761 54.8227 38.0506 55.2686 38.0155C55.3112 38.013 55.3513 38.018 55.3939 38.0155C55.3989 37.9905 55.4014 37.9654 55.4064 37.9404C55.4415 37.8151 55.5242 37.7149 55.6319 37.6447C55.7447 37.5746 55.885 37.5695 56.0103 37.5971C56.0679 37.6096 56.1255 37.6422 56.1781 37.6823C56.2583 37.6547 56.3435 37.6397 56.4262 37.6447C56.5039 37.6522 56.584 37.6597 56.6567 37.6873C56.7845 37.7399 56.8571 37.7775 56.9624 37.8702C57.0701 37.9654 57.1578 38.1182 57.1828 38.2586C57.1979 38.3312 57.2029 38.3939 57.2029 38.454C57.2881 38.4089 57.3632 38.3437 57.4083 38.2636C57.5537 38.018 57.4484 37.7474 57.233 37.5921C56.0253 36.7327 54.3516 36.8981 53.2943 37.9153C53.1039 38.1007 53.1114 38.4239 53.2943 38.6093Z" fill="#5B2027"/>
<path d="M56.514 38.5941C56.5265 38.584 56.5415 38.579 56.554 38.569L56.5265 38.5891C56.5215 38.5916 56.519 38.5916 56.514 38.5941ZM57.1829 38.2583C57.1579 38.118 57.0702 37.9652 56.9624 37.87C56.8572 37.7773 56.7846 37.7397 56.6568 37.6871C56.5841 37.6595 56.5039 37.652 56.4263 37.6445C56.3436 37.6395 56.2584 37.6545 56.1782 37.6821C56.1256 37.642 56.068 37.6094 56.0104 37.5969C55.8851 37.5693 55.7448 37.5743 55.632 37.6445C55.5243 37.7146 55.4416 37.8149 55.4065 37.9401C55.4015 37.9652 55.399 37.9902 55.394 38.0153C55.384 38.0729 55.374 38.128 55.3689 38.1832C55.3639 38.2283 55.3664 38.2759 55.3714 38.321C55.379 38.3986 55.3865 38.4813 55.409 38.559C55.4316 38.6392 55.4667 38.7143 55.5017 38.7895C55.5543 38.9022 55.632 39.005 55.7222 39.0902C55.8375 39.2004 55.9953 39.3106 56.1557 39.3432C56.3686 39.3883 56.5941 39.3482 56.772 39.2179C56.9073 39.1202 57.0301 39.005 57.1027 38.8496C57.1353 38.782 57.1679 38.7093 57.1829 38.6342C57.1955 38.564 57.2005 38.5089 57.203 38.4538C57.203 38.3936 57.198 38.331 57.1829 38.2583Z" fill="#5B2027"/>
<path d="M43.0072 52.6301C40.4065 51.8308 38.387 49.626 37.8108 46.9652C37.683 46.3839 36.8411 46.5818 36.8537 47.123C36.8537 47.1556 36.8562 47.1907 36.8662 47.2257C37.5151 50.2198 39.8327 52.6802 42.7466 53.5772C42.9295 53.6323 43.0798 53.5847 43.1851 53.487C43.3028 53.3767 43.3629 53.2039 43.3454 53.0385C43.3279 52.8631 43.2226 52.6977 43.0072 52.6301Z" fill="#823F35"/>
<path d="M30.1279 40.1948C31.3205 42.0389 32.6384 44.0182 34.0966 45.6844C34.1567 45.752 34.2119 45.8222 34.272 45.8898C34.9084 45.3912 35.3744 44.6746 35.8805 43.9881C35.9807 43.8528 36.081 43.7226 36.1862 43.5923C35.5222 42.6427 35.0086 41.5478 34.718 40.5581C34.3822 39.4206 34.3547 38.1528 34.8182 37.0705C34.8733 36.9452 34.9359 36.8199 35.0036 36.6996C35.5523 35.725 36.8652 34.7554 38.0503 35.0059C39.2103 35.2515 40.0422 36.3038 40.5257 37.321C41.0018 38.3182 41.2924 39.3981 41.4127 40.4955C42.2545 39.9969 42.4449 39.2026 42.7155 38.228C42.7381 38.1503 42.7606 38.0702 42.7832 37.9925C43.0738 36.9226 43.3294 35.8202 43.4722 34.7128C41.3425 34.5524 39.2103 34.4297 37.0756 34.3545C36.4468 34.3319 36.4443 33.3498 37.0756 33.3723C39.2429 33.4475 41.4051 33.5728 43.5674 33.7381C43.6375 32.5806 43.5649 31.4206 43.2517 30.2831C47.9721 31.5609 52.9705 31.7839 57.7861 30.9345C58.3774 30.8293 58.9662 30.704 59.5349 30.5136C59.6226 30.481 59.7103 30.4559 59.798 30.4234C61.6822 29.6993 63.1829 28.0482 63.7291 26.1039C64.1776 24.4979 63.9571 22.7666 63.2055 21.2908C62.4664 19.8376 61.6421 19.086 60.2189 18.2241C54.2333 14.6011 46.371 12.1357 39.3857 13.9522C37.2636 14.5059 35.1439 15.1849 33.1846 16.1571C32.0271 16.7333 30.9246 17.4123 29.9149 18.2266C26.6778 20.8423 25.3474 24.4402 25.4652 28.206C25.5027 29.4212 25.6932 30.6514 26.0164 31.8741C26.1842 32.5004 26.3847 33.1268 26.6227 33.7432C27.4971 36.0357 28.7975 38.1353 30.1279 40.1948Z" fill="#371225"/>
<path d="M58.7136 36.6176C58.5758 37.2064 58.4255 37.7926 58.2551 38.3714C58.0497 39.0704 57.8166 39.7595 57.5611 40.441C57.5435 40.4861 57.531 40.5312 57.5135 40.5763C57.1627 41.4933 56.6641 42.6533 55.7897 43.2045C55.5091 43.3799 55.1909 43.4952 54.8251 43.5177C53.2441 43.6129 52.743 41.6837 52.5852 40.471C52.3772 38.88 52.4549 37.264 52.7856 35.698C54.7274 35.9611 56.6641 36.2618 58.5959 36.5975C58.6334 36.605 58.6735 36.61 58.7136 36.6176ZM37.0761 33.3729C36.4447 33.3504 36.4472 34.3325 37.0761 34.3526C39.2108 34.4278 41.343 34.553 43.4727 34.7134C46.2613 34.9238 49.0424 35.2095 51.816 35.5703C51.4502 37.3667 51.39 39.2108 51.6807 41.0247C51.9312 42.5756 52.758 44.337 54.5244 44.4923C54.9053 44.5249 55.2585 44.4748 55.5893 44.3671C56.6716 44.0138 57.4859 42.9991 57.982 41.9718C58.0096 41.9167 58.0346 41.8616 58.0597 41.8065C58.8389 40.0701 59.3801 38.2111 59.781 36.3545C59.8336 36.114 59.7108 35.7983 59.4377 35.7507C59.2122 35.7106 58.9867 35.673 58.7587 35.6354C53.7277 34.761 48.6565 34.1271 43.5679 33.7387C41.4056 33.5759 39.2434 33.4481 37.0761 33.3729Z" fill="#8789CD"/>
<path d="M35.7738 37.9904C35.9316 37.3314 36.6282 37.0683 37.2345 37.0082C37.7707 36.9581 38.3469 37.1084 38.8004 37.3966C39.8377 38.058 40.1384 39.3208 40.0131 40.4808C39.983 40.7564 39.8127 40.9594 39.522 40.9719C39.4544 40.9769 39.3842 40.9569 39.3166 40.9243C39.299 40.9293 39.2815 40.9318 39.264 40.9393C39.2564 40.9418 39.2489 40.9444 39.2439 40.9469L39.1713 40.9844C39.1136 41.0145 39.061 41.0521 39.0059 41.0872C39.0009 41.0922 39.0034 41.0897 38.9984 41.0947L38.9282 41.1598C38.8856 41.1999 38.848 41.245 38.808 41.2876C38.8831 41.2074 38.8055 41.2926 38.7929 41.3127L38.7528 41.3778C38.7253 41.4229 38.7027 41.468 38.6802 41.5156C38.6752 41.5331 38.6601 41.5682 38.6576 41.5782L38.6376 41.6534L38.615 41.7486C38.615 41.7511 38.615 41.7536 38.615 41.7561C38.6125 41.8213 38.61 41.8889 38.6125 41.9541C38.6125 41.9541 38.615 41.9816 38.6175 42.0042C38.62 42.0242 38.6251 42.0518 38.6251 42.0593C38.6401 42.1244 38.6576 42.1871 38.6802 42.2497C38.6827 42.2572 38.6977 42.2973 38.7052 42.3124C38.7127 42.3299 38.7228 42.3474 38.7228 42.3524C38.7553 42.4101 38.7904 42.4652 38.828 42.5203C38.8305 42.5253 38.828 42.5253 38.8305 42.5303C38.833 42.5303 38.833 42.5278 38.8355 42.5303L38.9007 42.6055L38.9708 42.6732C38.9884 42.6882 39.0635 42.7458 38.9808 42.6857C39.1988 42.851 39.2915 43.0966 39.1562 43.3546C39.0435 43.5701 38.6902 43.6879 38.4873 43.5325C37.8358 43.039 37.5026 42.2397 37.683 41.4279C37.8333 40.7514 38.3971 40.1802 39.0585 39.9797C39.0585 39.9221 39.061 39.8645 39.0585 39.8069C39.0485 39.5638 39.0385 39.4736 38.9708 39.2206C38.9082 38.9876 38.8731 38.8949 38.7403 38.6869L38.6852 38.5992C38.6727 38.5842 38.6676 38.5767 38.6626 38.5691C38.6576 38.5616 38.6526 38.5541 38.6376 38.5416L38.5749 38.4689L38.4722 38.3687C38.4722 38.3687 38.4246 38.3286 38.4096 38.3161C38.3319 38.2585 38.2467 38.2058 38.1615 38.1607C38.1515 38.1532 38.0713 38.1182 38.0613 38.1106C38.0262 38.0956 37.9887 38.0831 37.9511 38.0705C37.8509 38.038 37.7506 38.0129 37.6479 37.9954C37.6429 37.9929 37.6429 37.9954 37.6404 37.9929L37.5652 37.9854C37.5201 37.9829 37.47 37.9803 37.4249 37.9803C37.3748 37.9803 37.3272 37.9829 37.2796 37.9854C37.2671 37.9879 37.227 37.9929 37.2044 37.9954C37.1092 38.0154 37.014 38.038 36.9238 38.0705C36.9088 38.0806 36.8562 38.1031 36.8512 38.1056C36.8386 38.1131 36.786 38.1507 36.781 38.1532L36.7409 38.1908L36.7284 38.2134C36.7284 38.2184 36.7259 38.2284 36.7184 38.2509C36.6532 38.5165 36.3676 38.6518 36.1145 38.5942C35.8515 38.5341 35.7137 38.2384 35.7738 37.9904ZM37.7857 45.2914C39.1262 46.266 40.6846 46.2009 41.2408 44.437C41.574 43.3822 41.5364 41.924 41.4538 40.8241C41.4462 40.7138 41.4262 40.6061 41.4137 40.4959C41.2934 39.3985 41.0028 38.3186 40.5267 37.3214C40.0432 36.3042 39.2113 35.2519 38.0513 35.0063C36.8662 34.7558 35.5533 35.7254 35.0046 36.7C34.937 36.8203 34.8743 36.9456 34.8192 37.0709C34.3557 38.1532 34.3832 39.421 34.719 40.5585C35.0096 41.5482 35.5232 42.6431 36.1872 43.5927C36.6532 44.2591 37.1894 44.8579 37.7857 45.2914Z" fill="#9F5D4C"/>
<path d="M39.2421 40.9492C39.2136 40.9622 39.2162 40.9596 39.2421 40.9492V40.9492Z" fill="#9F5D4C"/>
<path d="M36.7183 38.2513C36.7258 38.2287 36.7283 38.2187 36.7283 38.2137L36.7409 38.1911L36.7809 38.1536C36.786 38.1511 36.8386 38.1135 36.8511 38.106C36.8561 38.1034 36.9087 38.0809 36.9238 38.0709C37.014 38.0383 37.1092 38.0158 37.2044 37.9957C37.2269 37.9932 37.267 37.9882 37.2795 37.9857C37.3271 37.9832 37.3747 37.9807 37.4249 37.9807C37.47 37.9807 37.5201 37.9832 37.5652 37.9857L37.6403 37.9932C37.6428 37.9957 37.6428 37.9932 37.6478 37.9957C37.7506 38.0133 37.8508 38.0383 37.951 38.0709C37.9886 38.0834 38.0262 38.0959 38.0613 38.111C38.0713 38.1185 38.1515 38.1536 38.1615 38.1611C38.2467 38.2062 38.3318 38.2588 38.4095 38.3164C38.4246 38.3289 38.4722 38.369 38.4722 38.369L38.5749 38.4693L38.6375 38.5419C38.6526 38.5544 38.6576 38.562 38.6626 38.5695C38.6676 38.577 38.6726 38.5845 38.6851 38.5995L38.7402 38.6872C38.873 38.8952 38.9081 38.9879 38.9708 39.2209C39.0384 39.474 39.0484 39.5642 39.0584 39.8072C39.0609 39.8648 39.0584 39.9224 39.0584 39.9801C39.1086 39.965 39.1587 39.9475 39.2088 39.9375C39.4794 39.8798 39.7274 40.0126 39.8126 40.2782C39.8903 40.5187 39.7224 40.8294 39.4693 40.882C39.4192 40.8946 39.3666 40.9096 39.3165 40.9246C39.3842 40.9572 39.4543 40.9773 39.522 40.9722C39.8126 40.9597 39.983 40.7568 40.013 40.4812C40.1383 39.3211 39.8377 38.0583 38.8004 37.3969C38.3469 37.1088 37.7706 36.9584 37.2344 37.0085C36.6281 37.0687 35.9316 37.3318 35.7737 37.9907C35.7136 38.2387 35.8514 38.5344 36.1145 38.5945C36.3675 38.6522 36.6532 38.5169 36.7183 38.2513Z" fill="#823F35"/>
<path d="M39.2399 40.9496C39.2123 40.9621 39.2148 40.9596 39.2399 40.9496V40.9496ZM39.8111 40.2781C39.7259 40.0125 39.4779 39.8797 39.2073 39.9374C39.1572 39.9474 39.1071 39.9649 39.057 39.98C38.3955 40.1804 37.8318 40.7516 37.6814 41.4281C37.5011 42.2399 37.8343 43.0392 38.4857 43.5328C38.6887 43.6881 39.0419 43.5703 39.1547 43.3549C39.29 43.0968 39.1973 42.8513 38.9793 42.6859C39.062 42.746 38.9868 42.6884 38.9693 42.6734L38.8991 42.6057L38.834 42.5306C38.8315 42.528 38.8315 42.5306 38.829 42.5306C38.8265 42.5255 38.829 42.5255 38.8265 42.5205C38.7889 42.4654 38.7538 42.4103 38.7212 42.3527C38.7212 42.3476 38.7112 42.3301 38.7037 42.3126C38.6962 42.2975 38.6811 42.2575 38.6786 42.2499C38.6561 42.1873 38.6385 42.1247 38.6235 42.0595C38.6235 42.052 38.6185 42.0244 38.616 42.0044C38.6135 41.9818 38.611 41.9543 38.611 41.9543C38.6085 41.8891 38.611 41.8215 38.6135 41.7564C38.6135 41.7538 38.6135 41.7513 38.6135 41.7488L38.636 41.6536L38.6561 41.5785C38.6586 41.5684 38.6736 41.5334 38.6786 41.5158C38.7012 41.4682 38.7237 41.4231 38.7513 41.378L38.7914 41.3129C38.8039 41.2928 38.8816 41.2076 38.8064 41.2878C38.8465 41.2452 38.8841 41.2001 38.9267 41.16L38.9968 41.0949C39.0018 41.0899 38.9993 41.0924 39.0044 41.0874C39.0595 41.0523 39.1121 41.0147 39.1697 40.9847L39.2424 40.9471C39.2474 40.9446 39.2549 40.9421 39.2624 40.9396C39.28 40.932 39.2975 40.9295 39.315 40.9245C39.3651 40.9095 39.4178 40.8945 39.4679 40.8819C39.7209 40.8293 39.8888 40.5186 39.8111 40.2781Z" fill="#823F35"/>
<path d="M53.1465 32.8214C52.6804 33.0343 52.5301 33.7484 52.7957 34.1643C53.1064 34.6479 53.635 34.7431 54.1361 34.5151C54.1812 34.495 54.2263 34.475 54.2714 34.455C54.2815 34.4499 54.294 34.4474 54.3115 34.4399C54.3942 34.4074 54.4769 34.3748 54.5596 34.3447C54.755 34.2746 54.9529 34.2119 55.1534 34.1543C55.3538 34.0992 55.5568 34.0516 55.7597 34.0115C55.8474 33.9939 55.9326 33.9789 56.0228 33.9614C56.0679 33.9564 56.113 33.9488 56.1606 33.9413C56.559 33.9037 56.9548 33.8762 57.3557 33.8862C57.5637 33.8912 57.7716 33.9037 57.9771 33.9238C57.9921 33.9238 58.1124 33.9413 58.1449 33.9438C58.2376 33.9589 58.3278 33.9739 58.4205 33.9889C58.621 34.0265 58.834 34.009 59.0244 33.9438C59.3125 33.8461 59.5505 33.6332 59.6257 33.3049C59.7084 32.9416 59.5831 32.4932 59.2849 32.2551C59.1872 32.1775 59.0745 32.1198 58.9417 32.0973C56.9598 31.734 54.9805 31.9845 53.1465 32.8214Z" fill="#371225"/>
<path d="M47.7921 86.2386C47.7169 86.2035 47.6493 86.1459 47.5967 86.0557C45.6925 82.8236 44.0614 79.4461 42.275 76.1489C42.0696 75.7706 41.8616 75.3872 41.6561 75.0064C39.7645 71.7442 37.6975 68.4771 34.6307 66.3123C33.4556 65.4805 32.1177 64.819 30.6846 64.6762C28.6351 64.4733 26.568 65.3803 25.0998 66.8285C23.6316 68.2766 22.7196 70.2159 22.2235 72.2203C21.8602 73.691 21.7399 75.1217 21.8101 76.5172C22.0205 80.724 23.9623 84.605 26.2047 88.3307C26.325 88.5311 26.4503 88.729 26.5755 88.927C28.0388 90.766 29.5796 92.5474 31.0854 94.3564C34.8086 89.4832 40.0125 85.8552 45.8879 84.0939C46.4592 83.9235 46.6997 84.8154 46.1335 84.9833C40.3984 86.7021 35.2696 90.2749 31.6818 95.078C32.0425 95.5164 32.4033 95.9574 32.7566 96.4009C33.0272 96.7416 32.7441 97.1876 32.4284 97.2101C32.5837 97.4181 32.7416 97.6261 32.8994 97.834C37.502 93.6147 42.2249 89.2001 47.7921 86.2386Z" fill="#8789CD"/>
<path d="M46.134 84.9832C46.7002 84.8154 46.4597 83.9234 45.8884 84.0938C40.013 85.8552 34.8091 89.4831 31.0859 94.3563C31.2839 94.5943 31.4843 94.8374 31.6822 95.0779C35.2701 90.2749 40.3989 86.702 46.134 84.9832Z" fill="#536294"/>
<path d="M57.0675 114.37C53.6299 111.161 50.3452 106.989 49.4432 102.269C49.7289 102.008 51.6856 101.903 51.9713 101.645C53.0662 100.648 54.1736 99.6655 55.2785 98.6783C55.241 98.3551 55.5692 98.1021 55.8648 98.1472C55.3763 97.4932 54.8977 96.8368 54.4267 96.1703C52.1667 92.9708 50.0947 89.636 48.1078 86.2561C48.0051 86.2861 47.8923 86.2861 47.7921 86.2385C42.2249 89.2 37.502 93.6147 32.8994 97.834C36.1891 102.176 39.7169 106.077 43.8409 109.427C45.3016 110.61 46.835 111.727 48.4611 112.767C48.8544 113.017 49.2503 113.263 49.6512 113.506C52.0515 114.949 55.4614 116.836 58.3854 116.272C59.1796 116.119 60.1041 115.811 60.9936 115.377C59.6782 115.763 58.3428 115.56 57.0675 114.37Z" fill="#FFF8CD"/>
<path d="M47.5967 86.0559C47.6493 86.1461 47.7169 86.2037 47.7921 86.2388C47.8923 86.2864 48.0051 86.2864 48.1078 86.2563C48.3658 86.1762 48.5713 85.893 48.3909 85.5899C46.5844 82.5231 45.0235 79.3236 43.3423 76.1867C41.8791 73.4583 40.4084 70.6371 38.5142 68.1792C36.7754 65.9217 34.32 63.6066 31.3685 63.2809C28.7804 62.9953 26.2874 64.1779 24.3657 65.839C22.1934 67.7131 20.4846 70.3414 19.8558 73.1601C19.7255 73.7389 20.6149 73.9869 20.7427 73.4056C21.2764 71.0254 22.6118 68.8331 24.3306 67.1269C26.0494 65.4206 28.3394 64.0852 30.8248 64.1654C33.6836 64.2581 36.0914 66.5506 37.7525 68.6903C39.2634 70.6346 40.481 72.8319 41.6561 75.0067C41.8616 75.3875 42.0695 75.7708 42.275 76.1492C44.0614 79.4464 45.6925 82.8238 47.5967 86.0559Z" fill="#536294"/>
<path d="M32.757 96.4012C32.4037 95.9577 32.0429 95.5167 31.6821 95.0783C31.4842 94.8377 31.2838 94.5947 31.0858 94.3567C29.58 92.5477 28.0392 90.7663 26.5759 88.9273C25.0877 87.0607 23.6771 85.1364 22.4644 83.0669C22.1663 82.5558 21.3695 83.0193 21.6702 83.5329C21.9458 84.0014 22.2314 84.4625 22.5271 84.9185C22.8277 84.9936 23.1259 85.0613 23.4165 85.1264C23.9627 85.2467 23.7723 86.0459 23.2637 86.0284C25.9345 89.9069 29.1741 93.3695 32.1056 97.0551C32.2008 97.1754 32.316 97.2205 32.4288 97.2104C32.7445 97.1879 33.0276 96.7419 32.757 96.4012Z" fill="#536294"/>
<path d="M23.4165 85.126C23.1259 85.0609 22.8277 84.9932 22.5271 84.918C21.1465 84.5673 19.736 84.0236 19.1296 82.6456C19.0294 82.4176 18.6962 82.3649 18.5007 82.4802C18.2652 82.618 18.2352 82.8836 18.3354 83.1116C19.1697 85.0132 21.3295 85.6071 23.171 86.0154C23.2036 86.023 23.2336 86.0255 23.2637 86.028C23.7723 86.0455 23.9627 85.2463 23.4165 85.126Z" fill="#536294"/>
<path d="M96.4718 67.7809C96.6823 67.9062 96.8025 68.2394 96.6472 68.4524C95.7026 69.7553 94.743 71.0481 93.7684 72.3309C93.608 72.5414 93.3525 72.6541 93.0994 72.5063C92.8914 72.3835 92.7637 72.0453 92.924 71.8348C93.8987 70.552 94.8558 69.2617 95.8003 67.9588C95.9582 67.7433 96.2238 67.6381 96.4718 67.7809ZM91.6187 70.6146C91.1627 71.0506 90.4686 70.3566 90.9271 69.9231C92.5131 68.4173 94.054 66.8664 95.5498 65.2729C95.9832 64.8119 96.6748 65.5059 96.2438 65.9669C94.7455 67.5604 93.2046 69.1113 91.6187 70.6146ZM81.8647 72.5439C81.4939 73.6739 81.2334 74.7612 81.2158 75.9363C81.4964 75.8712 81.6593 76.0315 82.0627 76.3297C83.14 77.1315 83.9117 78.1838 84.8764 79.0832C85.5904 79.7497 86.7555 80.7419 86.7104 81.8418C86.7054 81.9971 86.6728 82.1625 86.6252 82.3329C86.748 82.2928 86.8682 82.2452 86.9885 82.1926C87.4896 81.9771 87.9606 81.689 88.2863 81.486C90.5989 80.0654 93.1595 78.2464 94.7756 76.024C95.2717 75.34 95.7653 74.5007 96.1235 73.7415C96.3741 73.2078 96.5445 72.6591 96.5495 72.0628C96.5495 71.9551 96.4568 71.5868 96.3791 71.2636C96.3666 71.2135 96.3541 71.1633 96.344 71.1182C96.3415 71.1959 96.324 71.2711 96.2764 71.3387C95.5122 72.4261 94.7731 73.531 94.0565 74.6535C93.9137 74.8765 93.6231 74.9667 93.3875 74.8289C93.1645 74.6986 93.0693 74.3804 93.2122 74.1574C93.9262 73.035 94.6653 71.93 95.432 70.8426C95.5849 70.6247 95.8555 70.5219 96.101 70.6673C96.1837 70.7149 96.2513 70.795 96.2939 70.8852C96.2764 70.79 96.2689 70.7224 96.2789 70.7073C96.7048 70.0509 97.1483 69.3419 97.1358 68.5576C97.1207 67.6156 96.6647 66.5031 96.4793 65.5636C96.4442 65.3756 96.4067 65.1827 96.4367 64.9948C96.4668 64.8094 96.5595 64.644 96.6372 64.4737C96.8376 64.0302 96.9428 63.5441 96.9453 63.0581C96.9479 62.7348 96.8977 62.3966 96.7199 62.126C96.5395 61.8554 96.2062 61.67 95.8905 61.7427C95.8129 61.7602 95.7377 61.7828 95.665 61.8053C94.4298 62.1912 93.4026 63.3537 92.443 64.1981C92.3728 64.2607 92.3027 64.3208 92.2325 64.3785C90.654 65.6963 89.1557 67.112 87.7552 68.6203C88.4868 67.5003 89.1683 66.5357 89.6644 65.0875C89.6694 65.0775 89.6719 65.065 89.6744 65.0574C89.9926 64.0978 89.9625 62.7474 89.1958 62.2237C88.0308 63.7245 86.7129 65.0098 85.5278 66.443C85.1369 66.9165 84.7586 67.4076 84.4078 67.9262C83.5409 69.204 82.3458 71.0706 81.8647 72.5439Z" fill="#9F5D4C"/>
<path d="M96.2444 65.9666C96.6753 65.5056 95.9838 64.8115 95.5504 65.2725C94.0546 66.866 92.5137 68.4169 90.9277 69.9227C90.4692 70.3562 91.1632 71.0502 91.6192 70.6143C93.2052 69.111 94.7461 67.5601 96.2444 65.9666Z" fill="#823F35"/>
<path d="M95.8001 67.9587C94.8556 69.2615 93.8985 70.5518 92.9238 71.8347C92.7635 72.0451 92.8913 72.3834 93.0992 72.5061C93.3523 72.654 93.6078 72.5412 93.7682 72.3307C94.7428 71.0479 95.7024 69.7551 96.647 68.4522C96.8023 68.2393 96.6821 67.906 96.4716 67.7808C96.2236 67.6379 95.958 67.7432 95.8001 67.9587Z" fill="#823F35"/>
<path d="M96.2939 70.8852C96.2513 70.795 96.1837 70.7149 96.101 70.6673C95.8554 70.5219 95.5848 70.6247 95.432 70.8427C94.6653 71.93 93.9262 73.035 93.2121 74.1574C93.0693 74.3804 93.1645 74.6986 93.3875 74.8289C93.623 74.9667 93.9137 74.8765 94.0565 74.6535C94.7731 73.5311 95.5122 72.4261 96.2764 71.3387C96.324 71.2711 96.3415 71.1959 96.344 71.1183C96.3465 71.0381 96.329 70.9579 96.2939 70.8852Z" fill="#823F35"/>
<path d="M81.4185 90.8741C81.857 90.2326 82.298 89.5887 82.7314 88.9423C82.7339 88.9348 82.7389 88.9298 82.7415 88.9248C83.4956 87.7998 84.2397 86.6623 84.9187 85.4897C85.3822 84.688 86.3368 83.3826 86.625 82.3328C86.6726 82.1624 86.7052 81.9971 86.7102 81.8417C86.7553 80.7418 85.5902 79.7496 84.8761 79.0832C83.9115 78.1837 83.1398 77.1314 82.0625 76.3296C81.6591 76.0315 81.4962 75.8711 81.2156 75.9363C81.1179 75.9563 81.0101 76.0039 80.8723 76.0816C80.3838 76.3597 79.9303 76.9335 79.5094 77.3118C77.6478 78.9855 75.7737 80.6491 73.8945 82.3027C72.8046 83.2649 71.7097 84.2194 70.6173 85.1791C65.694 89.491 60.7557 93.7879 55.87 98.1475C55.9927 98.1676 56.108 98.2377 56.1907 98.378C57.8694 101.262 59.3025 104.389 59.8136 107.711C59.9088 108.33 58.9643 108.595 58.869 107.972C58.3705 104.724 56.9849 101.69 55.3438 98.8741C55.3062 98.8065 55.2862 98.7413 55.2787 98.6787C54.1737 99.6658 53.0663 100.648 51.9714 101.645C51.6858 101.903 49.729 102.008 49.4434 102.269C50.3453 106.989 53.63 111.161 57.0676 114.371C58.3429 115.561 59.6783 115.764 60.9937 115.378C64.3661 114.386 67.5832 109.495 69.2143 107.393C69.2318 107.368 69.2518 107.343 69.2719 107.318C73.0201 102.482 76.7207 97.6038 80.2259 92.5903C80.6268 92.0191 81.0227 91.4478 81.4185 90.8741Z" fill="#FFF8CD"/>
<path d="M55.2783 98.6785C55.2859 98.7411 55.3059 98.8063 55.3435 98.8739C56.9846 101.69 58.3701 104.724 58.8687 107.971C58.9639 108.595 59.9085 108.33 59.8133 107.711C59.3022 104.389 57.869 101.262 56.1903 98.3778C56.1077 98.2375 55.9924 98.1674 55.8696 98.1473C55.8671 98.1473 55.8671 98.1473 55.8646 98.1473C55.569 98.1022 55.2408 98.3553 55.2783 98.6785Z" fill="#FBC8A8"/>
</svg>
