<svg width="14" height="17" viewBox="0 0 14 17" fill="none" xmlns="http://www.w3.org/2000/svg">
<path d="M5.71885 7.61523H2.12807C1.99568 7.61523 1.887 7.78797 1.887 7.99842C1.887 8.20887 1.99568 8.3816 2.12807 8.3816H5.62242C5.62242 8.11277 5.65839 7.84515 5.71885 7.61523Z" fill="black"/>
<path d="M11.3722 9.14819H8.49797C8.23481 9.14819 8.0188 9.34491 8.0188 9.58612V10.243C8.0188 10.4835 8.23481 10.6809 8.49797 10.6809H11.3722C11.6354 10.6809 11.8506 10.4835 11.8506 10.243V9.58612C11.8506 9.34491 11.6354 9.14819 11.3722 9.14819ZM8.49797 10.243V9.58612H11.3722V10.243H8.49797Z" fill="black"/>
<mask id="mask0_66_78" style="mask-type:luminance" maskUnits="userSpaceOnUse" x="0" y="0" width="11" height="12">
<path d="M0.136494 0.718018H10.6269V11.2795H0.136494V0.718018Z" fill="white"/>
</mask>
<g mask="url(#mask0_66_78)">
<path d="M0.644732 1.44361C0.644732 1.31594 0.746541 1.22706 0.861279 1.22706H7.25991V3.31415C7.25991 3.70846 7.59039 4.02682 7.9855 4.02682H10.0589V7.0811H10.5679V3.88703C10.5679 3.86118 10.5679 3.69553 10.4911 3.59373L7.6922 0.793971C7.64129 0.743066 7.56534 0.718018 7.48939 0.718018H0.861279C0.46697 0.718018 0.136494 1.04849 0.136494 1.44361V11.1535C0.289208 11.0387 0.454041 10.9628 0.644732 10.924V1.44361ZM7.76896 1.5834L9.70253 3.51777H7.9855C7.87077 3.51777 7.76896 3.42889 7.76896 3.31415V1.5834Z" fill="black"/>
</g>
<path d="M1.42831 15.2788C1.25995 15.2788 1.12177 15.4515 1.12177 15.662C1.12177 15.8724 1.25995 16.0452 1.42831 16.0452H2.34796C2.51631 16.0452 2.6545 15.8724 2.6545 15.662C2.6545 15.4515 2.51631 15.2788 2.34796 15.2788H1.42831Z" fill="black"/>
<path d="M11.5956 11.4473H11.3402C11.1999 11.4473 11.0847 11.62 11.0847 11.8305C11.0847 12.0409 11.1999 12.2136 11.3402 12.2136H11.5956C11.7359 12.2136 11.8511 12.0409 11.8511 11.8305C11.8511 11.62 11.7359 11.4473 11.5956 11.4473Z" fill="black"/>
<path d="M11.5956 12.2134H11.3402C11.1999 12.2134 11.0847 12.3861 11.0847 12.5966C11.0847 12.807 11.1999 12.9797 11.3402 12.9797H11.5956C11.7359 12.9797 11.8511 12.807 11.8511 12.5966C11.8511 12.3861 11.7359 12.2134 11.5956 12.2134Z" fill="black"/>
<path d="M11.5956 15.2788H11.3402C11.1999 15.2788 11.0847 15.4515 11.0847 15.662C11.0847 15.8724 11.1999 16.0452 11.3402 16.0452H11.5956C11.7359 16.0452 11.8511 15.8724 11.8511 15.662C11.8511 15.4515 11.7359 15.2788 11.5956 15.2788Z" fill="black"/>
<mask id="mask1_66_78" style="mask-type:luminance" maskUnits="userSpaceOnUse" x="0" y="11" width="7" height="7">
<path d="M0.136494 11.2795H6.90358V17.0075H0.136494V11.2795Z" fill="white"/>
</mask>
<g mask="url(#mask1_66_78)">
<path d="M5.6956 16.4984H0.899255C0.75947 16.4984 0.644732 16.3837 0.644732 16.2439V13.4441H4.97001C5.02092 13.2656 5.08475 13.1007 5.17363 12.9351H0.644732V12.1715C0.644732 12.0317 0.75947 11.917 0.899255 11.917H5.96225C6.20384 11.7134 6.48422 11.5348 6.77672 11.408H0.899255C0.479898 11.408 0.136494 11.7514 0.136494 12.1715V16.2439C0.136494 16.6641 0.479898 17.0075 0.899255 17.0075H6.30565C6.07698 16.8677 5.87337 16.6891 5.6956 16.4984Z" fill="black"/>
</g>
<mask id="mask2_66_78" style="mask-type:luminance" maskUnits="userSpaceOnUse" x="5" y="11" width="6" height="7">
<path d="M5.24827 11.4868H10.8332V17.0079H5.24827V11.4868Z" fill="white"/>
</mask>
<g mask="url(#mask2_66_78)">
<path d="M10.6944 14.3352C10.6944 12.8589 9.49855 11.6631 8.02312 11.6631C6.54689 11.6631 5.35184 12.8589 5.35184 14.3352C5.35184 15.8114 6.54689 17.0081 8.02312 17.0081C9.49855 17.0081 10.6944 15.8114 10.6944 14.3352ZM8.02312 16.499C6.82727 16.499 5.86008 15.5318 5.86008 14.3352C5.86008 13.1393 6.82727 12.1721 8.02312 12.1721C9.21898 12.1721 10.1854 13.1393 10.1854 14.3352C10.1854 15.5318 9.21898 16.499 8.02312 16.499Z" fill="black"/>
<path d="M7.79845 16L7.00022 14.6807V14.3697H7.2663C7.37273 14.3697 7.46585 14.3557 7.54568 14.3277C7.62845 14.2969 7.69645 14.2535 7.74967 14.1975C7.80584 14.1415 7.84427 14.0742 7.86497 13.9958H7.00022V13.6849H7.86053C7.84279 13.612 7.81175 13.5476 7.76741 13.4916C7.72602 13.4356 7.66984 13.3922 7.59889 13.3613C7.53089 13.3277 7.44811 13.3109 7.35055 13.3109H7.00022V13H9.00022V13.3109H8.30399C8.35425 13.3641 8.39564 13.4216 8.42816 13.4832C8.46364 13.5448 8.48729 13.612 8.49911 13.6849H9.00022V13.9958H8.50798C8.47842 14.2031 8.39416 14.3655 8.25521 14.4832C8.11626 14.598 7.9374 14.6765 7.71862 14.7185L8.5878 16H7.79845Z" fill="#FF0000"/>
</g>
<path d="M1.887 10.2975C1.887 10.5079 1.99848 10.6807 2.1343 10.6807H5.71885V9.91431H2.1343C1.99848 9.91431 1.887 10.087 1.887 10.2975Z" fill="black"/>
<path d="M9.80671 11.4473C9.66641 11.4473 9.55125 11.62 9.55125 11.8305C9.55125 11.8499 9.55125 11.8682 9.55125 11.8876C9.65344 11.9837 9.74264 12.0981 9.83185 12.2136H10.0622C10.2025 12.2136 10.3176 12.0409 10.3176 11.8305C10.3176 11.62 10.2025 11.4473 10.0622 11.4473H9.80671Z" fill="black"/>
<path d="M11.5671 14.5127H11.283C11.2262 14.5127 11.1839 14.5322 11.1415 14.5699C11.1271 14.7803 11.1126 14.9725 11.0847 15.1635C11.1415 15.2401 11.2118 15.2791 11.283 15.2791H11.5671C11.723 15.2791 11.8511 15.1063 11.8511 14.8959C11.8511 14.6854 11.723 14.5127 11.5671 14.5127Z" fill="black"/>
<mask id="mask3_66_78" style="mask-type:luminance" maskUnits="userSpaceOnUse" x="6" y="6" width="8" height="11">
<path d="M6.00026 6.99976H13.3682V16.451H6.00026V6.99976Z" fill="white"/>
</mask>
<g mask="url(#mask3_66_78)">
<path d="M12.0936 7.59033H7.25924C6.83989 7.59033 6.49648 7.93374 6.49648 8.3539V10.8991H7.00472V8.3539C7.00472 8.21412 7.11946 8.09938 7.25924 8.09938H12.0936C12.2334 8.09938 12.3481 8.21412 12.3481 8.3539V16.2441C12.3481 16.3839 12.2334 16.4986 12.0936 16.4986H10.3507C10.1721 16.6893 9.96931 16.8679 9.73984 17.0077H12.0936C12.5129 17.0077 12.8563 16.6643 12.8563 16.2441V8.3539C12.8563 7.93374 12.5129 7.59033 12.0936 7.59033Z" fill="black"/>
</g>
</svg>
