<svg width="20" height="18" viewBox="0 0 20 18" fill="none" xmlns="http://www.w3.org/2000/svg">
<path d="M4.14692 11.5909C3.8245 10.6428 3.65066 9.63159 3.65066 8.58762V2.28414C5.93644 2.24273 8.17039 1.57092 10.1112 0.340566L10.1112 0.340569L10.1124 0.339835L10.1361 0.324567L10.1606 0.340169L10.1612 0.340566C12.1021 1.57092 14.336 2.24273 16.6218 2.28414V8.58762C16.6218 10.0979 16.2579 11.5402 15.6071 12.8194L14.4776 12.646L14.4768 12.6456C15.1596 11.4317 15.547 10.0393 15.547 8.58762V3.76706C15.547 3.49972 15.3484 3.27735 15.0851 3.24255L15.0849 3.24252C13.4368 3.02646 11.857 2.51237 10.3899 1.71715C10.3078 1.67167 10.2198 1.6525 10.1358 1.6525C10.0523 1.6525 9.9644 1.67182 9.88253 1.71715C8.41542 2.51237 6.83561 3.02646 5.18754 3.24252L5.1873 3.24255C4.92403 3.27735 4.72549 3.49971 4.72549 3.76706V8.58762C4.72549 9.43512 4.8607 10.2606 5.10509 11.0437C5.09729 11.0484 5.08962 11.0531 5.08206 11.0577L4.14692 11.5909Z" stroke="black" stroke-width="0.45"/>
<path d="M11.7388 11.1575L11.7387 11.1575C11.2825 10.9098 10.0117 10.4754 8.31536 10.4754C7.29751 10.4754 6.59877 10.5508 6.09573 10.6628C5.8949 9.99886 5.78512 9.30207 5.78512 8.58765V4.22325C7.3046 3.97505 8.76413 3.48997 10.1355 2.78001C11.5069 3.48996 12.9671 3.97503 14.4858 4.22324V8.58765C14.4858 9.85735 14.1461 11.0768 13.5449 12.1396L11.7388 11.1575Z" stroke="black" stroke-width="0.45"/>
<path d="M9.84392 8.72838L9.84382 8.72847L8.90394 9.63232L8.90376 9.63249C8.70713 9.82201 8.38494 9.82243 8.18684 9.63225C8.18683 9.63224 8.18681 9.63222 8.1868 9.63221L6.32504 7.84337L7.09107 7.10719L8.38952 8.35504L8.54541 8.50486L8.70131 8.35506L12.9095 4.3118L13.6755 5.04798L9.84392 8.72838Z" stroke="#FF0000" stroke-width="0.45"/>
<mask id="mask0_66_55" style="mask-type:luminance" maskUnits="userSpaceOnUse" x="3" y="15" width="3" height="3">
<path d="M3.24019 15.1047H5.94006V17.7352H3.24019V15.1047Z" fill="white"/>
</mask>
<g mask="url(#mask0_66_55)">
<path d="M3.65142 16.4786C3.65142 15.9319 4.09593 15.4872 4.64628 15.4872C5.19762 15.4872 5.64203 15.932 5.64203 16.4786C5.64203 17.0243 5.19752 17.4699 4.64628 17.4699C4.09604 17.4699 3.65142 17.0244 3.65142 16.4786Z" stroke="black" stroke-width="0.45"/>
</g>
<mask id="mask1_66_55" style="mask-type:luminance" maskUnits="userSpaceOnUse" x="0" y="11" width="20" height="6">
<path d="M0.954407 11.2791H19.3473V16.6788H0.954407V11.2791Z" fill="white"/>
</mask>
<g mask="url(#mask1_66_55)">
<path d="M8.39506 13.2847V13.4986L8.60874 13.5094C10.2346 13.5913 11.7903 13.6283 12.8772 13.6459L12.9883 13.2233L11.157 12.2268C11.1567 12.2266 11.1563 12.2264 11.1559 12.2262C10.8942 12.0809 9.95738 11.7433 8.62779 11.6976L8.39506 11.6896V11.9224V13.2847ZM7.9978 13.4759L8.23513 13.489V13.2513V11.9198V11.691L8.00637 11.6948C6.36422 11.7223 5.91157 11.9726 5.70748 12.0991L4.51228 12.7817L3.9186 13.1207L4.59761 13.2005C5.64373 13.3234 6.82649 13.4116 7.9978 13.4759ZM18.999 15.4097L19.0033 15.4235L19.0094 15.4367C19.0893 15.611 19.0773 15.8108 18.9734 15.9785L18.9731 15.979C18.8676 16.1503 18.6845 16.2526 18.4809 16.2526H17.3639C17.2513 15.2271 16.3778 14.4281 15.3214 14.4281C14.2642 14.4281 13.3907 15.227 13.278 16.2526H6.68835C6.5757 15.227 5.70216 14.4281 4.64496 14.4281C3.58852 14.4281 2.71509 15.2271 2.60245 16.2526H2.21666C1.91405 16.2526 1.59642 16.1013 1.39703 15.8606C1.23673 15.6664 1.18236 15.4514 1.22243 15.2504L1.52966 14.0267L1.52993 14.0268L1.53212 14.0158C1.59697 13.6895 1.72566 13.4497 1.89071 13.2933C2.05308 13.1394 2.26344 13.0535 2.52163 13.0535H3.49189C3.6397 13.0535 3.78506 13.0171 3.91511 12.9419C3.91534 12.9418 3.91558 12.9416 3.91582 12.9415L5.61071 11.9746L5.61082 11.9748L5.6192 11.9695L5.62189 11.9678C5.72056 11.9056 5.88651 11.801 6.2707 11.7091C6.66574 11.6146 7.29434 11.5331 8.3151 11.5331C9.88511 11.5331 10.97 11.9446 11.233 12.0869C11.233 12.0869 11.233 12.0869 11.2331 12.0869L14.0666 13.6273C14.1191 13.6593 14.1724 13.6693 14.1981 13.6736L14.1981 13.6736L14.2009 13.674L18.081 14.2708C18.4865 14.3333 18.6764 14.4702 18.75 14.6169L18.7498 14.617L18.7544 14.6252L18.7567 14.6296L18.7576 14.632L18.999 15.4097Z" stroke="black" stroke-width="0.45"/>
</g>
<mask id="mask2_66_55" style="mask-type:luminance" maskUnits="userSpaceOnUse" x="14" y="15" width="3" height="3">
<path d="M14.0394 15.1047H16.7393V17.7352H14.0394V15.1047Z" fill="white"/>
</mask>
<g mask="url(#mask2_66_55)">
<path d="M14.3268 16.4788C14.3268 15.9322 14.7712 15.4875 15.3226 15.4875C15.8729 15.4875 16.3174 15.9321 16.3174 16.4788C16.3174 17.0247 15.8728 17.4701 15.3226 17.4701C14.7713 17.4701 14.3268 17.0246 14.3268 16.4788Z" stroke="black" stroke-width="0.45"/>
</g>
</svg>
