<svg width="24" height="16" viewBox="0 0 24 16" fill="none" xmlns="http://www.w3.org/2000/svg">
<path d="M1.42286 8.96826C0.870573 8.96826 0.422859 8.52055 0.422859 7.96826C0.422859 7.41598 0.870573 6.96826 1.42286 6.96826V8.96826ZM23.463 7.26115C23.8535 7.65168 23.8535 8.28484 23.463 8.67537L17.099 15.0393C16.7085 15.4299 16.0753 15.4299 15.6848 15.0393C15.2943 14.6488 15.2943 14.0156 15.6848 13.6251L21.3416 7.96826L15.6848 2.31141C15.2943 1.92088 15.2943 1.28772 15.6848 0.897194C16.0753 0.50667 16.7085 0.50667 17.099 0.897194L23.463 7.26115ZM1.42286 6.96826H22.7559V8.96826H1.42286V6.96826Z" fill="#FF0000"/>
</svg>
