<svg width="13" height="15" viewBox="0 0 13 15" fill="none" xmlns="http://www.w3.org/2000/svg">
<path d="M0 12.1281C0 13.278 0.845 14.1573 1.95 14.1573H11.05C12.155 14.1573 13 13.278 13 12.1281V6.71696H0V12.1281ZM11.05 1.98219H9.75V1.30579C9.75 0.899953 9.49 0.629395 9.1 0.629395C8.71 0.629395 8.45 0.899953 8.45 1.30579V1.98219H4.55V1.30579C4.55 0.899953 4.29 0.629395 3.9 0.629395C3.51 0.629395 3.25 0.899953 3.25 1.30579V1.98219H1.95C0.845 1.98219 0 2.8615 0 4.01137V5.36417H13V4.01137C13 2.8615 12.155 1.98219 11.05 1.98219Z" fill="#FF0000"/>
</svg>
