<svg width="23" height="17" viewBox="0 0 23 17" fill="none" xmlns="http://www.w3.org/2000/svg">
<path fill-rule="evenodd" clip-rule="evenodd" d="M21.3241 14.1667C21.3241 14.3105 21.2964 14.4465 21.2566 14.5761L14.9269 7.79167L21.3241 2.83333V14.1667ZM2.52762 15.5451L8.94189 8.73374L11.3729 10.5648L13.6986 8.72241L20.2181 15.5451C20.1164 15.5685 2.62926 15.5685 2.52762 15.5451ZM1.42161 14.1667V2.83333L7.81883 7.79167L1.48913 14.5761C1.44933 14.4465 1.42161 14.3105 1.42161 14.1667ZM20.6133 1.41667L11.3729 8.5L2.13241 1.41667H20.6133ZM19.9025 0H2.84321C1.27305 0 0 1.26862 0 2.83333V14.1667C0 15.7314 1.27305 17 2.84321 17H19.9025C21.4727 17 22.7457 15.7314 22.7457 14.1667V2.83333C22.7457 1.26862 21.4727 0 19.9025 0Z" fill="#FF0000"/>
</svg>
