<svg width="308" height="308" viewBox="0 0 308 308" fill="none" xmlns="http://www.w3.org/2000/svg">
<g clip-path="url(#clip0_1913_177)">
<path d="M154 0C196.51 0 235.03 17.2499 262.915 45.0825C290.748 72.9676 307.997 111.49 307.997 153.999C307.997 196.512 290.745 235.03 262.915 262.915C235.033 290.753 196.51 308 154 308C111.49 308 72.967 290.753 45.0821 262.918C17.2498 235.032 0 196.512 0 153.999C0 111.49 17.2498 72.9676 45.0821 45.0825C72.9695 17.2499 111.49 0 154 0ZM184.108 98.1357C191.001 91.1375 202.208 91.1049 209.138 98.0705C216.066 105.029 216.094 116.348 209.206 123.344L178.965 154.014L209.236 184.719C216.074 191.662 215.976 202.906 209.033 209.837C202.085 216.77 190.913 216.75 184.083 209.807L154.013 179.32L123.892 209.869C116.999 216.87 105.795 216.9 98.8643 209.932C91.9388 202.976 91.9062 191.657 98.7991 184.661L129.035 153.989L98.7615 123.284C91.9288 116.343 92.0215 105.096 98.9671 98.1633C105.915 91.2327 117.087 91.2503 123.917 98.1958L153.987 128.685L184.108 98.1357ZM242.878 65.1197C220.137 42.3779 188.715 28.3138 154 28.3138C119.282 28.3138 87.8607 42.3779 65.1191 65.1222C42.3776 87.8639 28.3135 119.286 28.3135 154.001C28.3135 188.717 42.3776 220.141 65.1191 242.88C87.8607 265.625 119.282 279.691 154 279.691C188.715 279.691 220.137 265.627 242.878 242.88C265.62 220.141 279.684 188.717 279.684 154.001C279.684 119.286 265.622 87.8639 242.878 65.1197Z" fill="#C12126"/>
</g>
<defs>
<clipPath id="clip0_1913_177">
<rect width="308" height="308" fill="white"/>
</clipPath>
</defs>
</svg>
