<svg width="42" height="38" viewBox="0 0 42 38" fill="none" xmlns="http://www.w3.org/2000/svg">
<rect width="42" height="38" rx="4" fill="#FF0000"/>
<path d="M17.6841 11.7628H17.6841V11.7673V13.9169C17.6841 14.9823 17.405 15.6315 17.0182 16.0183C16.6314 16.4051 15.9822 16.6842 14.9168 16.6842H12.7673C11.7019 16.6842 11.0527 16.4051 10.6659 16.0183C10.2791 15.6315 10 14.9823 10 13.9169V11.7673C10 10.7019 10.2791 10.0533 10.6665 9.6667C11.0543 9.27974 11.7064 9 12.7786 9H14.9281C15.9939 9 16.6424 9.27927 17.0273 9.66512C17.4119 10.0506 17.689 10.6982 17.6841 11.7628Z" stroke="white" stroke-width="2"/>
<path d="M26.0828 9H28.2323C29.2977 9 29.9469 9.27911 30.3337 9.66591C30.7205 10.0527 30.9996 10.7019 30.9996 11.7673V13.9169C30.9996 14.9823 30.7205 15.6315 30.3337 16.0183C29.9469 16.4051 29.2977 16.6842 28.2323 16.6842H26.0828C25.0173 16.6842 24.3681 16.4051 23.9813 16.0183C23.5945 15.6315 23.3154 14.9823 23.3154 13.9169V11.7673C23.3154 10.7019 23.5945 10.0527 23.9813 9.66591C24.3681 9.27911 25.0173 9 26.0828 9Z" stroke="white" stroke-width="2"/>
<path d="M26.0828 22.3159H28.2323C29.2977 22.3159 29.9469 22.595 30.3337 22.9818C30.7205 23.3686 30.9996 24.0178 30.9996 25.0833V27.2328C30.9996 28.2982 30.7205 28.9474 30.3337 29.3342C29.9469 29.721 29.2977 30.0001 28.2323 30.0001H26.0828C25.0173 30.0001 24.3681 29.721 23.9813 29.3342C23.5945 28.9474 23.3154 28.2982 23.3154 27.2328V25.0833C23.3154 24.0178 23.5945 23.3686 23.9813 22.9818C24.3681 22.595 25.0173 22.3159 26.0828 22.3159Z" stroke="white" stroke-width="2"/>
<path d="M17.6841 25.0856L17.6841 25.0856V25.0902V27.2372C17.6841 28.3009 17.4052 28.9488 17.0186 29.3349C16.6319 29.7212 15.9825 30.0001 14.9168 30.0001H12.7673C11.7016 30.0001 11.0528 29.7213 10.6663 29.3343C10.2796 28.9472 10 28.2964 10 27.2259V25.0789C10 24.0152 10.2789 23.3678 10.6661 22.9819C11.0539 22.5955 11.7061 22.3159 12.7786 22.3159H14.9281C15.9942 22.3159 16.6422 22.595 17.027 22.981C17.4115 23.3667 17.689 24.0159 17.6841 25.0856Z" stroke="white" stroke-width="2"/>
</svg>
