<svg width="23" height="23" viewBox="0 0 23 23" fill="none" xmlns="http://www.w3.org/2000/svg">
<g clip-path="url(#clip0_977_2081)">
<path d="M11.5 0C13.2838 0 14.9719 0.406388 16.4802 1.13124C15.8628 1.61969 15.2903 2.0886 14.757 2.53993C13.741 2.17066 12.6449 1.96942 11.502 1.96942C8.8702 1.96942 6.48658 3.03619 4.76334 4.76138C3.03814 6.48658 1.97137 8.86825 1.97137 11.5C1.97137 14.1318 3.03814 16.5134 4.76334 18.2386C6.48853 19.9638 8.8702 21.0306 11.502 21.0306C14.1337 21.0306 16.5173 19.9638 18.2406 18.2386C19.9658 16.5134 21.0325 14.1318 21.0325 11.5C21.0325 10.8748 20.972 10.2613 20.8567 9.6693C21.351 9.02455 21.857 8.38175 22.3748 7.74482C22.7812 8.921 23.002 10.1851 23.002 11.5C23.002 14.6749 21.7144 17.5509 19.6336 19.6317C17.5528 21.7125 14.6769 23 11.502 23C8.32705 23 5.45107 21.7125 3.37029 19.6317C1.28755 17.5509 0 14.6749 0 11.5C0 8.32509 1.28755 5.44912 3.36833 3.36833C5.44912 1.28755 8.32509 0 11.5 0ZM6.14271 9.61069L8.94835 9.57356L9.15741 9.62827C9.72401 9.95455 10.2574 10.3277 10.7556 10.7497C11.1151 11.0545 11.459 11.3867 11.7853 11.7462C12.7915 10.1265 13.8641 8.63965 14.9973 7.272C16.2379 5.77345 17.5548 4.41361 18.9381 3.17295L19.2116 3.06745H22.2732L21.6558 3.75323C19.7587 5.86137 18.0374 8.03984 16.4822 10.2867C14.9269 12.5355 13.5358 14.8566 12.2991 17.2461L11.9142 17.9885L11.5606 17.2324C10.908 15.8315 10.1265 14.546 9.19453 13.3971C8.26257 12.2483 7.17822 11.2284 5.91412 10.3609L6.14271 9.61069Z" fill="#01A601"/>
</g>
<defs>
<clipPath id="clip0_977_2081">
<rect width="23" height="23" fill="white"/>
</clipPath>
</defs>
</svg>
