<svg width="12" height="12" viewBox="0 0 12 12" fill="none" xmlns="http://www.w3.org/2000/svg">
<g clip-path="url(#clip0_1072_10120)">
<path d="M5.52 0C6.37623 0 7.1865 0.195066 7.9105 0.542997C7.61415 0.777452 7.33937 1.00253 7.08334 1.21916C6.59568 1.04192 6.06956 0.945321 5.52094 0.945321C4.2577 0.945321 3.11356 1.45737 2.2864 2.28546C1.45831 3.11356 0.946259 4.25676 0.946259 5.52C0.946259 6.78324 1.45831 7.92644 2.2864 8.75454C3.1145 9.58263 4.2577 10.0947 5.52094 10.0947C6.78418 10.0947 7.92832 9.58263 8.75547 8.75454C9.58357 7.92644 10.0956 6.78324 10.0956 5.52C10.0956 5.2199 10.0665 4.92542 10.0112 4.64126C10.2485 4.33178 10.4914 4.02324 10.7399 3.71751C10.935 4.28208 11.0409 4.88885 11.0409 5.52C11.0409 7.04395 10.4229 8.42442 9.42414 9.4232C8.42536 10.422 7.04489 11.04 5.52094 11.04C3.99698 11.04 2.61651 10.422 1.61774 9.4232C0.618022 8.42442 0 7.04395 0 5.52C0 3.99604 0.618023 2.61558 1.6168 1.6168C2.61558 0.618022 3.99605 0 5.52 0Z" fill="#FF0000"/>
</g>
<path d="M6.4645 3.11833L7.17058 3.60557L4.37599 7.65534L3.66992 7.16811L6.4645 3.11833ZM3.60302 3.57576L7.90439 6.54396L7.38635 7.29467L3.08499 4.32647L3.60302 3.57576Z" fill="#FF0000"/>
<defs>
<clipPath id="clip0_1072_10120">
<rect width="11.04" height="11.04" fill="white"/>
</clipPath>
</defs>
</svg>
