<svg width="21" height="22" viewBox="0 0 21 22" fill="none" xmlns="http://www.w3.org/2000/svg">
<rect y="0.451416" width="21" height="21" rx="2" fill="#E3E3E3"/>
<path fill-rule="evenodd" clip-rule="evenodd" d="M17.4701 7.77967C18.1333 9.38569 18.1754 11.181 17.5884 12.8164C17.0014 14.4518 15.8271 15.8104 14.2939 16.628C12.7607 17.4456 10.9783 17.6638 9.29315 17.2401C7.60804 16.8164 6.14072 15.7812 5.17656 14.3357C4.2124 12.8901 3.82032 11.1377 4.07655 9.41913C4.33279 7.70056 5.21904 6.13872 6.56294 5.03733C7.90684 3.93595 9.61234 3.37375 11.3478 3.46007C13.0832 3.54638 14.7245 4.27505 15.9524 5.50436C16.6036 6.15517 17.1194 6.92848 17.4701 7.77967ZM11.0105 4.83087C12.1211 4.83087 13.2068 5.16021 14.1302 5.77724C15.0537 6.39428 15.7735 7.2713 16.1985 8.29739C16.6235 9.32348 16.7347 10.4526 16.518 11.5419C16.3014 12.6311 15.7665 13.6317 14.9812 14.4171C14.1959 15.2024 13.1953 15.7372 12.106 15.9539C11.0167 16.1706 9.88761 16.0594 8.86152 15.6343C7.83543 15.2093 6.95841 14.4896 6.34138 13.5661C5.72434 12.6427 5.395 11.557 5.395 10.4463C5.395 8.95702 5.98663 7.5287 7.03973 6.4756C8.09283 5.4225 9.52115 4.83087 11.0105 4.83087Z" fill="#FF0000"/>
</svg>
