<svg width="26" height="26" viewBox="0 0 26 26" fill="none" xmlns="http://www.w3.org/2000/svg">
<path fill-rule="evenodd" clip-rule="evenodd" d="M18.418 2.979C15.8752 2.979 13.8138 5.04036 13.8138 7.58317C13.8138 8.32116 13.9869 9.0164 14.2938 9.63269C14.4661 9.97853 14.5375 10.4023 14.4238 10.8268L14.1496 11.8515L15.1744 11.5773C15.5989 11.4638 16.0226 11.5351 16.3685 11.7073C16.9848 12.0143 17.68 12.1873 18.418 12.1873C20.9608 12.1873 23.0221 10.126 23.0221 7.58317C23.0221 5.04036 20.9608 2.979 18.418 2.979ZM12.1888 7.58317C12.1888 4.14289 14.9777 1.354 18.418 1.354C21.8583 1.354 24.6471 4.14289 24.6471 7.58317C24.6471 11.0234 21.8583 13.8123 18.418 13.8123C17.423 13.8123 16.4803 13.5784 15.644 13.1619C15.6252 13.1526 15.6102 13.1489 15.6011 13.1478C15.5969 13.1473 15.5944 13.1474 15.5933 13.1474L14.3886 13.4698C13.2612 13.7714 12.2297 12.7399 12.5315 11.6126L12.8537 10.4079C12.8539 10.4069 12.8539 10.4043 12.8533 10.4001C12.8522 10.391 12.8485 10.3759 12.8392 10.3572C12.4227 9.52089 12.1888 8.57818 12.1888 7.58317ZM4.02881 4.43298C5.35717 3.03446 7.5544 3.29648 8.65246 4.84952L10.0185 6.78163C10.8968 8.02385 10.8226 9.75087 9.77443 10.8544L9.50917 11.1337C9.50843 11.1356 9.50765 11.1377 9.50685 11.14C9.49283 11.1794 9.45739 11.3049 9.49227 11.5429C9.56458 12.0363 9.94554 13.0392 11.4922 14.6675C13.0437 16.301 13.9847 16.6859 14.4208 16.7567C14.609 16.7873 14.7073 16.7607 14.7387 16.7497L15.1814 16.2836C16.128 15.2871 17.6038 15.0907 18.7939 15.7757L20.8636 16.967C22.6326 17.9852 23.0443 20.4759 21.6306 21.9643L20.0917 23.5845C19.6114 24.0902 18.9564 24.5218 18.1471 24.6018C16.1712 24.7968 11.594 24.5428 6.79554 19.4908C2.31794 14.7768 1.46733 10.6765 1.35981 8.67315C1.30668 7.68334 1.74789 6.83434 2.32839 6.22318L4.02881 4.43298ZM7.3256 5.78765C6.77056 5.00262 5.77343 4.95577 5.20702 5.55209L3.50662 7.34229C3.14761 7.72026 2.95925 8.15348 2.98247 8.58606C3.07026 10.2217 3.77462 13.9508 7.97375 18.3718C12.3766 23.0071 16.4329 23.1381 17.9874 22.9846C18.2949 22.9543 18.6111 22.7837 18.9135 22.4655L20.4524 20.8452C21.1162 20.1464 20.9422 18.8872 20.0529 18.3753L17.9832 17.184C17.4278 16.8643 16.7771 16.9631 16.3596 17.4027L15.8662 17.9222L15.2772 17.3626C15.8662 17.9222 15.8655 17.9229 15.8648 17.9238L15.8631 17.9254L15.86 17.9287L15.8531 17.9357L15.8376 17.951C15.8264 17.9618 15.8135 17.9737 15.799 17.9865C15.7699 18.012 15.7338 18.0411 15.6906 18.0719C15.6037 18.1334 15.4881 18.2011 15.3419 18.2588C15.0429 18.3766 14.6481 18.4399 14.1604 18.3607C13.2096 18.2063 11.9637 17.5235 10.3139 15.7866C8.65932 14.0446 8.02604 12.7449 7.88444 11.7785C7.81237 11.2865 7.87004 10.8926 7.97589 10.5952C8.02794 10.4489 8.0894 10.3323 8.14608 10.2437C8.17434 10.1996 8.20128 10.1626 8.2251 10.1325C8.237 10.1174 8.24813 10.1041 8.25827 10.0924L8.2727 10.0762L8.27932 10.069L8.28246 10.0657L8.28399 10.064C8.28474 10.0632 8.28549 10.0624 8.8746 10.622L8.28549 10.0624L8.5962 9.73532C9.07887 9.22716 9.149 8.36658 8.69168 7.71976L7.3256 5.78765Z" fill="#FF0000"/>
</svg>
