<svg width="14" height="15" viewBox="0 0 14 15" fill="none" xmlns="http://www.w3.org/2000/svg">
<path d="M13.5473 7.32744C13.5473 11.063 10.6025 14.0914 6.96996 14.0914C3.33737 14.0914 0.392578 11.063 0.392578 7.32744C0.392578 3.59181 3.33737 0.563477 6.96996 0.563477C10.6025 0.563477 13.5473 3.59181 13.5473 7.32744ZM1.59255 7.32744C1.59255 10.3815 4.0001 12.8574 6.96996 12.8574C9.93983 12.8574 12.3474 10.3815 12.3474 7.32744C12.3474 4.27333 9.93983 1.79749 6.96996 1.79749C4.0001 1.79749 1.59255 4.27333 1.59255 7.32744Z" fill="#FF0000"/>
<path d="M7.02058 3.1001C6.68992 3.1001 6.42188 3.37203 6.42188 3.70749V7.63534C6.42188 7.63534 6.42188 7.79369 6.49773 7.9128C6.5485 8.01381 6.62765 8.10157 6.73165 8.1625L9.49757 9.7826C9.78393 9.9503 10.1501 9.85075 10.3154 9.56023C10.4807 9.26972 10.3826 8.89823 10.0963 8.73053L7.61929 7.27971V3.70749C7.61929 3.37204 7.35125 3.1001 7.02058 3.1001Z" fill="#FF0000"/>
</svg>
