<svg width="304" height="304" viewBox="0 0 304 304" fill="none" xmlns="http://www.w3.org/2000/svg">
<g clip-path="url(#clip0_1913_174)">
<path d="M152 0C175.577 0 197.889 5.37139 217.825 14.9521C209.665 21.4081 202.099 27.6058 195.049 33.5712C181.62 28.6905 167.133 26.0306 152.026 26.0306C117.241 26.0306 85.7356 40.1305 62.9589 62.9331C40.1563 85.7356 26.0564 117.215 26.0564 152C26.0564 186.785 40.1563 218.264 62.9589 241.067C85.7615 263.87 117.241 277.969 152.026 277.969C186.811 277.969 218.316 263.87 241.093 241.067C263.895 218.264 277.995 186.785 277.995 152C277.995 143.736 277.195 135.628 275.671 127.803C282.205 119.281 288.893 110.785 295.736 102.366C301.108 117.912 304.026 134.62 304.026 152C304.026 193.964 287.008 231.977 259.505 259.479C232.003 286.982 193.99 304 152.026 304C110.062 304 72.0489 286.982 44.5464 259.479C17.018 231.977 0 193.964 0 152C0 110.036 17.018 72.0231 44.5206 44.5206C72.0231 17.018 110.036 0 152 0ZM81.1906 127.028L118.274 126.538L121.037 127.261C128.526 131.573 135.576 136.506 142.161 142.084C146.913 146.112 151.458 150.502 155.77 155.254C169.07 133.846 183.247 114.194 198.225 96.1169C214.623 76.3099 232.029 58.3364 250.312 41.9382L253.927 40.5437H294.393L286.233 49.6079C261.158 77.472 238.407 106.266 217.851 135.963C197.295 165.687 178.909 196.366 162.562 227.948L157.475 237.761L152.801 227.768C144.175 209.252 133.846 192.26 121.528 177.075C109.21 161.891 94.8773 148.41 78.1692 136.945L81.1906 127.028Z" fill="#01A601"/>
</g>
<defs>
<clipPath id="clip0_1913_174">
<rect width="304" height="304" fill="white"/>
</clipPath>
</defs>
</svg>
