<svg width="167" height="33" viewBox="0 0 167 33" fill="none" xmlns="http://www.w3.org/2000/svg">
<path d="M167 32.875L162.479 22.2498L155.538 31.4775L167 32.875ZM1.62195 28.403C1.86864 28.2071 2.11943 28.0104 2.37427 27.8131L1.1499 26.2317C0.888603 26.434 0.631307 26.6357 0.378054 26.8369L1.62195 28.403ZM3.9516 26.6223C4.46333 26.2454 4.98921 25.8668 5.529 25.4871L4.3783 23.8513C3.82682 24.2392 3.28914 24.6263 2.76551 25.012L3.9516 26.6223ZM7.16155 24.3642C7.69239 24.007 8.23518 23.6494 8.7897 23.2917L7.70555 21.611C7.14031 21.9756 6.58676 22.3403 6.04512 22.7048L7.16155 24.3642ZM10.4593 22.2368C11.0075 21.8975 11.566 21.5585 12.1348 21.2203L11.1126 19.5013C10.5337 19.8455 9.965 20.1906 9.40667 20.5362L10.4593 22.2368ZM13.8388 20.2269C14.4005 19.9059 14.9714 19.5858 15.5512 19.2671L14.5878 17.5144C13.9983 17.8385 13.4178 18.1639 12.8464 18.4905L13.8388 20.2269ZM17.2886 18.3306C17.8612 18.0279 18.4419 17.7268 19.0305 17.4275L18.124 15.6447C17.526 15.9488 16.9359 16.2548 16.3539 16.5625L17.2886 18.3306ZM20.8007 16.5448C21.3823 16.2605 21.971 15.9781 22.5669 15.698L21.716 13.888C21.1109 14.1725 20.5129 14.4593 19.9223 14.748L20.8007 16.5448ZM24.3695 14.8673C24.9585 14.6013 25.554 14.3376 26.1559 14.0764L25.3598 12.2417C24.7488 12.5068 24.1442 12.7745 23.5462 13.0446L24.3695 14.8673ZM27.9807 13.3008C28.5792 13.0516 29.1836 12.8051 29.7939 12.5615L29.0523 10.704C28.433 10.9513 27.8195 11.2015 27.212 11.4544L27.9807 13.3008ZM31.6324 11.843C32.242 11.6099 32.8572 11.3797 33.4778 11.1527L32.7907 9.27445C32.1609 9.50482 31.5367 9.73838 30.918 9.97495L31.6324 11.843ZM35.328 10.491C35.9484 10.2741 36.5739 10.0605 37.2045 9.8503L36.5721 7.95293C35.9322 8.16621 35.2975 8.38296 34.668 8.603L35.328 10.491ZM39.0649 9.24493C39.6897 9.04652 40.3193 8.85155 40.9535 8.6602L40.3758 6.74545C39.7323 6.9396 39.0936 7.13741 38.4596 7.33872L39.0649 9.24493ZM42.8404 8.10565C43.4677 7.92614 44.0994 7.75025 44.7353 7.57812L44.2128 5.64759C43.5676 5.82223 42.9267 6.00069 42.2902 6.18281L42.8404 8.10565ZM46.6519 7.07421C47.2812 6.91359 47.9146 6.75672 48.5519 6.60377L48.0851 4.659C47.4385 4.8142 46.7959 4.97335 46.1573 5.13632L46.6519 7.07421ZM50.4753 6.15677C51.1133 6.01334 51.7551 5.87389 52.4006 5.73856L51.9902 3.78112C51.3353 3.91844 50.6841 4.05994 50.0367 4.20546L50.4753 6.15677ZM54.3259 5.34938C54.9712 5.22378 55.6201 5.10235 56.2724 4.98524L55.919 3.01672C55.257 3.13555 54.5986 3.25877 53.9438 3.38622L54.3259 5.34938ZM58.2049 4.6527C58.8501 4.54648 59.4986 4.44453 60.1503 4.34699L59.8542 2.36903C59.1929 2.46801 58.5348 2.57147 57.88 2.67927L58.2049 4.6527ZM62.1097 4.06841C62.7543 3.98158 63.402 3.89911 64.0526 3.82113L63.8146 1.83534C63.1543 1.91449 62.497 1.99819 61.8427 2.08631L62.1097 4.06841ZM66.0132 3.60076C66.6649 3.53237 67.3194 3.46852 67.9767 3.40935L67.7974 1.4174C67.1302 1.47747 66.4659 1.54227 65.8044 1.61168L66.0132 3.60076ZM69.9318 3.24784C70.5862 3.19863 71.2432 3.1541 71.9028 3.11436L71.7825 1.11798C71.113 1.15832 70.4461 1.20353 69.7819 1.25347L69.9318 3.24784ZM73.8683 3.01058C74.52 2.98102 75.1742 2.95618 75.8307 2.93618L75.7698 0.937106C75.1033 0.957416 74.4393 0.98263 73.7777 1.01263L73.8683 3.01058ZM77.8074 2.89076C78.4602 2.88066 79.1151 2.87538 79.7723 2.87502L79.7712 0.87502C79.104 0.875385 78.4391 0.880749 77.7765 0.891002L77.8074 2.89076ZM81.7373 2.88863C82.3945 2.8981 83.0538 2.91253 83.7152 2.93203L83.7741 0.932903C83.1027 0.913103 82.4333 0.898451 81.7661 0.888839L81.7373 2.88863ZM85.6768 3.00458C86.3292 3.0336 86.9835 3.06759 87.6397 3.10665L87.7585 1.11019C87.0923 1.07053 86.428 1.03602 85.7657 1.00656L85.6768 3.00458ZM89.614 3.23916C90.2642 3.28774 90.9162 3.34133 91.5699 3.40004L91.7488 1.40806C91.0851 1.34845 90.4231 1.29404 89.763 1.24472L89.614 3.23916ZM93.5258 3.5905C94.1795 3.65911 94.8348 3.73287 95.4919 3.81188L95.7307 1.82618C95.0636 1.74597 94.3982 1.67108 93.7346 1.60142L93.5258 3.5905ZM97.4398 4.06093C98.0863 4.14852 98.7343 4.24122 99.3839 4.33913L99.682 2.36147C99.0226 2.26207 98.3646 2.16796 97.7083 2.07904L97.4398 4.06093ZM101.337 4.64859C101.982 4.75568 102.628 4.86795 103.275 4.98547L103.632 3.01763C102.975 2.89833 102.319 2.78436 101.665 2.67563L101.337 4.64859ZM105.203 5.35018C105.847 5.47696 106.492 5.60897 107.138 5.7463L107.554 3.78996C106.898 3.65055 106.243 3.51655 105.589 3.38786L105.203 5.35018ZM109.065 6.17059C109.699 6.31519 110.335 6.46495 110.971 6.61994L111.444 4.67671C110.798 4.5194 110.153 4.3674 109.51 4.22063L109.065 6.17059ZM112.885 7.10071C113.522 7.26583 114.16 7.43624 114.8 7.61201L115.33 5.68354C114.681 5.50516 114.033 5.33223 113.386 5.16465L112.885 7.10071ZM116.68 8.14352C117.308 8.32588 117.937 8.51345 118.566 8.7063L119.152 6.79394C118.513 6.59827 117.875 6.40795 117.238 6.2229L116.68 8.14352ZM120.459 9.30075C121.078 9.50033 121.699 9.70505 122.32 9.915L122.96 8.02023C122.33 7.80725 121.701 7.59956 121.072 7.39708L120.459 9.30075ZM124.175 10.5565C124.795 10.7756 125.415 10.9999 126.036 11.2294L126.729 9.35352C126.099 9.12069 125.47 8.89321 124.842 8.67102L124.175 10.5565ZM127.884 11.9277C128.49 12.1614 129.097 12.4002 129.704 12.6442L130.45 10.7883C129.834 10.5409 129.218 10.2987 128.604 10.0617L127.884 11.9277ZM131.528 13.3915C132.137 13.6458 132.746 13.9053 133.356 14.1701L134.153 12.3354C133.534 12.067 132.916 11.8039 132.299 11.5461L131.528 13.3915ZM135.147 14.9615C135.741 15.229 136.336 15.5014 136.931 15.779L137.776 13.9663C137.173 13.685 136.57 13.4088 135.968 13.1377L135.147 14.9615ZM138.719 16.6269C139.312 16.9131 139.906 17.2044 140.5 17.5009L141.393 15.7112C140.791 15.4109 140.189 15.1157 139.588 14.8256L138.719 16.6269ZM142.241 18.3836C142.822 18.6828 143.404 18.9869 143.985 19.2961L144.924 17.53C144.335 17.2168 143.746 16.9087 143.157 16.6056L142.241 18.3836ZM145.732 20.2386C146.306 20.5533 146.881 20.873 147.456 21.1977L148.439 19.4559C147.857 19.1272 147.275 18.8034 146.693 18.4846L145.732 20.2386ZM149.154 22.1694C149.72 22.4982 150.286 22.8318 150.853 23.1703L151.878 21.4533C151.305 21.1106 150.731 20.7728 150.158 20.4399L149.154 22.1694ZM152.554 24.2005C153.11 24.5422 153.667 24.8886 154.224 25.2398L155.291 23.548C154.727 23.1926 154.164 22.842 153.6 22.4962L152.554 24.2005ZM155.874 26.2936C156.424 26.6496 156.974 27.0103 157.525 27.3757L158.631 25.7094C158.074 25.3397 157.517 24.9747 156.96 24.6145L155.874 26.2936ZM159.177 28.4865C159.717 28.8537 160.256 29.2256 160.796 29.6022L161.94 27.9617C161.394 27.5808 160.848 27.2047 160.302 26.8331L159.177 28.4865ZM162.395 30.7307C162.928 31.1114 163.462 31.4967 163.995 31.8866L165.175 30.2719C164.636 29.8777 164.097 29.4881 163.558 29.103L162.395 30.7307Z" fill="#989898"/>
</svg>
