<svg width="17" height="17" viewBox="0 0 17 17" fill="none" xmlns="http://www.w3.org/2000/svg">
<path d="M14.7475 4.04236C14.6581 3.91351 14.5225 3.82456 14.3693 3.79419C14.2161 3.76381 14.0572 3.79437 13.9259 3.87946C13.7946 3.96454 13.7011 4.09753 13.6651 4.25051C13.6291 4.4035 13.6533 4.56458 13.7327 4.69997C13.9332 5.01256 14.1076 5.34138 14.2541 5.68303C14.3177 5.8308 14.4371 5.94704 14.5859 6.00619C14.7347 6.06535 14.9007 6.06256 15.0475 5.99844C15.1942 5.93433 15.3097 5.81414 15.3684 5.66431C15.4271 5.51449 15.4244 5.3473 15.3607 5.19953C15.1884 4.79741 14.9833 4.41036 14.7475 4.04236ZM13.6981 2.22222C13.7228 2.28978 13.7376 2.36062 13.742 2.43249C13.7673 2.59372 13.7338 2.75873 13.6478 2.89707C13.5617 3.0354 13.4289 3.13774 13.2738 3.18519L11.4822 3.73699C11.312 3.78885 11.1283 3.77051 10.9715 3.68599C10.8147 3.60147 10.6977 3.4577 10.6462 3.28631C10.5947 3.11492 10.613 2.92995 10.6969 2.77209C10.7808 2.61423 10.9236 2.49641 11.0938 2.44455L11.2641 2.39231C10.8339 2.15609 10.3794 1.96791 9.90871 1.83114C8.97253 1.5581 7.98903 1.49073 7.02475 1.63357C6.06047 1.7764 5.1379 2.12612 4.31946 2.65907C3.50103 3.19201 2.80581 3.89574 2.28085 4.72266C1.75589 5.54957 1.41344 6.48037 1.27665 7.45209C1.13986 8.42381 1.21194 9.41378 1.488 10.355C1.76405 11.2963 2.23766 12.1668 2.87677 12.9078C3.51588 13.6488 4.30558 14.2429 5.19246 14.65C6.07933 15.057 7.04268 15.2675 8.01734 15.2672C8.19487 15.2715 8.37249 15.2657 8.54937 15.2498C8.80519 15.2318 9.0597 15.1982 9.31151 15.1494C9.39088 15.1303 9.47327 15.1277 9.55369 15.1416C9.6341 15.1555 9.71088 15.1857 9.77939 15.2304C9.8479 15.275 9.90671 15.3332 9.95228 15.4013C9.99785 15.4695 10.0292 15.5462 10.0445 15.6269C10.0598 15.7076 10.0587 15.7906 10.0413 15.8709C10.0238 15.9512 9.99039 16.027 9.94302 16.0939C9.89564 16.1608 9.83529 16.2174 9.76562 16.2601C9.69594 16.3029 9.61838 16.331 9.53762 16.3427C9.23952 16.3994 8.93843 16.4388 8.63583 16.4606C8.54405 16.4606 8.11577 16.482 8.02 16.482C6.79456 16.4834 5.58514 16.2016 4.4848 15.6585C3.38446 15.1153 2.42254 14.3252 1.67304 13.349C0.923551 12.3727 0.406468 11.2363 0.161584 10.0273C-0.0832999 8.81819 -0.0494569 7.56866 0.260509 6.37483C0.570475 5.181 1.1483 4.07469 1.94952 3.14102C2.75075 2.20735 3.75401 1.47121 4.88212 0.989254C6.01022 0.507296 7.23309 0.292365 8.45664 0.360998C9.68018 0.429632 10.8718 0.779999 11.9397 1.38514L11.7722 0.943165C11.7367 0.85926 11.7184 0.769007 11.7184 0.677814C11.7183 0.58662 11.7366 0.496361 11.7721 0.412443C11.8075 0.328525 11.8594 0.252674 11.9247 0.189433C11.9899 0.126192 12.0672 0.076862 12.1518 0.0443975C12.2364 0.011933 12.3267 -0.00299814 12.4172 0.000498333C12.5077 0.0039948 12.5966 0.025847 12.6785 0.064746C12.7604 0.103645 12.8336 0.158791 12.8939 0.22688C12.9541 0.29497 13.0001 0.374603 13.0291 0.461009L13.6941 2.22222H13.6981ZM11.3838 14.39C11.2444 14.469 11.142 14.6005 11.0989 14.7556C11.0559 14.9107 11.0758 15.0767 11.1543 15.217C11.2328 15.3573 11.3634 15.4605 11.5175 15.5038C11.6715 15.5471 11.8363 15.5271 11.9757 15.448C12.3565 15.235 12.7179 14.9885 13.0557 14.7114C13.1207 14.6624 13.1752 14.6008 13.216 14.5301C13.2568 14.4595 13.2831 14.3812 13.2931 14.3001C13.3032 14.219 13.297 14.1367 13.2748 14.0581C13.2526 13.9794 13.2148 13.9061 13.1638 13.8425C13.1128 13.7789 13.0496 13.7263 12.978 13.6879C12.9063 13.6494 12.8277 13.6259 12.7469 13.6188C12.666 13.6116 12.5845 13.621 12.5073 13.6462C12.4301 13.6715 12.3588 13.7122 12.2975 13.7658C12.0119 14.0007 11.7061 14.2095 11.3838 14.39ZM13.7606 12.1131C13.676 12.2497 13.6486 12.4145 13.6847 12.5714C13.7207 12.7283 13.8172 12.8643 13.9528 12.9495C14.0884 13.0348 14.2522 13.0623 14.4079 13.026C14.5637 12.9897 14.6988 12.8926 14.7834 12.756C15.014 12.3848 15.2146 11.9956 15.3833 11.5921C15.4178 11.5179 15.437 11.4374 15.4398 11.3555C15.4425 11.2736 15.4289 11.1919 15.3995 11.1155C15.3702 11.039 15.3258 10.9694 15.269 10.9106C15.2123 10.8519 15.1443 10.8053 15.0692 10.7737C14.9941 10.7421 14.9135 10.7261 14.8321 10.7266C14.7507 10.7272 14.6703 10.7443 14.5956 10.777C14.521 10.8096 14.4536 10.8572 14.3977 10.9167C14.3417 10.9762 14.2983 11.0465 14.27 11.1234C14.1269 11.4665 13.9565 11.7975 13.7606 12.1131ZM14.7941 8.96035C14.7952 9.11233 14.853 9.25834 14.9559 9.3695C15.0588 9.48067 15.1994 9.54889 15.3499 9.56068C15.5003 9.57246 15.6497 9.52695 15.7685 9.43315C15.8872 9.33934 15.9667 9.20408 15.9912 9.05411C16.0257 8.61773 16.0257 8.17928 15.9912 7.74291C15.9927 7.65781 15.9765 7.57332 15.9436 7.49492C15.9107 7.41652 15.8618 7.34594 15.8001 7.28777C15.7385 7.22959 15.6653 7.1851 15.5855 7.15719C15.5056 7.12927 15.4208 7.11855 15.3366 7.12571C15.2524 7.13287 15.1706 7.15776 15.0965 7.19876C15.0224 7.23977 14.9577 7.29598 14.9066 7.36375C14.8555 7.43152 14.819 7.50935 14.7996 7.5922C14.7803 7.67505 14.7784 7.76107 14.7941 7.8447C14.8233 8.216 14.8233 8.58905 14.7941 8.96035Z" fill="black"/>
<path d="M4.14026 9.91136V10.96L7.61043 10.9654V9.78144H5.86803L6.73258 8.88945C6.87883 8.74273 7.01232 8.58366 7.1316 8.41399C7.2404 8.2574 7.32556 8.08544 7.38432 7.90371C7.44494 7.70781 7.47457 7.50352 7.4721 7.29834C7.48009 7.02973 7.43065 6.76252 7.32712 6.51483C7.22871 6.30016 7.05618 6.1288 6.84165 6.03268C6.54667 5.9111 6.22902 5.85535 5.91059 5.86928C5.59287 5.86628 5.27538 5.88777 4.96092 5.93357C4.68869 5.97375 4.44219 6.01839 4.22139 6.0675V7.11485H5.66054C5.75794 7.11229 5.85508 7.12633 5.94783 7.15637C6.01719 7.17927 6.07585 7.2269 6.11276 7.2903C6.15143 7.36211 6.17026 7.44305 6.1673 7.52468C6.16697 7.61098 6.14742 7.69611 6.1101 7.7738C6.06659 7.86357 6.01304 7.94805 5.9505 8.02559C5.87344 8.12399 5.7899 8.21705 5.70044 8.30417L4.14026 9.91136Z" fill="#FF0000"/>
<path d="M10.3464 10.0225V10.96L11.6552 10.9654V10.0279L12.0542 9.82296V8.91222H11.6552V7.50995H10.5911L10.3411 8.16354V8.91222H9.58427L10.8119 5.9041H9.48185L8.02808 9.4359L8.25419 10.0225H10.3464Z" fill="#FF0000"/>
</svg>
