<svg width="16" height="15" viewBox="0 0 16 15" fill="none" xmlns="http://www.w3.org/2000/svg">
<path d="M8.0323 0.520142C4.02368 0.520142 0.774261 3.55296 0.774261 7.29435C0.774261 11.0357 4.02368 14.0685 8.0323 14.0685C12.0409 14.0685 15.2904 11.0357 15.2904 7.29435C15.2904 3.55296 12.0409 0.520142 8.0323 0.520142ZM10.9355 7.97177L13.7937 7.97245C13.632 9.16621 13.0494 10.2759 12.1378 11.1266C11.2261 11.9774 10.0371 12.521 8.7581 12.6717V10.004C9.33558 10.004 9.88942 9.78993 10.2978 9.4088C10.7061 9.02768 10.9355 8.51076 10.9355 7.97177ZM2.27087 7.97245L5.12908 7.97177C5.12908 8.51076 5.35848 9.02768 5.76683 9.4088C6.17518 9.78993 6.72901 10.004 7.30649 10.004L7.30577 12.6717C6.02685 12.5208 4.83803 11.9772 3.92652 11.1264C3.01499 10.2757 2.43253 9.16611 2.27087 7.97245ZM8.0323 1.87498C9.44661 1.87501 10.8123 2.35675 11.873 3.22983C12.9339 4.1029 13.6168 5.30727 13.7937 6.61693H10.9355C10.9355 6.43726 10.859 6.26497 10.7229 6.13792C10.5868 6.01088 10.4022 5.93951 10.2097 5.93951H5.85488C5.66239 5.93951 5.47778 6.01088 5.34166 6.13792C5.20555 6.26497 5.12908 6.43726 5.12908 6.61693H2.27087C2.44781 5.30727 3.13076 4.1029 4.19153 3.22983C5.2523 2.35675 6.61799 1.87501 8.0323 1.87498Z" fill="#FF0000"/>
</svg>
