<svg width="62" height="63" viewBox="0 0 62 63" fill="none" xmlns="http://www.w3.org/2000/svg">
<mask id="mask0_82_3186" style="mask-type:luminance" maskUnits="userSpaceOnUse" x="34" y="35" width="28" height="28">
<path d="M34.842 35.9883H62V62.875H34.842V35.9883Z" fill="white"/>
</mask>
<g mask="url(#mask0_82_3186)">
<path d="M48.5974 62.875C41.1906 62.875 35.1634 56.8493 35.1634 49.4411C35.1634 42.0344 41.1906 36.0087 48.5974 36.0087C56.0041 36.0087 62.0313 42.0344 62.0313 49.4411C62.0313 56.8493 56.0041 62.875 48.5974 62.875ZM48.5974 38.0747C42.3303 38.0747 37.231 43.174 37.231 49.4411C37.231 55.7097 42.3303 60.809 48.5974 60.809C54.8644 60.809 59.9637 55.7097 59.9637 49.4411C59.9637 43.174 54.8644 38.0747 48.5974 38.0747Z" fill="black"/>
</g>
<path d="M48.5974 58.7414C48.3215 58.7414 48.0566 58.6317 47.8622 58.4357C47.1976 57.7632 41.3647 51.7517 41.3647 47.7889C41.3647 43.5721 44.6095 40.1423 48.5974 40.1423C52.5868 40.1423 55.8301 43.5721 55.8301 47.7889C55.8301 51.7517 49.9972 57.7617 49.3326 58.4357C49.1382 58.6317 48.8733 58.7414 48.5974 58.7414ZM48.5974 42.2084C45.7491 42.2084 43.4307 44.7118 43.4307 47.7889C43.4307 49.9004 46.3495 53.7707 48.5958 56.2082C50.5129 54.1202 53.7641 50.0979 53.7641 47.7889C53.7641 44.7118 51.4456 42.2084 48.5974 42.2084Z" fill="#FF0000"/>
<path d="M50.6635 50.4757H46.5314C45.9608 50.4757 45.4968 50.0132 45.4968 49.4411V45.309C45.4968 44.7368 45.9608 44.2744 46.5314 44.2744H50.6635C51.2341 44.2744 51.6981 44.7368 51.6981 45.309V49.4411C51.6981 50.0132 51.2341 50.4757 50.6635 50.4757ZM47.5644 48.4081H49.6305V46.342H47.5644V48.4081Z" fill="black"/>
<path d="M34.1305 26.7083H27.9308C27.3602 26.7083 26.8978 26.2459 26.8978 25.6753V19.4756C26.8978 18.9035 27.3602 18.441 27.9308 18.441H34.1305C34.7011 18.441 35.1635 18.9035 35.1635 19.4756V25.6753C35.1635 26.2459 34.7011 26.7083 34.1305 26.7083ZM28.9638 24.6423H33.0975V20.5086H28.9638V24.6423Z" fill="black"/>
<path d="M44.4638 26.7083H38.2641C37.6935 26.7083 37.2311 26.2459 37.2311 25.6753V19.4756C37.2311 18.9035 37.6935 18.441 38.2641 18.441H44.4638C45.0344 18.441 45.4968 18.9035 45.4968 19.4756V25.6753C45.4968 26.2459 45.0344 26.7083 44.4638 26.7083ZM39.2971 24.6423H43.4308V20.5086H39.2971V24.6423Z" fill="black"/>
<path d="M54.797 26.7083H48.5974C48.0268 26.7083 47.5643 26.2459 47.5643 25.6753V19.4756C47.5643 18.9035 48.0268 18.441 48.5974 18.441H54.797C55.3676 18.441 55.8301 18.9035 55.8301 19.4756V25.6753C55.8301 26.2459 55.3676 26.7083 54.797 26.7083ZM49.6304 24.6423H53.764V20.5086H49.6304V24.6423Z" fill="black"/>
<path d="M13.4638 37.0417H7.2641C6.69351 37.0417 6.23108 36.5793 6.23108 36.0087V29.809C6.23108 29.2368 6.69351 28.7744 7.2641 28.7744H13.4638C14.0344 28.7744 14.4968 29.2368 14.4968 29.809V36.0087C14.4968 36.5793 14.0344 37.0417 13.4638 37.0417ZM8.29712 34.9757H12.4308V30.842H8.29712V34.9757Z" fill="black"/>
<path d="M23.797 37.0417H17.5974C17.0268 37.0417 16.5643 36.5793 16.5643 36.0087V29.809C16.5643 29.2368 17.0268 28.7744 17.5974 28.7744H23.797C24.3676 28.7744 24.8301 29.2368 24.8301 29.809V36.0087C24.8301 36.5793 24.3676 37.0417 23.797 37.0417ZM18.6304 34.9757H22.764V30.842H18.6304V34.9757Z" fill="black"/>
<path d="M34.1305 37.0417H27.9308C27.3602 37.0417 26.8978 36.5793 26.8978 36.0087V29.809C26.8978 29.2368 27.3602 28.7744 27.9308 28.7744H34.1305C34.7011 28.7744 35.1635 29.2368 35.1635 29.809V36.0087C35.1635 36.5793 34.7011 37.0417 34.1305 37.0417ZM28.9638 34.9757H33.0975V30.842H28.9638V34.9757Z" fill="black"/>
<path d="M13.4638 47.375H7.2641C6.69351 47.375 6.23108 46.9125 6.23108 46.3419V40.1423C6.23108 39.5701 6.69351 39.1077 7.2641 39.1077H13.4638C14.0344 39.1077 14.4968 39.5701 14.4968 40.1423V46.3419C14.4968 46.9125 14.0344 47.375 13.4638 47.375ZM8.29712 45.3089H12.4308V41.1753H8.29712V45.3089Z" fill="black"/>
<path d="M23.797 47.375H17.5974C17.0268 47.375 16.5643 46.9125 16.5643 46.3419V40.1423C16.5643 39.5701 17.0268 39.1077 17.5974 39.1077H23.797C24.3676 39.1077 24.8301 39.5701 24.8301 40.1423V46.3419C24.8301 46.9125 24.3676 47.375 23.797 47.375ZM18.6304 45.3089H22.764V41.1753H18.6304V45.3089Z" fill="black"/>
<path d="M13.4638 57.7083H7.2641C6.69351 57.7083 6.23108 57.2459 6.23108 56.6753V50.4756C6.23108 49.9035 6.69351 49.441 7.2641 49.441H13.4638C14.0344 49.441 14.4968 49.9035 14.4968 50.4756V56.6753C14.4968 57.2459 14.0344 57.7083 13.4638 57.7083ZM8.29712 55.6423H12.4308V51.5086H8.29712V55.6423Z" fill="black"/>
<path d="M23.797 57.7083H17.5974C17.0268 57.7083 16.5643 57.2459 16.5643 56.6753V50.4756C16.5643 49.9035 17.0268 49.441 17.5974 49.441H23.797C24.3676 49.441 24.8301 49.9035 24.8301 50.4756V56.6753C24.8301 57.2459 24.3676 57.7083 23.797 57.7083ZM18.6304 55.6423H22.764V51.5086H18.6304V55.6423Z" fill="black"/>
<mask id="mask1_82_3186" style="mask-type:luminance" maskUnits="userSpaceOnUse" x="5" y="0" width="9" height="12">
<path d="M5.94891 0.875H13.5735V11.5093H5.94891V0.875Z" fill="white"/>
</mask>
<g mask="url(#mask1_82_3186)">
<path d="M12.4308 11.2083H7.2641C6.69351 11.2083 6.23108 10.7459 6.23108 10.1753V1.90802C6.23108 1.33743 6.69351 0.875 7.2641 0.875H12.4308C13.0014 0.875 13.4638 1.33743 13.4638 1.90802V10.1753C13.4638 10.7459 13.0014 11.2083 12.4308 11.2083ZM8.29712 9.1423H11.3977V2.94104H8.29712V9.1423Z" fill="black"/>
</g>
<mask id="mask2_82_3186" style="mask-type:luminance" maskUnits="userSpaceOnUse" x="48" y="0" width="9" height="12">
<path d="M48.4861 0.875H56.1107V11.5093H48.4861V0.875Z" fill="white"/>
</mask>
<g mask="url(#mask2_82_3186)">
<path d="M54.7971 11.2083H49.6304C49.0598 11.2083 48.5974 10.7459 48.5974 10.1753V1.90802C48.5974 1.33743 49.0598 0.875 49.6304 0.875H54.7971C55.3677 0.875 55.8301 1.33743 55.8301 1.90802V10.1753C55.8301 10.7459 55.3677 11.2083 54.7971 11.2083ZM50.6635 9.1423H53.7641V2.94104H50.6635V9.1423Z" fill="black"/>
</g>
<mask id="mask3_82_3186" style="mask-type:luminance" maskUnits="userSpaceOnUse" x="0" y="4" width="62" height="12">
<path d="M0 4.68726H62V15.5222H0V4.68726Z" fill="white"/>
</mask>
<g mask="url(#mask3_82_3186)">
<path d="M60.9968 15.3419H1.06439C0.493801 15.3419 0.0313721 14.8795 0.0313721 14.3089V9.39927C0.0313721 6.9774 2.00179 5.00854 4.4221 5.00854H7.26408C7.83467 5.00854 8.2971 5.47097 8.2971 6.04156V9.14219H11.3977V6.04156C11.3977 5.47097 11.8602 5.00854 12.4307 5.00854H49.6304C50.201 5.00854 50.6635 5.47097 50.6635 6.04156V9.14219H53.7641V6.04156C53.7641 5.47097 54.2265 5.00854 54.7971 5.00854H57.6391C60.061 5.00854 62.0314 6.9774 62.0314 9.39927V14.3089C62.0314 14.8795 61.5674 15.3419 60.9968 15.3419ZM2.09741 13.2743H59.9638V9.39927C59.9638 8.11858 58.9213 7.07458 57.6391 7.07458H55.8301V10.1752C55.8301 10.7458 55.3677 11.2082 54.7971 11.2082H49.6304C49.0598 11.2082 48.5974 10.7458 48.5974 10.1752V7.07458H13.4638V10.1752C13.4638 10.7458 13.0013 11.2082 12.4307 11.2082H7.26408C6.69349 11.2082 6.23106 10.7458 6.23106 10.1752V7.07458H4.4221C3.13984 7.07458 2.09741 8.11858 2.09741 9.39927V13.2743Z" fill="black"/>
</g>
<mask id="mask4_82_3186" style="mask-type:luminance" maskUnits="userSpaceOnUse" x="0" y="13" width="62" height="50">
<path d="M0 13.1145H62V62.875H0V13.1145Z" fill="white"/>
</mask>
<g mask="url(#mask4_82_3186)">
<path d="M48.5974 62.8749H4.4221C2.00179 62.8749 0.0313721 60.9061 0.0313721 58.4826V14.3089C0.0313721 13.7367 0.493801 13.2743 1.06439 13.2743H60.9968C61.5674 13.2743 62.0314 13.7367 62.0314 14.3089V49.441C62.0314 50.0131 61.5674 50.4756 60.9968 50.4756C60.4278 50.4756 59.9638 50.0131 59.9638 49.441C59.9638 43.1739 54.8645 38.0746 48.5974 38.0746C42.3303 38.0746 37.2311 43.1739 37.2311 49.441C37.2311 55.7096 42.3303 60.8089 48.5974 60.8089C49.168 60.8089 49.6304 61.2698 49.6304 61.8419C49.6304 62.4125 49.168 62.8749 48.5974 62.8749ZM2.09741 15.3419V58.4826C2.09741 59.7649 3.13984 60.8089 4.4221 60.8089H41.4447C37.6747 58.4262 35.1635 54.222 35.1635 49.441C35.1635 42.0343 41.1907 36.0086 48.5974 36.0086C53.3785 36.0086 57.5827 38.5182 59.9638 42.2898V15.3419H2.09741Z" fill="black"/>
</g>
</svg>
