<svg width="129" height="41" viewBox="0 0 129 41" fill="none" xmlns="http://www.w3.org/2000/svg">
<mask id="mask0_82_3230" style="mask-type:luminance" maskUnits="userSpaceOnUse" x="0" y="0" width="129" height="41">
<path d="M0 0.875H129V40.7552H0V0.875Z" fill="white"/>
</mask>
<g mask="url(#mask0_82_3230)">
<path d="M126.173 13.0058C128.315 15.1976 124.929 19.9256 127.458 21.6657C129 22.7188 129 24.9542 128.829 26.8236C128.637 28.8441 128.315 31.1217 126.665 32.2822C125.873 32.8415 124.929 33.0347 124.009 33.2278C121.309 33.7871 118.609 34.3666 115.91 34.9259C114.796 35.1626 113.596 35.3979 112.525 34.9897C111.476 34.6034 110.64 33.3353 111.133 32.304C109.932 37.8919 103.355 41.6525 97.9558 39.8252C93.329 38.2565 91.5718 32.2604 92.6857 27.4904C92.2791 29.6386 91.8725 31.7884 91.4643 33.9366C91.3366 34.5177 91.2073 35.1408 90.8007 35.549C90.2648 36.1082 89.408 36.1503 88.6369 36.1503C70.6191 36.3653 52.5998 36.5803 34.5821 36.7734C32.6332 36.7952 31.7328 34.3245 31.7328 32.3679C31.711 30.391 31.8185 28.0481 30.2124 26.9311C32.7828 31.7027 30.041 38.4933 24.8987 40.1259C19.7563 41.76 13.6294 37.7845 13.0078 32.3897C13.3085 34.3027 11.5731 36.0428 9.68655 36.451C7.82339 36.8591 5.89481 36.3014 4.05191 35.7422C2.14514 35.1626 -0.211846 33.8946 0.174494 31.938C0.666765 29.4891 -0.168227 26.9093 0.238364 24.4386C1.07491 19.3882 6.55844 16.6589 11.4656 15.2615C18.0863 13.3703 24.9407 12.3608 31.8185 12.2751C39.3599 12.1677 45.5741 6.60156 52.5796 3.76477C64.2134 -0.985021 77.3676 2.00288 89.9221 1.6586C90.9503 1.63679 92.0002 1.59473 92.9006 2.02469C94.4865 2.77556 96.1565 3.31301 97.828 3.82864C106.633 6.55795 115.417 9.28725 124.224 12.0165C124.929 12.2315 125.658 12.4683 126.173 13.0058ZM29.9335 25.7924C28.3913 23.6005 25.9268 22.1175 23.2707 21.795C20.6349 21.4507 17.8713 22.2888 15.8353 24.0305C15.9428 24.2454 16.1359 24.4168 16.3712 24.4807C16.8432 23.9868 17.5068 23.6862 18.2141 23.6426C16.7793 24.5461 15.1296 25.836 15.3866 27.5122C15.0003 27.2972 14.6155 27.791 14.4644 28.1992C13.7151 30.391 13.8646 32.8836 14.9146 34.9477C15.3866 35.8715 16.6718 36.1082 17.6361 35.7001C18.6004 35.3122 19.264 34.4102 19.7781 33.5067C20.2065 32.7558 20.8919 31.8102 21.7285 32.0891C20.1426 33.5067 19.1145 35.5272 18.9213 37.6333C18.4711 37.4838 18.2141 36.9245 18.3854 36.4728C18.0209 36.3014 17.6143 36.1285 17.2077 36.2578C16.8214 36.3871 16.6079 36.9666 16.9289 37.2034C18.6425 38.4933 20.8063 39.1382 22.9483 38.9871C23.5496 38.945 24.1914 38.8157 24.6198 38.4076C25.5202 37.5477 25.0918 36.021 24.4266 34.9897C23.763 33.9366 22.8626 32.8633 23.0137 31.6373C23.8923 33.4646 25.3489 34.9897 27.1482 35.8933C27.3834 36.021 27.6622 36.1503 27.9193 36.1082C28.3695 36.0646 28.6686 35.7001 28.9054 35.334C30.2124 33.206 30.4694 30.4565 29.569 28.1353C29.4195 27.791 29.1406 27.3829 28.7761 27.4904C28.6483 28.0481 28.3913 28.5435 28.0268 28.9734C28.734 29.123 29.3758 29.5965 29.6983 30.2617C28.519 29.9393 27.2775 29.7679 26.0561 29.7897C26.8475 29.0809 27.5984 28.3503 28.3056 27.5761C28.477 27.3829 28.6686 27.1461 28.6904 26.8891C28.6904 26.6523 28.5408 26.4373 28.4115 26.2644C27.684 25.2549 26.8054 24.3529 25.8411 23.5787C27.4488 24.1161 28.8836 25.2113 29.8042 26.6305C30.1688 26.6741 30.147 26.093 29.9335 25.7924ZM91.8071 2.25992C90.5437 4.36609 87.4374 4.00156 85.0165 3.50618C69.0551 0.175556 51.8505 3.48592 38.2679 12.5119C36.0604 13.9732 33.233 13.8439 30.619 13.8439C23.1632 13.8003 15.7075 15.0901 8.702 17.6263C6.58025 18.3989 4.39463 19.3663 3.06737 21.1937C0.666765 24.4807 1.97378 29.0809 1.50331 33.1422C4.73735 34.3027 8.12249 34.9897 11.5731 35.1626C9.64448 29.704 12.8583 22.9992 18.2997 21.0862C23.7209 19.1514 30.4258 22.3542 32.3544 27.8128C33.2112 30.2617 33.1894 32.9054 33.4682 35.4851C51.486 34.7747 69.5256 34.5177 87.5449 34.6673C88.9796 34.6891 90.93 34.1516 90.7571 32.734C90.0296 26.3719 95.8776 20.0752 102.263 20.3774C108.647 20.6998 113.875 27.5324 112.504 33.7871C117.196 34.2373 122.038 32.4972 125.401 29.1666C126.493 28.0917 127.48 26.6943 127.372 25.1692C127.33 24.5025 127.093 23.8575 126.816 23.2562C126.236 22.01 125.445 20.8058 124.266 20.097C123.108 19.3882 121.48 19.3025 120.43 20.1826C121.566 18.6575 122.981 17.3459 124.587 16.3364C124.78 17.0031 124.437 17.7976 123.816 18.1201C124.395 18.765 125.616 18.2494 125.852 17.4113C126.109 16.5514 125.658 15.6494 125.101 14.9826C123.559 13.1771 121.138 12.4044 118.866 11.7377C109.998 9.11589 101.149 6.51588 92.2791 3.89407C92.1295 3.33482 91.9582 2.79737 91.8071 2.25992ZM95.8138 25.2985C95.0006 26.0712 95.1719 27.5122 95.9431 28.3503C96.7142 29.1884 97.8701 29.5311 98.9855 29.7243C99.7566 29.8536 100.699 30.0468 100.913 30.7992C98.621 30.4767 96.264 29.2959 94.122 30.1979C94.379 29.5311 95.0426 29.0591 95.7499 29.0155C95.3433 28.4578 94.957 27.8985 94.5504 27.3393C93.5222 29.4034 93.329 31.8741 94.0363 34.0659C94.2279 34.6252 94.4647 35.1829 94.9352 35.549C95.6642 36.0864 96.7142 35.9789 97.4853 35.5272C98.2564 35.0552 98.8344 34.3245 99.3703 33.5939C99.9062 32.8836 100.442 32.1747 100.978 31.4441C101.064 32.5611 100.271 33.5285 99.5853 34.4102C98.878 35.2701 98.2144 36.3871 98.5571 37.4402C98.8141 38.2347 99.6273 38.7721 100.442 38.9232C101.255 39.0946 102.114 38.945 102.927 38.7939C104.576 38.4933 106.398 38.0197 107.298 36.6021C106.74 36.2796 106.077 36.1939 105.455 36.3232C105.477 36.8389 105.22 37.3545 104.77 37.6115C104.684 35.9353 103.977 34.3245 102.819 33.1203C102.628 32.9054 102.391 32.6904 102.305 32.3897C102.241 32.1109 102.371 31.7448 102.67 31.7027C103.505 33.5285 104.983 35.0754 106.804 35.9353C107.083 36.0646 107.362 36.1939 107.663 36.1082C107.94 36.0428 108.133 35.7858 108.304 35.549C109.761 33.4428 110.147 30.6496 109.312 28.221C109.183 27.8549 108.904 27.4047 108.519 27.5122C108.262 28.0699 108.005 28.6073 107.768 29.1666C108.498 29.0591 109.269 29.5966 109.418 30.3272C108.026 29.7243 106.398 29.704 104.963 30.2617C104.469 30.4565 103.977 30.7353 103.419 30.7571C102.885 30.7571 102.263 30.391 102.263 29.8536C104.319 30.1122 106.483 29.338 107.898 27.8128C108.368 27.3175 108.348 26.4794 108.047 25.8562C107.726 25.2331 107.191 24.7611 106.655 24.3093C107.876 24.7829 108.926 25.7067 109.526 26.8673C109.719 26.7598 109.826 26.5448 109.847 26.3298C108.39 23.7719 105.626 21.9882 102.692 21.7093C99.7566 21.4305 96.7142 22.6331 94.7638 24.8686C95.5147 25.0181 96.3279 24.6318 96.6503 23.9448C96.9276 24.4604 96.2422 24.8904 95.8138 25.2985ZM126.708 29.1666C125.937 29.8115 125.144 30.4565 124.373 31.1217C124.158 31.2946 124.158 31.6373 124.351 31.8102C125.081 31.7027 125.852 31.5952 126.43 31.1217C126.987 30.6496 127.223 29.6822 126.708 29.1666ZM25.8848 37.0538C25.8848 37.3763 25.905 37.677 25.905 37.9776C26.6559 37.8265 27.3195 37.3109 27.6404 36.6021C27.1045 36.3871 26.5266 36.236 25.9486 36.1503C25.9268 36.451 25.905 36.7516 25.863 37.0538M97.9137 37.2688C97.8701 36.9666 97.8062 36.6659 97.7642 36.3653C97.3996 36.2578 96.9712 36.1285 96.6285 36.3014C96.264 36.451 96.1144 37.032 96.4353 37.2252C96.8856 37.504 97.3358 37.7626 97.7642 38.0415C97.8919 37.8047 97.9355 37.5259 97.8701 37.2891M111.09 29.123C111.068 28.478 110.897 27.8549 110.597 27.2972C110.211 27.8985 110.319 28.7584 110.811 29.2741" fill="black"/>
</g>
<path d="M24.4921 29.8536C24.7273 29.8754 24.9626 29.8754 25.1775 29.8972C24.8769 30.2197 24.556 30.5422 24.1494 30.6699C23.7412 30.7992 23.2053 30.6278 23.0558 30.2197C23.4842 29.9829 23.9983 29.8536 24.4921 29.8318" fill="black"/>
<path d="M66.2058 18.6139C64.5764 19.6031 62.4125 19.6467 60.7628 18.7214C62.5637 18.8943 64.3847 18.8507 66.2058 18.6139Z" fill="black"/>
<path d="M7.52275 21.4725C7.56637 21.9024 7.63024 22.3324 7.5025 22.7405C7.3732 23.1487 7.00867 23.5148 6.58027 23.4712C5.72347 23.4073 4.86667 23.3216 3.98806 23.2562C3.66714 23.2141 3.55965 22.7405 3.77463 22.4835C3.96625 22.2249 4.33078 22.1392 4.65169 22.1174C5.42437 22.0099 6.19549 22.0099 6.9448 22.0956C6.98686 21.8168 7.22365 21.5582 7.52275 21.4725Z" fill="black"/>
<path d="M17.7857 31.0577C18.0645 31.1652 18.2779 31.3802 18.429 31.6154C18.8356 32.2603 18.8138 33.1841 18.3434 33.8088C17.8713 34.4101 17.0145 34.7108 16.2652 34.474C16.0721 33.3789 15.5144 32.3258 14.7012 31.5297C15.3648 31.2509 16.0721 31.0795 16.7996 30.9923C17.122 30.9502 17.485 30.9284 17.7857 31.0577Z" fill="black"/>
<path d="M106.997 34.5177C106.184 34.4741 105.369 34.0441 105.027 33.3353C104.662 32.6047 104.855 31.6155 105.541 31.1871C106.527 30.5842 107.748 31.2946 108.882 31.4005C108.434 32.2822 107.962 33.164 107.511 34.0659C107.406 34.2809 107.234 34.5177 106.997 34.5177Z" fill="black"/>
<path d="M23.4203 35.0115C23.7412 35.8076 23.8487 36.6877 23.7412 37.5258C22.8423 37.6115 21.9201 37.6333 20.9994 37.5897C20.8281 37.5897 20.6349 37.5694 20.4853 37.462C20.2704 37.289 20.2704 36.9666 20.2922 36.6659C20.4215 35.2483 21.0633 33.6796 22.4342 33.2714C22.3921 33.8946 22.0712 34.5177 21.5774 34.904C22.1771 35.0333 22.7987 35.0754 23.4203 35.0115Z" fill="black"/>
<path d="M101.92 34.4523C101.492 34.2373 101.255 33.7217 101.341 33.2496C102.606 33.9803 103.441 35.3776 103.485 36.8389C103.485 37.032 103.463 37.247 103.333 37.3966C103.162 37.5897 102.885 37.6115 102.628 37.6115C101.791 37.6115 100.956 37.6115 100.121 37.5897C99.8844 36.7516 99.9701 35.8076 100.313 34.9897C100.356 34.862 100.442 34.7327 100.55 34.6673C100.785 34.5395 101.064 34.6891 101.321 34.7545C101.578 34.8402 101.963 34.7109 101.92 34.4523Z" fill="black"/>
<path d="M20.5928 26.7379C19.9713 26.9747 19.4572 27.4685 19.2002 28.0917C19.842 28.2428 20.4854 28.4141 21.1272 28.5652C21.149 28.8862 20.8499 29.1666 20.5274 29.2086C20.2065 29.2522 19.9074 29.1448 19.6067 29.0155C18.2577 28.4998 16.7357 27.5978 16.6718 26.1569C17.3354 25.6848 18.0209 25.2113 18.6861 24.7392C18.8574 24.6099 19.049 24.4806 19.2422 24.5243C19.3918 24.5679 19.5211 24.6754 19.6286 24.8031C20.0788 25.3624 20.4215 26.0291 20.5928 26.7379Z" fill="black"/>
<path d="M28.262 33.9803C28.1764 34.2373 28.0268 34.5177 27.7698 34.6034C27.5984 34.647 27.427 34.5816 27.2775 34.5177C26.5484 34.2373 25.8848 33.8292 25.3053 33.3135C24.8769 32.9272 24.4485 32.4115 24.4485 31.8102C24.4703 31.2073 25.1339 30.6278 25.648 30.9285C25.1339 31.2073 25.3271 32.1748 25.905 32.2604C26.5048 32.3461 26.955 31.508 26.5905 31.036C27.4909 30.9721 28.4116 31.1653 29.2045 31.5734C28.9054 32.3679 28.5829 33.1842 28.262 33.9803Z" fill="black"/>
<path d="M102.863 28.3502C103.441 28.5855 104.17 28.3705 104.555 27.8767C103.913 27.9405 103.333 27.3828 103.227 26.7597C103.12 26.1366 103.399 25.4916 103.827 25.0181C104.084 24.7392 104.427 24.5024 104.791 24.5881C104.941 24.6317 105.091 24.7174 105.198 24.8249C105.712 25.191 106.204 25.5555 106.719 25.9216C106.826 26.0291 106.955 26.1148 107.019 26.2441C107.169 26.5229 107.041 26.8672 106.87 27.1242C106.29 28.0278 105.262 28.5652 104.277 28.9734C103.955 29.1229 103.592 29.2522 103.269 29.1447C102.927 29.0591 102.67 28.6509 102.863 28.3502Z" fill="black"/>
<path d="M25.3052 28.9734C25.7555 28.3923 24.9407 27.4047 24.2989 27.7474C24.1696 27.9406 24.1275 28.221 24.1914 28.4578C24.4064 28.5855 24.6198 28.7366 24.8348 28.8659C24.6198 29.2959 23.9562 29.1666 23.6353 28.8223C22.6912 27.8128 23.3564 26.1569 24.1275 24.9978C24.2989 24.7829 24.4921 24.5243 24.7694 24.4806C25.0061 24.4604 25.2414 24.6318 25.4564 24.7829C25.9704 25.191 26.5048 25.5992 27.0189 26.0073C27.17 26.1148 27.3195 26.2441 27.3834 26.4155C27.4488 26.6943 27.2774 26.9529 27.1045 27.1679C26.5702 27.8346 25.9704 28.4359 25.3052 28.9734Z" fill="black"/>
<path d="M16.0923 28.9937C15.5362 28.7148 15.2792 27.9406 15.5362 27.3829C16.4148 28.7584 17.957 29.6822 19.585 29.7897C20.2922 29.8318 21.1708 29.8115 21.5354 30.4128C20.5274 31.0796 19.2422 30.4128 18.0863 30.0904C16.8432 29.7243 15.4723 29.8115 14.2712 30.3272C14.5937 29.5965 15.301 29.0591 16.0923 28.9937Z" fill="black"/>
<path d="M99.3485 24.8031C99.9498 25.5773 100.592 26.3936 100.655 27.361C100.721 28.3502 99.9498 29.4236 98.9855 29.274C98.4714 29.2086 98.0633 28.8004 97.6987 28.4141C97.0787 27.7692 96.4353 27.0604 96.3715 26.1786C97.099 25.6848 97.8062 25.191 98.5353 24.6956C98.663 24.5881 98.8141 24.5024 98.9855 24.5242C99.135 24.546 99.2425 24.6753 99.3485 24.8031ZM98.3203 28.0278C98.5571 28.3923 99.0914 28.4998 99.4778 28.2848C99.8423 28.0698 99.97 27.5324 99.7566 27.146C99.1568 26.9949 98.4496 27.4249 98.3203 28.048" fill="black"/>
<path d="M99.2628 32.1529C98.6849 33.2917 97.6349 34.1516 96.4354 34.5395C96.2858 34.5816 96.1347 34.6034 95.9851 34.5816C95.7063 34.4959 95.5786 34.1952 95.4711 33.9164C95.172 33.1421 94.8713 32.3679 94.5722 31.5734C95.8356 30.9285 97.314 30.7353 98.663 31.0796C98.9855 31.1653 99.3485 31.3148 99.4139 31.6373C99.4342 31.8305 99.3485 32.0034 99.2628 32.1529ZM97.571 31.3802C96.9494 31.4223 96.7563 32.4333 97.2922 32.734C97.8499 33.0128 98.5571 32.2604 98.2346 31.723C98.0212 31.6155 97.7844 31.4877 97.5492 31.3584" fill="black"/>
<path d="M12.7087 19.5174C12.6869 19.9677 12.2366 20.2901 11.7864 20.3774C11.358 20.4849 10.8876 20.4194 10.4374 20.463C9.79398 20.5269 9.17241 20.7855 8.53059 20.9351C7.39494 21.2155 6.1518 21.0862 5.08002 20.6126C8.53059 19.667 12.0653 19.0221 15.6218 18.6575C14.8289 19.3243 13.7368 19.6467 12.7087 19.5174Z" fill="black"/>
<path d="M5.76704 31.3584C6.2375 30.5203 5.31683 29.5747 4.41641 29.2523C3.51754 28.9298 2.44576 28.7584 1.95349 27.9406C2.23078 27.9203 2.50963 27.8985 2.78848 27.8767C3.988 27.7692 5.3807 27.7474 6.17363 28.6727C6.75158 29.3379 6.81545 30.2835 7.05224 31.1434C7.26566 32.0034 7.88723 32.9271 8.76584 32.8835C8.63654 33.2917 8.03678 33.2714 7.63019 33.1639C6.40886 32.8415 5.12366 32.4536 4.37434 31.4659C3.81664 30.7353 2.85235 30.5203 1.97374 30.3692C3.17326 29.489 5.12366 30.0047 5.76704 31.3584Z" fill="black"/>
<path d="M27.8336 17.8832C32.8684 17.433 37.9454 17.2601 43.0021 17.433C43.5598 17.433 44.2873 17.6044 44.3309 18.1636C42.8307 18.2057 41.3305 18.2493 39.8319 18.2914C38.5669 18.3132 37.2817 18.3568 36.0183 18.3786C33.275 18.4643 30.4896 18.5282 27.8336 17.8832Z" fill="black"/>
<path d="M98.4496 23.278C100.635 22.0099 103.505 22.1174 105.584 23.535C104.77 23.063 103.634 23.4275 103.034 24.1597C102.413 24.8903 102.22 25.878 102.156 26.8454C102.092 27.791 102.134 28.7584 101.92 29.6822C101.534 29.704 101.255 29.274 101.255 28.8861C101.255 28.4998 101.427 28.1352 101.492 27.7473C101.578 27.2753 101.512 26.7815 101.427 26.3079C101.255 25.5337 101.02 24.761 100.528 24.1379C100.035 23.535 99.2207 23.1269 98.4496 23.278ZM101.942 24.8685C102.092 24.2236 102.477 23.6222 103.012 23.2343C102.22 22.8262 101.213 22.848 100.442 23.2562C100.892 23.75 101.363 24.2454 101.813 24.7392" fill="black"/>
<path d="M22.1569 29.6386C21.9855 29.5311 21.8142 29.4455 21.6631 29.338C21.621 28.651 21.5992 27.9406 21.5556 27.2536C21.4917 25.9435 21.3204 24.4386 20.2065 23.7501C19.5849 23.3637 18.792 23.3419 18.0645 23.493C20.3779 22.1175 23.4203 22.0739 25.7555 23.4073C24.4485 22.9992 23.0137 24.0087 22.5199 25.2985C22.0276 26.5869 22.2426 28.006 22.5853 29.338C22.4342 29.4455 22.2846 29.5311 22.1569 29.6386ZM22.3485 23.0195C21.8142 22.8699 21.2347 22.9556 20.7424 23.2344C21.2347 23.7298 21.6413 24.3093 21.8781 24.9543C22.1772 24.2673 22.6912 23.708 23.3128 23.3217C23.0558 23.1067 22.7131 22.9774 22.3485 22.9774" fill="black"/>
<path d="M93.5222 16.7663C91.1871 16.9174 88.8503 17.0249 86.5152 17.1106C84.2875 17.1962 82.0598 17.3037 79.8103 17.3894C81.9959 16.4656 84.4168 16.2943 86.7722 16.165C98.8142 15.5418 110.897 15.6057 122.937 16.3799C116.274 17.5608 109.44 16.207 102.67 16.2506C99.6273 16.2506 96.5647 16.5513 93.5222 16.7663Z" fill="black"/>
<path d="M72.825 26.2222C77.2819 26.1147 81.7389 26.0073 86.1304 26.7161C69.7187 26.7379 53.3289 27.6196 37.0029 29.3597C44.0303 26.9529 51.5935 26.7379 59.0071 26.5665C63.6136 26.459 68.2185 26.3297 72.825 26.2222Z" fill="black"/>
<path d="M44.1596 31.3148C41.3103 31.6155 38.4393 31.6809 35.59 31.508C38.4175 30.9067 41.3306 30.7353 44.2235 30.5624C58.6427 29.7461 73.04 28.9298 87.4592 28.0917C85.487 29.1448 83.1955 29.3379 80.988 29.489C68.862 30.3271 56.7577 31.1871 44.6301 32.0252C44.2671 32.0672 43.8169 32.0454 43.6237 31.723C43.4305 31.4005 44.0521 30.9503 44.1596 31.3148Z" fill="black"/>
<path d="M75.5465 31.8102C79.8306 31.5516 84.1379 31.874 88.316 32.7978C70.3824 32.7121 52.4503 33.0782 34.54 33.8727C39.4036 32.2401 44.6519 32.4972 49.7724 32.5828C55.9647 32.6483 62.1353 32.4115 68.284 31.8304C70.6612 32.3258 73.1257 31.9815 75.5465 31.8102Z" fill="black"/>
<path d="M47.244 18.0779C47.6521 16.9174 45.7656 15.7988 44.9727 16.7444C45.3808 15.6695 44.0956 14.6383 42.9382 14.5744C41.8025 14.5308 40.6451 15.0044 39.5094 14.8751C47.2658 8.96469 56.7358 5.35522 66.4628 4.58098C70.5755 4.28032 74.7115 4.45168 78.8023 4.83958C87.9934 5.67768 97.0787 7.52526 105.862 10.2982C100.956 12.7471 95.2576 12.9402 89.7725 13.0914C76.7896 13.4356 63.8052 13.7784 50.8223 14.1226C49.9016 14.1444 48.9155 14.1881 48.1662 14.7239C47.3951 15.2832 47.0944 16.5077 47.7799 17.1323C48.5292 17.7975 49.9016 17.3676 50.5014 18.1636C49.4296 18.3568 48.3158 18.3132 47.244 18.0779ZM65.7774 10.6409C65.6917 9.35258 66.6544 8.27769 67.5548 7.37571C67.276 8.36337 67.019 9.37284 66.7401 10.3839C66.6342 10.8559 66.8055 11.6083 67.2557 11.4151C67.9412 10.1689 68.4116 8.79333 68.6048 7.37571C69.0332 7.26822 69.3121 6.73077 69.1407 6.30081C68.6905 6.66534 68.0269 6.47217 67.4692 6.34287C66.184 6.06402 64.8551 6.17151 63.5699 6.34287C59.1987 6.92394 54.8929 8.10633 50.8441 9.8246C51.165 10.2546 51.8505 9.99752 52.3225 9.73892C52.7929 9.46007 53.4784 9.24509 53.779 9.6953C53.0718 9.97571 53.05 11.2002 53.7572 11.5008C53.4145 11.5444 53.3927 12.1021 53.6497 12.3389C53.9068 12.5539 54.2931 12.5757 54.6576 12.5539C58.5351 12.4464 62.4343 12.3607 66.3117 12.2532C66.0765 11.7376 65.8194 11.2002 65.7774 10.6409ZM75.1399 6.12789C74.646 6.08583 74.1101 6.04221 73.6615 6.279C73.2331 6.51579 72.9761 7.18098 73.297 7.54707C74.0463 7.97703 74.6679 8.70765 74.8392 9.56756C74.9888 10.4057 74.6258 11.3715 73.8749 11.8015C78.0748 11.7812 82.2731 11.7594 86.473 11.7158C86.6226 10.8356 85.5726 10.2109 85.3156 9.35258C85.1224 8.72945 85.3592 7.95522 84.951 7.46139C84.6301 7.07349 84.116 7.00962 83.6456 6.966C80.8166 6.68715 77.9891 6.4083 75.1399 6.12789ZM103.463 10.792C103.484 10.2764 102.905 9.9539 102.413 9.80279C100.677 9.28715 98.8561 9.15941 97.0787 8.96469C94.7855 8.70765 92.4924 8.27769 90.2647 7.69662C90.394 8.2995 90.5 8.94443 90.8443 9.46007C91.1652 9.99752 91.7431 10.4057 92.3429 10.3839C96.0489 10.1471 99.7768 10.2764 103.463 10.792ZM50.4796 10.6206C50.3082 10.577 50.1369 10.5334 49.9655 10.577C49.7505 10.6206 49.5792 10.7484 49.3875 10.8559C48.9155 11.1363 48.3158 11.1783 47.7581 11.264C46.0226 11.5662 44.4383 12.4464 42.8945 13.3281C44.0099 13.8438 45.2733 13.7784 46.4947 13.6288C48.4232 13.3702 50.3503 12.8982 52.1932 12.2532C52.3863 11.3933 51.3364 10.8559 50.4796 10.6206ZM71.5834 9.15941C72.0974 8.57835 72.2252 7.74024 72.3109 6.966C72.3545 6.73077 72.3747 6.47217 72.2688 6.25719C72.1613 6.04221 71.8404 5.89266 71.669 6.06402C69.9539 7.28847 68.7326 9.15941 68.2839 11.222C69.055 10.7702 69.8043 10.3402 70.5755 9.91028C70.94 9.6953 71.3045 9.48032 71.5834 9.15941ZM87.78 10.2109C88.2941 10.3621 88.9157 10.3621 89.2584 10.7702C89.4516 11.007 89.4936 11.3513 89.665 11.6083C89.8363 11.8451 90.2866 11.9526 90.4143 11.694C89.7289 10.2982 88.9577 8.96469 88.1227 7.67637C87.5448 7.37571 86.8578 7.24641 86.216 7.31028C85.8514 8.47086 86.6008 9.89003 87.78 10.2109ZM72.3747 9.76073C72.032 10.1689 72.5897 10.8356 73.1038 10.7063C73.5961 10.577 73.8531 9.97571 73.7674 9.46007C73.7036 8.94443 73.3608 8.49267 73.0399 8.08452C72.719 8.57835 72.5258 9.17967 72.504 9.78254" fill="#FF0000"/>
</svg>
