<svg width="20" height="13" viewBox="0 0 20 13" fill="none" xmlns="http://www.w3.org/2000/svg">
<path d="M1 1H4.64865L6.59459 9.72727H19" stroke="black" stroke-linecap="round"/>
<ellipse cx="8" cy="11.909" rx="1" ry="1.09091" fill="black"/>
<ellipse cx="18" cy="11.909" rx="1" ry="1.09091" fill="black"/>
<path fill-rule="evenodd" clip-rule="evenodd" d="M11.3397 1H12.6603C13.0711 1 13.4073 1.37693 13.4073 1.83685V2.50178H15.3166C15.5044 2.50178 15.6756 2.58809 15.7994 2.72675C15.923 2.86523 16 3.05694 16 3.26755V7.87059C16 8.0812 15.923 8.27309 15.7994 8.41157C15.6756 8.55023 15.5044 8.63636 15.3166 8.63636H8.68344C8.49531 8.63636 8.32422 8.55023 8.20063 8.41157C8.07703 8.27309 8 8.0812 8 7.87059V3.26755C8 3.05694 8.07703 2.86523 8.20063 2.72675C8.32422 2.58809 8.49531 2.50178 8.68344 2.50178H10.5927V1.83685C10.5927 1.37658 10.9289 1 11.3397 1ZM13.9653 8.34539V2.79293H10.0347V8.34539H13.9653ZM14.3983 2.79293V8.34539H15.3166C15.4328 8.34539 15.5389 8.29182 15.6156 8.20586C15.6923 8.1199 15.7402 8.00102 15.7402 7.87059V3.26755C15.7402 3.1373 15.6923 3.01842 15.6156 2.93246C15.5389 2.8465 15.4328 2.79293 15.3166 2.79293H14.3983ZM9.60172 8.34539V2.79293H8.68344C8.56703 2.79293 8.46094 2.8465 8.38438 2.93246C8.30766 3.01842 8.25969 3.1373 8.25969 3.26755V7.87059C8.25969 8.00102 8.30766 8.1199 8.38438 8.20586C8.46094 8.29182 8.56703 8.34539 8.68344 8.34539H9.60172ZM12.9314 2.50178V1.83493C12.9314 1.67368 12.8133 1.54168 12.6697 1.54168H11.3303C11.1866 1.54168 11.0686 1.67403 11.0686 1.83493V2.50178H12.9314Z" fill="#FF0000"/>
</svg>
