<svg width="16" height="15" viewBox="0 0 16 15" fill="none" xmlns="http://www.w3.org/2000/svg">
<path d="M12.6659 8.11634C12.6306 8.00951 12.5533 7.93759 12.4865 7.89182C12.4174 7.84459 12.338 7.81031 12.2625 7.78535C12.1118 7.73555 11.94 7.71089 11.8055 7.71089C11.6767 7.71089 11.5098 7.73461 11.3634 7.78281C11.29 7.80697 11.2121 7.84038 11.1445 7.88686C11.079 7.93183 11.0019 8.00378 10.9684 8.1117C10.9338 8.22304 10.9146 8.40529 10.9024 8.63227C10.8897 8.86791 10.8835 9.17687 10.8835 9.55778C10.8835 9.93279 10.89 10.2384 10.9028 10.4728C10.9153 10.6996 10.9346 10.8804 10.9674 10.992L10.9678 10.9935C11.0003 11.1013 11.0757 11.1747 11.1416 11.2215C11.2092 11.2696 11.2873 11.3043 11.361 11.3295C11.5079 11.3797 11.6756 11.4047 11.8055 11.4047C11.9397 11.4047 12.1114 11.3804 12.2622 11.3307C12.3379 11.3058 12.4174 11.2716 12.4866 11.2241C12.5538 11.1781 12.6309 11.1059 12.6661 10.9988L12.4523 10.9285L12.6658 10.9997C12.6882 10.9325 12.7032 10.8429 12.7146 10.7506C12.7265 10.654 12.7362 10.5391 12.7438 10.4135C12.759 10.1619 12.7664 9.85911 12.7664 9.55778C12.7664 9.25644 12.759 8.95362 12.7438 8.70207C12.7362 8.57643 12.7265 8.46153 12.7146 8.36499C12.7033 8.2729 12.6883 8.18349 12.6659 8.11634ZM12.6659 8.11634L12.4523 8.18702L12.6658 8.11586C12.6658 8.11602 12.6659 8.11618 12.6659 8.11634ZM2.37705 5.88804L2.37705 5.88804L2.37751 5.88953C2.41103 5.99745 2.48815 6.0694 2.55361 6.11436C2.62129 6.16085 2.69914 6.19425 2.77254 6.21841C2.91897 6.26662 3.08581 6.29033 3.21468 6.29033C3.3488 6.29033 3.52057 6.26608 3.67139 6.21642C3.747 6.19152 3.82659 6.15724 3.89576 6.10981C3.96292 6.06375 4.04006 5.99153 4.07524 5.88442L3.86147 5.81421L4.07508 5.88489C4.11301 5.77027 4.13456 5.58685 4.14838 5.36027C4.16271 5.12535 4.16977 4.81922 4.16977 4.44345C4.16977 4.06827 4.16271 3.76216 4.14838 3.52709C4.13456 3.30041 4.11302 3.11665 4.07508 3.002C4.03974 2.89518 3.96246 2.82326 3.8956 2.77749C3.82659 2.73025 3.74716 2.69598 3.67162 2.67101C3.52097 2.62122 3.34915 2.59656 3.21468 2.59656C3.08508 2.59656 2.9175 2.62112 2.77039 2.67119C2.69657 2.69632 2.61838 2.73105 2.55055 2.77932C2.48438 2.82641 2.40918 2.90007 2.37683 3.00817L2.59239 3.07268L2.37696 3.00774C2.34303 3.12029 2.32381 3.30173 2.31152 3.52813C2.2988 3.7624 2.29266 4.068 2.29266 4.44345C2.29266 4.82452 2.29911 5.13348 2.31198 5.3691C2.3244 5.59646 2.34361 5.77767 2.37705 5.88804ZM11.8055 12.775H11.8055C10.8009 12.7753 10.0611 12.3747 9.56836 11.7809C9.07133 11.182 8.81677 10.3745 8.81677 9.55763C8.81677 8.74077 9.07133 7.93318 9.56838 7.33405C10.0611 6.74015 10.801 6.33933 11.8055 6.33933C12.822 6.33933 13.5703 6.74079 14.0682 7.33476C14.5704 7.93381 14.8274 8.74096 14.8274 9.55717C14.8274 10.3734 14.5704 11.1805 14.0682 11.7796C13.5703 12.3735 12.822 12.775 11.8055 12.775ZM3.21468 1.225C4.23115 1.225 4.97946 1.62646 5.47738 2.22043C5.97955 2.81948 6.23652 3.62663 6.23652 4.44283C6.23652 5.25904 5.97955 6.06619 5.47738 6.66524C4.97946 7.25921 4.23115 7.66067 3.21468 7.66067C2.20977 7.66067 1.46966 7.2599 0.976805 6.66608C0.479617 6.06705 0.225 5.25959 0.225 4.44283C0.225 3.62607 0.479617 2.81862 0.976805 2.21958C1.46966 1.62577 2.20977 1.225 3.21468 1.225Z" stroke="black" stroke-width="0.45"/>
<path d="M10.5 1.5L4.5 13.5" stroke="#FF0000" stroke-width="2" stroke-linecap="round"/>
</svg>
