<svg width="19" height="14" viewBox="0 0 19 14" fill="none" xmlns="http://www.w3.org/2000/svg">
<path d="M13 9.5V2C13 1.44772 12.5523 1 12 1H6C5.44772 1 5 1.44772 5 2V8" stroke="black" stroke-width="0.45"/>
<mask id="mask0_67_642" style="mask-type:luminance" maskUnits="userSpaceOnUse" x="2" y="11" width="3" height="3">
<path d="M2.28577 11.0474H4.98564V13.6778H2.28577V11.0474Z" fill="white"/>
</mask>
<g mask="url(#mask0_67_642)">
<path d="M2.69705 12.4212C2.69705 11.8745 3.14156 11.4298 3.69191 11.4298C4.24325 11.4298 4.68765 11.8746 4.68765 12.4212C4.68765 12.967 4.24314 13.4125 3.69191 13.4125C3.14166 13.4125 2.69705 12.9671 2.69705 12.4212Z" stroke="#FF0000" stroke-width="0.45"/>
</g>
<mask id="mask1_67_642" style="mask-type:luminance" maskUnits="userSpaceOnUse" x="0" y="7" width="19" height="6">
<path d="M0 7.22168H18.3929V12.6214H0V7.22168Z" fill="white"/>
</mask>
<g mask="url(#mask1_67_642)">
<path d="M7.4406 9.2273V9.44125L7.65428 9.45201C9.28016 9.53392 10.8359 9.57089 11.9227 9.58849L12.0339 9.16588L10.2026 8.16947C10.2022 8.16927 10.2018 8.16907 10.2015 8.16886C9.93972 8.02351 9.00292 7.68588 7.67333 7.64019L7.4406 7.63219V7.86506V9.2273ZM7.04334 9.41856L7.28067 9.43159V9.1939V7.86242V7.63363L7.05191 7.63745C5.40976 7.66493 4.95711 7.91522 4.75302 8.04172L3.55782 8.72431L2.96414 9.06337L3.64315 9.14316C4.68927 9.26607 5.87203 9.35427 7.04334 9.41856ZM18.0445 11.3523L18.0488 11.3662L18.0549 11.3794C18.1348 11.5537 18.1229 11.7535 18.019 11.9211L18.0187 11.9216C17.9131 12.0929 17.7301 12.1952 17.5265 12.1952H16.4094C16.2968 11.1697 15.4234 10.3707 14.3669 10.3707C13.3097 10.3707 12.4362 11.1697 12.3235 12.1952H5.73389C5.62124 11.1697 4.7477 10.3707 3.6905 10.3707C2.63406 10.3707 1.76063 11.1697 1.64799 12.1952H1.2622C0.959592 12.1952 0.641961 12.044 0.442575 11.8032C0.282266 11.609 0.227898 11.394 0.267968 11.193L0.5752 9.96936L0.57547 9.96943L0.577655 9.95844C0.642514 9.63215 0.771197 9.39236 0.93625 9.23591C1.09862 9.082 1.30898 8.99617 1.56717 8.99617H2.53743C2.68524 8.99617 2.8306 8.95971 2.96065 8.88452C2.96088 8.88439 2.96112 8.88425 2.96136 8.88411L4.65625 7.91724L4.65636 7.91743L4.66474 7.91214L4.66743 7.91045C4.7661 7.84824 4.93205 7.74361 5.31624 7.6517C5.71128 7.5572 6.33988 7.47573 7.36064 7.47573C8.93065 7.47573 10.0155 7.8872 10.2785 8.02951C10.2786 8.02952 10.2786 8.02953 10.2786 8.02954L13.1121 9.56993C13.1646 9.60189 13.2179 9.61193 13.2437 9.61622L13.2437 9.61624L13.2465 9.61667L17.1266 10.2134C17.532 10.2759 17.7219 10.4128 17.7955 10.5595L17.7954 10.5596L17.8 10.5679L17.8022 10.5723L17.8031 10.5746L18.0445 11.3523Z" stroke="#FF0000" stroke-width="0.45"/>
</g>
<mask id="mask2_67_642" style="mask-type:luminance" maskUnits="userSpaceOnUse" x="13" y="11" width="3" height="3">
<path d="M13.0851 11.0474H15.785V13.6778H13.0851V11.0474Z" fill="white"/>
</mask>
<g mask="url(#mask2_67_642)">
<path d="M13.3725 12.4214C13.3725 11.8749 13.8169 11.4301 14.3682 11.4301C14.9186 11.4301 15.3631 11.8748 15.3631 12.4214C15.3631 12.9673 14.9184 13.4128 14.3682 13.4128C13.817 13.4128 13.3725 12.9672 13.3725 12.4214Z" stroke="#FF0000" stroke-width="0.45"/>
</g>
<rect x="6.075" y="2.075" width="1.85" height="3.85" stroke="black" stroke-width="0.15"/>
<rect x="10.075" y="2.075" width="1.85" height="3.85" stroke="black" stroke-width="0.15"/>
<path d="M9 1V7" stroke="black" stroke-width="0.45" stroke-linecap="round"/>
</svg>
