<svg width="18" height="16" viewBox="0 0 18 16" fill="none" xmlns="http://www.w3.org/2000/svg">
<g clip-path="url(#clip0_16_3815)">
<path d="M15.3864 3.17731L15.398 3.16326L12.0915 0.484996L11.0499 1.76956L12.7586 3.15334C12.3346 3.41091 11.9981 3.79004 11.7926 4.24145C11.5871 4.69286 11.5222 5.19566 11.6062 5.68446C11.7302 6.42759 12.2419 7.06989 12.9041 7.42947C13.6439 7.83203 14.2928 7.79484 14.8697 7.58983L14.8573 12.7C14.8584 12.8369 14.8252 12.9718 14.7609 13.0927C14.6967 13.2135 14.6032 13.3165 14.4891 13.3921C14.3751 13.4677 14.244 13.5138 14.1077 13.5261C13.9712 13.5383 13.8341 13.5163 13.7083 13.4621C13.6098 13.4201 13.5206 13.3591 13.4455 13.2827C13.3691 13.2062 13.3085 13.1153 13.2672 13.0154C13.226 12.9154 13.2047 12.8082 13.205 12.7L13.224 11.0468C13.2248 10.7214 13.1612 10.3991 13.0367 10.0984C12.9123 9.79779 12.7295 9.52478 12.499 9.29515C12.2688 9.06436 11.9952 8.88125 11.694 8.75629C11.3929 8.63132 11.0701 8.56697 10.7441 8.56689H9.91745V1.95391C9.91745 1.51543 9.74327 1.09493 9.43323 0.784884C9.12318 0.47484 8.70267 0.300659 8.2642 0.300659H2.47784C2.03936 0.300659 1.61885 0.47484 1.30881 0.784884C0.998767 1.09493 0.824585 1.51543 0.824585 1.95391V13.5267C0.824585 13.9651 0.998767 14.3856 1.30881 14.6957C1.61885 15.0057 2.03936 15.1799 2.47784 15.1799H8.2642C8.70267 15.1799 9.12318 15.0057 9.43323 14.6957C9.74327 14.3856 9.91745 13.9651 9.91745 13.5267V10.2201H10.7441C10.8565 10.2201 10.9648 10.2425 11.0673 10.2846C11.264 10.3708 11.4208 10.5282 11.5062 10.7252C11.5491 10.827 11.571 10.9363 11.5707 11.0468L11.5509 12.7C11.5509 13.0357 11.6162 13.3604 11.7459 13.6655C11.8708 13.9622 12.0501 14.2277 12.2758 14.4516C12.5052 14.6835 12.7786 14.8674 13.0799 14.9924C13.3813 15.1175 13.7045 15.1812 14.0307 15.1799C14.3663 15.1799 14.6904 15.1154 14.9963 14.9849C15.2921 14.8608 15.5583 14.6815 15.7823 14.4549C16.0138 14.2252 16.1973 13.9517 16.3223 13.6505C16.4473 13.3492 16.5114 13.0261 16.5106 12.7L16.5304 5.26041C16.5296 4.84512 16.4245 4.43671 16.2245 4.07272C16.0246 3.70872 15.7364 3.40081 15.3864 3.17731ZM8.2642 4.43378H2.47784V1.95391H8.2642V4.43378ZM14.0506 6.08702C13.8314 6.08702 13.6211 5.99994 13.466 5.84491C13.3111 5.68989 13.224 5.47964 13.224 5.26041C13.224 5.04116 13.3111 4.83091 13.466 4.67589C13.6211 4.52087 13.8314 4.43378 14.0506 4.43378C14.2697 4.43378 14.4801 4.52087 14.6351 4.67589C14.7901 4.83091 14.8771 5.04116 14.8771 5.26041C14.8771 5.47964 14.7901 5.68989 14.6351 5.84491C14.4801 5.99994 14.2697 6.08702 14.0506 6.08702Z" fill="#FF0000"/>
</g>
<defs>
<clipPath id="clip0_16_3815">
<rect width="16.7097" height="15.5161" fill="white" transform="translate(0.322632 0.19751)"/>
</clipPath>
</defs>
</svg>
