<svg width="9" height="9" viewBox="0 0 9 9" fill="none" xmlns="http://www.w3.org/2000/svg">
<path d="M4.59301 2.61057L1 6.20352V8H2.7965L6.38951 4.40704M4.59301 2.61057L5.88137 1.3222L5.88218 1.32143C6.05949 1.14408 6.14833 1.05525 6.25073 1.02198C6.34096 0.992673 6.4381 0.992673 6.52833 1.02198C6.63064 1.05523 6.71939 1.14396 6.89648 1.32106L7.67787 2.10243C7.85572 2.2803 7.9447 2.36927 7.97802 2.47181C8.00735 2.56201 8.0073 2.65918 7.97802 2.74938C7.94474 2.85185 7.8559 2.94069 7.67827 3.1183L7.67787 3.11868L6.38951 4.40704M4.59301 2.61057L6.38951 4.40704" stroke="#FF0000" stroke-linecap="round" stroke-linejoin="round"/>
</svg>
