<svg width="24" height="20" viewBox="0 0 24 20" fill="none" xmlns="http://www.w3.org/2000/svg">
<path d="M6.17729 0.607328C5.79834 0.673497 5.48472 0.876411 5.023 1.34841C4.64842 1.7366 4.60485 1.79835 4.60485 1.94392C4.60485 2.15566 4.72682 2.27917 4.93589 2.27917C5.07963 2.27917 5.14061 2.23506 5.51521 1.86452C5.95514 1.43222 6.05097 1.36164 6.30361 1.3043C6.56931 1.24254 6.81323 1.33518 7.27494 1.67043L7.70616 1.98363L5.0143 4.70975C3.53334 6.20955 2.30936 7.42263 2.29193 7.40499C2.17868 7.27707 1.76924 6.68597 1.71261 6.57128C1.61679 6.38159 1.6255 6.00664 1.72568 5.78607C1.77796 5.67139 2.25708 5.15528 3.07598 4.33038C4.26075 3.13495 4.34351 3.04232 4.34351 2.89674C4.34351 2.65413 4.24332 2.54385 4.02553 2.54385C3.84259 2.54385 3.83388 2.54826 2.52714 3.87603C0.95471 5.4773 0.967777 5.45965 0.967777 6.18309C0.967777 6.63744 0.976489 6.68597 1.09845 6.91976C1.1725 7.0565 1.59066 7.66525 2.03495 8.274C2.88432 9.43855 2.95837 9.51354 3.20229 9.4209C3.26762 9.39444 3.43315 9.26211 3.57253 9.12535L3.82081 8.87392L3.98198 9.03713L4.14314 9.20035L3.91664 9.43855C3.06727 10.3517 2.7188 11.6926 3.01935 12.9101C3.12389 13.3381 3.47235 14.035 3.75547 14.3791C4.21283 14.9305 4.94024 15.4069 5.57619 15.5745C5.71993 15.6099 5.83754 15.6451 5.8419 15.6539C5.84624 15.6627 5.89416 15.8039 5.94643 15.976C5.9987 16.1435 6.11631 16.4126 6.20343 16.567C6.42992 16.9509 6.94827 17.4361 7.34028 17.6301L7.6539 17.7846V18.4683C7.6539 19.0991 7.66261 19.1696 7.75844 19.3814C7.99365 19.8886 8.61653 20.0872 9.11744 19.8225C9.25247 19.7519 9.57044 19.4123 9.57044 19.3417C9.57044 19.324 9.66191 19.3064 9.77952 19.3064C9.97553 19.3064 9.99295 19.3152 10.1367 19.5137C10.3501 19.8049 10.5941 19.9328 10.9382 19.9328C11.3215 19.9372 11.6569 19.7431 11.818 19.4255C11.8747 19.3196 11.9051 19.3064 12.0968 19.3064C12.2885 19.3064 12.3189 19.3196 12.3756 19.4255C12.5367 19.7431 12.8721 19.9328 13.2555 19.9328C13.5996 19.9372 13.8434 19.8049 14.0569 19.5137C14.2006 19.3196 14.218 19.3064 14.414 19.3064C14.584 19.3064 14.6275 19.324 14.6711 19.4079C15.0369 20.1269 16.0997 20.1092 16.4351 19.3814C16.5397 19.152 16.5397 19.1388 16.5397 17.7625V16.3685L16.8402 16.2935C17.1407 16.2141 17.5545 15.9936 17.7593 15.8039C17.8333 15.7333 17.9466 15.6936 18.1077 15.6716C18.5041 15.6275 18.8483 15.5215 19.2664 15.3098C19.7325 15.0805 19.824 14.9923 19.824 14.7805C19.824 14.4674 19.5452 14.3438 19.2403 14.5202C18.9833 14.6702 18.6915 14.8069 18.5477 14.8511L18.4301 14.8819L18.5215 14.538C18.6086 14.1939 18.6086 14.1939 18.87 14.0218C19.7979 13.4131 20.1985 12.2794 19.85 11.2295C19.7456 10.9163 19.4319 10.4134 19.2403 10.2502L19.1183 10.1443L19.3361 9.92819L19.5539 9.71205L19.8153 9.99877C20.1463 10.3605 20.4251 10.934 20.5296 11.4545C20.6559 12.1029 20.5426 12.8175 20.216 13.4307C20.0417 13.7571 20.0243 13.9688 20.1637 14.1012C20.3945 14.3173 20.6472 14.1717 20.8867 13.6821C21.5793 12.2573 21.3398 10.5811 20.2769 9.43855L20.0504 9.20035L20.2116 9.03713L20.3728 8.87392L20.621 9.12535C20.7604 9.26211 20.926 9.39444 20.9913 9.4209C21.2352 9.51354 21.3092 9.43855 22.1586 8.274C22.603 7.66525 23.0255 7.0521 23.0952 6.91534C23.2171 6.68597 23.2258 6.63744 23.2258 6.18309C23.2258 5.73755 23.2171 5.68021 23.1038 5.45523C22.9209 5.10234 18.857 0.973458 18.4998 0.783776C18.0599 0.545572 17.498 0.523515 17.0537 0.726431C16.7792 0.849945 14.6144 2.48209 14.5447 2.61443C14.4533 2.78646 14.5143 2.92321 14.8104 3.2364L15.0762 3.51872L13.9698 4.63917L12.8591 5.76402H12.0968H11.3345L10.2238 4.63917L9.11744 3.51872L9.38314 3.2364C9.67933 2.92321 9.74031 2.78646 9.64884 2.61443C9.56608 2.45562 7.33592 0.801421 7.06586 0.695552C6.78274 0.589684 6.46913 0.558805 6.17729 0.607328ZM18.1513 1.40134C18.3822 1.52045 22.4026 5.61846 22.4853 5.81696C22.5724 6.0331 22.5681 6.39483 22.481 6.57128C22.4243 6.68597 22.0149 7.27707 21.9017 7.40499C21.8842 7.42263 20.6603 6.20955 19.1793 4.70975L16.4874 1.98363L16.9186 1.66602C17.4892 1.25577 17.7593 1.19843 18.1513 1.40134ZM8.72106 2.74676C8.80383 2.80851 8.66444 2.95409 5.97257 5.68021L3.13696 8.5519L2.93659 8.29605L2.73622 8.03579L5.5065 5.22586L8.28113 2.41592L8.45536 2.54826C8.55554 2.61884 8.67315 2.70706 8.72106 2.74676ZM21.2569 8.29164L21.0567 8.5519L18.2341 5.69344C16.6791 4.11864 15.4072 2.82175 15.4072 2.80851C15.4116 2.79529 15.5204 2.70264 15.6598 2.60119L15.9081 2.41592L18.6828 5.22144L21.4573 8.02697L21.2569 8.29164ZM9.64884 5.07146L10.6594 6.09486L8.51199 8.26958L6.36894 10.4399L5.34534 9.40326L4.32173 8.36663L4.54823 8.13724L4.77908 7.90787L5.27129 8.3975C5.82012 8.9489 6.02048 9.06801 6.38201 9.07242C6.93955 9.07242 7.34899 8.66659 7.34899 8.10195C7.34899 7.727 7.23139 7.5285 6.68691 6.96828L6.19907 6.46981L6.47784 6.18309L6.76097 5.89636L7.28366 6.4257C7.84555 6.99034 7.998 7.08739 8.35082 7.08739C8.72977 7.08739 9.07824 6.87123 9.22633 6.53599C9.32652 6.31983 9.33523 5.90959 9.24376 5.68904C9.20455 5.60081 8.95192 5.29643 8.66879 5.0053L8.15916 4.48477L8.3726 4.26422C8.49021 4.1407 8.5991 4.04365 8.61217 4.04365C8.62523 4.04365 9.0913 4.50683 9.64884 5.07146ZM15.8209 4.26422L16.0345 4.48477L15.5248 5.0053C15.2416 5.29643 14.9891 5.60081 14.9498 5.68904C14.8584 5.90959 14.8671 6.31983 14.9672 6.53599C15.1153 6.87123 15.4638 7.08739 15.8428 7.08739C16.1956 7.08739 16.348 6.99034 16.9099 6.4257L17.4327 5.89636L17.7158 6.18309L17.9946 6.46981L17.5111 6.96387C16.9535 7.54174 16.8446 7.7226 16.8446 8.08873C16.8489 8.66659 17.2453 9.07242 17.8116 9.07242C18.1687 9.06801 18.3648 8.9489 18.918 8.40192L19.4188 7.90787L19.6453 8.13724L19.8719 8.36663L18.8483 9.40326L17.8246 10.4399L15.6815 8.26958L13.5342 6.09486L14.5447 5.07146C15.1023 4.50683 15.5684 4.04365 15.5814 4.04365C15.5945 4.04365 15.7034 4.1407 15.8209 4.26422ZM8.1461 5.49494C8.53812 5.89194 8.61217 5.99341 8.61217 6.1081C8.61217 6.25807 8.48585 6.38159 8.32905 6.38159C8.27677 6.38159 8.05028 6.18749 7.75408 5.88754L7.26188 5.39348L7.44482 5.2038C7.545 5.09793 7.64083 5.01412 7.6539 5.01412C7.66697 5.01412 7.88911 5.23027 8.1461 5.49494ZM16.7488 5.2038L16.9317 5.39348L16.4395 5.88754C16.1433 6.18749 15.9168 6.38159 15.8645 6.38159C15.7077 6.38159 15.5814 6.25807 15.5814 6.1081C15.5814 5.99341 15.6555 5.89194 16.0475 5.49494C16.3044 5.23027 16.5267 5.01412 16.5397 5.01412C16.5528 5.01412 16.6485 5.09793 16.7488 5.2038ZM15.1546 8.7504L17.4108 11.0354L17.302 11.3662C17.2453 11.5471 17.1756 11.6926 17.1539 11.6838C17.1277 11.6794 16.2086 11.0178 15.111 10.2149C14.0177 9.40767 12.9941 8.68865 12.8373 8.61366C12.5759 8.48573 12.5193 8.47691 12.0924 8.47691C11.6482 8.47691 11.622 8.48132 11.2997 8.64453C10.9861 8.80334 10.838 8.93568 9.13051 10.6296C8.11997 11.6309 7.28366 12.4514 7.26623 12.4602C7.24881 12.4646 7.13121 12.1471 7.00924 11.7544L6.78274 11.0354L9.03904 8.7504L11.291 6.46981H12.0968H12.9027L15.1546 8.7504ZM6.186 7.47998C6.68691 7.99168 6.73919 8.10195 6.56496 8.2784C6.40378 8.44163 6.31231 8.3931 5.79398 7.87258L5.30177 7.37852L5.48472 7.18884C5.5849 7.08297 5.68073 6.99916 5.6938 6.99916C5.70686 6.99916 5.92901 7.21531 6.186 7.47998ZM18.7089 7.18884L18.8919 7.37852L18.3996 7.87258C18.1034 8.17253 17.8769 8.36663 17.8246 8.36663C17.6678 8.36663 17.5415 8.24311 17.5415 8.09313C17.5415 7.97845 17.6155 7.87699 18.0076 7.47998C18.2646 7.21531 18.4868 6.99916 18.4998 6.99916C18.5128 6.99916 18.6086 7.08297 18.7089 7.18884ZM12.602 9.28416C12.9723 9.47384 13.2729 9.95466 13.2729 10.3517C13.2729 10.8148 12.8851 11.3398 12.4453 11.4721C12.1534 11.5603 12.0401 11.5603 11.7483 11.4721C11.2953 11.3354 10.9207 10.8148 10.9207 10.3252C10.9207 9.86643 11.3171 9.35474 11.7876 9.20035C11.9705 9.13859 12.4105 9.18711 12.602 9.28416ZM4.87491 9.94143L5.07963 10.1443L4.97074 10.2282C4.78344 10.3826 4.46546 10.8766 4.35658 11.1942C4.04731 12.1029 4.27382 13.069 4.94896 13.7174C5.22337 13.9777 5.71558 14.2777 5.86803 14.2777C5.90288 14.2777 5.91159 14.3129 5.89416 14.3747C5.87674 14.432 5.85497 14.5732 5.83754 14.6879C5.8114 14.8908 5.80705 14.8997 5.69815 14.8731C5.48473 14.8203 5.04914 14.5864 4.78344 14.3835C3.90358 13.7174 3.45057 12.5308 3.664 11.4545C3.76419 10.9472 4.04731 10.3649 4.36529 10.0076C4.50031 9.85761 4.62663 9.73411 4.6397 9.73411C4.65276 9.73411 4.76166 9.82674 4.87491 9.94143ZM14.8975 10.9472L15.7425 11.5647L15.564 11.6133C14.9846 11.772 14.7755 11.9397 12.968 13.7439L11.4216 15.2834L11.3955 14.8819C11.3432 14.1585 11.0993 13.6159 10.5984 13.1042C10.1149 12.619 9.62271 12.3764 8.904 12.2794L8.5207 12.2265L9.37443 11.3971C9.86663 10.9119 10.2325 10.5899 10.2412 10.6252C10.2499 10.656 10.2804 10.7707 10.3109 10.881C10.4372 11.3662 10.838 11.847 11.291 12.0544C12.4453 12.5926 13.7433 11.8868 13.9392 10.6163C13.9654 10.4487 14.0002 10.312 14.0177 10.3164C14.0351 10.3252 14.4315 10.6075 14.8975 10.9472ZM6.36894 12.0588C6.52575 12.5528 6.65207 12.9807 6.65207 13.0116C6.65207 13.0469 6.60851 13.1086 6.5606 13.1572C6.50832 13.2014 6.40814 13.3248 6.33845 13.4263C6.26876 13.5321 6.18165 13.6159 6.14244 13.6159C5.9987 13.6159 5.55006 13.3248 5.34534 13.0998C5.04914 12.7735 4.93589 12.4602 4.93589 11.9838C4.93153 11.653 4.94896 11.5736 5.07092 11.3133C5.14497 11.1545 5.2887 10.9384 5.3889 10.8369L5.57184 10.6516L5.82883 10.9075L6.08146 11.1677L6.36894 12.0588ZM18.8962 10.934C19.4275 11.6177 19.3971 12.5 18.8177 13.1352C18.6828 13.2807 18.5608 13.3821 18.5434 13.3645C18.5259 13.3469 18.4781 13.2278 18.4345 13.1086C18.3387 12.8351 18.2254 12.6455 17.9902 12.3544L17.8116 12.1249L17.9597 11.6486C18.099 11.2074 18.1296 11.1501 18.3561 10.9163C18.5825 10.6825 18.6043 10.6693 18.6915 10.7266C18.7437 10.7619 18.8352 10.8545 18.8962 10.934ZM16.8969 12.4117C17.2671 12.5882 17.5545 12.8793 17.7288 13.2542C17.8552 13.5189 17.8682 13.5895 17.8682 13.9468C17.8639 14.4938 17.7506 14.7805 17.3934 15.1378C16.8446 15.6936 16.1694 15.826 15.5117 15.5171C14.4794 15.0275 14.1789 13.7616 14.8888 12.8705C15.0588 12.6499 15.2809 12.4956 15.6119 12.3544C15.8254 12.2617 15.9212 12.2485 16.2347 12.2573C16.5441 12.2705 16.6529 12.2926 16.8969 12.4117ZM9.28296 13.0866C10.1454 13.3866 10.7029 14.1851 10.7029 15.1158C10.7029 16.073 10.0496 16.9199 9.11308 17.167C8.2637 17.3875 7.31851 16.9993 6.83066 16.2229C6.59544 15.8524 6.51268 15.5039 6.53011 15.0055C6.54317 14.604 6.5606 14.5334 6.70869 14.2203C6.99617 13.6071 7.5755 13.1308 8.19837 13.0028C8.49892 12.9411 8.9737 12.9763 9.28296 13.0866ZM13.9262 14.7452C14.0221 15.0364 14.2137 15.3716 14.3966 15.5657L14.5099 15.6892L13.2685 15.6848H12.0314L12.9027 14.8291L13.7738 13.9733L13.8043 14.2247C13.8217 14.3614 13.8784 14.5952 13.9262 14.7452ZM12.2711 17.4978V18.6006H12.0968H11.9226V17.4978V16.395H12.0968H12.2711V17.4978ZM13.5342 17.714C13.5342 18.9183 13.5255 19.0417 13.4558 19.13C13.36 19.249 13.1726 19.2578 13.0551 19.152C12.9723 19.077 12.968 19.0065 12.968 17.7316V16.395H13.2511H13.5342V17.714ZM14.536 17.4978V18.6006H14.3836H14.2312V17.4978V16.395H14.3836H14.536V17.4978ZM15.8428 17.714C15.8428 18.9049 15.8341 19.0417 15.7687 19.1211C15.6337 19.28 15.5074 19.2844 15.3636 19.1344L15.2329 19.0065V17.7007V16.395H15.5378H15.8428V17.714ZM11.1429 19.1432C11.0383 19.249 10.8554 19.2534 10.7465 19.152C10.6637 19.077 10.6594 19.0109 10.6594 18.0669V17.0655L10.9338 16.8009L11.2039 16.5318L11.2169 17.7978C11.2256 18.9932 11.2213 19.0638 11.1429 19.1432ZM9.96246 18.0933V18.6006H9.81001H9.65755V18.1683V17.736L9.8013 17.6611C9.87535 17.6257 9.94504 17.5905 9.95375 17.5905C9.9581 17.5861 9.96246 17.8154 9.96246 18.0933ZM8.96063 18.4727V19.0065L8.82996 19.1344C8.68622 19.2844 8.5599 19.28 8.42923 19.1211C8.36389 19.0461 8.35082 18.9447 8.35082 18.4859V17.939H8.65573H8.96063V18.4727Z" fill="#FF0000"/>
</svg>
