<svg width="27" height="27" viewBox="0 0 27 27" fill="none" xmlns="http://www.w3.org/2000/svg">
<path d="M26.474 13.1178C26.4736 10.6182 25.7589 8.17102 24.4145 6.066C23.0701 3.96099 21.1523 2.28629 18.8882 1.24017C16.6241 0.194054 14.1085 -0.17968 11.6391 0.163217C9.16971 0.506114 6.85003 1.55128 4.95466 3.17499C3.05929 4.79869 1.66761 6.93294 0.944363 9.32507C0.22112 11.7172 0.196605 14.267 0.87372 16.6727C1.55084 19.0783 2.90123 21.2391 4.76502 22.8991C6.62882 24.5592 8.92797 25.649 11.3903 26.0396L11.3903 16.8989H8.07841V13.1178L11.3903 13.1178L11.3903 10.2361C11.3903 6.95781 13.3381 5.147 16.3174 5.147C17.2958 5.16061 18.2719 5.24586 19.2379 5.40207L19.2379 8.62146L17.5925 8.62146C17.3122 8.58412 17.027 8.61053 16.7582 8.69872C16.4894 8.78691 16.2438 8.93462 16.0396 9.13091C15.8355 9.3272 15.678 9.56703 15.5789 9.83264C15.4798 10.0982 15.4415 10.3828 15.467 10.6653L15.467 13.1178L19.0854 13.1178L18.5065 16.8989H15.467L15.467 26.0396C18.5357 25.5528 21.3304 23.9838 23.3483 21.615C25.3661 19.2462 26.4744 16.2331 26.474 13.1178Z" fill="black"/>
</svg>
