<svg xmlns="http://www.w3.org/2000/svg" width="14" height="14.57" viewBox="0 0 14 14.57">
    <g data-name="Group 6857">
        <g data-name="Group 6706">
            <g data-name="Group 6604">
                <path d="M4.772 8.043a2.2 2.2 0 0 0-2.065 1.523H0v1.524h2.707a2.2 2.2 0 0 0 2.065 1.523 2.2 2.2 0 0 0 2.065-1.523H14V9.566H6.837a2.2 2.2 0 0 0-2.065-1.523zm0 3.337a1.053 1.053 0 1 1 1.039-1.052 1.047 1.047 0 0 1-1.039 1.052zm6.959-6.857a2.162 2.162 0 0 0-4.131 0H0v1.524h7.6a2.161 2.161 0 0 0 4.13 0H14V4.523h-2.27zM9.666 6.338A1.053 1.053 0 1 1 10.7 5.285a1.048 1.048 0 0 1-1.034 1.053z" transform="translate(0 -3)" style="fill:#51606e"/>
            </g>
        </g>
    </g>
</svg>
