<svg width="17" height="18" viewBox="0 0 17 18" fill="none" xmlns="http://www.w3.org/2000/svg">
<path d="M14.5131 2.95947C14.5527 2.97851 14.5878 3.00342 14.6215 3.03565C14.6303 3.04444 14.6376 3.05323 14.645 3.06202C15.0684 3.39753 15.4918 3.77698 15.7994 4.23409C16.1393 4.73954 16.3283 5.32411 16.2141 6.01709C16.1657 6.30718 16.0558 6.56064 15.8888 6.7848C15.7687 6.94449 15.6222 7.08514 15.4493 7.2082C15.4405 7.43236 15.4376 7.65212 15.4376 7.87042C15.439 8.15025 15.4478 8.43887 15.4639 8.73482C15.5006 9.42927 15.6046 10.1296 15.7086 10.824C15.82 11.5712 15.9313 12.3126 15.9606 13.0846C16.0002 14.0736 15.883 14.8867 15.5562 15.461C15.1929 16.1027 14.6025 16.4455 13.7322 16.4148C12.6935 16.3957 12.0547 15.8126 11.7661 14.7358C11.5141 13.7937 11.5522 12.4488 11.8379 10.7566C11.8291 9.41608 11.6547 8.40078 11.309 7.71659C11.0833 7.26974 10.7771 6.97379 10.3904 6.83314V15.6105C10.5164 15.6705 10.6306 15.7526 10.7273 15.8507C10.95 16.0734 11.0892 16.3825 11.0892 16.7224V17.5986C11.0892 17.8198 10.909 18 10.6878 18H0.401433C0.180205 18 0 17.8198 0 17.5986V16.7224C0 16.3825 0.139183 16.0749 0.361875 15.8507C0.430734 15.7819 0.508384 15.7203 0.591893 15.6691V2.1273C0.591893 1.54127 0.830702 1.00944 1.21602 0.624125C1.60134 0.238808 2.13316 0 2.71919 0H8.25427C8.84177 0 9.37653 0.240273 9.76331 0.627055C10.1501 1.01384 10.3904 1.54859 10.3904 2.13755V5.99951C11.1024 6.15481 11.6459 6.61045 12.0239 7.35764C12.4298 8.15904 12.6319 9.30767 12.6378 10.7947C12.6378 10.8182 12.6363 10.8416 12.6319 10.8636H12.6334C12.3624 12.4561 12.3184 13.6985 12.5411 14.5292C12.7272 15.2281 13.1198 15.6061 13.7483 15.6148H13.7557C14.2919 15.6324 14.6479 15.4361 14.8574 15.0654C15.105 14.6288 15.1914 13.9593 15.1577 13.1154C15.1299 12.4005 15.02 11.6723 14.9116 10.9398C14.8061 10.2336 14.7006 9.52157 14.6611 8.77438C14.645 8.4799 14.6362 8.17955 14.6347 7.86896C14.6332 7.62282 14.6376 7.37962 14.6479 7.14081C13.8992 6.48445 13.4436 5.8281 13.3029 5.17467C13.1696 4.55494 13.3103 3.96012 13.7425 3.39167C13.4128 3.16604 13.0773 2.98144 12.7374 2.83347C12.273 2.63129 11.7954 2.49503 11.309 2.41592C11.0907 2.38076 10.9427 2.17418 10.9779 1.95588C11.013 1.73759 11.2196 1.58961 11.4379 1.62478C11.9888 1.71415 12.5294 1.86798 13.0583 2.098C13.5579 2.31776 14.0428 2.60052 14.5131 2.95947ZM9.5875 6.48006C9.56992 6.43025 9.56113 6.3775 9.56552 6.32183C9.56845 6.28227 9.57578 6.24565 9.5875 6.21048V2.13755C9.5875 1.77128 9.43659 1.43725 9.19486 1.19551C8.95312 0.953768 8.61908 0.802865 8.25281 0.802865H2.71919C2.35585 0.802865 2.02474 0.952303 1.78447 1.19258C1.5442 1.43285 1.39476 1.76396 1.39476 2.1273V15.4918H9.5875V6.48006ZM10.0241 16.3298C10.0124 16.3313 10.0021 16.3313 9.9904 16.3313H1.06365C1.01384 16.3532 0.968419 16.384 0.930327 16.4221C0.852678 16.4998 0.80433 16.6067 0.80433 16.7254V17.2001H10.2878V16.7254C10.2878 16.6082 10.2395 16.5012 10.1618 16.4221C10.1223 16.3825 10.0754 16.3518 10.0241 16.3298ZM14.3798 3.88247C14.1 4.25753 14.0062 4.63259 14.0882 5.01058C14.1864 5.46769 14.5278 5.95409 15.0962 6.46834C15.1533 6.41706 15.2046 6.36285 15.2471 6.30571C15.3365 6.18704 15.3966 6.04786 15.4215 5.88963C15.4976 5.42666 15.3672 5.02963 15.1328 4.68094C14.9394 4.39085 14.6699 4.12567 14.3798 3.88247Z" fill="black"/>
<path fill-rule="evenodd" clip-rule="evenodd" d="M3.37556 2.01294H7.68876C7.91292 2.01294 8.11657 2.10377 8.26307 2.25175C8.27333 2.262 8.28359 2.27226 8.29238 2.28398C8.42277 2.42902 8.50188 2.61948 8.50188 2.82606V5.57748C8.50188 5.80164 8.41105 6.00529 8.26307 6.1518C8.11657 6.29831 7.91292 6.3906 7.68876 6.3906H3.37556C3.15287 6.3906 2.95069 6.29831 2.80271 6.1518L2.80125 6.15326C2.65474 6.00675 2.56244 5.80311 2.56244 5.57895V2.82606C2.56244 2.6019 2.65327 2.39826 2.80125 2.25175C2.8115 2.24149 2.82176 2.23124 2.83348 2.22245C2.97852 2.09205 3.16898 2.01294 3.37556 2.01294ZM3.37556 2.8158H7.68876C7.69169 2.8158 7.69316 2.81727 7.69462 2.8202L7.69755 2.82313V2.82606V5.57748C7.69755 5.57895 7.69609 5.58188 7.69462 5.58334C7.69316 5.58481 7.69023 5.58628 7.68876 5.58628H3.37556C3.37263 5.58628 3.37116 5.58627 3.3697 5.58481V5.58188C3.36823 5.58041 3.36677 5.57748 3.36677 5.57602V2.8246C3.36677 2.82313 3.36823 2.8202 3.3697 2.81873L3.37263 2.8158H3.37556Z" fill="#FF0000"/>
</svg>
