<svg width="15" height="15" viewBox="0 0 15 15" fill="none" xmlns="http://www.w3.org/2000/svg">
<path d="M7.25803 0.64502C3.24942 0.64502 0 3.67783 0 7.41923C0 11.1606 3.24942 14.1934 7.25803 14.1934C11.2666 14.1934 14.5161 11.1606 14.5161 7.41923C14.5161 3.67783 11.2666 0.64502 7.25803 0.64502ZM10.1612 8.09665L13.0195 8.09733C12.8578 9.29109 12.2752 10.4007 11.3636 11.2515C10.4519 12.1023 9.26288 12.6458 7.98384 12.7966V10.1289C8.56132 10.1289 9.11516 9.91481 9.5235 9.53368C9.93185 9.15255 10.1612 8.63564 10.1612 8.09665ZM1.4966 8.09733L4.35482 8.09665C4.35482 8.63564 4.58422 9.15255 4.99257 9.53368C5.40091 9.91481 5.95475 10.1289 6.53223 10.1289L6.53151 12.7966C5.25259 12.6457 4.06377 12.102 3.15226 11.2513C2.24073 10.4006 1.65827 9.29099 1.4966 8.09733ZM7.25803 1.99986C8.67234 1.99988 10.038 2.48163 11.0988 3.3547C12.1596 4.22778 12.8426 5.43215 13.0195 6.74181H10.1612C10.1612 6.56214 10.0848 6.38985 9.94867 6.2628C9.81255 6.13576 9.62795 6.06439 9.43545 6.06439H5.08062C4.88813 6.06439 4.70352 6.13576 4.5674 6.2628C4.43129 6.38985 4.35482 6.56214 4.35482 6.74181H1.4966C1.67355 5.43215 2.35649 4.22778 3.41727 3.3547C4.47804 2.48163 5.84372 1.99988 7.25803 1.99986Z" fill="#FF0000"/>
</svg>
