<svg width="18" height="16" viewBox="0 0 18 16" fill="none" xmlns="http://www.w3.org/2000/svg">
<path d="M8.08649 1.77081C6.77775 1.92165 5.53645 2.44096 4.50246 3.27025L5.39738 4.18097C5.54161 4.3383 5.62013 4.54639 5.6164 4.7614C5.61267 4.97641 5.52697 5.18156 5.37737 5.33362C5.22776 5.48568 5.02594 5.57278 4.81441 5.57657C4.60286 5.58037 4.39813 5.50056 4.24335 5.35395L3.34408 4.44102C2.57979 5.41543 2.0825 6.57788 1.90263 7.81058H3.73165C3.94822 7.81058 4.15591 7.89803 4.30903 8.05367C4.46216 8.20932 4.54818 8.42042 4.54818 8.64053C4.54818 8.86065 4.46216 9.07174 4.30903 9.22739C4.15591 9.38303 3.94822 9.47047 3.73165 9.47047H1.85364C2.02314 11.2464 2.82172 12.8993 4.10073 14.1215C4.255 14.2729 4.34444 14.48 4.34974 14.698C4.35503 14.9158 4.27576 15.1271 4.12904 15.2861C3.98233 15.4451 3.77994 15.5391 3.56564 15.5477C3.35133 15.5564 3.1423 15.4788 2.98372 15.3321C1.3071 13.7352 0.193359 11.3805 0.193359 8.8541C0.193359 3.99395 4.09855 0.0644531 8.90302 0.0644531C13.7075 0.0644531 17.6127 3.99284 17.6127 8.8541C17.6105 10.067 17.3656 11.2668 16.8929 12.3804C16.42 13.4942 15.7293 14.4983 14.8626 15.3321C14.704 15.4788 14.495 15.5564 14.2807 15.5477C14.0663 15.5391 13.864 15.4451 13.7173 15.2861C13.5705 15.1271 13.4913 14.9158 13.4966 14.698C13.5019 14.48 13.5913 14.2729 13.7456 14.1215C15.0157 12.8973 15.8011 11.2429 15.9534 9.47047H14.0744C13.8579 9.47047 13.6501 9.38303 13.497 9.22739C13.3439 9.07174 13.2578 8.86065 13.2578 8.64053C13.2578 8.42042 13.3439 8.20932 13.497 8.05367C13.6501 7.89803 13.8579 7.81058 14.0744 7.81058H15.9034C15.4418 4.6391 12.9062 2.13932 9.71955 1.77081V3.10758C9.71955 3.3277 9.63352 3.53879 9.48039 3.69444C9.32727 3.85008 9.11957 3.93752 8.90302 3.93752C8.68646 3.93752 8.47877 3.85008 8.32565 3.69444C8.17252 3.53879 8.08649 3.3277 8.08649 3.10758V1.77081ZM12.6579 4.27725C12.757 4.19738 12.8801 4.15498 13.0064 4.1573C13.1328 4.15964 13.2543 4.20656 13.3504 4.29002C13.4463 4.37348 13.5108 4.4883 13.5327 4.61478C13.5545 4.74125 13.5325 4.87152 13.4701 4.98325L13.3504 5.20014C12.9126 5.98594 12.472 6.77015 12.0287 7.55276C11.6743 8.17902 11.315 8.80242 10.9509 9.42289C10.8144 9.65632 10.675 9.88798 10.5328 10.1178C10.4239 10.2916 10.3172 10.4564 10.2389 10.5494C9.95763 10.8843 9.55703 11.0919 9.12521 11.1265C8.69339 11.1612 8.2657 11.0201 7.93624 10.7342C7.60679 10.4483 7.40255 10.0412 7.36845 9.60225C7.33435 9.16333 7.47319 8.72863 7.75444 8.39376C7.83282 8.30081 7.97544 8.16691 8.12786 8.0308C8.29116 7.88362 8.50128 7.70325 8.73753 7.50074C9.21221 7.09794 9.80664 6.6044 10.3858 6.12857C11.0767 5.56055 11.7698 4.99544 12.4653 4.43327L12.6579 4.27725Z" fill="#FF0000"/>
</svg>
