<svg width="37" height="37" viewBox="0 0 37 37" fill="none" xmlns="http://www.w3.org/2000/svg">
<g clip-path="url(#clip0_16_3707)">
<path d="M15.9307 2.78631L15.9307 8.79356C15.9307 9.60828 15.2519 10.2684 14.4146 10.2684C11.4271 10.2684 9.80196 13.2498 9.57673 19.134H14.4146C15.2519 19.134 15.9307 19.7947 15.9307 20.6091L15.9307 33.2931C15.9307 34.1075 15.2519 34.7677 14.4146 34.7677H1.51581C0.678146 34.7677 0 34.1069 0 33.2931L0 20.6091C0 17.7884 0.291906 15.1998 0.867345 12.9146C1.45752 10.5714 2.36344 8.52264 3.55916 6.82504C4.78953 5.08041 6.32855 3.71137 8.13384 2.75764C9.95131 1.79813 12.0648 1.31146 14.4151 1.31146C15.2519 1.31146 15.9307 1.97159 15.9307 2.78631ZM35.4838 10.2685C36.3207 10.2685 37 9.60776 37 8.79366V2.78641C37 1.97169 36.3208 1.31157 35.4838 1.31157C33.1344 1.31157 31.0206 1.79833 29.2038 2.75774C27.3982 3.71148 25.8583 5.08051 24.6277 6.82514C23.4324 8.52274 22.5265 10.5716 21.9362 12.9153C21.3611 15.2013 21.0692 17.7898 21.0692 20.6092V33.2933C21.0692 34.1076 21.7482 34.7678 22.5853 34.7678L35.4837 34.7678C36.3206 34.7678 36.9993 34.107 36.9993 33.2933L36.9993 20.6091C36.9993 19.7948 36.3207 19.134 35.4837 19.134H30.7148C30.9366 13.2499 32.538 10.2685 35.4838 10.2685Z" fill="#6D597A" fill-opacity="0.28"/>
</g>
<defs>
<clipPath id="clip0_16_3707">
<rect width="37" height="36" fill="white" transform="translate(0 0.0395508)"/>
</clipPath>
</defs>
</svg>
