<svg width="25" height="26" viewBox="0 0 25 26" fill="none" xmlns="http://www.w3.org/2000/svg">
<path d="M22.6729 0.539551L1.8004 0.539551C1.37458 0.539551 0.966192 0.715146 0.665087 1.02771C0.363983 1.34027 0.194824 1.76419 0.194824 2.20622L0.194824 23.8729C0.194824 24.3149 0.363983 24.7388 0.665087 25.0514C0.966192 25.364 1.37458 25.5396 1.8004 25.5396L22.6729 25.5396C23.0988 25.5396 23.5071 25.364 23.8082 25.0514C24.1093 24.7388 24.2785 24.3149 24.2785 23.8729L24.2785 2.20622C24.2785 1.76419 24.1093 1.34027 23.8082 1.02771C23.5071 0.715146 23.0988 0.539551 22.6729 0.539551ZM7.32921 21.8679H3.70623L3.70623 9.91455L7.32921 9.91455L7.32921 21.8679ZM5.51732 8.27372C5.1008 8.2724 4.69401 8.14299 4.34831 7.90182C4.00261 7.66066 3.7335 7.31856 3.57499 6.91873C3.41648 6.5189 3.37566 6.07928 3.4577 5.65539C3.53973 5.23149 3.74094 4.84234 4.03591 4.53708C4.33088 4.23182 4.70637 4.02414 5.11498 3.94027C5.52358 3.85641 5.94697 3.90012 6.33165 4.06588C6.71634 4.23164 7.04508 4.51202 7.27636 4.8716C7.50763 5.23119 7.63106 5.65386 7.63106 6.08622C7.63117 6.37408 7.57652 6.65913 7.47026 6.92501C7.36399 7.1909 7.20819 7.43238 7.01181 7.63562C6.81542 7.83886 6.58231 7.99985 6.32585 8.10935C6.06939 8.21885 5.79462 8.2747 5.51732 8.27372ZM20.7631 21.8679H17.214V16.0862C17.214 14.6804 17.214 12.9612 15.3274 12.9612C13.4409 12.9612 13.2137 14.4462 13.2137 16.0079L13.2137 21.9462H9.66774L9.66774 9.91455L12.9881 9.91455L12.9881 11.5554H13.0635C13.406 10.9408 13.9029 10.4344 14.5012 10.0903C15.0995 9.74628 15.7766 9.5775 16.4601 9.60205C20.0831 9.60205 20.7623 12.1021 20.7623 15.3054L20.7631 21.8679Z" fill="black"/>
</svg>
