<svg width="19" height="23" viewBox="0 0 19 23" fill="none" xmlns="http://www.w3.org/2000/svg">
<path fill-rule="evenodd" clip-rule="evenodd" d="M9.731 19.9919C9.57087 20.1094 9.42162 20.216 9.28525 20.3116C9.13975 20.2151 8.97837 20.1041 8.80337 19.979C7.97825 19.3886 6.90812 18.522 5.85422 17.4411C3.69252 15.224 1.875 12.3939 1.875 9.375C1.875 5.23286 5.23286 1.875 9.375 1.875C13.5171 1.875 16.875 5.23286 16.875 9.375C16.875 12.3615 14.9774 15.1835 12.7366 17.4241C11.6495 18.5114 10.5555 19.3874 9.731 19.9919ZM18.75 9.375C18.75 16.875 9.375 22.5 9.375 22.5C8.90625 22.5 0 16.875 0 9.375C0 4.19733 4.19732 0 9.375 0C14.5526 0 18.75 4.19733 18.75 9.375ZM11.25 9.375C11.25 10.4105 10.4105 11.25 9.375 11.25C8.3395 11.25 7.5 10.4105 7.5 9.375C7.5 8.33946 8.3395 7.5 9.375 7.5C10.4105 7.5 11.25 8.33946 11.25 9.375ZM13.125 9.375C13.125 11.4461 11.4461 13.125 9.375 13.125C7.30387 13.125 5.625 11.4461 5.625 9.375C5.625 7.30394 7.30387 5.625 9.375 5.625C11.4461 5.625 13.125 7.30394 13.125 9.375Z" fill="black"/>
</svg>
