<svg width="25" height="32" viewBox="0 0 25 32" fill="none" xmlns="http://www.w3.org/2000/svg">
<path d="M2.31061 11.9027H3.07719V9.62951C3.07719 6.98912 4.13329 4.58571 5.83519 2.84065C7.54371 1.08777 9.90305 0 12.5 0C15.0972 0 17.4563 1.08777 19.1653 2.84039C20.867 4.58545 21.9231 6.98912 21.9231 9.62925V11.9024H22.6897C23.3257 11.9024 23.9036 12.1577 24.3219 12.5691C24.7401 12.9806 25 13.5485 25 14.1738V29.7286C25 30.3539 24.7404 30.9221 24.3219 31.3333C23.9034 31.7445 23.3257 32 22.6897 32H2.31061C1.67435 32 1.09663 31.7448 0.67811 31.3333C0.259589 30.9219 0 30.3544 0 29.7289V14.1741C0 13.5488 0.259854 12.9806 0.67811 12.5694C1.09663 12.1582 1.67435 11.9027 2.31061 11.9027ZM11.655 22.7348L10.5451 25.594H14.4554L13.4266 22.6955C14.0795 22.3648 14.5259 21.6955 14.5259 20.9239C14.5259 19.8241 13.6186 18.9324 12.5003 18.9324C11.3816 18.9324 10.4744 19.8244 10.4744 20.9239C10.4741 21.7273 10.9581 22.4197 11.655 22.7348ZM4.70253 11.9027H20.2977V9.62951C20.2977 7.41308 19.4167 5.40135 17.9969 3.94561C16.5846 2.49716 14.639 1.59819 12.5 1.59819C10.361 1.59819 8.41545 2.49716 7.00307 3.94534C5.58355 5.40109 4.70227 7.41282 4.70227 9.62925L4.70253 11.9027ZM22.6897 13.5009H2.31061C2.12307 13.5009 1.95221 13.5769 1.82772 13.6993C1.70322 13.8217 1.62587 13.99 1.62587 14.1741V29.7289C1.62587 29.913 1.70322 30.0812 1.82772 30.2034C1.95221 30.326 2.12333 30.4018 2.31061 30.4018H22.6899C22.8775 30.4018 23.0486 30.326 23.1728 30.2034C23.2973 30.081 23.3747 29.913 23.3747 29.7289V14.1741C23.3747 13.99 23.2973 13.8217 23.1728 13.6993C23.0481 13.5769 22.8772 13.5009 22.6897 13.5009Z" fill="black"/>
</svg>
