<svg width="15" height="14" viewBox="0 0 15 14" fill="none" xmlns="http://www.w3.org/2000/svg">
<path d="M7.63211 0.842774C8.138 0.842632 8.62687 1.00233 9.00848 1.29239C9.39008 1.58245 9.63865 1.98328 9.70829 2.42089C9.77793 2.85851 9.66396 3.30334 9.38739 3.67329C9.11083 4.04325 8.69036 4.31333 8.20359 4.43369V6.99843C8.20359 7.1308 8.14339 7.25775 8.03621 7.35136C7.92904 7.44495 7.78368 7.49754 7.63211 7.49754C7.48054 7.49754 7.33518 7.44495 7.228 7.35136C7.12083 7.25775 7.06062 7.1308 7.06062 6.99843V4.43369C6.57494 4.3124 6.15575 4.04204 5.88015 3.67233C5.60455 3.30261 5.49108 2.85842 5.56062 2.42146C5.63016 1.9845 5.87804 1.58417 6.25863 1.29411C6.63923 1.00405 7.12698 0.843778 7.63211 0.842774ZM8.5846 2.67284C8.5846 2.45222 8.48424 2.24064 8.30562 2.08463C8.12699 1.92863 7.88473 1.84099 7.63211 1.84099C7.3795 1.84099 7.13723 1.92863 6.9586 2.08463C6.77998 2.24064 6.67962 2.45222 6.67962 2.67284C6.67962 2.89346 6.77998 3.10504 6.9586 3.26104C7.13723 3.41704 7.3795 3.50468 7.63211 3.50468C7.88473 3.50468 8.12699 3.41704 8.30562 3.26104C8.48424 3.10504 8.5846 2.89346 8.5846 2.67284ZM14.49 3.83741C14.49 3.39617 14.2892 2.97301 13.932 2.66101C13.5748 2.34901 13.0902 2.17373 12.585 2.17373C12.0798 2.17373 11.5953 2.34901 11.238 2.66101C10.8808 2.97301 10.6801 3.39617 10.6801 3.83741V6.16659H8.96559V7.1648H11.823V3.83741C11.823 3.66092 11.9033 3.49166 12.0462 3.36685C12.1891 3.24205 12.3829 3.17194 12.585 3.17194C12.7872 3.17194 12.9809 3.24205 13.1239 3.36685C13.2667 3.49166 13.3471 3.66092 13.3471 3.83741V11.8231C13.3471 11.9996 13.2667 12.1689 13.1239 12.2937C12.9809 12.4185 12.7872 12.4886 12.585 12.4886C12.3829 12.4886 12.1891 12.4185 12.0462 12.2937C11.9033 12.1689 11.823 11.9996 11.823 11.8231V8.49575H8.3941V11.8231C8.3941 11.9996 8.31382 12.1689 8.17091 12.2937C8.02801 12.4185 7.8342 12.4886 7.63211 12.4886C7.43002 12.4886 7.2362 12.4185 7.09331 12.2937C6.9504 12.1689 6.87013 11.9996 6.87013 11.8231V8.49575H2.2982C2.19716 8.49575 2.10025 8.4607 2.02879 8.3983C1.95735 8.33589 1.91721 8.25126 1.91721 8.16301V3.83741C1.91721 3.66092 1.99749 3.49166 2.14039 3.36685C2.2833 3.24205 2.4771 3.17194 2.6792 3.17194C2.88129 3.17194 3.07511 3.24205 3.218 3.36685C3.3609 3.49166 3.44118 3.66092 3.44118 3.83741V7.1648H6.29863V6.16659H4.58416V3.83741C4.58416 3.39617 4.38346 2.97301 4.02621 2.66101C3.66896 2.34901 3.18442 2.17373 2.6792 2.17373C2.17397 2.17373 1.68943 2.34901 1.33218 2.66101C0.974931 2.97301 0.774231 3.39617 0.774231 3.83741V8.16301C0.774231 8.516 0.934792 8.85454 1.22059 9.10414C1.50639 9.35374 1.89402 9.49396 2.2982 9.49396H5.72715V11.8231C5.72715 12.2644 5.92784 12.6875 6.2851 12.9996C6.64235 13.3116 7.12688 13.4868 7.63211 13.4868C8.13734 13.4868 8.62187 13.3116 8.97913 12.9996C9.33638 12.6875 9.53707 12.2644 9.53707 11.8231V9.49396H10.6801V11.8231C10.6801 12.2644 10.8808 12.6875 11.238 12.9996C11.5953 13.3116 12.0798 13.4868 12.585 13.4868C13.0902 13.4868 13.5748 13.3116 13.932 12.9996C14.2892 12.6875 14.49 12.2644 14.49 11.8231V3.83741Z" fill="#FF0000"/>
</svg>
