<svg width="123" height="123" viewBox="0 0 123 123" fill="none" xmlns="http://www.w3.org/2000/svg">
<g clip-path="url(#clip0_152_95)">
<path d="M66.38 47.05C66.54 46.85 66.71 46.66 66.89 46.46L95.96 17.9L88.5 17.51C85.31 17.35 82.85 14.63 83.01 11.44C83.17 8.25001 85.89 5.79001 89.08 5.95001L109.84 7.00001C112.68 7.14001 114.95 9.32001 115.29 12.05L118.06 33.99C118.46 37.17 116.23 40.07 113.04 40.48C109.86 40.88 106.96 38.65 106.55 35.46L105.35 25.94L75.85 56.52L66.38 47.05Z" fill="#FF0000"/>
<path d="M33.84 50.26C37.97 57.71 42.73 64.86 48.92 71.38C55.11 77.95 62.82 83.92 72.81 89C73.54 89.37 74.25 89.37 74.87 89.11C75.83 88.74 76.78 87.97 77.75 87.01C78.48 86.28 79.41 85.09 80.37 83.81C84.2 78.76 88.96 72.49 95.67 75.62C95.82 75.69 95.93 75.77 96.08 75.84L118.44 88.71C118.51 88.75 118.59 88.82 118.66 88.86C121.61 90.88 122.83 94.01 122.87 97.56C122.87 101.17 121.54 105.23 119.59 108.66C117.01 113.19 113.21 116.18 108.83 118.17C104.66 120.08 100.02 121.12 95.56 121.78C88.56 122.81 82 122.15 75.28 120.08C68.71 118.06 62.11 114.69 54.89 110.24L54.37 109.9C51.06 107.84 47.47 105.62 43.97 103C31.11 93.31 18.03 79.3 9.51 63.89C2.36 50.94 -1.55 36.97 0.58 23.66C1.76 16.36 4.9 9.72002 10.35 5.34002C15.1 1.51002 21.52 -0.589981 29.82 0.140019C30.78 0.210019 31.63 0.770019 32.07 1.58002L46.42 25.84C48.52 28.57 48.78 31.26 47.64 33.96C46.68 36.17 44.76 38.2 42.14 40.12C41.37 40.78 40.44 41.45 39.48 42.14C36.28 44.46 32.62 47.15 33.87 50.33L33.84 50.26Z" fill="#FF0000"/>
</g>
<defs>
<clipPath id="clip0_152_95">
<rect width="122.88" height="122.26" fill="white"/>
</clipPath>
</defs>
</svg>
