<svg width="20" height="18" viewBox="0 0 20 18" fill="none" xmlns="http://www.w3.org/2000/svg">
<path fill-rule="evenodd" clip-rule="evenodd" d="M18.4656 16.2697L17.0223 12.0329C16.9594 11.8478 16.8535 11.674 16.6637 11.674H15.8559L16.3973 10.5743H16.6637C17.116 10.5743 17.4574 10.7665 17.7152 11.0622C17.8828 11.254 17.9906 11.4712 18.0621 11.6806L20 17.3697H0L1.73359 11.7107C1.81289 11.4572 1.94687 11.1931 2.15117 10.9888H2.15547C2.4082 10.7372 2.73125 10.5743 3.14062 10.5743H3.67734L4.2668 11.674H3.14062C2.95039 11.674 2.83711 11.8525 2.78203 12.0329L1.48359 16.2697H18.4656ZM10.8473 14.9607C10.6437 15.1049 10.4006 15.1829 10.1512 15.1841C9.92617 15.1845 9.70039 15.1236 9.50156 14.9974L9.49844 14.9939C8.87773 14.599 8.30469 14.1638 7.78516 13.7005C7.24727 13.224 6.76289 12.7103 6.33711 12.1743C5.76094 11.4521 5.28906 10.6872 4.92813 9.90911C4.55977 9.11263 4.30625 8.29466 4.17656 7.48607C4.04102 6.64583 4.03867 5.822 4.17617 5.04505C4.31445 4.26575 4.59102 3.52982 5.0125 2.86693C5.18203 2.60364 5.37773 2.34583 5.59961 2.10013C5.81016 1.86224 6.04805 1.63802 6.30859 1.43099C6.89531 0.9638 7.52813 0.604426 8.18203 0.36341C8.84453 0.118879 9.53438 -0.00455884 10.2258 0.000128663C10.9145 0.00520679 11.5945 0.136847 12.2422 0.400519C12.8687 0.660285 13.466 1.0345 14.0105 1.53138C14.2023 1.70521 14.3855 1.89974 14.557 2.10911C14.7316 2.32122 14.8863 2.54036 15.0223 2.76341C15.4707 3.50521 15.7469 4.33763 15.8621 5.21575C15.9797 6.1056 15.9336 7.047 15.7391 7.9888C15.4457 9.4138 14.8324 10.7896 13.9832 11.9923C13.1473 13.1763 12.0746 14.2048 10.8473 14.9607ZM10.3184 14.0958C10.2223 14.1661 10.0918 14.1755 9.98516 14.1072C8.83203 13.3732 7.86211 12.4915 7.10156 11.5349C6.05117 10.2169 5.38906 8.7556 5.16289 7.34818C4.93242 5.92122 5.14766 4.54896 5.85781 3.43255C6.13789 2.99114 6.49531 2.58919 6.93125 2.24271C7.93359 1.44349 9.07852 1.02239 10.2176 1.0306C11.316 1.03841 12.3996 1.44857 13.3359 2.30286C13.6652 2.60169 13.9422 2.94466 14.1684 3.31653C14.932 4.57396 15.0965 6.17786 14.7602 7.80364C14.2367 10.3505 12.5547 12.7384 10.3184 14.0958Z" fill="black"/>
<path fill-rule="evenodd" clip-rule="evenodd" d="M12.5219 5.71274C12.5219 6.05259 12.4433 6.36079 12.2863 6.63735C12.1285 6.91353 11.8965 7.13306 11.5898 7.29517C11.2832 7.45767 10.9113 7.53853 10.4754 7.53853H9.68944V9.0186H8.11639V3.86353H10.4754C11.1348 3.86353 11.6406 4.0311 11.993 4.36587C12.3457 4.70063 12.5219 5.14946 12.5219 5.71274ZM10.9258 5.71274C10.9258 6.04243 10.7508 6.32329 10.4008 6.32329H9.68944V5.10181H10.4008C10.7508 5.10181 10.9258 5.38267 10.9258 5.71274Z" fill="#FF0000"/>
</svg>
