<svg width="13" height="15" viewBox="0 0 13 15" fill="none" xmlns="http://www.w3.org/2000/svg">
<path d="M2.70973 11.6711C2.70973 11.6711 0.322632 6.11173 0.322632 3.33205C0.322632 0.552368 1.91403 0.552368 1.91403 0.552368H2.70973C2.70973 0.552368 3.50542 0.552368 3.50542 1.24729C3.50542 1.94221 2.70973 1.94221 2.70973 3.33205C2.70973 4.72188 5.09682 6.11173 5.09682 8.19649C5.09682 10.2813 2.70973 11.6711 2.70973 11.6711ZM6.68822 10.9761C5.89252 10.9761 3.50542 12.7135 3.50542 12.7135C3.26671 12.8524 3.34628 13.0609 3.50542 13.2694C3.50542 13.2694 4.30112 14.5202 5.89252 14.5202H10.6667C11.542 14.5202 12.2582 13.8948 12.2582 13.1304V12.4355C12.2582 11.6711 11.542 11.0456 10.6667 11.0456H6.68822V10.9761Z" fill="#FF0000"/>
</svg>
