<svg width="17" height="18" viewBox="0 0 17 18" fill="none" xmlns="http://www.w3.org/2000/svg">
<path fill-rule="evenodd" clip-rule="evenodd" d="M0.204727 3.86579C1.55286 4.76174 2.89026 5.66281 4.01916 6.82301C3.37205 9.58821 5.95477 11.7975 8.31024 13.0991C9.23235 13.6087 9.63992 13.9659 10.6664 13.7942L14.709 17.6259C7.10126 20.0977 -1.43657 9.72767 0.204727 3.86579ZM11.7085 12.809L12.5953 11.9377C12.851 11.686 13.2732 11.6828 13.5333 11.9303L16.8027 15.0444C17.0627 15.292 17.066 15.7004 16.8103 15.9519L15.9232 16.8233C15.6674 17.0749 15.2452 17.0781 14.9851 16.8305L11.7157 13.7164C11.4555 13.4691 11.4524 13.0607 11.7085 12.809ZM1.00156 2.03307L1.6451 1.27713C1.92096 0.953112 2.42091 0.906349 2.75584 1.17323L6.10292 3.84075C6.43785 4.1079 6.48575 4.59129 6.21018 4.91572L5.56636 5.67125C5.29035 5.99568 4.79054 6.04203 4.45548 5.77515L1.10896 3.10763C0.774039 2.84076 0.725417 2.35708 1.00156 2.03307Z" fill="#BFC8D0"/>
<path fill-rule="evenodd" clip-rule="evenodd" d="M0.204727 2.86579C1.55286 3.76174 2.89026 4.66281 4.01916 5.82301C3.37205 8.58821 5.95477 10.7975 8.31024 12.0991C9.23235 12.6087 9.63992 12.9659 10.6664 12.7942L14.709 16.6259C7.10126 19.0977 -1.43657 8.72767 0.204727 2.86579ZM11.7085 11.809L12.5953 10.9377C12.851 10.686 13.2732 10.6828 13.5333 10.9303L16.8027 14.0444C17.0627 14.292 17.066 14.7004 16.8103 14.9519L15.9232 15.8233C15.6674 16.0749 15.2452 16.0781 14.9851 15.8305L11.7157 12.7164C11.4555 12.4691 11.4524 12.0607 11.7085 11.809ZM1.00156 1.03307L1.6451 0.277127C1.92096 -0.0468883 2.42091 -0.0936505 2.75584 0.173226L6.10292 2.84075C6.43785 3.1079 6.48575 3.5913 6.21018 3.91572L5.56636 4.67125C5.29035 4.99568 4.79054 5.04203 4.45548 4.77515L1.10896 2.10763C0.774039 1.84076 0.725417 1.35708 1.00156 1.03307Z" fill="#FF0000"/>
</svg>
