<svg width="117" height="27" viewBox="0 0 117 27" fill="none" xmlns="http://www.w3.org/2000/svg">
<path fill-rule="evenodd" clip-rule="evenodd" d="M2.55465 27L0.219483 27L0.219482 24L2.55465 24L2.55465 27ZM11.8953 27L7.22499 27L7.22499 24L11.8953 24L11.8953 27ZM21.236 27L16.5657 27L16.5657 24L21.236 24L21.236 27ZM30.5767 27L25.9063 27L25.9063 24L30.5767 24L30.5767 27ZM39.9174 27L35.247 27L35.247 24L39.9174 24L39.9174 27ZM49.258 27L44.5877 27L44.5877 24L49.258 24L49.258 27ZM58.5987 27L53.9284 27L53.9284 24L58.5987 24L58.5987 27Z" fill="white"/>
<path d="M93.4031 10.8972C80.9777 -5.04326 58.725 4.62627 48.6614 11.3712L46.0055 10.4959C58.7666 2.95622 80.8069 -8.66301 98.5649 10.2747L93.4031 10.8972Z" fill="white"/>
<path d="M53.1368 9.50041C53.1948 9.46723 74.1077 -3.04312 86.7752 6.29461C75.0346 -0.440877 59.4349 6.75123 54.8168 9.48461L53.1368 9.50041Z" fill="white"/>
<path fill-rule="evenodd" clip-rule="evenodd" d="M66.4133 2.35449H35.4784L61.5026 3.52684L66.4133 2.35449Z" fill="white"/>
<path fill-rule="evenodd" clip-rule="evenodd" d="M60.6574 4.29102H9.66217L55.7467 5.46179L60.6574 4.29102Z" fill="white"/>
<path fill-rule="evenodd" clip-rule="evenodd" d="M56.4106 6.22656H25.4757L51.5014 7.39733L56.4106 6.22656Z" fill="white"/>
<path fill-rule="evenodd" clip-rule="evenodd" d="M53.4621 8.16211H12.6226L48.5514 9.33446L53.4621 8.16211Z" fill="white"/>
<path fill-rule="evenodd" clip-rule="evenodd" d="M48.2127 9.9668H26.8868L43.3064 11.1376L48.2127 9.9668Z" fill="white"/>
<path fill-rule="evenodd" clip-rule="evenodd" d="M45.4632 12.0381H14.5298L40.554 13.2089L45.4632 12.0381Z" fill="white"/>
<mask id="mask0_179_4261" style="mask-type:luminance" maskUnits="userSpaceOnUse" x="0" y="13" width="42" height="3">
<path d="M0.219482 13.8579H41.6205V15.4758H0.219482V13.8579Z" fill="white"/>
</mask>
<g mask="url(#mask0_179_4261)">
<path fill-rule="evenodd" clip-rule="evenodd" d="M41.5702 14.1641H0.265747L39.2411 15.3364L41.5702 14.1641Z" fill="white"/>
</g>
<mask id="mask1_179_4261" style="mask-type:luminance" maskUnits="userSpaceOnUse" x="50" y="6" width="67" height="21">
<path d="M50.9867 6H116.363V27H50.9867V6Z" fill="white"/>
</mask>
<g mask="url(#mask1_179_4261)">
<path d="M104.553 26.1927C106.595 26.3105 108.641 26.3256 110.76 26.5284C110.493 26.6865 110.274 26.6672 110.063 26.6739C104.165 26.8885 98.2633 26.9962 92.3594 26.9903C82.9872 26.9802 73.6149 27.0029 64.2394 26.9583C60.2141 26.9398 56.1896 26.854 52.1667 26.6832C52.0275 26.6773 51.8796 26.7025 51.7578 26.5788C53.7946 26.3988 55.8305 26.2877 57.8728 26.2591C57.8902 26.1111 57.7692 26.1363 57.7036 26.101C56.7702 25.6424 56.0322 24.9441 55.4778 24.027C55.371 23.8495 55.2405 23.7452 55.057 23.6754C54.0936 23.3119 53.1539 22.882 52.2379 22.3915C52.0631 22.2964 51.8851 22.2022 51.7222 22.0877C51.4881 21.927 51.1741 21.7941 51.1828 21.4424C51.1946 21.079 51.5387 21.0445 51.7792 20.9401C52.0963 20.8005 52.1493 20.5885 51.9983 20.2856C51.8796 20.0542 51.761 19.8237 51.6368 19.599C50.8331 18.1469 50.845 16.651 51.4232 15.1273C51.6391 14.551 51.8915 13.9948 52.2118 13.4791C52.3423 13.2704 52.3597 13.1089 52.1818 12.9356C52.1106 12.8657 52.0576 12.774 51.9983 12.6882C51.5031 11.9706 51.7317 11.2563 52.5409 11.0215C53.1483 10.8482 53.7795 10.7969 54.402 10.7052C56.506 10.3956 58.6259 10.2853 60.7449 10.1676C61.1008 10.149 61.4148 9.99676 61.732 9.86467C64.6697 8.62452 67.6572 7.56779 70.7333 6.79039C73.1996 6.16695 75.6746 5.99616 78.1915 6.2494C80.1681 6.4488 82.1456 6.6381 84.0629 7.22705C85.8355 7.77056 87.4712 8.66911 89.1346 9.49784C90.8091 10.3325 92.4567 11.2276 94.0782 12.1733C94.2499 12.2743 94.4192 12.2995 94.609 12.2928C96.8316 12.2272 99.0551 12.1792 101.275 12.2835C104.518 12.4358 107.707 12.9036 110.728 14.2666C112.348 15.0002 113.857 15.9367 115.179 17.1919C115.398 17.4006 115.618 17.6194 115.817 17.8532C116.196 18.3025 116.3 18.8242 116.08 19.3938C115.935 19.7698 115.763 20.1333 115.609 20.5035C115.233 21.3987 115.117 22.2552 115.817 23.0688C116.134 23.4381 116.027 23.8276 115.585 24.112C115.069 24.441 114.485 24.5672 113.907 24.6942C112.562 24.9912 111.196 25.0897 109.826 25.162C108.718 25.2218 107.606 25.2377 106.494 25.2663C106.24 25.2731 106.02 25.3328 105.807 25.4944C105.425 25.7855 104.983 25.9621 104.548 26.1901L104.553 26.1927ZM85.2335 12.7109C85.6694 13.4791 85.8149 14.2758 85.9573 15.0734C85.9952 15.2855 86.0815 15.3797 86.2626 15.4529C87.4807 15.9333 88.3579 16.8125 88.8768 18.0871C89.2944 19.1153 89.5934 20.1871 89.8963 21.2565C89.9493 21.4525 90.0205 21.5409 90.2191 21.5409C90.9483 21.5409 91.6776 21.5501 92.4037 21.5754C92.626 21.5821 92.6735 21.4904 92.6648 21.275C92.6497 20.9208 92.6735 20.5666 92.7146 20.2124C93.0231 17.6252 94.3155 15.8483 96.6212 15.0129C98.904 14.1841 100.952 14.7823 102.626 16.5912C104.159 18.2487 104.55 20.326 104.251 22.5816C104.156 23.2959 103.937 23.9791 103.691 24.6782C103.785 24.6875 103.844 24.6968 103.904 24.6968C105.437 24.7161 106.966 24.669 108.495 24.5958C109.542 24.5487 110.588 24.4469 111.628 24.2862C111.771 24.2635 112.017 24.3022 111.949 23.9883C111.895 23.7452 111.999 23.4103 111.575 23.4162C111.095 23.423 110.611 23.3843 110.131 23.3531C109.713 23.3245 109.298 23.2707 108.913 23.062C108.442 22.8063 108.309 22.521 108.4 21.9742C108.463 21.5981 108.578 21.2371 108.699 20.8796C109.082 19.7353 109.856 19.2036 110.976 19.159C112.1 19.1153 113.223 19.1657 114.346 19.1716C114.468 19.1716 114.613 19.1405 114.708 19.292C114.539 19.371 114.367 19.387 114.195 19.3996C113.211 19.4695 112.224 19.5107 111.243 19.6335C110.093 19.7791 108.916 21.1168 108.887 22.3502C108.884 22.5244 108.972 22.6094 109.1 22.6792C109.272 22.7743 109.325 22.6321 109.381 22.5244C109.598 22.113 109.797 21.6898 110.019 21.2784C110.285 20.7845 110.674 20.4875 111.222 20.4051C112.126 20.2696 113.04 20.2065 113.946 20.124C114.966 20.0323 114.791 20.1745 115.167 19.074C115.179 19.0362 115.179 18.995 115.191 18.9571C115.318 18.5709 115.203 18.2613 114.924 18.0047C114.542 17.6505 114.175 17.2778 113.774 16.9488C111.637 15.1963 109.198 14.1463 106.601 13.4665C106.142 13.3462 105.676 13.2486 105.211 13.1409C105.608 13.3495 106.017 13.4883 106.421 13.6406C108.445 14.3995 110.28 15.4966 111.803 17.1322C112.041 17.388 112.265 17.6631 112.396 18.0745C112.203 17.8819 112.058 17.727 111.904 17.584C110.493 16.2782 108.877 15.3292 107.162 14.5737C104.268 13.299 101.23 12.8498 98.1304 12.7774C94.1676 12.6857 90.204 12.647 86.2389 12.7109C85.9217 12.7168 85.6045 12.7109 85.2304 12.7109H85.2335ZM54.2423 21.2313C54.266 20.5506 54.2984 19.9785 54.4194 19.4156C55.2436 15.548 59.5473 13.6819 62.5618 15.9333C64.438 17.3341 65.2353 19.387 65.3033 21.7781C65.3151 22.1736 65.4219 22.2426 65.7628 22.2493C68.4783 22.2998 71.1929 22.3662 73.9115 22.4386C76.9465 22.521 79.9846 22.6447 83.0228 22.638C83.5298 22.638 84.0336 22.5942 84.5343 22.5051C84.6648 22.4832 84.8515 22.4798 84.8428 22.3031C84.8333 22.1508 84.6585 22.1197 84.5224 22.0877C83.7489 21.9111 82.9603 21.8446 82.1717 21.7966C78.7451 21.5913 75.3194 21.4147 71.8929 21.2119C71.0569 21.1614 70.2089 21.1799 69.3911 20.9553C67.3519 20.3899 66.1069 17.9862 65.9171 16.5626C65.8253 15.8828 66.0326 15.5034 66.6076 15.1837C66.8394 15.0575 67.0822 14.9657 67.3337 14.8993C67.9088 14.7445 68.4957 14.646 69.0857 14.6082C69.3729 14.5897 69.4235 14.466 69.4353 14.2069C69.4741 13.4067 69.4559 12.5965 69.5864 11.8031C69.6307 11.5339 69.5928 11.4456 69.3254 11.3917C66.7824 10.8886 64.2157 10.6648 61.6339 10.6421C59.4469 10.6236 57.2709 10.8448 55.11 11.1957C54.3933 11.3126 53.6759 11.4422 52.964 11.6004C52.4989 11.7047 52.4009 11.8982 52.6208 12.2776C52.9435 12.8371 52.9878 13.4353 52.9585 14.0647C52.9142 15.0575 52.5583 15.9526 52.1881 16.8445C52.0607 17.1507 51.954 17.4645 52.0157 17.7994C52.2798 19.2541 53.1958 20.2284 54.2478 21.2338L54.2423 21.2313ZM76.4869 18.5145C76.4869 18.4918 76.4869 18.47 76.4901 18.4481C76.5375 18.4413 76.585 18.4321 76.6325 18.4321C78.3718 18.4792 80.1088 18.6189 81.8458 18.7417C83.177 18.8368 84.5043 18.963 85.8323 19.0799C86.0221 19.0959 86.1376 19.0799 86.1171 18.8208C86.0633 18.1376 86.0277 17.4544 85.9865 16.7713C85.9715 16.5281 85.841 16.4011 85.6425 16.3069C85.0556 16.025 84.4426 15.8323 83.8169 15.6901C81.9439 15.2661 80.0408 15.0886 78.1321 14.9498C75.4254 14.7504 72.7313 14.7916 70.0491 15.2787C69.7525 15.3326 69.7256 15.4176 69.8087 15.7028C70.3458 17.5462 71.359 19.0959 72.4229 20.6204C72.5629 20.8232 72.7519 20.8165 72.9505 20.8232C77.0113 20.9334 81.0722 21.0504 85.1331 21.1614C85.4265 21.1707 85.803 21.3322 85.9897 21.1454C86.1938 20.9401 86.034 20.5195 86.087 20.1964C86.1258 19.9659 86.034 19.8708 85.8236 19.8329C84.1578 19.5418 82.4833 19.3046 80.808 19.09C79.3676 18.9032 77.9273 18.7072 76.4869 18.5171V18.5145ZM85.7817 15.2787C85.6401 14.4853 85.5001 13.745 85.1861 13.0492C85.0738 12.7993 84.9195 12.7236 84.6617 12.7294C83.7489 12.7454 82.8361 12.7421 81.9201 12.7328C77.9423 12.6983 73.9763 12.5301 70.0879 11.5314C69.8387 11.4674 69.7794 11.5718 69.7676 11.7939C69.7256 12.477 69.6663 13.1594 69.6426 13.8426C69.6165 14.6368 69.5065 14.5005 70.2769 14.5072C70.4731 14.5072 70.5799 14.4694 70.6242 14.2254C70.7571 13.4665 70.9501 13.2612 71.6675 13.1913C72.5478 13.1064 73.2146 13.3462 73.327 14.0958C73.3744 14.4029 73.52 14.4534 73.7746 14.4466C75.4673 14.3962 77.1569 14.4593 78.8496 14.5198C81.1521 14.6023 83.461 14.678 85.7848 15.2787H85.7817ZM65.9495 26.2465H96.3839C95.9631 25.9621 95.5605 25.6837 95.1896 25.3547C95.0709 25.2504 94.9436 25.2571 94.8075 25.2571C85.9422 25.2756 77.077 25.2218 68.2085 25.1115C68.0986 25.1115 67.9863 25.0897 67.8882 25.1688C67.3076 25.6147 66.6464 25.9049 65.9495 26.2499V26.2465ZM93.296 24.2761C93.2659 23.9984 93.1386 23.8083 92.7565 23.7957C91.4372 23.7511 90.1186 23.6661 88.7993 23.5938C86.6921 23.4793 84.5818 23.3691 82.4738 23.2522C79.3439 23.078 76.2109 22.898 73.081 22.7238C71.6643 22.6447 70.2445 22.5782 68.8279 22.5084C67.7427 22.4546 66.6582 22.4041 65.573 22.3502C65.4433 22.3444 65.3033 22.2998 65.2827 22.5303C65.2234 23.1857 65.0929 23.8243 64.8769 24.4982C66.0682 24.457 67.2127 24.4191 68.3565 24.3745C68.4838 24.3712 68.5993 24.3114 68.6855 24.2164C69.1095 23.7511 69.6283 23.6754 70.2121 23.6947C74.2223 23.8335 78.2326 23.948 82.2428 24.0708C84.49 24.1406 86.7332 24.2256 88.9804 24.2736C90.4121 24.3047 91.8406 24.2795 93.2896 24.2795L93.296 24.2761ZM84.9108 12.4737C84.8333 12.3593 84.8191 12.3248 84.7922 12.2995C83.2419 10.7876 81.6204 9.37416 79.8098 8.22572C78.7277 7.54003 77.5982 7.02092 76.3295 6.89471C74.7768 6.73991 73.2471 6.91659 71.7355 7.26491C68.9228 7.91274 66.2311 8.96611 63.5552 10.0607C63.4959 10.0859 63.3947 10.07 63.4128 10.2121C64.7077 10.1995 66.0001 10.2593 67.2807 10.4713C67.9238 10.5756 68.5637 10.7279 69.2075 10.8381C69.308 10.8541 69.5303 11.0282 69.5366 10.7313C69.5508 10.1802 69.539 9.62993 69.539 9.04856C68.3628 9.28834 67.2182 9.52308 66.0769 9.75697C66.0769 9.69976 66.0887 9.68714 66.0982 9.68714C68.5613 9.04856 71.0244 8.40325 73.5255 7.94471C75.408 7.59976 77.2075 7.78654 78.8994 8.79868C80.4798 9.74435 81.8964 10.9239 83.26 12.1826C83.3961 12.3088 83.5179 12.4737 83.7283 12.4737C84.0953 12.4737 84.4631 12.4737 84.9077 12.4737H84.9108ZM72.2362 20.7121C71.1431 19.1026 70.0934 17.5176 69.5864 15.6077C69.5366 15.4209 69.4385 15.3923 69.2874 15.4529C68.8927 15.6043 68.4957 15.7406 68.1429 15.9871C67.6272 16.3447 67.5149 16.6577 67.6509 17.287C68.1698 19.6781 69.8949 20.978 72.2362 20.7088V20.7121ZM98.5006 25.0451C100.629 25.0829 102.467 23.1537 102.502 20.851C102.538 18.47 100.774 16.4331 98.6485 16.4044C96.4464 16.3758 94.662 18.2832 94.6296 20.7029C94.5971 23.0906 96.3041 25.0072 98.4974 25.0451H98.5006ZM63.6114 20.8636C63.6319 20.6171 63.579 20.3327 63.5315 20.0483C63.1336 17.7111 61.0447 16.1798 58.9842 16.7149C57.3927 17.1255 56.2956 18.549 56.0852 20.4782C55.8187 22.898 57.6593 25.1115 59.9183 25.0897C61.9187 25.0703 63.6051 23.163 63.6138 20.8636H63.6114ZM91.3604 21.7748V21.7655C91.0013 21.7655 90.6462 21.7714 90.2871 21.7655C90.1154 21.7621 90.0292 21.7874 90.1036 22.0053C90.2104 22.3284 90.2903 22.6573 90.3883 22.9829C90.4208 23.0906 90.4445 23.195 90.5987 23.2042C91.3249 23.2454 92.051 23.2993 92.7739 23.359C92.9519 23.375 92.9843 23.3085 92.9487 23.1377C92.872 22.7802 92.7834 22.4234 92.7328 22.0625C92.7004 21.8219 92.6023 21.7621 92.3919 21.7714C92.0478 21.7874 91.7014 21.7748 91.3541 21.7748H91.3604ZM77.3823 6.78366C78.061 7.01166 78.6447 7.24219 79.1873 7.5619C79.5456 7.77056 79.8865 7.85637 80.3018 7.78991C81.1703 7.65361 82.0506 7.63762 82.9808 7.61238C82.2017 7.24556 78.4137 6.68269 77.3823 6.78702V6.78366ZM87.8928 19.3424C87.6697 18.2579 86.7664 16.879 86.1463 16.6669C86.2713 17.372 86.2855 18.0813 86.3069 18.7922C86.3093 18.9285 86.2737 19.1119 86.4611 19.1439C86.9318 19.2196 87.4063 19.2793 87.8896 19.3458L87.8928 19.3424ZM88.7581 21.3734C88.7368 21.1328 88.6071 21.0066 88.4821 20.8897C87.8983 20.3386 87.1572 20.1813 86.4374 19.9718C86.3986 19.9625 86.3425 19.9785 86.3093 20.0071C86.2681 20.0382 86.2768 21.1328 86.3124 21.1707C86.3836 21.2439 86.4754 21.2153 86.5584 21.2212C86.8906 21.2439 87.2197 21.2565 87.5519 21.2784C87.949 21.307 88.3492 21.3415 88.7581 21.3734ZM112.304 23.3498C112.571 24.1213 112.657 24.1844 113.318 24.0397C113.798 23.9345 114.272 23.8024 114.746 23.6754C114.85 23.6468 115.034 23.6728 115.008 23.4886C114.986 23.3371 114.826 23.3464 114.702 23.3464C113.917 23.3464 113.131 23.3464 112.304 23.3464V23.3498ZM114.708 22.967C114.67 22.6918 114.545 22.6355 114.358 22.638C113.62 22.654 112.882 22.6607 112.144 22.6792C112.049 22.6792 111.892 22.6161 111.868 22.7709C111.851 22.8853 111.975 22.967 112.052 23.046C112.124 23.1192 112.209 23.1159 112.295 23.1091C113.093 23.062 113.89 23.0149 114.708 22.9636V22.967ZM70.8109 14.27C71.4183 13.3907 72.6926 13.5136 73.1466 14.3011C73.0873 13.6877 72.7938 13.4126 72.1682 13.3815C71.2404 13.3335 70.9501 13.5111 70.8109 14.27Z" fill="white"/>
</g>
</svg>
