<svg width="23" height="22" viewBox="0 0 23 22" fill="none" xmlns="http://www.w3.org/2000/svg">
<path d="M10.6043 1.57354C10.883 0.917896 11.0224 0.590073 11.2164 0.489122C11.385 0.401413 11.5829 0.401413 11.7514 0.489122C11.9455 0.590073 12.0849 0.917896 12.3636 1.57354L14.5835 6.79585C14.6659 6.98968 14.7071 7.08659 14.7709 7.1608C14.8273 7.22647 14.8962 7.279 14.9732 7.31495C15.0602 7.3556 15.1609 7.36673 15.3621 7.389L20.7847 7.98914C21.4654 8.06448 21.8058 8.10215 21.9573 8.26447C22.0889 8.40547 22.1501 8.6029 22.1226 8.79811C22.0911 9.02281 21.8368 9.26304 21.3283 9.74362L17.2777 13.5714C17.1275 13.7134 17.0522 13.7844 17.0047 13.8709C16.9625 13.9475 16.9362 14.0325 16.9274 14.1204C16.9174 14.2197 16.9383 14.3235 16.9804 14.5311L18.1117 20.1243C18.2538 20.8265 18.3248 21.1776 18.2244 21.3788C18.1371 21.5538 17.977 21.6757 17.7915 21.7087C17.578 21.7466 17.2814 21.5673 16.6884 21.2087L11.9651 18.3519C11.7898 18.2459 11.7022 18.193 11.609 18.1722C11.5265 18.1539 11.4413 18.1539 11.3588 18.1722C11.2657 18.193 11.178 18.2459 11.0027 18.3519L6.27944 21.2087C5.68644 21.5673 5.38995 21.7466 5.17637 21.7087C4.99084 21.6757 4.83068 21.5538 4.74348 21.3788C4.64309 21.1776 4.7141 20.8265 4.85614 20.1243L5.98748 14.5311C6.02947 14.3235 6.05046 14.2197 6.0405 14.1204C6.03167 14.0325 6.00534 13.9475 5.96321 13.8709C5.9156 13.7844 5.84043 13.7134 5.6901 13.5714L1.63959 9.74362C1.13107 9.26304 0.876804 9.02281 0.84519 8.79811C0.817743 8.6029 0.878911 8.40547 1.01054 8.26447C1.16208 8.10215 1.50247 8.06448 2.18325 7.98914L7.60576 7.389C7.80702 7.36673 7.90764 7.3556 7.99465 7.31495C8.07164 7.279 8.14057 7.22647 8.19699 7.1608C8.26073 7.08659 8.30193 6.98968 8.38433 6.79585L10.6043 1.57354Z" fill="#FF0000"/>
</svg>
