<svg width="109" height="87" viewBox="0 0 109 87" fill="none" xmlns="http://www.w3.org/2000/svg">
<path d="M12.7096 70.0195H5.49422C3.87811 70.0195 2.56396 68.7054 2.56396 67.0906V58.3182C2.56396 57.713 3.05628 57.222 3.6615 57.222C4.26671 57.222 4.75903 57.713 4.75903 58.3182V67.0906C4.75903 67.4962 5.08855 67.8245 5.49422 67.8245H12.7096C13.1152 67.8245 13.4448 67.4962 13.4448 67.0906V63.777C13.4448 63.1705 13.9371 62.6794 14.5423 62.6794C15.1475 62.6794 15.6385 63.1705 15.6385 63.777V67.0906C15.6385 68.7054 14.3257 70.0195 12.7096 70.0195Z" fill="#1E1E1E"/>
<path d="M67.8829 70.0195H60.6662C59.0501 70.0195 57.736 68.7054 57.736 67.0906V63.777C57.736 63.1704 58.2296 62.6794 58.8335 62.6794C59.44 62.6794 59.9297 63.1704 59.9297 63.777V67.0906C59.9297 67.4962 60.2605 67.8245 60.6662 67.8245H67.8829C67.9328 67.8245 67.984 67.8205 68.0339 67.8113C68.2794 67.7601 68.4868 67.5816 68.5747 67.3413C68.7809 66.7702 69.411 66.4775 69.9808 66.6823C70.5493 66.8897 70.8433 67.5186 70.6372 68.0883C70.2919 69.0375 69.4622 69.7569 68.471 69.9591C68.2767 69.9998 68.0785 70.0195 67.8829 70.0195Z" fill="#1E1E1E"/>
<path d="M2.32241 33.4163C2.25808 33.4163 2.19375 33.4557 2.19375 33.5292V35.8884C2.19375 35.9527 2.24626 36.0039 2.30928 36.0039H7.01974V34.2C7.01974 34.1436 6.97642 34.0937 6.92128 34.0858L2.32635 33.4163C2.32503 33.4163 2.32372 33.4163 2.32241 33.4163ZM8.11596 38.1963H2.30928C1.03583 38.1963 0 37.1605 0 35.8884V33.5292C0 32.2584 1.03583 31.2225 2.30797 31.2225C2.41956 31.2225 2.53115 31.2304 2.64143 31.2462L7.23636 31.9157C8.36277 32.0798 9.21349 33.0605 9.21349 34.2V37.1001C9.21349 37.708 8.72249 38.1963 8.11596 38.1963Z" fill="#1E1E1E"/>
<path d="M46.0176 49.3869H27.3582C24.6052 49.3869 21.8982 48.4496 19.7372 46.7442L14.2115 42.3869C13.7362 42.0114 13.6549 41.3222 14.029 40.8456C14.4045 40.3691 15.095 40.2903 15.5703 40.6631L21.0973 45.0231C22.8723 46.4226 25.0962 47.1932 27.3582 47.1932H46.0176C47.4906 47.1932 48.9741 46.8637 50.3066 46.2401C50.8541 45.9828 51.5079 46.2204 51.7652 46.7678C52.0212 47.3166 51.7849 47.9704 51.2374 48.2264C49.6135 48.9865 47.8109 49.3869 46.0176 49.3869Z" fill="#1E1E1E"/>
<path d="M48.9491 60.5894H24.4267C23.2937 60.5894 22.3721 59.6678 22.3721 58.5361V55.5271C22.3721 54.3941 23.2937 53.4738 24.4267 53.4738H48.9491C49.5544 53.4738 50.0454 53.9648 50.0454 54.57C50.0454 55.1753 49.5544 55.6663 48.9491 55.6663H24.5658V58.3956H48.9491C49.5544 58.3956 50.0454 58.888 50.0454 59.4932C50.0454 60.0984 49.5544 60.5894 48.9491 60.5894Z" fill="#1E1E1E"/>
<path d="M61.1585 64.8731H9.12027C5.50603 64.8731 2.56396 61.9337 2.56396 58.3182V50.0538C2.56396 48.3012 3.04971 46.584 3.97001 45.09L8.93385 37.0266L14.0775 26.1051C15.7133 22.6326 19.2488 20.3916 23.0862 20.3916H50.2895C54.127 20.3916 57.6637 22.6326 59.2995 26.1051L60.3551 28.3461C60.6137 28.8935 60.3774 29.5486 59.8299 29.8046C59.2812 30.062 58.6287 29.8283 58.37 29.2795L57.3145 27.0385C56.0398 24.3314 53.2815 22.584 50.2895 22.584H23.0862C20.0943 22.584 17.336 24.3314 16.0626 27.0385L10.8926 38.0151C10.8755 38.0519 10.8558 38.0873 10.8335 38.1228L5.83818 46.2401C5.13187 47.3875 4.75903 48.7082 4.75903 50.0538V58.3182C4.75903 60.7233 6.71516 62.6794 9.12027 62.6794H61.1585C61.765 62.6794 62.2574 63.1704 62.2574 63.7769C62.2574 64.3821 61.765 64.8731 61.1585 64.8731Z" fill="#1E1E1E"/>
<path d="M55.0065 39.2518H14.3493C13.9751 39.2518 13.6259 39.0575 13.4237 38.7411C13.2229 38.4234 13.1979 38.0256 13.3568 37.6843L17.953 27.9286C18.8851 25.9515 20.899 24.6741 23.0862 24.6741H50.2895C52.4767 24.6741 54.4919 25.9515 55.4227 27.9286L57.9985 33.3992C58.2571 33.9466 58.0221 34.6004 57.4747 34.8591C56.9272 35.1164 56.2721 34.8814 56.0135 34.3339L53.4364 28.8633C52.8666 27.6503 51.6312 26.8665 50.2895 26.8665H23.0862C21.7445 26.8665 20.5091 27.6503 19.938 28.8633L16.0796 37.0568H55.0065C55.6105 37.0568 56.1028 37.5478 56.1028 38.153C56.1028 38.7595 55.6105 39.2518 55.0065 39.2518Z" fill="#1E1E1E"/>
<path d="M8.83279 51.8722H17.7207C17.827 51.8722 17.9242 51.8092 17.9675 51.712C18.1461 51.3168 18.1395 50.8678 17.9504 50.4766C17.7614 50.0867 17.4122 49.8031 16.9908 49.6981L9.62837 47.8549L9.43407 48.1713C9.04153 48.8106 8.83279 49.5458 8.83279 50.2968V51.8722ZM17.7207 54.0646H8.58729C7.51339 54.0646 6.63904 53.1916 6.63904 52.1164V50.2968C6.63904 49.1402 6.95937 48.0072 7.56721 47.0212L7.85341 46.5526C8.28927 45.8449 9.17806 45.4839 9.98809 45.6835L17.5238 47.57C18.5767 47.8326 19.4523 48.5454 19.9249 49.5196C20.3989 50.4963 20.4133 51.6227 19.9683 52.6139C19.5705 53.4948 18.6896 54.0646 17.7207 54.0646Z" fill="#1E1E1E"/>
<path d="M22.1567 33.0592C21.7734 33.0592 21.4032 32.8583 21.201 32.5012C20.903 31.9735 21.0894 31.3052 21.6158 31.0059L25.2983 28.9277C25.8261 28.627 26.4957 28.8148 26.7937 29.3412C27.0917 29.869 26.9053 30.5385 26.3775 30.8366L22.695 32.9161C22.5256 33.0119 22.3392 33.0592 22.1567 33.0592Z" fill="#1E1E1E"/>
<path d="M26.8278 35.031C26.4444 35.031 26.0729 34.8315 25.8707 34.4731C25.5727 33.9453 25.7578 33.2771 26.2855 32.9791L32.003 29.7495C32.5307 29.4515 33.1989 29.6379 33.4983 30.1644C33.7963 30.6921 33.6099 31.3604 33.0834 31.6584L27.366 34.8879C27.1953 34.9851 27.0102 35.031 26.8278 35.031Z" fill="#1E1E1E"/>
<path d="M60.6662 70.0195H1.09753C0.491001 70.0195 0 69.5272 0 68.9233C0 68.3155 0.491001 67.8245 1.09753 67.8245H60.6662C61.2727 67.8245 61.7651 68.3155 61.7651 68.9233C61.7651 69.5272 61.2727 70.0195 60.6662 70.0195Z" fill="#1E1E1E"/>
<path d="M86.5527 78.0016C86.2836 78.0016 86.0119 77.9005 85.8005 77.7023C77.9379 70.2716 80.2275 60.2297 80.7211 58.4338C80.4559 56.8886 79.1024 48.8684 78.7046 43.8127C78.4263 40.2904 80.2039 38.6231 81.9604 38.2384C84.1988 37.7474 86.6249 39.1744 87.477 41.4903C88.1597 43.3519 89.055 46.6826 89.848 49.622C90.3088 51.3339 90.7433 52.95 91.0505 53.9478C91.447 55.2396 92.387 56.7061 93.3834 58.2618C94.0937 59.3698 94.8302 60.5212 95.4905 61.771C95.7715 62.3079 95.5667 62.9696 95.0297 63.2532C94.4954 63.5341 93.8311 63.3306 93.5489 62.7937C92.9331 61.6253 92.2242 60.5159 91.5363 59.4433C90.4558 57.759 89.4384 56.1704 88.9526 54.5924C88.6336 53.5579 88.1951 51.9234 87.729 50.1918C86.9492 47.2957 86.067 44.0162 85.4171 42.2452C84.8802 40.7866 83.4754 40.1512 82.4291 40.3809C81.3066 40.6264 80.7474 41.8146 80.8905 43.6394C81.3158 49.0325 82.9083 58.2158 82.9241 58.3077C82.9556 58.4797 82.9437 58.6556 82.8925 58.8237C82.7639 59.2359 79.8389 69.0507 87.3063 76.1085C87.7487 76.5233 87.7671 77.2165 87.3509 77.6576C87.1343 77.8861 86.8442 78.0016 86.5527 78.0016Z" fill="#1E1E1E"/>
<mask id="mask0_82_3293" style="mask-type:luminance" maskUnits="userSpaceOnUse" x="72" y="63" width="16" height="24">
<path d="M72.6169 63.4001H87.8288V86.875H72.6169V63.4001Z" fill="white"/>
</mask>
<g mask="url(#mask0_82_3293)">
<path d="M86.6066 86.875C86.1589 86.875 85.7414 86.6006 85.5773 86.1556L84.338 82.7868C84.0203 81.9309 83.4833 81.1616 82.7797 80.559C74.3342 73.3213 72.8178 65.036 72.7575 64.6881C72.6524 64.0907 73.0528 63.5236 73.6502 63.4212C74.2449 63.3175 74.8134 63.7166 74.9197 64.3113C74.9315 64.3914 76.394 72.1962 84.2093 78.893C85.1926 79.7384 85.9515 80.8228 86.3952 82.0293L87.6358 85.3981C87.8459 85.9678 87.5531 86.5967 86.986 86.8068C86.8586 86.8527 86.7313 86.875 86.6066 86.875Z" fill="#1E1E1E"/>
</g>
<path d="M104.646 82.4481C104.23 82.4481 103.831 82.2092 103.649 81.8035L101.289 76.6244C100.877 75.7172 100.699 74.7155 100.768 73.7243L101.977 56.811C102.015 56.282 101.92 55.7463 101.702 55.2632L95.5667 41.6057C95.3186 41.0544 95.5654 40.4045 96.1168 40.1564C96.6695 39.9096 97.3194 40.1564 97.5688 40.7065L103.702 54.3652C104.067 55.1765 104.228 56.0785 104.166 56.9673L102.957 73.8805C102.912 74.5068 103.025 75.1422 103.288 75.7146L105.645 80.895C105.896 81.4464 105.653 82.0976 105.099 82.3483C104.954 82.4153 104.8 82.4481 104.646 82.4481Z" fill="#1E1E1E"/>
<path d="M81.5941 69.2134C81.4365 69.2134 81.2803 69.1819 81.1306 69.111L54.8686 56.8675C52.7786 55.8934 51.8701 53.4003 52.8456 51.3116L75.2439 3.28932C76.2193 1.20059 78.7137 0.290798 80.8011 1.26755L106.237 13.1251C107.25 13.5964 108.019 14.4353 108.398 15.4856C108.783 16.5345 108.732 17.6701 108.26 18.6836L91.187 55.2855C90.9323 55.8343 90.2798 56.0719 89.7297 55.8146C89.1823 55.5586 88.9433 54.9075 89.1993 54.3574L106.271 17.7542C106.497 17.275 106.52 16.7354 106.337 16.2352C106.156 15.7363 105.791 15.3385 105.309 15.1127L79.8743 3.25387C78.8818 2.79044 77.6963 3.22368 77.2315 4.21749L54.8345 52.2385C54.3711 53.231 54.8017 54.4165 55.7955 54.8799L82.0575 67.1234C82.6076 67.3794 82.8439 68.0319 82.5892 68.5807C82.4028 68.9811 82.0063 69.2134 81.5941 69.2134Z" fill="#1E1E1E"/>
<path d="M105.733 22.6011C105.577 22.6011 105.42 22.5683 105.27 22.4974L74.2423 8.03253C73.6922 7.77652 73.4559 7.12404 73.7106 6.57528C73.9666 6.0252 74.6217 5.78889 75.1691 6.04358L106.197 20.5097C106.747 20.7657 106.983 21.4182 106.727 21.967C106.542 22.3661 106.146 22.6011 105.733 22.6011Z" fill="#1E1E1E"/>
<path d="M81.392 61.7158C81.2358 61.7158 81.0795 61.6843 80.9299 61.6134L54.9094 49.4828C54.3607 49.2268 54.1204 48.5743 54.3791 48.0255C54.6364 47.4768 55.2875 47.2392 55.8363 47.4952L81.8567 59.6258C82.4068 59.8818 82.6431 60.5343 82.3871 61.083C82.202 61.4821 81.8055 61.7158 81.392 61.7158Z" fill="#1E1E1E"/>
<path d="M85.9226 9.67229C85.7677 9.67229 85.6088 9.63815 85.4592 9.56726L85.0089 9.35852C84.4588 9.1012 84.2225 8.44872 84.4772 7.90127C84.7332 7.35119 85.3857 7.11357 85.9357 7.37088L86.386 7.57962C86.9361 7.83563 87.1724 8.48942 86.9177 9.03687C86.7313 9.43466 86.3348 9.67229 85.9226 9.67229Z" fill="#1E1E1E"/>
<path d="M94.8223 13.821C94.6687 13.821 94.5098 13.7881 94.3602 13.7172L89.1193 11.2727C88.5692 11.0167 88.3329 10.3656 88.5889 9.8155C88.8436 9.26542 89.4974 9.02911 90.0462 9.28511L95.2897 11.7296C95.8358 11.9856 96.0761 12.6368 95.8187 13.1869C95.631 13.5873 95.2358 13.821 94.8223 13.821Z" fill="#1E1E1E"/>
<path d="M88.9132 37.5977L90.6475 38.4051L93.5436 32.2006C93.6906 31.8855 93.7458 31.5376 93.7064 31.1937L93.3165 27.8381C93.3138 27.7974 93.3099 27.758 93.3099 27.716L93.2941 23.4177C93.2902 22.63 92.8281 21.9054 92.1152 21.5732L83.3783 17.5008C82.672 17.1726 81.8029 17.2842 81.2069 17.783L77.9024 20.5334C77.8696 20.561 77.8381 20.5846 77.8027 20.6056L74.9827 22.4659C74.6952 22.6563 74.4641 22.9228 74.3184 23.2366L71.4223 29.4423L73.1579 30.2511L73.9968 28.4525C74.1202 28.1899 74.3433 27.9851 74.6164 27.8866C74.8908 27.7869 75.1914 27.7987 75.4553 27.9221L89.2217 34.3405C89.7718 34.5965 90.0081 35.2503 89.7521 35.7978L88.9132 37.5977ZM90.8654 40.7472C90.6094 40.7472 90.36 40.692 90.1263 40.5831L87.5807 39.395C87.1566 39.198 86.8376 38.8475 86.6775 38.4103C86.5173 37.9732 86.5396 37.4979 86.7365 37.0739L87.301 35.8647L75.5223 30.3745L74.9578 31.5836C74.6716 32.198 74.0493 32.5918 73.3745 32.5918C73.1185 32.5918 72.8703 32.5367 72.6367 32.4291L70.0884 31.2422C69.667 31.044 69.3467 30.6948 69.1878 30.2576C69.0277 29.8178 69.0487 29.3426 69.2456 28.9212L72.3295 22.311C72.6458 21.6283 73.1487 21.0481 73.7762 20.6332L76.545 18.8097L79.8047 16.0974C80.5609 15.4646 81.5259 15.1154 82.5144 15.1154C83.138 15.1154 83.7393 15.2493 84.3052 15.5145L93.0421 19.5856C94.5217 20.2761 95.4813 21.7767 95.4866 23.4085L95.5037 27.6464L95.8857 30.9416C95.9736 31.6886 95.8489 32.4448 95.5312 33.1275L92.4474 39.7389C92.1625 40.3507 91.5402 40.7472 90.8654 40.7472Z" fill="#FF0000"/>
<path d="M77.1987 20.7881C77.0451 20.7881 76.885 20.7553 76.7366 20.6857L74.342 19.5684C73.7932 19.3124 73.5556 18.6587 73.8116 18.1112C74.0689 17.5624 74.7214 17.3248 75.2702 17.5795L77.6635 18.6967C78.2123 18.9527 78.4525 19.6052 78.1939 20.1553C78.0075 20.5544 77.6136 20.7881 77.1987 20.7881Z" fill="#FF0000"/>
<path d="M96.8007 29.9255C96.6445 29.9255 96.4883 29.894 96.3373 29.8231L93.944 28.7072C93.3926 28.4525 93.1576 27.7974 93.4136 27.2499C93.6683 26.6998 94.3234 26.4622 94.8709 26.7195L97.2642 27.8341C97.8143 28.0901 98.0506 28.7426 97.7959 29.2927C97.6094 29.6918 97.2143 29.9255 96.8007 29.9255Z" fill="#FF0000"/>
<path d="M91.3696 27.7986C91.2133 27.7986 91.0571 27.7658 90.9061 27.6962L79.6184 22.4331C79.0683 22.1771 78.832 21.5259 79.088 20.9758C79.344 20.427 79.9978 20.1894 80.5452 20.4454L91.833 25.7086C92.3831 25.9633 92.6207 26.6171 92.3634 27.1658C92.1783 27.5649 91.7818 27.7986 91.3696 27.7986Z" fill="#FF0000"/>
<path d="M77.7882 26.428C77.6333 26.428 77.4744 26.3952 77.3248 26.3243L75.5485 25.4985C75.001 25.2425 74.7634 24.5887 75.0194 24.0413C75.2754 23.4912 75.9292 23.2536 76.478 23.5109L78.2529 24.338C78.8017 24.594 79.0406 25.2465 78.7833 25.7952C78.5956 26.1943 78.2004 26.428 77.7882 26.428Z" fill="#FF0000"/>
<path d="M91.4825 32.8111C91.3262 32.8111 91.1687 32.7783 91.0177 32.7087L89.2441 31.8803C88.694 31.6256 88.4577 30.9731 88.7137 30.4244C88.9697 29.873 89.6209 29.638 90.1709 29.894L91.9459 30.7211C92.496 30.9771 92.7323 31.6309 92.4763 32.1783C92.2899 32.5774 91.8947 32.8111 91.4825 32.8111Z" fill="#FF0000"/>
<path d="M86.6355 31.7556C86.4792 31.7556 86.3217 31.7241 86.172 31.6545L79.4726 28.5313C78.9238 28.2766 78.6862 27.6228 78.9435 27.074C79.1995 26.524 79.852 26.2877 80.3995 26.5437L87.0989 29.6669C87.649 29.9216 87.8853 30.5741 87.6293 31.1241C87.4442 31.5232 87.0477 31.7556 86.6355 31.7556Z" fill="#FF0000"/>
</svg>
