<svg width="37" height="37" viewBox="0 0 37 37" fill="none" xmlns="http://www.w3.org/2000/svg">
<path d="M21.0693 33.2928L21.0693 27.2855C21.0693 26.4708 21.7481 25.8107 22.5854 25.8107C25.5729 25.8107 27.198 22.8293 27.4233 16.9451L22.5854 16.9451C21.7481 16.9451 21.0693 16.2844 21.0693 15.47L21.0693 2.78595C21.0693 1.97165 21.7481 1.31142 22.5854 1.31142L35.4842 1.31142C36.3219 1.31142 37 1.97216 37 2.78595L37 15.47C37 18.2907 36.7081 20.8793 36.1327 23.1645C35.5425 25.5077 34.6366 27.5565 33.4408 29.2541C32.2105 30.9987 30.6714 32.3677 28.8662 33.3215C27.0487 34.281 24.9352 34.7676 22.5849 34.7676C21.7481 34.7676 21.0693 34.1075 21.0693 33.2928ZM1.51624 25.8106C0.679311 25.8106 -3.08941e-06 26.4713 -3.16058e-06 27.2854L-3.68575e-06 33.2927C-3.75698e-06 34.1074 0.679203 34.7675 1.51624 34.7675C3.86558 34.7675 5.97941 34.2808 7.79625 33.3214C9.60184 32.3676 11.1417 30.9986 12.3723 29.254C13.5676 27.5564 14.4735 25.5075 15.0638 23.1638C15.6389 20.8778 15.9308 18.2893 15.9308 15.4699L15.9308 2.78585C15.9308 1.97154 15.2518 1.31131 14.4147 1.31131L1.51635 1.31131C0.67942 1.31131 0.000742918 1.97206 0.000742847 2.78585L0.000741738 15.47C0.000741667 16.2843 0.679311 16.9451 1.51634 16.9451L6.2852 16.9451C6.06336 22.8292 4.46201 25.8106 1.51624 25.8106Z" fill="#6D597A" fill-opacity="0.28"/>
</svg>
