<svg width="69" height="78" viewBox="0 0 69 78" fill="none" xmlns="http://www.w3.org/2000/svg">
<path d="M7.90395 67.2425C7.69831 67.2425 7.49916 67.161 7.35281 67.0165C7.20368 66.8692 7.11939 66.6701 7.11846 66.4608L6.92857 39.5504L6.69607 6.77945C6.69237 6.34502 7.0425 5.99026 7.476 5.98748L26.9881 5.84854L54.0004 5.65772C54.2144 5.6568 54.4098 5.73738 54.558 5.88466C54.7062 6.03101 54.7905 6.23017 54.7924 6.43951L54.9823 33.3443C54.986 33.7787 54.6358 34.1344 54.2023 34.1372H54.1958C53.7642 34.1372 53.4131 33.788 53.4104 33.3554L53.2251 7.23796L8.27353 7.55568L8.6848 65.6632L50.0563 65.3696H50.0618C50.4935 65.3696 50.8446 65.7179 50.8483 66.1514C50.851 66.5858 50.5018 66.9406 50.0674 66.9443L7.91043 67.2425H7.90395Z" fill="black"/>
<path d="M13.1847 17.6541C12.754 17.6541 12.402 17.3048 12.3992 16.8723C12.3964 16.4378 12.7456 16.0821 13.18 16.0794L48.3306 15.8302C48.7595 15.8321 49.1198 16.1766 49.1226 16.612C49.1254 17.0464 48.7762 17.4012 48.3417 17.4049L13.1912 17.6541H13.1847Z" fill="black"/>
<path d="M13.2551 27.593C12.8235 27.593 12.4724 27.2438 12.4696 26.8112C12.4659 26.3759 12.8161 26.0211 13.2496 26.0183L48.4011 25.7692C48.8392 25.7719 49.1903 26.1156 49.193 26.5509C49.1958 26.9854 48.8466 27.3401 48.4122 27.3429L13.2616 27.593H13.2551Z" fill="black"/>
<path d="M35.6572 37.3727C35.2284 37.3727 34.8773 37.0291 34.8708 36.5983C34.8643 36.1639 35.2108 35.8054 35.6443 35.799L47.3404 35.6146C47.7693 35.6054 48.1324 35.9546 48.1389 36.389C48.1463 36.8243 47.7999 37.1819 47.3654 37.1893L35.6693 37.3727C35.6656 37.3727 35.6609 37.3727 35.6572 37.3727Z" fill="black"/>
<path d="M13.3256 37.5311C12.8939 37.5311 12.5428 37.1828 12.5401 36.7493C12.5364 36.3149 12.8865 35.9601 13.32 35.9573L27.8719 35.8536C28.3128 35.8508 28.6602 36.2009 28.6639 36.6354C28.6666 37.0698 28.3174 37.4255 27.883 37.4283L13.3311 37.5311H13.3256Z" fill="black"/>
<path d="M30.9712 47.346C30.5395 47.346 30.1885 46.9968 30.1857 46.5642C30.1829 46.1298 30.5321 45.7741 30.9665 45.7713L48.5418 45.6462H48.5474C48.979 45.6462 49.3301 45.9954 49.3338 46.428C49.3366 46.8634 48.9874 47.2181 48.5529 47.2209L30.9777 47.346H30.9712Z" fill="black"/>
<path d="M13.3959 47.4701C12.9643 47.4701 12.6132 47.1218 12.6095 46.6883C12.6067 46.2539 12.9559 45.8991 13.3904 45.8963L23.0811 45.8268H23.0867C23.5183 45.8268 23.8694 46.1761 23.8731 46.6086C23.8759 47.0431 23.5267 47.3987 23.0923 47.4015L13.4015 47.4701H13.3959Z" fill="black"/>
<path d="M34.7773 57.2581C34.3456 57.2581 33.9936 56.9089 33.9909 56.4763C33.9881 56.0419 34.3373 55.6862 34.7717 55.6835L48.6122 55.5853H48.6178C49.0494 55.5853 49.4005 55.9345 49.4042 56.367C49.407 56.8015 49.0568 57.1572 48.6233 57.1599L34.7828 57.2581H34.7773Z" fill="black"/>
<path d="M13.4664 57.4091C13.0347 57.4091 12.6837 57.0599 12.6799 56.6273C12.6772 56.1929 13.0273 55.8381 13.4608 55.8344L25.6535 55.7483H25.6599C26.0907 55.7483 26.4427 56.0966 26.4454 56.5301C26.4482 56.9645 26.099 57.3193 25.6646 57.323L13.4719 57.4091H13.4664Z" fill="black"/>
<mask id="mask0_82_3266" style="mask-type:luminance" maskUnits="userSpaceOnUse" x="0" y="10" width="9" height="31">
<path d="M0 10.7968H8.73207V40.4378H0V10.7968Z" fill="white"/>
</mask>
<g mask="url(#mask0_82_3266)">
<path d="M7.71405 40.3321C7.36113 40.3321 7.0462 40.095 6.95449 39.7449L0.110194 13.7237C-0.000959814 13.3032 0.250063 12.8725 0.669669 12.7623L7.31667 11.0097C7.55102 10.9477 7.80112 10.9977 7.99471 11.145C8.18738 11.2932 8.30131 11.522 8.30316 11.7647L8.50046 39.5392C8.50324 39.9357 8.21053 40.2729 7.81779 40.3247C7.78352 40.3294 7.74832 40.3321 7.71405 40.3321ZM1.8303 14.0841L6.8841 33.2952L6.73774 12.7901L1.8303 14.0841Z" fill="black"/>
</g>
<path d="M16.0487 72.0258C15.9107 72.0258 15.7745 71.9888 15.6532 71.9184C15.4726 71.8137 15.342 71.6405 15.2892 71.4386L14.0183 66.6071C13.9572 66.3718 14.0072 66.1217 14.1545 65.9281C14.3018 65.7354 14.5305 65.6215 14.7732 65.6196L34.9125 65.4761H34.918C35.3117 65.4761 35.6452 65.7688 35.697 66.1597C35.7498 66.5533 35.5016 66.9239 35.1181 67.0248L16.2488 71.9999C16.183 72.0175 16.1163 72.0258 16.0487 72.0258ZM15.7968 67.1869L16.6091 70.277L28.6767 67.0952L15.7968 67.1869Z" fill="black"/>
<path d="M26.9937 7.42228C26.6 7.42228 26.2666 7.1305 26.2147 6.73961C26.1619 6.34594 26.4101 5.97543 26.7936 5.87446L45.662 0.901253C45.8639 0.847528 46.0788 0.877169 46.2585 0.981839C46.4392 1.08744 46.5698 1.25972 46.6226 1.46165L47.8934 6.29314C47.9555 6.52842 47.9045 6.77944 47.7573 6.97211C47.61 7.16477 47.3812 7.27963 47.1385 7.28056L26.9993 7.42228H26.9937ZM45.3026 2.62414L33.235 5.80407L46.115 5.71422L45.3026 2.62414Z" fill="black"/>
<path d="M59.5424 60.5594C59.1931 60.5594 58.8754 60.326 58.7819 59.9731C58.6717 59.5525 58.9227 59.1218 59.3423 59.0116L60.0815 58.8162L58.1464 51.4587C58.0353 51.0391 58.2863 50.6084 58.7059 50.4972C59.1255 50.3861 59.5563 50.638 59.6665 51.0585L61.8016 59.1765C61.8553 59.3784 61.8256 59.5933 61.721 59.7739C61.6154 59.9546 61.4431 60.0852 61.2421 60.1389L59.7424 60.5335C59.6757 60.5511 59.6081 60.5594 59.5424 60.5594Z" fill="black"/>
<path d="M54.8711 36.7067C54.5228 36.7067 54.2041 36.4724 54.1115 36.1194L53.4362 33.5509C53.3251 33.1303 53.5761 32.6996 53.9957 32.5885C54.4153 32.4782 54.846 32.7292 54.9563 33.1498L55.6325 35.7184C55.7427 36.1389 55.4917 36.5696 55.0721 36.6798C55.0054 36.6974 54.9377 36.7067 54.8711 36.7067Z" fill="black"/>
<path d="M42.055 63.1641C37.5301 63.1641 33.0655 61.2226 29.9893 57.586C27.2669 54.3681 25.9599 50.2823 26.3073 46.0797C26.6556 41.8772 28.6174 38.0609 31.8316 35.3349C35.0449 32.6097 39.1252 31.3009 43.324 31.6492C47.521 31.9975 51.3317 33.9612 54.0541 37.1782C58.8819 42.8859 59.0338 51.2836 54.4153 57.147C53.7679 57.9713 53.0268 58.7402 52.2136 59.4293C51.4012 60.1185 50.5231 60.7233 49.6024 61.2282C47.2311 62.5342 44.6329 63.1641 42.055 63.1641ZM41.9985 33.1683C38.6463 33.1683 35.4349 34.3428 32.8478 36.5362C29.9541 38.9909 28.1877 42.4255 27.8746 46.2094C27.5615 49.9923 28.7388 53.6715 31.1888 56.568C35.5368 61.708 42.9628 63.0872 48.8465 59.848C49.6746 59.3941 50.4657 58.8485 51.1974 58.2279C51.9301 57.6064 52.597 56.9154 53.1797 56.1734C57.3378 50.8945 57.1997 43.3342 52.8536 38.1961C50.4036 35.2997 46.9727 33.5314 43.1944 33.2183C42.7942 33.185 42.395 33.1683 41.9985 33.1683Z" fill="#FF0000"/>
<path d="M64.4396 77.6632C63.3651 77.6632 62.2971 77.2084 61.5505 76.3247L48.6252 61.0466C48.3445 60.715 48.3852 60.2176 48.7169 59.9369C49.0485 59.6562 49.545 59.697 49.8247 60.0286L62.75 75.3076C63.5374 76.2386 64.9342 76.3543 65.8651 75.5661C66.3153 75.1835 66.5904 74.6491 66.6386 74.0599C66.6877 73.4708 66.5043 72.8984 66.1226 72.4473L53.1982 57.1683C52.9175 56.8366 52.9583 56.3402 53.2899 56.0595C53.6206 55.7779 54.1171 55.8196 54.3977 56.1512L67.3231 71.4293C67.9761 72.2018 68.2892 73.1818 68.2058 74.1896C68.1225 75.1983 67.6519 76.1135 66.8813 76.7675C66.1717 77.3686 65.3029 77.6623 64.4396 77.6632Z" fill="black"/>
</svg>
