<svg width="19" height="17" viewBox="0 0 19 17" fill="none" xmlns="http://www.w3.org/2000/svg">
<path d="M8.86091 2.64594C7.55217 2.79677 6.31087 3.31609 5.27687 4.14537L6.1718 5.05609C6.31602 5.21342 6.39455 5.42151 6.39081 5.63652C6.38708 5.85153 6.30139 6.05668 6.15178 6.20874C6.00218 6.3608 5.80036 6.44791 5.58882 6.45169C5.37727 6.45549 5.17255 6.37568 5.01776 6.22907L4.11849 5.31614C3.3542 6.29056 2.85692 7.45301 2.67705 8.68571H4.50607C4.72263 8.68571 4.93032 8.77315 5.08344 8.92879C5.23658 9.08444 5.3226 9.29554 5.3226 9.51565C5.3226 9.73577 5.23658 9.94686 5.08344 10.1025C4.93032 10.2582 4.72263 10.3456 4.50607 10.3456H2.62805C2.79755 12.1216 3.59613 13.7745 4.87514 14.9966C5.02941 15.148 5.11885 15.3551 5.12415 15.5731C5.12945 15.7909 5.05017 16.0022 4.90345 16.1612C4.75674 16.3202 4.55436 16.4142 4.34006 16.4228C4.12574 16.4315 3.91672 16.3539 3.75814 16.2072C2.08152 14.6103 0.967773 12.2556 0.967773 9.72922C0.967773 4.86907 4.87296 0.939575 9.67744 0.939575C14.4819 0.939575 18.3871 4.86797 18.3871 9.72922C18.3849 10.9421 18.14 12.1419 17.6673 13.2555C17.1945 14.3693 16.5037 15.3735 15.637 16.2072C15.4785 16.3539 15.2694 16.4315 15.0551 16.4228C14.8408 16.4142 14.6384 16.3202 14.4917 16.1612C14.345 16.0022 14.2657 15.7909 14.271 15.5731C14.2763 15.3551 14.3657 15.148 14.52 14.9966C15.7902 13.7724 16.5755 12.118 16.7278 10.3456H14.8488C14.6323 10.3456 14.4245 10.2582 14.2714 10.1025C14.1183 9.94686 14.0322 9.73577 14.0322 9.51565C14.0322 9.29554 14.1183 9.08444 14.2714 8.92879C14.4245 8.77315 14.6323 8.68571 14.8488 8.68571H16.6778C16.2162 5.51422 13.6807 3.01444 10.494 2.64594V3.9827C10.494 4.20282 10.4079 4.41391 10.2548 4.56956C10.1017 4.7252 9.89399 4.81264 9.67744 4.81264C9.46087 4.81264 9.25318 4.7252 9.10006 4.56956C8.94693 4.41391 8.86091 4.20282 8.86091 3.9827V2.64594ZM13.4324 5.15237C13.5314 5.07251 13.6545 5.0301 13.7809 5.03243C13.9072 5.03476 14.0287 5.08168 14.1248 5.16515C14.2208 5.2486 14.2852 5.36342 14.3071 5.4899C14.3289 5.61637 14.3069 5.74665 14.2445 5.85837L14.1248 6.07526C13.687 6.86106 13.2464 7.64527 12.8031 8.42788C12.4487 9.05414 12.0894 9.67754 11.7253 10.298C11.5888 10.5314 11.4495 10.7631 11.3072 10.9929C11.1984 11.1667 11.0917 11.3316 11.0133 11.4245C10.732 11.7594 10.3314 11.967 9.89962 12.0016C9.4678 12.0363 9.04011 11.8952 8.71066 11.6093C8.3812 11.3235 8.17697 10.9163 8.14287 10.4774C8.10877 10.0385 8.2476 9.60375 8.52885 9.26889C8.60723 9.17593 8.74985 9.04204 8.90227 8.90592C9.06558 8.75874 9.27569 8.57837 9.51194 8.37586C9.98662 7.97306 10.5811 7.47952 11.1602 7.00369C11.8511 6.43567 12.5442 5.87056 13.2397 5.3084L13.4324 5.15237Z" fill="#FF0000"/>
</svg>
