<svg width="28" height="46" viewBox="0 0 28 46" fill="none" xmlns="http://www.w3.org/2000/svg">
<path fill-rule="evenodd" clip-rule="evenodd" d="M6.42116 21.0496L5.51338 16.9587C9.49675 11.9779 18.5407 12.3212 22.4866 16.9587L21.3514 21.0496C16.2962 19.8042 11.3257 19.9036 6.42116 21.0496ZM4.34342 9.93337C4.67247 13.4627 4.51553 17.6716 4.34967 22.1137C4.19718 26.2178 4.03667 30.5217 4.24712 34.6531V34.6707C4.2489 36.5172 4.2703 38.032 4.73668 39.3355C5.1977 40.6213 6.10816 41.7426 7.89163 42.8481C9.69739 43.9668 12.2986 44.4922 14.8373 44.3567C17.2272 44.2291 19.5484 43.5144 21.075 42.1563C23.6352 39.8785 23.6298 38.1481 23.6209 35.2393V34.6434C24.0088 29.6671 23.8314 25.049 23.6584 20.5453C23.5237 17.0405 23.3917 13.6018 23.5291 10.1147C23.7065 5.5969 21.4861 2.81916 18.5015 1.55528C17.0818 0.95414 15.4883 0.690097 13.8957 0.740265C12.2995 0.790433 10.705 1.15569 9.2863 1.8114C6.22141 3.22931 3.9787 6.01937 4.34342 9.93337ZM3.60685 22.0873C3.66303 20.5664 3.71921 19.0737 3.75399 17.6276C3.73705 17.6417 3.72099 17.6593 3.70494 17.6778C3.43742 18.0008 3.54978 18.3995 3.41602 18.7462C3.38481 18.8272 3.34468 18.8959 3.29564 18.9513C3.21449 19.0437 3.02901 19.1097 2.80786 19.1573C2.28976 19.2691 0.665918 19.4556 0.261071 19.2937C0.0229784 19.1986 -0.0679784 18.924 0.054189 18.5438C0.237886 18.0245 0.54375 17.7306 0.987833 17.4692C1.74046 17.0264 2.62149 16.8944 3.77093 16.8786C3.81908 14.401 3.79679 12.0739 3.60329 9.99938C3.20468 5.72716 5.6409 2.68802 8.97152 1.14689C10.4812 0.448937 12.1773 0.0599136 13.8725 0.00622484C15.5712 -0.0465838 17.2735 0.235942 18.7931 0.879327C22.0443 2.25587 24.4645 5.2642 24.2728 10.1402C24.1836 12.3925 24.2086 14.6298 24.2737 16.8795C25.4008 16.8979 26.2694 17.0317 27.0122 17.4692C27.4562 17.7306 27.7621 18.0245 27.9458 18.5438C28.068 18.924 27.977 19.1986 27.7389 19.2937C27.3341 19.4556 25.7102 19.2691 25.1921 19.1573C24.971 19.1097 24.7855 19.0437 24.7044 18.9513C24.6553 18.8959 24.6152 18.8272 24.584 18.7462C24.4502 18.4012 24.5617 18.0034 24.2977 17.6822C24.3289 18.6248 24.3655 19.5692 24.4021 20.5197C24.5759 25.049 24.7552 29.6944 24.3628 34.6971L24.3646 35.2393C24.3744 38.3541 24.3798 40.2068 21.5735 42.7038C19.914 44.1789 17.4243 44.9543 14.8757 45.0907C12.1942 45.2333 9.43076 44.6691 7.4957 43.4695C5.55083 42.2637 4.55031 41.0209 4.03488 39.581C3.5257 38.1596 3.50163 36.585 3.50163 34.6707C3.29207 30.5191 3.45347 26.2028 3.60685 22.0873ZM5.1228 31.0375C4.60827 28.0819 4.7019 23.5342 5.29758 20.5857C6.40689 24.7127 6.15453 27.0425 5.1228 31.0375ZM22.8772 31.0375C23.3917 28.0819 23.2981 23.5342 22.7024 20.5857C21.5931 24.7127 21.8455 27.0425 22.8772 31.0375ZM16.3292 1.9399C17.9129 2.52432 19.2853 3.31293 20.3786 4.35326C21.4763 5.39711 22.294 6.69532 22.7639 8.29454C22.7836 8.36319 22.7434 8.43624 22.673 8.45649C22.6311 8.46793 22.5883 8.45913 22.5562 8.43536C21.2926 7.49889 19.8658 6.30189 18.6406 5.09346C17.599 4.06633 16.6993 3.02688 16.1642 2.12649C16.1502 2.10288 16.144 2.07549 16.1466 2.04822C16.1491 2.02094 16.1603 1.99516 16.1786 1.97452C16.1968 1.95388 16.2212 1.93943 16.2482 1.93322C16.2753 1.92701 16.3036 1.92934 16.3292 1.9399ZM7.19875 4.72732C8.29202 3.68699 9.66439 2.89838 11.2481 2.31396C11.2737 2.3034 11.302 2.30107 11.3291 2.30728C11.3561 2.3135 11.3805 2.32795 11.3987 2.34858C11.417 2.36922 11.4282 2.39501 11.4308 2.42228C11.4333 2.44955 11.4271 2.47694 11.4131 2.50055C10.878 3.40094 9.97918 4.43951 8.93763 5.46752C7.71239 6.67595 6.28473 7.87295 5.02114 8.80942C4.98904 8.83319 4.94624 8.84199 4.90432 8.83055C4.87074 8.82068 4.84245 8.79815 4.82559 8.76783C4.80873 8.73752 4.80466 8.70186 4.81426 8.6686C5.28331 7.06938 6.10103 5.77117 7.19875 4.72732ZM6.51925 33.9419L7.25939 31.8498C11.982 32.5742 16.8946 32.5187 20.8119 31.8366L21.4807 33.8126C16.1972 36.321 12.0533 36.5947 6.51925 33.9419Z" fill="black"/>
<path d="M7 29.334V22.7783C7 22.226 7.44771 21.7783 8 21.7783H20.0002C20.5525 21.7783 21.0002 22.226 21.0002 22.7783V29.334C21.0002 29.8863 20.5525 30.334 20.0002 30.334H8C7.44772 30.334 7 29.8863 7 29.334Z" fill="#FF0000" stroke="black" stroke-width="0.12"/>
</svg>
