<svg width="20" height="18" viewBox="0 0 20 18" fill="none" xmlns="http://www.w3.org/2000/svg">
<path d="M11.1856 1L1 12.7963L2.85567 14L13 2.60494L11.1856 1Z" stroke="black" stroke-width="0.5"/>
<path d="M0.25 14C0.25 13.0335 1.0335 12.25 2 12.25C2.9665 12.25 3.75 13.0335 3.75 14V16.75H0.25V14Z" fill="white" stroke="black" stroke-width="0.5"/>
<path d="M3.5 10L5 11.5" stroke="black" stroke-width="0.45"/>
<path d="M5.0918 7.89111L6.90823 9.60883" stroke="black" stroke-width="0.45"/>
<path d="M7.0235 5.97729L8.47647 7.52289" stroke="black" stroke-width="0.45"/>
<path d="M8.60345 3.87891L10.3966 5.62093" stroke="black" stroke-width="0.45"/>
<path d="M0 17H19" stroke="black" stroke-width="0.45"/>
<path d="M8.91302 15.8694V16.6955H10.4782V15.8694" stroke="#FF0000" stroke-width="0.45"/>
<path d="M16.4782 15.8694V16.6955H18.0434V15.8694" stroke="#FF0000" stroke-width="0.45"/>
<path d="M9.69385 8.5976L8.64009 10.9949C8.36134 11.6291 8.21741 12.3142 8.21741 13.0069V15.4196C8.21741 15.6681 8.41888 15.8696 8.66741 15.8696H18.3761C18.6246 15.8696 18.8261 15.6681 18.8261 15.4196V13.0547C18.8261 12.3312 18.6691 11.6163 18.3659 10.9594L17.2681 8.58094C17.1047 8.22679 16.7502 8 16.3602 8H10.6093C10.2126 8 9.85348 8.23446 9.69385 8.5976Z" stroke="#FF0000" stroke-width="0.45"/>
<path d="M8.21741 11.9131H18.7391" stroke="#FF0000" stroke-width="0.45"/>
<circle cx="10.0435" cy="13.2173" r="0.731521" stroke="#FF0000" stroke-width="0.45"/>
<circle cx="16.9131" cy="13.2173" r="0.731521" stroke="#FF0000" stroke-width="0.45"/>
<path d="M10.4782 15.8696L11.4347 14.8696H15.4347L16.4782 15.8696" stroke="#FF0000" stroke-width="0.45"/>
<path d="M18.8336 11.8331C18.7325 11.5849 18.9023 11.3101 19.1695 11.2896L19.3421 11.2763C19.5756 11.2583 19.775 11.443 19.775 11.6772C19.775 11.8993 19.595 12.0793 19.3729 12.0793H19.1999C19.0391 12.0793 18.8943 11.982 18.8336 11.8331Z" stroke="#FF0000" stroke-width="0.45"/>
<path d="M8.1664 11.8331C8.26752 11.5849 8.09769 11.3101 7.83048 11.2896L7.65794 11.2763C7.42438 11.2583 7.22497 11.443 7.22497 11.6772C7.22497 11.8993 7.40501 12.0793 7.62709 12.0793H7.80015C7.96094 12.0793 8.10573 11.982 8.1664 11.8331Z" stroke="#FF0000" stroke-width="0.45"/>
</svg>
