<svg width="27" height="22" viewBox="0 0 27 22" fill="none" xmlns="http://www.w3.org/2000/svg">
<path d="M26.0907 3.0434C25.1153 3.44724 24.14 3.77032 23.002 3.85109C24.14 3.20494 24.9527 2.15494 25.3591 0.943397C24.3025 1.58955 23.1646 1.9934 21.9454 2.2357C20.9701 1.1857 19.5883 0.539551 18.1253 0.539551C15.1992 0.539551 12.7609 2.88186 12.7609 5.87032C12.7609 6.27417 12.8421 6.67801 12.9234 7.08186C8.45305 6.83955 4.55164 4.73955 1.86942 1.50878C1.38175 2.31647 1.13791 3.20494 1.13791 4.17417C1.13791 6.03186 2.11326 7.64724 3.49501 8.61647C2.60094 8.61647 1.78814 8.37417 1.05663 7.97032V8.05109C1.05663 10.6357 2.92605 12.7357 5.36443 13.2203C4.87676 13.3011 4.47036 13.3819 3.98269 13.3819C3.65757 13.3819 3.33245 13.3819 3.00733 13.3011C3.65757 15.4011 5.68955 16.9357 7.96537 17.0165C6.17723 18.4703 3.82013 19.278 1.30047 19.278C0.894072 19.278 0.406397 19.278 0 19.1972C2.43838 20.6511 5.28316 21.5396 8.29049 21.5396C18.1253 21.5396 23.4897 13.4626 23.4897 6.4357C23.4897 6.1934 23.4897 5.95109 23.4897 5.78955C24.4651 4.98186 25.3591 4.0934 26.0907 3.0434Z" fill="black"/>
</svg>
