<svg width="11" height="12" viewBox="0 0 11 12" fill="none" xmlns="http://www.w3.org/2000/svg">
<path d="M0.99996 7.5C0.99996 9.3856 0.999961 9.82845 1.52527 10.4142C2.05053 11 2.89602 11 4.58691 11" stroke="black" stroke-linecap="round"/>
<path d="M6.38082 1C8.07173 1 8.91718 1 9.44248 1.58578C9.96777 2.17157 9.96777 2.61438 9.96777 4.5" stroke="black" stroke-linecap="round"/>
<path d="M5.48446 3.5C6.79698 3.5 7.69027 4.28111 8.22291 4.9701C8.48967 5.31515 8.62305 5.4877 8.62305 6C8.62305 6.5123 8.48967 6.68485 8.22291 7.0299C7.69027 7.7189 6.79698 8.5 5.48446 8.5C4.17195 8.5 3.27867 7.7189 2.746 7.0299C2.47927 6.68485 2.34588 6.5123 2.34588 6C2.34588 5.4877 2.47927 5.31515 2.746 4.9701C2.98602 4.65966 3.2992 4.33053 3.69099 4.06256" stroke="#FF0000" stroke-linecap="round"/>
<path d="M5.48412 7C4.98887 7 4.58738 6.55228 4.58738 6C4.58738 5.44771 4.98887 5 5.48412 5C5.97938 5 6.38086 5.44771 6.38086 6C6.38086 6.55228 5.97938 7 5.48412 7Z" stroke="#FF0000"/>
<path d="M6.38082 11C6.53739 11 6.6867 11 6.82919 10.9995M9.96777 7.5C9.96777 9.3856 9.96777 9.82845 9.44248 10.4142C9.14961 10.7408 8.75723 10.8853 8.1743 10.9492" stroke="black" stroke-linecap="round"/>
<path d="M4.58691 1C4.43034 1 4.28104 1 4.13854 1.00047M0.99996 4.5C0.99996 2.61438 0.999961 2.17157 1.52527 1.58578C1.81814 1.25919 2.21051 1.11468 2.79344 1.05074" stroke="black" stroke-linecap="round"/>
</svg>
