<svg width="28" height="28" viewBox="0 0 28 28" fill="none" xmlns="http://www.w3.org/2000/svg">
<path fill-rule="evenodd" clip-rule="evenodd" d="M14 27.125C20.7655 27.125 26.25 21.6405 26.25 14.875C26.25 8.10951 20.7655 2.625 14 2.625C7.23451 2.625 1.75 8.10951 1.75 14.875C1.75 17.072 2.32837 19.134 3.34116 20.9169L1.75 27.125L8.1505 25.6408C9.88873 26.5872 11.8815 27.125 14 27.125ZM14 25.2404C19.7247 25.2404 24.3654 20.5997 24.3654 14.875C24.3654 9.1504 19.7247 4.50962 14 4.50962C8.27536 4.50962 3.63462 9.1504 3.63462 14.875C3.63462 17.0853 4.32644 19.1341 5.50536 20.8164L4.57692 24.298L8.11994 23.4123C9.79072 24.5653 11.8165 25.2404 14 25.2404Z" fill="#BFC8D0"/>
<path d="M24.5 14C24.5 19.799 19.799 24.5 14 24.5C11.7882 24.5 9.73604 23.8161 8.04358 22.6482L4.45455 23.5455L5.39504 20.0186C4.20081 18.3144 3.5 16.239 3.5 14C3.5 8.20101 8.20101 3.5 14 3.5C19.799 3.5 24.5 8.20101 24.5 14Z" fill="url(#paint0_linear_47_3729)"/>
<path fill-rule="evenodd" clip-rule="evenodd" d="M14 26.25C20.7655 26.25 26.25 20.7655 26.25 14C26.25 7.23451 20.7655 1.75 14 1.75C7.23451 1.75 1.75 7.23451 1.75 14C1.75 16.197 2.32837 18.259 3.34116 20.0419L1.75 26.25L8.1505 24.7658C9.88873 25.7122 11.8815 26.25 14 26.25ZM14 24.3654C19.7247 24.3654 24.3654 19.7247 24.3654 14C24.3654 8.27536 19.7247 3.63462 14 3.63462C8.27536 3.63462 3.63462 8.27536 3.63462 14C3.63462 16.2103 4.32644 18.2591 5.50536 19.9414L4.57692 23.423L8.11994 22.5373C9.79072 23.6903 11.8165 24.3654 14 24.3654Z" fill="white"/>
<path d="M10.9375 8.31222C10.6463 7.72721 10.1994 7.779 9.74811 7.779C8.94145 7.779 7.68359 8.74525 7.68359 10.5436C7.68359 12.0173 8.33302 13.6306 10.5213 16.0439C12.6332 18.373 15.4082 19.5778 17.7119 19.5367C20.0156 19.4958 20.4896 17.5133 20.4896 16.8438C20.4896 16.5471 20.3054 16.3991 20.1786 16.3588C19.3936 15.982 17.9456 15.28 17.6162 15.1482C17.2868 15.0163 17.1147 15.1947 17.0078 15.2918C16.7091 15.5764 16.1169 16.4155 15.9141 16.6043C15.7113 16.793 15.409 16.6974 15.2832 16.6261C14.8202 16.4404 13.565 15.882 12.5646 14.9121C11.3271 13.7126 11.2545 13.2999 11.0214 12.9326C10.8349 12.6387 10.9718 12.4584 11.0401 12.3796C11.3067 12.072 11.6748 11.5971 11.8399 11.3611C12.0049 11.125 11.8739 10.7667 11.7953 10.5436C11.4571 9.58369 11.1705 8.78018 10.9375 8.31222Z" fill="white"/>
<defs>
<linearGradient id="paint0_linear_47_3729" x1="23.1875" y1="6.125" x2="3.5" y2="24.5" gradientUnits="userSpaceOnUse">
<stop stop-color="#5BD066"/>
<stop offset="1" stop-color="#27B43E"/>
</linearGradient>
</defs>
</svg>
