<svg width="34" height="23" viewBox="0 0 34 23" fill="none" xmlns="http://www.w3.org/2000/svg">
<path fill-rule="evenodd" clip-rule="evenodd" d="M33.0584 5.46763C33.0584 5.46763 32.7381 3.33129 31.7522 2.3932C30.5028 1.15942 29.1039 1.15152 28.4644 1.07993C23.8761 0.76416 16.9845 0.76416 16.9845 0.76416H16.9724C16.9724 0.76416 10.084 0.76416 5.49305 1.07993C4.851 1.15366 3.45407 1.15877 2.20531 2.3932C1.2187 3.33129 0.905153 5.46763 0.905153 5.46763C0.905153 5.46763 0.578613 7.9746 0.578613 10.4869V12.836C0.578613 15.343 0.904956 17.8551 0.904956 17.8551C0.904956 17.8551 1.22529 19.9914 2.20511 20.9311C3.45388 22.1649 5.09504 22.1248 5.82766 22.2565C8.45465 22.4933 16.9867 22.5647 16.9867 22.5647C16.9867 22.5647 23.8842 22.5532 28.4727 22.2433C29.1148 22.1717 30.5111 22.1644 31.7605 20.93C32.747 19.9919 33.0667 17.8532 33.0667 17.8532C33.0667 17.8532 33.3934 15.3463 33.3934 12.8342V10.4852C33.3869 7.97823 33.0603 5.46614 33.0603 5.46614L33.0585 5.46782L33.0583 5.46763H33.0584ZM13.5855 15.686V6.97542L22.45 11.3453L13.5855 15.686Z" fill="black"/>
</svg>
