<svg width="75" height="56" viewBox="0 0 75 56" fill="none" xmlns="http://www.w3.org/2000/svg">
<path d="M7.41546 26.9049C7.53115 26.5106 7.888 26.258 8.28069 26.258C8.36053 26.258 8.442 26.2662 8.52184 26.289C11.1778 26.9962 14.3698 28.2622 17.5081 29.8525C17.9318 30.066 18.2365 30.4293 18.3424 30.8481C18.3505 30.8758 18.357 30.9035 18.3619 30.9312C18.4418 31.3418 18.2495 31.6367 18.1273 31.7785C17.9008 32.0376 17.5749 32.1745 17.2327 32.1565L8.16174 31.6563C7.67291 31.6286 7.2623 31.2718 7.16127 30.7878C6.88753 29.4615 6.95108 28.4822 7.41546 26.9049ZM8.06071 33.478L17.1317 33.9782C17.1871 33.9815 17.2425 33.9831 17.2963 33.9831C18.1436 33.9831 18.9387 33.6214 19.5009 32.9761C20.081 32.3113 20.3172 31.4396 20.151 30.5841C20.1396 30.5222 20.1266 30.457 20.1087 30.3935C19.8724 29.4664 19.2239 28.6761 18.3326 28.2247C15.0835 26.579 11.766 25.2641 8.99111 24.5259C7.54745 24.1414 6.08585 24.9594 5.66546 26.39C5.11798 28.2459 5.03976 29.5397 5.37543 31.1577C5.64428 32.4515 6.7474 33.4047 8.06071 33.478Z" fill="#FF0000"/>
<path d="M56.4107 30.9312C56.4156 30.9051 56.4221 30.8758 56.4286 30.8465C56.5362 30.4293 56.8409 30.066 57.2629 29.8525C60.4028 28.2622 63.5932 26.9962 66.2508 26.289C66.3306 26.2662 66.4121 26.258 66.4903 26.258C66.8846 26.258 67.2415 26.5106 67.3588 26.9049C67.8215 28.4822 67.8851 29.4615 67.6097 30.7878C67.5103 31.2718 67.0981 31.6286 66.6109 31.6563L57.5399 32.1565C57.1977 32.1761 56.8718 32.0376 56.6453 31.7785C56.5231 31.6367 56.3308 31.3418 56.4107 30.9312ZM57.4763 33.9831C57.5301 33.9831 57.5855 33.9799 57.6393 33.9782L66.7103 33.478C68.0236 33.4047 69.1283 32.4515 69.3956 31.1577C69.7312 29.5397 69.6546 28.2459 69.1071 26.39C68.6868 24.9594 67.2252 24.1414 65.7815 24.5259C63.005 25.2641 59.6891 26.579 56.4384 28.2247C55.5487 28.6761 54.9002 29.4664 54.6639 30.3935C54.6476 30.457 54.633 30.5206 54.6199 30.5841C54.4537 31.4396 54.6916 32.3113 55.2701 32.9761C55.8322 33.6214 56.629 33.9831 57.4763 33.9831Z" fill="#FF0000"/>
<mask id="mask0_4_103" style="mask-type:luminance" maskUnits="userSpaceOnUse" x="0" y="0" width="75" height="56">
<path d="M0 0H74.771V56H0V0Z" fill="white"/>
</mask>
<g mask="url(#mask0_4_103)">
<path d="M71.5659 54.1669H63.0896C63.0375 54.1669 62.9935 54.1245 62.9935 54.074V47.8007H71.6604V54.074C71.6604 54.1245 71.618 54.1669 71.5659 54.1669ZM11.683 54.1669H3.2067C3.15456 54.1669 3.1122 54.1245 3.1122 54.074V47.8007H11.7775V54.074C11.7775 54.1245 11.7351 54.1669 11.683 54.1669ZM4.90619 24.7803L8.57402 19.7013C8.60335 19.6606 8.62779 19.6182 8.65061 19.5759L9.13291 18.6161H65.6397L66.122 19.5759C66.1432 19.6182 66.1692 19.6606 66.1969 19.7013L69.8664 24.7803C71.5985 27.1771 72.6006 30.0009 72.7635 32.9453C72.8075 33.7242 72.8433 34.49 72.871 35.1955L39.5542 37.0335C38.1155 37.1133 36.6571 37.1133 35.2183 37.0335L1.90154 35.1955C1.92924 34.49 1.96508 33.7242 2.00745 32.9453C2.17202 30.0009 3.17412 27.1771 4.90619 24.7803ZM3.11057 15.0216C3.07961 14.9972 3.05843 14.9581 3.05517 14.9141C3.05028 14.8375 3.09916 14.7658 3.17086 14.7479C4.50372 14.4139 5.82193 14.2444 7.01955 14.2444C7.6257 14.2444 8.20088 14.2868 8.73045 14.3764C8.87873 14.4008 8.95042 14.5002 8.97812 14.5573C9.00745 14.6127 9.0433 14.7235 8.97975 14.8522L7.82938 17.1448C7.72021 17.3615 7.46927 17.4625 7.24604 17.381C5.70461 16.8189 4.31471 16.0254 3.11057 15.0216ZM65.7928 14.5573C65.8222 14.5002 65.8922 14.4008 66.0405 14.3764C67.6178 14.1124 69.591 14.2444 71.6001 14.7479C71.6718 14.7658 71.7223 14.8375 71.7158 14.9141C71.7125 14.9565 71.693 14.9972 71.662 15.0216C70.4562 16.0254 69.0663 16.8189 67.5265 17.381C67.3049 17.4609 67.0589 17.3631 66.9465 17.1546L65.7847 14.8391C65.7309 14.7169 65.7651 14.6094 65.7928 14.5573ZM19.5449 2.6478C19.5726 2.64454 19.602 2.64291 19.628 2.63965C19.7714 2.62173 19.9181 2.60544 20.0663 2.58914C20.1413 2.58099 20.2179 2.57285 20.2945 2.5647C20.4053 2.55167 20.5177 2.54026 20.6301 2.52885C20.7947 2.51256 20.9593 2.49626 21.1271 2.47997C21.1906 2.47345 21.2542 2.46694 21.3177 2.46205C21.4546 2.44901 21.5947 2.43598 21.7349 2.42294C21.743 2.42294 21.7512 2.42131 21.7593 2.42131C23.9281 2.22741 26.4488 2.0775 29.1862 1.97811C29.209 1.97648 29.2318 1.97648 29.2547 1.97485C29.4339 1.96833 29.6148 1.96344 29.7956 1.95693C29.8575 1.95367 29.9195 1.95204 29.9797 1.95041C30.2649 1.94063 30.5533 1.93248 30.8417 1.92434C30.9379 1.92271 31.0324 1.91945 31.1269 1.91619C31.2914 1.91293 31.4544 1.90804 31.6189 1.90315C31.6743 1.90315 31.7297 1.90153 31.7852 1.8999C32.0491 1.89338 32.3147 1.88686 32.5819 1.88197C32.9127 1.87545 33.2451 1.86894 33.5775 1.86405C33.602 1.86405 33.6248 1.86405 33.6508 1.86242C34.0549 1.85753 34.459 1.85101 34.8631 1.84775C34.8664 1.84775 34.8696 1.84775 34.8713 1.84775C35.2835 1.84287 35.6941 1.83961 36.1048 1.83798C36.1373 1.83798 36.1683 1.83798 36.2009 1.83635C36.5626 1.83472 36.9244 1.83472 37.2845 1.83472C37.3187 1.83472 37.3529 1.83472 37.3855 1.83472C37.4197 1.83472 37.4539 1.83472 37.4881 1.83472C37.8482 1.83472 38.2083 1.83472 38.5717 1.83635C38.6043 1.83798 38.6352 1.83798 38.6678 1.83798C39.0768 1.83961 39.4858 1.84287 39.8948 1.84775C39.8997 1.84775 39.9046 1.84775 39.9111 1.84775C40.3119 1.85101 40.7128 1.85753 41.1136 1.86242C41.1429 1.86405 41.1706 1.86405 41.2 1.86405C41.5242 1.86894 41.8501 1.87545 42.1744 1.88197C42.4644 1.88686 42.7528 1.89338 43.0379 1.90153C43.0738 1.90153 43.1064 1.90315 43.1406 1.90315C43.3133 1.90804 43.486 1.91293 43.6571 1.91619C43.7386 1.91945 43.8201 1.92108 43.9032 1.92434C44.2176 1.93248 44.5321 1.94226 44.8417 1.95204C44.8841 1.95367 44.9248 1.95367 44.9655 1.95693C45.1546 1.96181 45.3419 1.96833 45.5293 1.97648C45.5407 1.97648 45.5505 1.97648 45.5635 1.97648C48.5014 2.08402 51.1916 2.24859 53.463 2.46205C53.5119 2.46694 53.5608 2.47182 53.6096 2.47671C53.7954 2.49464 53.9795 2.51256 54.162 2.53211C54.2647 2.54189 54.3689 2.55329 54.47 2.56307C54.5514 2.57285 54.6329 2.58099 54.7111 2.59077C54.8529 2.60544 54.9898 2.62173 55.1266 2.6364C55.1592 2.64128 55.1934 2.64454 55.226 2.6478C55.3922 2.66898 55.5552 2.69831 55.7149 2.73416C57.1048 3.04701 58.2861 3.96274 58.9346 5.25651L64.1553 15.6587C64.1585 15.6636 64.1601 15.6685 64.1618 15.6734L64.7223 16.7912H10.0486L10.6092 15.6734L15.838 5.25651C16.493 3.95134 17.6923 3.03072 19.0985 2.72601C19.2451 2.69343 19.395 2.66735 19.5449 2.6478ZM61.0528 45.935C60.9974 45.9318 60.9404 45.9253 60.885 45.922C60.5754 45.8992 60.2642 45.8699 59.9546 45.8324C59.2002 45.7411 58.4425 45.6026 57.7027 45.425C57.6767 45.4185 57.6506 45.4136 57.6245 45.4071C54.8806 44.7309 52.0568 44.3887 49.2314 44.3887H25.5412C24.1888 44.3887 22.8364 44.4702 21.4921 44.6266C21.4334 44.6331 21.3731 44.638 21.3128 44.6445C21.2509 44.6527 21.1874 44.6625 21.1255 44.6706C19.7877 44.8401 18.4581 45.0845 17.148 45.4071C16.9623 45.4527 16.7749 45.4951 16.5875 45.5358C16.4816 45.5587 16.3757 45.5782 16.2698 45.5994C16.1899 45.6157 16.1101 45.632 16.0303 45.6483C15.8999 45.6711 15.7696 45.6923 15.6392 45.7151C15.5822 45.7232 15.5251 45.7346 15.4681 45.7428C15.3345 45.764 15.1993 45.7819 15.0656 45.7998C15.0102 45.808 14.9548 45.8161 14.9011 45.8226C14.7675 45.8389 14.6355 45.8519 14.5019 45.8666C14.4448 45.8731 14.3862 45.8796 14.3291 45.8845C14.2004 45.8976 14.0701 45.9073 13.9413 45.9188C13.8794 45.922 13.8159 45.9285 13.754 45.9318C13.6285 45.9399 13.503 45.9465 13.3776 45.953C13.3108 45.9562 13.2439 45.9595 13.1771 45.9611C13.0549 45.966 12.9311 45.9693 12.8089 45.9709C12.7046 45.9742 12.602 45.9758 12.4977 45.9758C12.483 45.9758 12.4683 45.9758 12.452 45.9758H2.55656C2.50279 45.9758 2.45065 45.9709 2.40014 45.9595C2.35615 45.9497 2.31378 45.9367 2.27467 45.9204C2.26327 45.9155 2.25349 45.909 2.24372 45.9041C2.21439 45.8911 2.18506 45.8748 2.15736 45.8568C2.14269 45.8471 2.12803 45.8357 2.11336 45.8242C2.09381 45.808 2.07426 45.7949 2.05633 45.777C2.04004 45.7623 2.02537 45.746 2.01071 45.7281C1.99767 45.7134 1.98464 45.6988 1.97323 45.6825C1.95857 45.6629 1.9439 45.6418 1.93087 45.6222C1.92272 45.6059 1.91294 45.5896 1.9048 45.5733C1.89339 45.5505 1.88361 45.5277 1.87384 45.5033C1.86732 45.4853 1.86243 45.4674 1.85754 45.4495C1.84939 45.425 1.84125 45.4022 1.83799 45.3762C1.8331 45.3533 1.83147 45.3289 1.82984 45.3061C1.82821 45.2865 1.82495 45.267 1.82495 45.2458V38.1888C1.82495 37.902 1.83147 37.4914 1.84288 37.0188L35.1173 38.8552C36.6229 38.9383 38.1497 38.9383 39.6553 38.8552L72.9297 37.0188C72.933 37.185 72.9379 37.3398 72.9395 37.4865C72.9395 37.5044 72.9411 37.5207 72.9411 37.537C72.9411 37.5761 72.9411 37.612 72.9427 37.6494C72.9427 37.6934 72.9444 37.7358 72.9444 37.7782C72.9444 37.801 72.9444 37.8238 72.946 37.845C72.946 37.8987 72.946 37.9476 72.9476 37.9949C72.9476 38.0095 72.9476 38.0242 72.9476 38.0389C72.9476 38.0926 72.9476 38.1431 72.9476 38.1888V45.2458C72.9476 45.2914 72.9427 45.337 72.9346 45.3827C72.9313 45.399 72.9264 45.4153 72.9199 45.4316C72.9134 45.4576 72.9069 45.4837 72.8971 45.5081C72.889 45.5277 72.8792 45.5472 72.871 45.5668C72.8613 45.5863 72.8499 45.6059 72.8385 45.6255C72.827 45.6434 72.814 45.6629 72.801 45.6809C72.7879 45.6972 72.7749 45.7134 72.7602 45.7281C72.7456 45.746 72.7309 45.7623 72.7146 45.7786C72.6983 45.7933 72.682 45.8063 72.6641 45.8194C72.6478 45.8324 72.6299 45.8471 72.6103 45.8585C72.5924 45.8715 72.5712 45.8813 72.5517 45.8911C72.5321 45.9008 72.5142 45.9139 72.4947 45.922C72.4555 45.9383 72.4132 45.9497 72.3708 45.9595C72.3219 45.9709 72.2698 45.9758 72.2176 45.9758H62.3189C62.3042 45.9758 62.2896 45.9758 62.2749 45.9758C62.1657 45.9758 62.0582 45.9742 61.9507 45.9709C61.8399 45.9693 61.7291 45.9676 61.6199 45.9627C61.5449 45.9611 61.47 45.9562 61.395 45.953C61.281 45.9481 61.1669 45.9416 61.0528 45.935ZM74.771 38.179C74.771 38.1285 74.771 38.0715 74.771 38.0112C74.7677 37.5321 74.7514 36.8249 74.7253 36.0265V36.0249C74.6944 35.088 74.6487 33.9751 74.5852 32.8426C74.4011 29.5496 73.28 26.3918 71.3443 23.7113L68.0349 19.131C68.074 19.1196 68.1131 19.1082 68.1506 19.0936C69.8892 18.4597 71.4616 17.5619 72.8287 16.4246C73.2344 16.0857 73.4919 15.587 73.5326 15.0559C73.6092 14.0863 72.9818 13.213 72.0417 12.9783C69.7963 12.4162 67.5591 12.2728 65.7407 12.5759C65.4067 12.6313 65.1003 12.7616 64.8364 12.949L60.5656 4.43854C59.645 2.60544 57.9488 1.32145 55.9642 0.923872C55.7914 0.888024 55.6187 0.857065 55.4411 0.837512C55.4118 0.834253 55.3825 0.830995 55.3531 0.826106C55.2097 0.809812 55.0631 0.793518 54.9164 0.777224C54.8366 0.767447 54.7568 0.7593 54.6753 0.751153C54.571 0.739747 54.4635 0.728341 54.3559 0.716935C54.1702 0.697382 53.9828 0.679458 53.7905 0.661535C53.7449 0.656646 53.6993 0.651758 53.6536 0.648499C50.9048 0.387792 47.5694 0.200408 43.8429 0.096125C43.8217 0.096125 43.8005 0.096125 43.7777 0.096125C43.3475 0.0830896 42.9125 0.0716836 42.4709 0.0635366C42.3731 0.0602779 42.2754 0.0586482 42.176 0.0570189C41.8696 0.0521305 41.5601 0.045613 41.2488 0.0407247C41.2016 0.0390953 41.1543 0.0390952 41.1054 0.0390952C40.7193 0.0325775 40.3298 0.027689 39.9388 0.022801C39.9225 0.022801 39.9078 0.022801 39.8932 0.022801C39.4907 0.019542 39.0866 0.0146538 38.6809 0.0130245C38.645 0.0130245 38.6075 0.0130245 38.5717 0.0130245C38.2116 0.0113952 37.8499 0.00976562 37.4881 0.00976562C37.4539 0.00976562 37.4197 0.00976562 37.3855 0.00976562C37.3529 0.00976562 37.3187 0.00976562 37.2845 0.00976562C36.9227 0.00976562 36.561 0.0113952 36.2009 0.0130245C36.1634 0.0130245 36.1276 0.0130245 36.0901 0.0130245C35.6844 0.0146538 35.2819 0.019542 34.8794 0.022801C34.8648 0.022801 34.8485 0.022801 34.8338 0.022801C34.4427 0.027689 34.0549 0.0325775 33.6688 0.0390952C33.6183 0.0390952 33.571 0.0390953 33.5221 0.0407247C33.2125 0.045613 32.9062 0.0521305 32.5999 0.0570189C32.5005 0.0586482 32.3994 0.0602779 32.3 0.0635366C31.8568 0.0716836 31.4202 0.0830896 30.9867 0.096125C30.9721 0.096125 30.9574 0.096125 30.9411 0.096125C27.213 0.198779 23.8727 0.387792 21.1206 0.648499C21.0717 0.653387 21.0228 0.656646 20.9756 0.661535C20.7865 0.679458 20.6024 0.697382 20.4216 0.716935C20.3108 0.728341 20.2016 0.739747 20.0924 0.751153C20.0142 0.7593 19.9376 0.767447 19.8594 0.777224C19.7079 0.793518 19.558 0.809812 19.4113 0.827736C19.3852 0.830995 19.3559 0.834253 19.3315 0.837512C19.1359 0.860324 18.9437 0.894542 18.753 0.933648C16.7928 1.34589 15.1194 2.62173 14.2069 4.43854L9.93459 12.9506C9.67225 12.7616 9.36429 12.6313 9.03026 12.5759C7.21183 12.2728 4.97463 12.4162 2.72928 12.9783C1.78911 13.213 1.16178 14.0863 1.23836 15.0559C1.2791 15.587 1.53655 16.0857 1.9439 16.4246C3.30936 17.5619 4.88338 18.4597 6.62034 19.0936C6.65782 19.1082 6.69693 19.1196 6.73603 19.131L3.42831 23.7113C1.49092 26.3918 0.369879 29.5496 0.187384 32.8426C0.123836 33.9751 0.0765831 35.088 0.0472533 36.0249C0.0472533 36.0265 0.0472533 36.0265 0.0472533 36.0265C0.0423653 36.1471 0.0391059 36.2661 0.0358473 36.3834C0.0130352 37.1785 0 37.8173 0 38.1888V45.2458C0 45.2898 0.00488837 45.3322 0.00651769 45.3762C0.00977674 45.4087 0.00977674 45.4413 0.0130354 45.4755C0.0162944 45.5261 0.0244414 45.5782 0.0325885 45.6287C0.0358475 45.6532 0.039106 45.6776 0.0439944 45.702C0.0537712 45.7591 0.0668064 45.8145 0.0814711 45.8699C0.0847298 45.8845 0.0879887 45.8992 0.0928771 45.9139C0.109171 45.9758 0.128725 46.0377 0.149907 46.0964C0.151536 46.1012 0.153166 46.1045 0.153166 46.1094C0.296555 46.507 0.536081 46.8573 0.842412 47.1359C0.852188 47.1457 0.861965 47.1539 0.873371 47.1636C0.914106 47.1995 0.956471 47.2337 0.998836 47.2679C1.01839 47.2826 1.03794 47.2972 1.05912 47.3119C1.0966 47.3396 1.13571 47.3673 1.17481 47.3934C1.20414 47.4113 1.23347 47.4276 1.2628 47.4455C1.27095 47.4504 1.2791 47.4569 1.28887 47.4618V54.074C1.28887 55.1315 2.14921 55.9918 3.2067 55.9918H11.683C12.7405 55.9918 13.6008 55.1315 13.6008 54.074V47.7681C13.692 47.7633 13.7833 47.7584 13.8729 47.7519C13.943 47.7486 14.013 47.7421 14.0831 47.7356C14.2232 47.7258 14.3617 47.7144 14.5019 47.7013C14.567 47.6948 14.6338 47.6867 14.699 47.6802C14.8424 47.6655 14.9842 47.6508 15.1259 47.6329C15.1895 47.6248 15.253 47.615 15.3166 47.6068C15.46 47.5873 15.6034 47.5677 15.7467 47.5465C15.8119 47.5351 15.8787 47.5237 15.9455 47.5123C16.084 47.4895 16.2225 47.4667 16.361 47.4406C16.449 47.4243 16.5386 47.4064 16.6266 47.3885C16.7423 47.3657 16.8564 47.3445 16.9704 47.3201C17.1757 47.2761 17.3794 47.2288 17.5831 47.1783C18.8117 46.8769 20.068 46.6455 21.3194 46.4858C21.4628 46.4662 21.6045 46.4499 21.7479 46.4337C23.0042 46.2903 24.2784 46.2137 25.5396 46.2137H49.2314C51.9118 46.2137 54.5905 46.5396 57.1895 47.1783C57.2367 47.1897 57.284 47.1995 57.3312 47.2109C58.449 47.4781 59.5864 47.6541 60.7318 47.7388C60.8003 47.7453 60.8687 47.7502 60.9388 47.7551C61.0154 47.76 61.0936 47.7633 61.1702 47.7681V54.074C61.1702 55.1315 62.0321 55.9918 63.0896 55.9918H71.5659C72.6234 55.9918 73.4837 55.1315 73.4837 54.074V47.4618C73.4951 47.4537 73.5065 47.4472 73.5196 47.4406C73.544 47.4243 73.5684 47.4113 73.5929 47.395C73.6352 47.3673 73.676 47.3396 73.7167 47.3103C73.7346 47.2956 73.7526 47.2826 73.7705 47.2695C73.8145 47.2353 73.8585 47.1995 73.8992 47.1636C73.909 47.1539 73.9188 47.1457 73.9285 47.1376C74.2316 46.8622 74.4679 46.5168 74.6113 46.1273C74.6178 46.1127 74.6227 46.098 74.6276 46.0833C74.6455 46.0312 74.6618 45.9807 74.6764 45.9285C74.6846 45.9008 74.6911 45.8748 74.6976 45.8454C74.7074 45.8031 74.7188 45.7591 74.727 45.7134C74.7351 45.6727 74.74 45.6287 74.7465 45.5863C74.7498 45.5538 74.7563 45.5195 74.7595 45.4853C74.7677 45.4071 74.771 45.3256 74.771 45.2458V38.1888C74.771 38.1855 74.771 38.1823 74.771 38.179Z" fill="#FF0000"/>
</g>
<path d="M37.3855 28.1204C41.9869 28.1204 46.256 28.2818 49.1971 28.5636L48.8224 30.8318C48.7132 31.4901 48.2227 32.0115 47.5726 32.1598L46.0279 32.5134C44.7912 32.7969 43.5267 32.9761 42.2688 33.0462L37.3855 33.3216L32.5037 33.0462C31.2458 32.9761 29.9797 32.7969 28.7446 32.5134L27.1983 32.1598C26.5482 32.0115 26.0577 31.4901 25.9485 30.8318L25.5738 28.5636C28.5165 28.2818 32.784 28.1204 37.3855 28.1204ZM24.1497 31.13C24.381 32.5215 25.4173 33.6246 26.7909 33.9375L28.3373 34.2927C29.6734 34.5974 31.0405 34.7913 32.401 34.8679L37.3349 35.1449C37.3512 35.1465 37.3692 35.1465 37.3855 35.1465C37.4034 35.1465 37.4197 35.1465 37.436 35.1449L42.3715 34.8679C43.7304 34.7913 45.0975 34.5974 46.4336 34.2927L47.98 33.9391C49.3536 33.6246 50.3915 32.5215 50.6229 31.1284L51.0547 28.5115C51.1362 28.1172 51.0482 27.7066 50.8135 27.3807C50.5756 27.0499 50.2041 26.8348 49.7984 26.7908C46.7905 26.4764 42.2656 26.2971 37.3855 26.2971C32.5053 26.2971 27.9804 26.4764 24.9725 26.7908C24.5668 26.8348 24.1969 27.0483 23.9574 27.3807C23.7227 27.7066 23.6348 28.1172 23.7162 28.5099L24.1497 31.13Z" fill="#FF0000"/>
</svg>
