<svg width="78" height="78" viewBox="0 0 78 78" fill="none" xmlns="http://www.w3.org/2000/svg">
<path d="M42.7905 60.757L42.7904 60.757C42.1985 60.4144 41.7087 60.2646 41.2714 60.2461C40.8426 60.228 40.3847 60.3326 39.8458 60.6293C39.5152 60.8116 39.1813 60.9984 38.8443 61.187C37.8489 61.7441 36.8268 62.3162 35.7853 62.8293C34.1885 63.6163 32.2776 63.945 30.4789 62.6456L30.4782 62.6451C28.7885 61.4223 25.3742 58.1165 22.2773 54.9861C19.167 51.8421 16.2511 48.7461 15.5459 47.8893C14.3476 46.4337 14.1205 44.7937 14.657 43.0851L14.6575 43.0833C14.7542 42.7773 14.9697 42.3208 15.2007 41.8599C15.4442 41.3738 15.7454 40.8045 16.0511 40.238C16.3575 39.6703 16.6717 39.0994 16.9422 38.6094C16.9944 38.5147 17.0449 38.4233 17.0933 38.3357C17.297 37.967 17.4638 37.6651 17.5709 37.4665C17.7502 37.1324 17.8024 36.8419 17.7809 36.5744C17.7588 36.2984 17.6524 35.9835 17.4194 35.6201C17.1127 35.1422 16.3951 34.0044 15.5139 32.6071C13.6998 29.7307 11.1921 25.7545 10.1475 24.1708L10.1469 24.1699C9.71866 23.5192 9.48663 23.3572 9.36631 23.3108C9.28587 23.2797 9.09325 23.237 8.50099 23.4638L8.50028 23.4641C6.77192 24.1246 5.16443 24.9483 3.76848 26.0718L3.76813 26.0721C1.68861 27.7442 0.751001 29.8156 1.05648 32.445L42.7905 60.757ZM42.7905 60.757C44.5829 61.7942 46.3297 62.911 48.0931 64.0446C48.1958 64.1106 48.2986 64.1767 48.4015 64.2429C50.0581 65.3082 51.7326 66.3851 53.4482 67.4C54.4452 67.9907 54.6414 68.2733 54.692 68.4349C54.7465 68.6087 54.7376 68.9651 54.2842 70.0395L54.284 70.0401C53.5373 71.8125 52.7135 73.4053 51.4574 74.6858C49.778 76.3964 47.8002 77.2218 45.5102 76.9483C43.2573 76.6774 41.0726 75.9143 38.8458 75.0393C36.2633 74.0243 33.8093 72.7307 31.3951 71.2879C25.4512 67.7344 20.3803 63.1098 15.5364 58.1058L15.5361 58.1055C14.0133 56.5335 10.0629 51.6034 9.83567 51.2977C7.28929 47.8662 5.03892 44.2978 3.33543 40.4222L3.33533 40.422M42.7905 60.757L3.33533 40.422M3.33533 40.422C2.19989 37.8406 1.37772 35.2049 1.05651 32.4452L3.33533 40.422Z" stroke="#FF0000" stroke-width="2"/>
<path d="M27.3987 37.0276C27.6179 36.802 27.8983 36.567 28.2384 36.3194C28.5769 36.0734 28.9766 35.7914 29.4344 35.4764C29.8937 35.1615 30.3128 34.8403 30.6916 34.5144C31.0704 34.1869 31.4008 33.836 31.6828 33.4615C31.9456 33.1058 32.1567 32.7078 32.3195 32.2676C32.4807 31.8273 32.5629 31.3008 32.5629 30.6898C32.5629 29.7559 32.2163 28.9475 31.5217 28.2627C30.827 27.5796 29.8567 27.238 28.6091 27.238C27.7291 27.238 26.9264 27.3775 26.2011 27.6564C25.4774 27.9368 24.7908 28.3709 24.1428 28.9584L25.3339 30.2432C25.8062 29.8155 26.3043 29.4958 26.8297 29.2843C27.3568 29.0728 27.8613 28.9678 28.3432 28.9678C28.9847 28.9678 29.4827 29.1511 29.8341 29.5209C30.1855 29.8891 30.3612 30.3623 30.3612 30.9389C30.3612 31.2836 30.3128 31.6032 30.2145 31.9009C30.1162 32.1986 29.9663 32.4697 29.7648 32.7125C29.5633 32.9805 29.3119 33.2515 29.0089 33.5242C28.7058 33.7984 28.34 34.0804 27.9128 34.3718C27.3922 34.74 26.9151 35.0973 26.4815 35.442C26.0464 35.7867 25.6773 36.158 25.371 36.556C25.0599 36.9414 24.8166 37.3707 24.6425 37.8408C24.4684 38.3093 24.3814 38.842 24.3814 39.4358V40.238H32.8095V38.4283H26.7378C26.7378 38.173 26.7926 37.9332 26.9038 37.7107C27.0134 37.4882 27.1778 37.2595 27.3987 37.0276Z" fill="#FF0000"/>
<path d="M40.4953 36.0227H36.7706C37.0397 35.664 37.323 35.2888 37.6204 34.8938C37.9193 34.4988 38.2278 34.0624 38.5441 33.5864C38.8478 33.122 39.164 32.6179 39.4929 32.0758C39.8218 31.5337 40.1554 30.9486 40.4953 30.3222V36.0227ZM40.4056 27.238C40.1129 27.9339 39.7478 28.6661 39.3088 29.433C38.8714 30.2015 38.3961 30.9651 37.8894 31.7237C37.3765 32.489 36.8446 33.2377 36.2954 33.9715C35.7462 34.7054 35.2033 35.3896 34.6667 36.0227V37.8457H40.4953V40.8571H42.6008V37.8457H43.9525V36.0227H42.6008V27.238H40.4056Z" fill="#FF0000"/>
<path d="M50.7404 27.238L44.5715 42.7142H46.4408L52.6192 27.238H50.7404Z" fill="#FF0000"/>
<path d="M55.7324 40.238H58.0152C58.3464 38.014 58.9049 35.9891 59.6875 34.1634C60.4684 32.3393 61.4149 30.4434 62.5238 28.4791V27.238H53.8572V29.0606H60.1583C59.228 30.6187 58.3415 32.3456 57.4972 34.2415C56.653 36.1357 56.0652 38.1351 55.7324 40.238Z" fill="#FF0000"/>
<mask id="mask0_4_104" style="mask-type:luminance" maskUnits="userSpaceOnUse" x="13" y="0" width="65" height="65">
<path d="M14.5762 1.5H76.4764V63.34H14.5762V1.5Z" fill="white" stroke="white" stroke-width="3"/>
</mask>
<g mask="url(#mask0_4_104)">
<path d="M67.0753 10.9238L67.0753 10.9237C60.6684 4.51521 52.1439 1.00086 43.0756 1.03095C34.1536 1.06104 25.6198 4.61449 19.3105 10.9238C17.4326 12.8017 15.8029 14.8625 14.4381 17.0648L67.0753 10.9238ZM67.0753 10.9238C73.4555 17.3039 76.9682 25.7825 76.9682 34.8062C76.9682 43.8299 73.4555 52.3085 67.0753 58.6886C65.2306 60.5333 63.2111 62.1377 61.0532 63.4865L61.0528 63.4868C60.3594 63.9207 59.4722 63.8586 58.8546 63.3364C58.8238 63.3088 58.796 63.2856 58.7803 63.2726C57.8314 62.4638 57.9443 60.9556 58.9922 60.3036C67.5097 55.008 73.1961 45.56 73.1978 34.8063V34.8062C73.1978 18.234 59.7449 4.78948 43.171 4.80129H43.171C32.4054 4.80972 22.9523 10.5165 17.6652 19.0541L17.665 19.0545C16.9826 20.1575 15.444 20.2538 14.6457 19.2677L14.6446 19.2663L14.581 19.1881L14.5806 19.1876M67.0753 10.9238L14.5806 19.1876M14.5806 19.1876C14.0861 18.5798 14.03 17.7253 14.438 17.0649L14.5806 19.1876Z" stroke="#FF0000" stroke-width="2"/>
</g>
</svg>
