<svg width="88" height="78" viewBox="0 0 88 78" fill="none" xmlns="http://www.w3.org/2000/svg">
<mask id="mask0_4_41" style="mask-type:luminance" maskUnits="userSpaceOnUse" x="0" y="0" width="88" height="78">
<path d="M0 0H87.6667V77.3872H0V0Z" fill="white"/>
</mask>
<g mask="url(#mask0_4_41)">
<path d="M30.5518 65.5029C36.6156 71.5758 44.6128 74.8877 53.158 74.8877C70.8049 74.8877 85.1398 60.5404 85.1398 42.8787C85.1398 38.1144 84.0837 33.5793 82.1898 29.5041L83.8935 27.7292C86.1754 32.2952 87.4384 37.4477 87.4384 42.8787C87.4384 61.8014 72.0713 77.1803 53.1642 77.1713C44.0536 77.1713 35.486 73.6373 28.9549 67.1002L28.9548 67.1001C28.4972 66.6425 28.4972 65.9606 28.9548 65.503C29.4124 65.0454 30.0942 65.0454 30.5518 65.5029ZM30.5518 65.5029L30.711 65.3439M30.5518 65.5029C30.5518 65.5029 30.5519 65.503 30.5519 65.503L30.711 65.3439M30.711 65.3439C36.7326 71.3746 44.6726 74.6627 53.158 74.6627C70.6804 74.6627 84.9148 60.4163 84.9148 42.8787C84.9148 38.0935 83.842 33.5417 81.9206 29.4596M30.711 65.3439C30.1655 64.7984 29.3412 64.7984 28.7957 65.3439C28.2502 65.8894 28.2502 66.7137 28.7957 67.2592L81.9206 29.4596M81.9206 29.4596L83.7861 27.5161L81.9206 29.4596ZM79.6789 32.1234C81.0627 35.4786 81.8259 39.1546 81.8259 43.0121C81.8259 58.783 69.059 71.5557 53.3035 71.5557C47.4675 71.5557 41.8961 69.788 37.1417 66.5281L37.1358 66.5241L37.1296 66.5204C36.5752 66.1902 36.4409 65.5182 36.7921 64.9245C37.1171 64.5017 37.7992 64.3516 38.542 64.7078C42.8197 67.7452 47.9304 69.2631 53.3035 69.2631C67.8017 69.2631 79.5363 57.5159 79.5363 43.006C79.5363 39.8194 78.9705 36.7657 77.9348 33.9413L79.6789 32.1234ZM81.6122 24.4616L81.6097 24.4641C76.597 29.4934 72.2753 34.0495 67.9441 38.6156L67.8841 38.6789C63.5325 43.2665 59.1681 47.8664 54.0775 52.9721L54.0766 52.973C53.1167 53.9469 51.5679 54.0166 50.5243 53.1348L38.1812 42.6828L38.1798 42.6816C37.6442 42.2353 37.3094 41.5937 37.2508 40.8961L37.2507 40.8952C37.1893 40.1975 37.4098 39.5052 37.8592 38.972C38.3115 38.436 38.9562 38.1039 39.6479 38.0451C40.3466 37.9892 41.0362 38.21 41.5693 38.6621L41.5695 38.6623L51.8945 47.3933L52.0537 47.5279L52.2 47.3794C56.3796 43.1383 60.1449 39.181 63.9185 35.2149C64.2411 34.876 64.5637 34.5369 64.8866 34.1976C68.9879 29.8884 73.1419 25.5389 77.8919 20.7724L77.8952 20.7689C78.3028 20.3418 78.8415 20.0625 79.4278 19.9756C80.5496 19.8227 81.6458 20.406 82.1424 21.4239C82.6396 22.449 82.4244 23.6718 81.6122 24.4616ZM54.5263 8.71637C62.5187 8.98429 69.7308 11.9941 75.3878 16.8468C75.3881 16.8471 75.3885 16.8474 75.3888 16.8477L75.7362 17.1506L75.8449 17.2593L74.2365 18.9418C68.5521 14.004 61.17 11.003 53.158 11.003C44.3376 11.003 36.0673 14.5926 29.8651 21.0716C29.4076 21.5301 28.7304 21.5297 28.2734 21.0701L28.273 21.0696C27.8153 20.612 27.8153 19.9302 28.273 19.4726L28.273 19.4726L28.2779 19.4674C34.4195 12.9224 42.526 9.26144 51.3162 8.7434C51.3163 8.74339 51.3165 8.74339 51.3166 8.74338L51.8068 8.71615L52.0193 8.70434V8.4915V2.73958V2.51458H51.7943H47.003C46.6433 2.51458 46.3619 2.39612 46.1709 2.20483C45.9799 2.01351 45.8613 1.73124 45.8613 1.36979C45.8613 1.02779 45.967 0.756988 46.1389 0.567496C46.3099 0.37901 46.561 0.254805 46.8831 0.230684L47.0082 0.225H59.4645C59.8242 0.225 60.1057 0.343467 60.2966 0.534756C60.4877 0.726069 60.6063 1.00834 60.6063 1.36979C60.6063 1.71179 60.5005 1.9826 60.3286 2.17209C60.1576 2.36057 59.9066 2.48478 59.5845 2.5089L59.4594 2.51458H54.5339H54.3089V2.73958V8.4915V8.70908L54.5263 8.71637ZM33.1809 52.6923C33.5423 52.6923 33.8245 52.8109 34.0158 53.0021C34.2071 53.1934 34.3257 53.4756 34.3257 53.8371C34.3257 54.1985 34.2071 54.4807 34.0158 54.672C33.8245 54.8632 33.5423 54.9819 33.1809 54.9819H9.49742C9.13772 54.9819 8.85628 54.8634 8.66529 54.6721C8.47428 54.4808 8.35566 54.1985 8.35566 53.8371C8.35566 53.4756 8.47428 53.1933 8.66529 53.002C8.85628 52.8107 9.13772 52.6923 9.49742 52.6923H33.1809ZM1.56614 41.1884H25.247C25.6084 41.1884 25.8906 41.307 26.0819 41.4983C26.2732 41.6896 26.3918 41.9718 26.3918 42.3332C26.3918 42.6749 26.2855 42.9457 26.1131 43.1354C25.9416 43.3241 25.6905 43.4482 25.37 43.4723L25.242 43.478H1.56354C1.20383 43.478 0.922393 43.3596 0.731407 43.1683C0.540397 42.977 0.421777 42.6947 0.421777 42.3332C0.421777 41.9913 0.527501 41.7204 0.699549 41.5304C0.870229 41.342 1.12057 41.2172 1.44163 41.1913L1.56354 41.1884H1.56614ZM9.50252 29.6816H33.1809C33.5423 29.6816 33.8245 29.8002 34.0158 29.9915C34.2071 30.1827 34.3257 30.4649 34.3257 30.8264C34.3257 31.1683 34.2199 31.4392 34.0479 31.6292C33.8772 31.8176 33.6269 31.9424 33.3059 31.9683L33.1809 31.9712H33.1784H9.49742C9.1418 31.9712 8.85996 31.8518 8.66756 31.6591C8.47514 31.4664 8.35566 31.1837 8.35566 30.8264C8.35566 30.4844 8.4614 30.2136 8.63331 30.0241C8.80431 29.8356 9.05534 29.7114 9.37749 29.6873L9.50252 29.6816ZM53.3035 14.4654C60.4144 14.4654 66.9169 17.067 71.9094 21.3739L70.3292 23.0251C65.7502 19.1105 59.8042 16.7489 53.3035 16.7489C47.7864 16.7489 42.3991 18.4087 37.9799 21.7235C37.3816 22.0778 36.7016 21.9407 36.3702 21.5029C36.2095 21.2871 36.1465 20.9745 36.1913 20.6593C36.2361 20.3447 36.3831 20.0628 36.5967 19.9005C41.489 16.3649 47.3305 14.4654 53.3035 14.4654Z" fill="#FF0000" stroke="#141515" stroke-width="0.45"/>
</g>
</svg>
