<svg width="60" height="85" viewBox="0 0 60 85" fill="none" xmlns="http://www.w3.org/2000/svg">
<path d="M23.7755 2.1613C22.2566 1.73839 20.376 2.02813 18.8319 2.1667C16.2296 2.39705 13.4924 2.84516 11.1439 4.04371C8.82416 5.22607 7.1703 7.27584 6.84277 9.8925C6.49904 12.6279 7.43484 15.3526 8.28067 17.9134C9.35145 21.1528 10.424 24.3921 11.493 27.6332C11.8133 28.6032 13.3574 28.1857 13.0299 27.2103C12.1643 24.6333 11.3004 22.0562 10.4366 19.4809C9.61419 17.028 8.53802 14.5049 8.27707 11.9117C8.01073 9.26083 8.95553 6.94651 11.2555 5.51761C13.3988 4.18768 16.118 3.69998 18.5835 3.36345C19.7299 3.20688 20.8817 3.1097 22.028 2.96034C22.6165 2.88295 23.2194 2.83436 23.7755 2.62021C23.9824 2.53922 24.0166 2.22969 23.7755 2.1613Z" fill="#FF0000"/>
<path d="M24.0938 27.8582C21.9613 27.5486 19.9007 27.3417 17.9373 26.3501C17.0429 25.8966 16.1701 25.3063 15.5996 24.4659C14.8383 23.3447 14.5 21.9734 14.2229 20.6668C13.5714 17.5985 13.2421 14.4635 13.1989 11.3304C13.1809 10.0832 12.9307 8.58774 13.7693 7.56016C14.356 6.8421 15.0399 6.48218 15.8281 6.04307C18.3512 4.63756 21.1298 3.91231 23.7339 2.71376C23.9966 2.59318 23.8581 2.18107 23.5899 2.18287C22.2888 2.20086 21.0254 2.66337 19.8053 3.08448C18.3296 3.59378 16.8917 4.20205 15.4142 4.70415C14.4244 5.04248 13.6398 5.49958 12.9145 6.26622C11.9247 7.31001 11.7232 8.3214 11.6962 9.72151C11.626 13.22 11.9301 16.7275 12.578 20.1647C13.0873 22.8642 13.8305 25.5006 16.2402 27.0843C18.3152 28.4466 21.6391 29.4328 24.0938 28.677C24.4591 28.5636 24.5365 27.9229 24.0938 27.8582Z" fill="#FF0000"/>
<path d="M12.7292 27.5036C10.9764 26.2007 8.34173 25.6374 6.30995 26.6182C4.50312 27.4892 3.72928 29.4922 3.45214 31.3602C3.06882 33.9427 3.27578 36.5684 3.1786 39.167C3.07962 41.8161 2.44255 44.4093 2.35257 47.0548C2.27158 49.4249 2.6639 52.0362 4.1396 53.9654C4.83785 54.8796 6.41253 53.9708 5.70168 53.0512C4.20259 51.1076 3.98663 48.5017 4.1432 46.1316C4.23858 44.6955 4.47433 43.272 4.6327 41.8413C4.80186 40.308 4.82346 38.7783 4.79466 37.236C4.74787 34.7309 4.33936 31.6716 5.51451 29.3465C6.11199 28.1641 7.15758 27.5126 8.4911 27.4748C9.87861 27.437 11.1779 28.0309 12.5421 28.1875C12.9488 28.2361 12.9812 27.6926 12.7292 27.5036Z" fill="#FF0000"/>
<path d="M9.07783 53.6378C7.23501 52.8082 4.74253 52.9738 3.10126 54.1723C1.32323 55.4716 0.574587 57.6186 0.304643 59.7206C0.0293 61.8693 -0.377416 64.5796 0.740153 66.5628C1.53199 67.9665 4.00468 69.5861 5.29321 67.9161C5.54156 67.5939 5.26622 67.1242 4.93149 67.0271C4.29082 66.8381 3.64475 66.9371 3.06347 66.5466C2.40661 66.1038 2.06288 65.3912 1.90631 64.6336C1.56978 62.9941 1.80733 60.9929 2.07908 59.3552C2.33282 57.8364 2.83672 56.2131 4.12525 55.2521C5.56855 54.1741 7.36818 54.5646 9.00764 54.1669C9.2344 54.1111 9.30818 53.7422 9.07783 53.6378Z" fill="#FF0000"/>
<mask id="mask0_4_105" style="mask-type:luminance" maskUnits="userSpaceOnUse" x="3" y="64" width="52" height="21">
<path d="M3.14258 64.3779H54.2808V84.9999H3.14258V64.3779Z" fill="white"/>
</mask>
<g mask="url(#mask0_4_105)">
<path d="M11.3365 65.4828C8.58488 64.0701 5.28436 64.88 4.06781 67.8728C2.6911 71.2579 4.57531 75.0029 6.30115 77.8895C7.25315 79.484 8.36532 81.0118 9.62866 82.376C10.865 83.7095 12.4307 84.4023 14.2159 84.6651C16.4205 84.989 18.7258 84.9062 20.9501 84.9314C26.0971 84.989 31.244 84.9908 36.3909 84.9386C37.9566 84.9224 39.5223 84.8972 41.088 84.8306C42.7076 84.7587 44.3993 84.89 45.9488 84.3178C47.6944 83.6753 48.6374 82.2374 49.6038 80.7383C50.8239 78.8451 52.0405 76.9051 53.0285 74.8805C53.8923 73.1133 54.5492 71.0761 53.8041 69.1469C53.2283 67.6514 51.8983 66.1361 50.3237 65.6754C48.8264 65.2381 46.8432 65.4361 45.5042 66.2441C44.6836 66.7408 45.4305 68.0257 46.2565 67.5308C47.2535 66.9315 48.812 66.7768 49.9259 67.1223C51.2811 67.5434 52.4418 69.1199 52.548 70.5092C52.6758 72.1901 51.8137 73.8079 51.0219 75.2296C50.1347 76.8241 49.1935 78.388 48.2019 79.9195C47.3111 81.298 46.5066 82.5577 44.8168 82.9554C43.5121 83.2632 42.1209 83.1462 40.791 83.2074C39.5115 83.265 38.2302 83.274 36.9488 83.2866C32.5127 83.3298 28.0748 83.3136 23.637 83.2668C21.6358 83.2452 19.6328 83.2164 17.6298 83.1696C16.7084 83.1498 15.7762 83.148 14.8584 83.0508C13.1559 82.8691 11.7864 82.2644 10.6383 80.9866C9.35152 79.5559 8.23215 77.9723 7.27835 76.3004C6.36594 74.6987 5.42473 72.9099 5.20158 71.0545C5.02701 69.6184 5.30955 68.0635 6.32994 66.9801C7.56449 65.6664 9.47029 65.5962 11.126 65.9831C11.4175 66.0515 11.6244 65.6304 11.3365 65.4828Z" fill="#FF0000"/>
</g>
<path d="M24.1677 28.8805C25.9439 29.37 27.9865 29.2728 29.8149 29.2782C30.7489 29.2836 31.6829 29.253 32.6169 29.217C33.4519 29.1847 34.4633 29.3304 35.1382 28.7797C35.4423 28.5296 35.3092 28.0455 35.0194 27.8619C34.3302 27.4246 33.2576 27.7036 32.4729 27.7342C31.5371 27.7683 30.6013 27.7881 29.6655 27.8151C27.8659 27.8655 25.9385 27.7306 24.1677 28.0761C23.7519 28.1571 23.7897 28.7761 24.1677 28.8805Z" fill="#FF0000"/>
<path d="M18.8173 33.536C18.2558 31.722 16.9097 29.9097 15.6752 28.4808C13.809 26.3213 10.7694 27.2031 9.14611 29.1503C6.90198 31.8407 7.16112 35.2726 7.99795 38.4454C8.45146 40.1712 9.03094 41.9097 9.06153 43.7111C9.09572 45.5935 8.32008 47.2906 7.80719 49.065C6.95237 52.0236 7.58584 55.5418 10.5696 57.0175C11.2499 57.3541 11.8456 56.3679 11.1707 55.99C8.77359 54.651 8.34528 51.8598 9.07053 49.4123C9.49524 47.9744 10.0945 46.5905 10.2997 45.095C10.4958 43.6553 10.3069 42.2156 9.98654 40.8065C9.31708 37.8785 7.98895 34.8551 9.05613 31.8515C9.82457 29.6884 12.6572 26.9458 14.8293 29.2457C16.1467 30.6404 16.9565 32.539 18.488 33.7268C18.6302 33.8365 18.8803 33.7448 18.8173 33.536Z" fill="#FF0000"/>
<path d="M13.4509 55.8424C9.85884 55.6516 7.07662 59.1681 8.57031 62.5784C9.32255 64.2952 10.6435 65.7403 12.0598 66.9407C12.7616 67.5364 13.5013 68.0871 14.2553 68.6143C14.9914 69.1308 15.776 69.8507 16.6866 69.9641C17.1455 70.0199 17.3903 69.4314 17.1905 69.0841C16.8576 68.501 16.2097 68.1986 15.6662 67.8297C15.0148 67.3888 14.3669 66.9371 13.7478 66.453C12.5475 65.5136 11.3957 64.4392 10.5445 63.1651C9.72387 61.9359 9.21637 60.534 9.87324 59.1123C10.5301 57.696 12.0904 56.8538 13.5337 56.4525C13.881 56.3571 13.7964 55.8604 13.4509 55.8424Z" fill="#FF0000"/>
<path d="M12.893 56.2383C14.8654 57.0625 16.5606 58.0253 18.1767 59.4327C19.5714 60.6456 20.9337 61.9089 22.2097 63.2461C22.674 63.732 23.4244 62.9833 22.9493 62.5064C21.515 61.0685 20.0141 59.6828 18.4503 58.3853C16.8954 57.0949 15.022 55.9252 12.9488 55.8226C12.6896 55.81 12.6896 56.1537 12.893 56.2383Z" fill="#FF0000"/>
<path d="M19.5769 31.9236C19.4923 33.3939 19.9278 34.965 20.1996 36.3957C20.3831 37.3693 20.5649 38.3411 20.7394 39.3165C20.8726 40.0669 20.9428 40.8822 21.1516 41.6146C21.3405 42.2751 22.3447 42.1455 22.3501 41.4526C22.3555 40.7364 22.1288 39.9536 21.9812 39.2571C21.7706 38.2691 21.5295 37.2865 21.2955 36.3021C20.941 34.8084 20.5829 33.3129 20.115 31.8498C20.0196 31.5529 19.5949 31.6141 19.5769 31.9236Z" fill="#FF0000"/>
<path d="M19.8935 31.9992C20.5521 32.0658 21.2288 31.9614 21.882 31.8786C22.3338 31.8211 22.7819 31.7563 23.23 31.6861C23.3991 31.6591 23.5665 31.6339 23.7357 31.6069C23.8005 31.5961 24.137 31.5529 23.8706 31.5835C23.6943 31.4485 23.5197 31.3136 23.3415 31.1804C23.9048 34.2937 24.3871 37.4215 24.9504 40.5349C25.0926 41.3339 26.3109 40.9956 26.167 40.2001C25.6055 37.0904 24.963 33.9968 24.4015 30.8889C24.3475 30.5955 23.9912 30.4335 23.7249 30.5055C22.4219 30.8583 21.0002 30.977 19.7855 31.6033C19.5821 31.7095 19.7027 31.9794 19.8935 31.9992Z" fill="#FF0000"/>
<mask id="mask1_4_105" style="mask-type:luminance" maskUnits="userSpaceOnUse" x="21" y="0" width="18" height="4">
<path d="M21.5708 0H38.6169V3.56506H21.5708V0Z" fill="white"/>
</mask>
<g mask="url(#mask1_4_105)">
<path d="M21.9848 3.44092C22.7208 3.29515 23.3705 3.00001 24.0687 2.72827C25.4653 2.18298 26.9517 1.71508 28.4544 1.6089C31.4886 1.39294 34.7747 1.85545 37.4724 3.31315C38.2822 3.75046 39.0057 2.51231 38.194 2.0804C35.2714 0.529123 31.7334 -0.00536634 28.4544 0.251981C26.8618 0.377954 25.3591 0.822463 23.905 1.46673C23.0879 1.82845 22.2565 2.20098 21.6626 2.88664C21.4413 3.14218 21.6536 3.50571 21.9848 3.44092Z" fill="#FF0000"/>
</g>
<path d="M26.4947 40.2469C25.4617 40.0903 24.2938 40.2667 23.3058 40.6032C22.2782 40.9542 21.0221 41.4563 20.4444 42.4389C19.5752 43.9128 20.0197 46.2685 20.2518 47.8701C20.538 49.8551 20.9411 51.8293 21.4342 53.7747C21.7653 55.083 22.073 56.6487 22.8325 57.7933C24.1804 59.8215 27.7671 61.074 29.3813 58.6463C29.6963 58.1748 29.169 57.4622 28.6219 57.6601C28.0064 57.8797 27.4647 58.2828 26.7917 58.29C26.1438 58.2972 25.5373 58.002 25.0388 57.6061C24.373 57.0788 24.22 56.8377 23.9303 56.0476C23.2842 54.2822 22.8469 52.4268 22.4546 50.5894C22.055 48.7304 21.6627 46.8174 21.5601 44.9151C21.5349 44.4544 21.49 43.9236 21.6141 43.4754C21.8139 42.752 22.4888 42.4299 23.1132 42.1149C24.2074 41.5606 25.5355 41.3303 26.5451 40.6356C26.6783 40.5439 26.6927 40.2775 26.4947 40.2469Z" fill="#FF0000"/>
<path d="M26.3019 40.3801C26.0499 41.0945 26.1903 41.9997 26.2515 42.734C26.4099 44.6218 26.6546 46.5006 26.8976 48.3776C27.4518 52.6787 27.9827 56.9816 28.5712 61.2773C28.7062 62.2635 28.8412 63.2479 28.9761 64.2341C29.0967 65.1321 30.4644 64.7506 30.342 63.8562C30.396 64.2485 30.2917 63.4693 30.2737 63.3361C30.1927 62.7314 30.1117 62.1286 30.0289 61.5257C29.7752 59.6253 29.5016 57.7267 29.2317 55.8281C28.6306 51.5971 28.1591 47.3212 27.3673 43.1227C27.2017 42.2409 27.1207 41.0999 26.5934 40.3405C26.5142 40.2253 26.3469 40.2451 26.3019 40.3801Z" fill="#FF0000"/>
<path d="M18.1714 33.6153C18.1354 37.8552 18.3892 42.0988 18.5565 46.3333C18.6393 48.4515 18.7743 50.5768 18.7113 52.6968C18.6753 53.9259 18.5979 55.1569 18.5205 56.3842C18.463 57.3218 18.247 58.4142 18.4612 59.3374C18.5673 59.8017 19.2602 59.7801 19.379 59.3374C19.6255 58.416 19.5517 57.3344 19.6201 56.3842C19.7047 55.2073 19.7785 54.0321 19.7893 52.8533C19.8073 50.6812 19.6471 48.5018 19.5409 46.3333C19.334 42.0952 19.1882 37.8427 18.8139 33.6153C18.7761 33.2122 18.175 33.196 18.1714 33.6153Z" fill="#FF0000"/>
<path d="M16.3556 69.777C17.2573 70.2809 18.2309 70.3691 19.2476 70.4861C20.3616 70.6157 21.4792 70.6858 22.5986 70.7452C24.8211 70.864 27.0472 70.9144 29.2716 70.909C31.3915 70.9036 33.5097 70.837 35.6261 70.729C37.683 70.6229 39.8498 70.6265 41.8762 70.2323C42.7076 70.0704 42.4772 68.8232 41.6818 68.7998C39.6788 68.7422 37.629 69.0392 35.6261 69.1292C33.5097 69.2245 31.3897 69.2803 29.2716 69.2929C27.1534 69.3055 25.0334 69.2695 22.9171 69.1688C21.7995 69.1166 20.6837 69.0284 19.5662 68.9708C18.5026 68.9168 17.4768 68.7836 16.4456 69.086C16.1397 69.1742 16.0677 69.6151 16.3556 69.777Z" fill="#FF0000"/>
<path d="M21.103 69.9803C20.7755 71.4596 20.6693 73.0055 20.6639 74.5189C20.6567 76.6605 21.0724 78.8776 23.3741 79.6137C24.5223 79.9808 25.8378 79.979 27.0292 80.0618C28.3573 80.1536 29.689 80.1662 31.0028 79.9268C32.1995 79.7091 33.4107 79.279 34.1935 78.3072C34.899 77.4325 34.926 76.3762 34.9314 75.3C34.935 74.2184 34.9044 73.135 34.8738 72.0534C34.8558 71.4434 34.9764 70.6209 34.5012 70.1476C34.5624 70.2952 34.6254 70.4446 34.6866 70.5922C34.6866 70.5904 34.6866 70.5868 34.6866 70.5832C34.656 69.7733 33.3945 69.7697 33.4233 70.5832C33.4233 70.5868 33.4233 70.5904 33.4233 70.5922C33.4863 70.4446 33.5474 70.2952 33.6086 70.1476C33.1875 70.6335 33.3063 71.2796 33.3207 71.8753C33.3459 72.8885 33.3603 73.8999 33.3477 74.9131C33.3333 76.2268 33.3513 77.4163 31.9422 77.9796C30.5727 78.5267 29.0664 78.5537 27.6159 78.4853C26.3615 78.4277 24.7077 78.5069 23.5415 77.9832C22.3556 77.4523 22.2476 76.0072 22.1918 74.8699C22.1108 73.2358 22.1234 71.5999 21.8805 69.9803C21.8211 69.5808 21.184 69.6078 21.103 69.9803Z" fill="#FF0000"/>
<path d="M17.5254 69.4008C18.0634 69.1075 18.4738 68.528 18.9075 68.1015C19.469 67.549 20.0556 67.0163 20.6423 66.489C21.1984 65.9887 21.7653 65.501 22.316 64.9917C22.7803 64.5634 23.4209 64.1027 23.6189 63.4872C23.7287 63.1435 23.3507 62.708 22.9872 62.8574C22.3843 63.1039 21.938 63.7032 21.4665 64.1441C20.8583 64.7128 20.2428 65.2743 19.6381 65.8465C18.7761 66.66 17.2266 67.8891 17.1042 69.1596C17.0826 69.381 17.3544 69.4944 17.5254 69.4008Z" fill="#FF0000"/>
<path d="M18.9812 67.6301C20.5775 67.8335 22.2529 67.5671 23.8528 67.4717C25.6164 67.3656 27.3765 67.2756 29.1437 67.254C32.5396 67.2126 35.9463 67.3368 39.326 67.6967C40.0009 67.7687 39.9937 66.7141 39.326 66.6421C35.8455 66.266 32.3452 66.1418 28.8468 66.2192C27.0867 66.2588 25.3159 66.32 23.5649 66.4999C22.0172 66.6565 20.3543 66.7555 18.9128 67.38C18.7742 67.4394 18.8678 67.6157 18.9812 67.6301Z" fill="#FF0000"/>
<path d="M35.9696 63.1147C36.3871 64.1405 37.4039 64.9917 38.1183 65.8069C38.7122 66.4854 39.3007 67.1711 39.8424 67.8909C40.3696 68.5928 40.7908 69.606 41.624 69.9479C41.9011 70.0613 42.1729 69.7787 42.1801 69.5232C42.2053 68.6467 41.3163 67.8135 40.7764 67.1693C40.2149 66.498 39.6192 65.8591 38.9767 65.2634C38.1111 64.4608 37.1933 63.5826 36.1963 62.9401C36.0901 62.8717 35.9174 62.9887 35.9696 63.1147Z" fill="#FF0000"/>
<path d="M17.5233 31.6464C18.5293 30.7322 19.4903 29.8845 20.7788 29.3878C22.0188 28.9091 23.2803 28.8371 24.5904 28.758C24.9972 28.7346 24.9972 28.1515 24.5904 28.1281C21.864 27.9679 18.7435 29.0459 17.149 31.3584C16.9906 31.5906 17.3307 31.8209 17.5233 31.6464Z" fill="#FF0000"/>
<path d="M36.7147 2.59691C37.5461 2.96763 38.5287 3.04682 39.4231 3.18899C40.996 3.44094 42.5581 3.66229 44.104 4.06361C46.9114 4.79606 49.8862 6.16198 50.6384 9.24294C51.3565 12.1907 50.0031 15.3113 49.0817 18.0593C48.0577 21.1097 47.0356 24.1601 46.0098 27.2104C45.6822 28.1822 47.2263 28.6051 47.5466 27.6333C48.4141 25.0041 49.2815 22.3784 50.1507 19.7492C50.9533 17.3215 51.8802 14.8848 52.1825 12.3293C52.4668 9.925 51.9485 7.4991 50.2155 5.72826C48.5364 4.01322 46.1591 3.18899 43.8574 2.71389C42.4501 2.42415 41.0014 2.22619 39.5653 2.13081C38.6637 2.06962 37.6577 1.93825 36.7723 2.1614C36.5869 2.20819 36.5239 2.51053 36.7147 2.59691Z" fill="#FF0000"/>
<path d="M34.7765 28.8445C36.8622 29.4959 39.5401 28.7329 41.4441 27.8475C43.8304 26.7389 45.2485 24.9519 45.9558 22.4252C46.8538 19.2201 47.2065 15.7738 47.3217 12.4571C47.3523 11.5986 47.3595 10.7402 47.3451 9.88179C47.3343 9.19073 47.3793 8.45109 47.1345 7.79062C46.7818 6.84222 45.9792 5.982 45.1477 5.41871C44.6798 5.10018 44.1273 4.9796 43.6055 4.77625C42.7488 4.43972 41.9138 4.0402 41.0626 3.68747C39.6103 3.0846 38.05 2.37014 36.4537 2.35035C36.1856 2.34855 36.047 2.75886 36.3098 2.88124C38.6583 3.98081 41.1472 4.75825 43.4075 6.05938C44.1579 6.49309 44.8904 7.02038 45.4033 7.73303C46.1267 8.74083 45.8586 10.3155 45.8388 11.4907C45.7884 14.5266 45.4627 17.5572 44.8454 20.5302C44.5683 21.8601 44.2353 23.2296 43.4921 24.3868C42.981 25.1786 42.1945 25.7599 41.3829 26.2188C39.3097 27.3922 37.0836 27.6783 34.7765 28.0256C34.3356 28.0922 34.413 28.7311 34.7765 28.8445Z" fill="#FF0000"/>
<path d="M46.4974 28.1875C47.8147 28.0363 49.0745 27.4659 50.4116 27.4713C51.7433 27.4767 52.8429 28.0651 53.4728 29.2439C54.7199 31.5708 54.2916 34.7094 54.2448 37.236C54.2178 38.7261 54.2322 40.2054 54.3906 41.6883C54.5435 43.119 54.7793 44.5425 54.8855 45.9786C55.0618 48.3937 54.8711 51.0662 53.3378 53.0512C52.6269 53.9708 54.2016 54.8814 54.9017 53.9654C57.9304 50.0008 56.2478 44.7621 55.922 40.2918C55.7241 37.578 55.9616 34.8461 55.6827 32.1341C55.4937 30.2859 55.0024 28.2649 53.4566 27.0735C51.405 25.4917 48.2664 26.0496 46.3102 27.5037C46.0583 27.6926 46.0907 28.2361 46.4974 28.1875Z" fill="#FF0000"/>
<mask id="mask2_4_105" style="mask-type:luminance" maskUnits="userSpaceOnUse" x="49" y="52" width="11" height="17">
<path d="M49.6738 52.8604H59.0445V68.985H49.6738V52.8604Z" fill="white"/>
</mask>
<g mask="url(#mask2_4_105)">
<path d="M50.032 54.167C51.8497 54.5845 53.8473 54.1436 55.3122 55.5833C56.7123 56.9619 56.9912 59.053 57.1334 60.9174C57.2072 61.8874 57.2306 62.8088 57.011 63.7626C56.8436 64.4843 56.6457 65.4273 56.1274 65.987C55.1232 67.0722 53.6997 66.8382 52.4328 67.1945C52.0944 67.2899 51.8281 67.7632 52.071 68.0818C53.2102 69.5808 55.9384 68.4489 57.1028 67.4825C58.7602 66.104 59.032 63.2084 58.879 61.218C58.6973 58.8443 58.2797 56.323 56.4585 54.6115C54.7795 53.0369 52.0476 52.7291 49.9619 53.6379C49.7315 53.7387 49.8035 54.1148 50.032 54.167Z" fill="#FF0000"/>
</g>
<path d="M40.5515 33.7269C41.9282 32.6597 42.7866 30.9861 43.8718 29.6453C44.5071 28.8607 45.3349 28.2812 46.4075 28.4054C47.7158 28.5584 48.8046 29.6201 49.4452 30.7017C51.1459 33.5829 50.1129 36.7413 49.3247 39.7214C48.9575 41.1108 48.6354 42.5415 48.6516 43.9848C48.6696 45.4911 49.1393 46.902 49.6144 48.3129C50.0877 49.7202 50.5052 51.1239 50.2317 52.6194C49.9689 54.0627 49.1555 55.272 47.8688 55.9901C47.1939 56.368 47.7878 57.3542 48.4698 57.0177C51.0253 55.7543 51.9467 52.8533 51.4968 50.1701C51.2107 48.4676 50.3954 46.902 50.0895 45.2013C49.7602 43.3819 50.2047 41.5535 50.6744 39.8024C51.5508 36.5451 52.4038 33.1636 50.543 30.061C49.1501 27.7377 45.9881 26.0479 43.6486 28.1804C42.9054 28.8589 42.3313 29.8217 41.7752 30.6495C41.1669 31.5583 40.5479 32.4851 40.2221 33.5361C40.1592 33.7431 40.4093 33.8367 40.5515 33.7269Z" fill="#FF0000"/>
<path d="M45.5059 56.4525C46.9132 56.8448 48.4266 57.651 49.1087 59.0043C49.8394 60.4512 49.3427 61.8927 48.495 63.1651C47.6744 64.3906 46.5766 65.4272 45.4321 66.3432C44.8058 66.8417 44.1489 67.3006 43.4867 67.7523C42.9144 68.1428 42.1999 68.4686 41.849 69.0841C41.6492 69.4314 41.894 70.0199 42.3529 69.9641C43.2635 69.8507 44.0464 69.1308 44.7842 68.6143C45.5005 68.1141 46.2059 67.5904 46.8772 67.0289C48.3331 65.8069 49.6972 64.3366 50.4692 62.5784C51.9647 59.1681 49.1807 55.6516 45.5886 55.8424C45.2449 55.8604 45.1567 56.3553 45.5059 56.4525Z" fill="#FF0000"/>
<path d="M46.0905 55.8226C44.0174 55.9252 42.144 57.0949 40.5873 58.3853C39.0252 59.6828 37.5225 61.0685 36.09 62.5064C35.6149 62.9833 36.3654 63.732 36.8297 63.2461C38.1056 61.9089 39.4679 60.6456 40.8608 59.4327C42.4787 58.0253 44.1739 57.0625 46.1463 56.2383C46.3479 56.1555 46.3515 55.81 46.0905 55.8226Z" fill="#FF0000"/>
<path d="M38.9245 31.8497C38.4566 33.3128 38.0985 34.8083 37.7439 36.302C37.5172 37.2558 37.285 38.2096 37.0781 39.1688C36.9215 39.8923 36.6822 40.7075 36.6894 41.4526C36.6948 42.14 37.6972 42.2804 37.8879 41.6145C38.0895 40.9109 38.1543 40.1298 38.2838 39.4064C38.4638 38.4022 38.651 37.3998 38.8399 36.3956C39.1117 34.9649 39.5472 33.392 39.4626 31.9235C39.4446 31.6158 39.0199 31.5492 38.9245 31.8497Z" fill="#FF0000"/>
<path d="M39.2522 31.6033C38.0681 30.9788 36.6122 30.788 35.3146 30.5037C35.0357 30.4425 34.7028 30.5847 34.6362 30.887C33.9865 33.8672 33.434 36.869 32.8725 39.8654C32.7232 40.659 33.9397 40.9991 34.0891 40.2001C34.6524 37.2001 35.2247 34.1965 35.6998 31.1804C35.473 31.3081 35.2463 31.4377 35.0213 31.5655C36.3494 31.776 37.7999 32.1468 39.146 31.9992C39.3368 31.9776 39.4574 31.7113 39.2522 31.6033Z" fill="#FF0000"/>
<path d="M32.158 40.4683C33.2702 41.2349 34.7171 41.5121 35.9174 42.1221C36.5401 42.4371 37.2167 42.7574 37.4183 43.4773C37.5335 43.8894 37.4939 44.3681 37.4795 44.7928C37.4147 46.668 37.0926 48.5558 36.7506 50.3968C36.4105 52.2271 36.0326 54.0843 35.4333 55.8515C35.176 56.6091 35.0788 56.7693 34.5155 57.2966C34.0386 57.7447 33.4519 58.1658 32.7807 58.2342C32.0986 58.3026 31.5335 57.8869 30.9198 57.6601C30.38 57.4586 29.8383 58.1766 30.1604 58.6463C31.7513 60.966 34.7549 59.7099 36.2359 58.0057C37.089 57.0249 37.3769 55.5672 37.6739 54.3362C38.149 52.3908 38.5017 50.4112 38.7716 48.4262C38.9966 46.7634 39.3097 44.8594 38.903 43.2001C38.5737 41.8504 37.3769 41.2529 36.1856 40.7652C34.9654 40.2667 33.5347 39.887 32.2084 40.0796C32.0104 40.1102 32.0266 40.3765 32.158 40.4683Z" fill="#FF0000"/>
<path d="M32.1096 40.1731C31.71 40.8138 31.6471 41.7172 31.5445 42.4461C31.2817 44.3285 31.1 46.2199 30.92 48.1113C30.5133 52.4304 30.0796 56.7459 29.7053 61.0668C29.6189 62.0602 29.5343 63.0536 29.4479 64.0452C29.3669 64.9522 30.7868 64.9468 30.8642 64.0452C31.1018 61.3476 31.3339 58.6517 31.5553 55.9541C31.9026 51.6854 32.3867 47.4005 32.5415 43.1191C32.5757 42.2175 32.7502 41.0748 32.4029 40.2127C32.3543 40.0868 32.1887 40.049 32.1096 40.1731Z" fill="#FF0000"/>
<path d="M40.2259 33.6153C39.8516 37.8426 39.704 42.0952 39.4989 46.3333C39.3963 48.4496 39.2397 50.575 39.2505 52.6968C39.2559 53.9277 39.3315 55.1551 39.4179 56.3842C39.4881 57.3326 39.4143 58.4196 39.6608 59.3374C39.7796 59.7801 40.4725 59.8017 40.5787 59.3374C40.7928 58.4106 40.5769 57.3236 40.5193 56.3842C40.4455 55.2072 40.3717 54.0303 40.3321 52.8533C40.2601 50.6812 40.3987 48.5036 40.4833 46.3333C40.6506 42.0988 40.9044 37.8552 40.8684 33.6153C40.8648 33.1978 40.2637 33.2104 40.2259 33.6153Z" fill="#FF0000"/>
<path d="M41.8905 31.3586C40.2618 29.0173 36.9757 28.2956 34.2817 28.463C33.8767 28.4882 33.8749 29.0713 34.2817 29.0929C35.6026 29.1685 36.8911 29.172 38.1725 29.5626C39.5078 29.9675 40.4976 30.7269 41.5162 31.6465C41.7051 31.8193 42.0525 31.5925 41.8905 31.3586Z" fill="#FF0000"/>
<path d="M51.2411 39.419C50.703 40.0345 50.7912 41.3752 50.7408 42.1455C50.6958 42.8275 50.6868 43.5168 50.6904 44.2024C50.6904 44.548 50.9712 44.7999 51.3059 44.8197C52.544 44.8845 53.8128 44.9007 55.0365 44.6847C55.8337 44.5444 55.4972 43.3206 54.7 43.4682C53.5968 43.6715 52.4253 43.6355 51.3059 43.5852C51.511 43.7921 51.718 43.9973 51.9232 44.2024C51.916 43.551 51.9088 42.8977 51.8782 42.248C51.8422 41.4688 51.9789 40.1083 51.502 39.4532C51.4427 39.3722 51.3167 39.3308 51.2411 39.419Z" fill="#FF0000"/>
<path d="M51.1494 39.7357C51.4553 40.3296 52.6359 40.164 53.1686 40.1766C53.7877 40.1928 54.4049 40.2072 55.0222 40.2252C55.8068 40.2468 55.8104 38.9888 55.0222 39.005C54.3077 39.0176 53.5933 39.0302 52.8788 39.041C52.5909 39.0464 50.7733 39.005 51.1494 39.7357Z" fill="#FF0000"/>
<path d="M51.441 40.0146C51.4068 40.7435 51.6893 41.4543 52.4704 41.6181C53.2406 41.7801 54.0918 41.7729 54.8747 41.7297C55.5153 41.6937 55.4919 40.6733 54.8747 40.7471C54.2574 40.8209 53.6311 40.8353 53.0102 40.8569C52.7583 40.8659 52.5531 40.9019 52.3318 40.7849C52.0384 40.6265 51.7901 40.2144 51.5831 39.9571C51.5346 39.8977 51.4446 39.9517 51.441 40.0146Z" fill="#FF0000"/>
<path d="M7.43296 39.4532C6.95606 40.1083 7.09103 41.4688 7.05504 42.248C7.02444 42.8977 7.01724 43.551 7.01005 44.2024C7.217 43.9973 7.42216 43.7921 7.62732 43.5852C6.50975 43.6355 5.33819 43.6715 4.23322 43.4682C3.43778 43.3224 3.09945 44.5444 3.89669 44.6847C5.12224 44.9007 6.38917 44.8845 7.62732 44.8197C7.96025 44.7999 8.24279 44.5516 8.24459 44.2024C8.24639 43.5168 8.23739 42.8275 8.1942 42.1455C8.14381 41.3752 8.23019 40.0345 7.6921 39.419C7.61652 39.3308 7.49055 39.3722 7.43296 39.4532Z" fill="#FF0000"/>
<path d="M7.78373 39.4639C7.47239 38.8719 6.29904 39.0446 5.76455 39.0374C5.14728 39.0284 4.53 39.0158 3.91093 39.005C3.12629 38.9888 3.12449 40.2468 3.91093 40.2252C4.62718 40.2054 5.34164 40.1874 6.05609 40.1694C6.34043 40.164 8.16525 40.1892 7.78373 39.4639Z" fill="#FF0000"/>
<path d="M7.35027 39.9571C7.16131 40.1946 6.96335 40.5077 6.73299 40.7039C6.47385 40.9253 6.2399 40.8677 5.92496 40.8569C5.30229 40.8353 4.67782 40.8209 4.05875 40.7471C3.44327 40.6733 3.41808 41.6937 4.05875 41.7297C4.84158 41.7729 5.69461 41.7801 6.46305 41.6181C7.24409 41.4543 7.52663 40.7435 7.49244 40.0146C7.48884 39.9517 7.39886 39.8977 7.35027 39.9571Z" fill="#FF0000"/>
<path d="M25.5354 59.3086C25.5408 60.6997 26.1329 62.0854 26.446 63.428C26.6116 64.1352 26.6818 64.8569 27.5294 64.9108C28.7963 64.9936 30.0975 64.9018 31.3662 64.8803C31.7873 64.8749 32.3218 64.9378 32.7357 64.8155C33.245 64.6661 33.3386 64.1748 33.4646 63.7267C33.6949 62.8917 33.8947 62.0476 34.098 61.2054C34.2852 60.428 34.6145 59.4922 34.4742 58.6877C34.3824 58.155 33.6895 58.2 33.434 58.5528C33.1028 59.0099 33.0039 59.6793 32.8581 60.2156C32.6853 60.8473 32.5252 61.4826 32.356 62.116C32.2318 62.5893 32.0429 63.0788 31.9673 63.5611C31.9619 63.5827 31.8989 63.7375 31.9097 63.7699C31.9007 63.7987 31.8935 63.8257 31.8845 63.8545C32.0375 63.7015 32.1904 63.5503 32.3452 63.3992C32.3362 63.3362 32.5539 63.4549 32.3596 63.392C32.3164 63.3776 32.1922 63.4046 32.1526 63.4082C30.5636 63.5107 28.9511 63.4729 27.3674 63.6457C27.515 63.7051 27.6644 63.7681 27.8119 63.8293C27.5132 63.5233 27.434 62.9295 27.3062 62.5299C27.1785 62.125 27.0507 61.7201 26.9193 61.3152C26.6836 60.5863 26.4694 59.8179 26.0573 59.1682C25.9115 58.9379 25.5354 59.0243 25.5354 59.3086Z" fill="#FF0000"/>
<path d="M36.371 62.9672C35.7645 62.4795 34.9205 62.386 34.1736 62.26C33.6949 62.1808 32.8617 61.954 32.6853 62.6145C32.4802 63.3704 33.3836 63.4189 33.8803 63.4567C34.6415 63.5161 35.4604 63.6889 36.2162 63.5539C36.4645 63.5089 36.5689 63.1274 36.371 62.9672Z" fill="#FF0000"/>
<path d="M22.6846 63.3523C23.876 63.5143 25.0925 63.3415 26.2929 63.3415C26.4729 63.3397 26.6672 63.2407 26.7518 63.077C26.8724 62.8466 26.8706 62.7746 26.7518 62.5389C26.669 62.3751 26.4693 62.2743 26.2929 62.2761C25.0566 62.2869 23.75 62.3211 22.6217 62.87C22.4309 62.9636 22.4597 63.3217 22.6846 63.3523Z" fill="#FF0000"/>
</svg>
