<svg width="70" height="71" viewBox="0 0 70 71" fill="none" xmlns="http://www.w3.org/2000/svg">
<path fill-rule="evenodd" clip-rule="evenodd" d="M30.6174 30.7202C30.1606 31.1771 30.1606 31.9155 30.6174 32.3723L37.6277 39.3826C37.8555 39.6104 38.1546 39.7249 38.4537 39.7249C38.7528 39.7249 39.0519 39.6104 39.2798 39.3826C39.7366 38.9258 39.7366 38.1873 39.2798 37.7305L32.2695 30.7202C31.8127 30.2634 31.0742 30.2634 30.6174 30.7202ZM27.596 35.3937C27.1391 34.9369 26.4007 34.9369 25.9439 35.3937C25.487 35.8506 25.487 36.589 25.9439 37.0458L32.9542 44.0561C33.182 44.284 33.4811 44.3984 33.7802 44.3984C34.0793 44.3984 34.3784 44.284 34.6063 44.0561C35.0631 43.5993 35.0631 42.8609 34.6063 42.404L27.596 35.3937ZM22.9225 40.0673C22.4656 39.6104 21.7272 39.6104 21.2704 40.0673C20.8135 40.5241 20.8135 41.2625 21.2704 41.7194L28.2806 48.7296C28.5085 48.9575 28.8076 49.072 29.1067 49.072C29.4058 49.072 29.7049 48.9575 29.9327 48.7296C30.3896 48.2728 30.3896 47.5344 29.9327 47.0775L22.9225 40.0673ZM44.9803 37.3882L32.6118 25.0197L15.5698 42.0617L27.9383 54.4302L44.9803 37.3882ZM33.4379 22.5416L47.4584 36.5621C47.9153 37.019 47.9153 37.7574 47.4584 38.2142L28.7644 56.9083C28.5365 57.1361 28.2374 57.2506 27.9383 57.2506C27.6392 57.2506 27.3401 57.1361 27.1123 56.9083L13.0917 42.8877C12.6349 42.4309 12.6349 41.6925 13.0917 41.2356L31.7858 22.5416C32.2426 22.0847 32.981 22.0847 33.4379 22.5416ZM60.6237 42.7335C60.0653 42.4052 59.3502 42.5933 59.0242 43.1506L45.6323 65.9925C44.6648 67.6667 42.5162 68.2428 40.8945 67.308L38.2855 65.6174C37.7457 65.2657 37.0213 65.4211 36.6708 65.9621C36.3191 66.5042 36.4733 67.2274 37.0155 67.5779L39.6747 69.3013C40.5919 69.8306 41.5955 70.0818 42.5863 70.0818C44.6064 70.0818 46.5728 69.0361 47.6512 67.1678L61.0397 44.3319C61.3657 43.7757 61.1799 43.0607 60.6237 42.7335ZM70 5.8419V24.536C70 28.151 68.8503 30.8441 66.1525 33.5407L31.454 68.2883C30.3498 69.3924 28.8824 69.9988 27.3214 69.9988C25.7604 69.9988 24.2941 69.3924 23.1923 68.2883L1.71168 46.8088C0.607558 45.7047 0 44.2372 0 42.6763C0 41.1153 0.607558 39.649 1.71168 38.546L32.0592 8.23942C24.1235 6.43544 19.1988 6.31393 17.757 6.73571C18.3658 7.35846 20.2621 8.68107 24.8386 10.485C25.4391 10.7222 25.7336 11.3999 25.4976 12.0004C25.2604 12.601 24.5816 12.8919 23.9822 12.6594C14.5089 8.92526 15.0628 6.85489 15.2719 6.07558C15.7054 4.45153 18.0199 3.91057 22.7612 4.32534C26.6227 4.66301 31.607 5.61524 36.7958 7.00444C41.9846 8.39481 46.7749 10.0621 50.2871 11.7013C54.6043 13.7144 56.3346 15.3373 55.8988 16.9625C55.4782 18.5305 53.2922 18.7221 52.5736 18.7852C52.5397 18.7887 52.5047 18.7899 52.4708 18.7899C51.8714 18.7899 51.362 18.3307 51.3083 17.7232C51.251 17.0806 51.7265 16.5139 52.3703 16.4578C52.868 16.4146 53.1987 16.3468 53.4125 16.2861C52.9124 15.7638 51.6471 14.9494 49.6234 13.9797C49.1993 14.6947 48.9692 15.5161 48.9692 16.3573C48.9692 18.9348 51.0652 21.0308 53.6427 21.0308C56.2201 21.0308 58.3162 18.9348 58.3162 16.3573C58.3162 13.7799 56.2201 11.6838 53.6427 11.6838C52.9966 11.6838 52.4743 11.1615 52.4743 10.5154C52.4743 9.86931 52.9966 9.34704 53.6427 9.34704C57.5088 9.34704 60.653 12.4912 60.653 16.3573C60.653 20.2235 57.5088 23.3676 53.6427 23.3676C49.7765 23.3676 46.6324 20.2235 46.6324 16.3573C46.6324 15.1854 46.9408 14.0439 47.4911 13.0251C44.6952 11.8509 40.9447 10.5365 36.1917 9.26175C35.6905 9.12739 35.208 9.00471 34.7254 8.88203L3.36377 40.1993C2.7013 40.8606 2.33676 41.7416 2.33676 42.6763C2.33676 43.6133 2.7013 44.4931 3.36377 45.1556L24.8444 66.6362C26.1682 67.96 28.4769 67.96 29.8007 66.6362L64.4993 31.8886C66.7764 29.6126 67.6632 27.5504 67.6632 24.536V5.8419C67.6632 3.9094 66.0906 2.33676 64.1581 2.33676H45.464C42.4496 2.33676 40.3874 3.22356 38.1114 5.49957C37.6546 5.9564 36.9161 5.9564 36.4593 5.49957C36.0025 5.04273 36.0025 4.30431 36.4593 3.84748C39.1559 1.14969 41.849 0 45.464 0H64.1581C67.3793 0 70 2.62068 70 5.8419Z" fill="#FF0000"/>
</svg>
