<svg width="93" height="90" viewBox="0 0 93 90" fill="none" xmlns="http://www.w3.org/2000/svg">
<mask id="mask0_4_102" style="mask-type:luminance" maskUnits="userSpaceOnUse" x="0" y="0" width="93" height="90">
<path d="M0 0H92.7V90H0V0Z" fill="white"/>
</mask>
<g mask="url(#mask0_4_102)">
<path d="M4.35332 68.3891C5.16895 65.1406 7.69863 62.6109 10.9658 61.7813C12.3205 61.4375 14.0736 61.0828 15.9674 60.7266V81.1297C13.6768 83.2984 11.6002 85.7281 9.77988 88.3906L1.75332 88.3953L4.35332 68.3891ZM34.9783 4.59845C38.8611 2.55001 42.183 1.61876 45.4174 1.6547C45.4236 1.6547 45.4299 1.6547 45.4377 1.6547C48.658 1.6047 51.9924 2.55158 55.8768 4.59845C58.8674 6.17658 60.7252 9.29689 60.7252 12.7406V21.1844C60.2314 20.9828 59.7455 20.7922 59.2705 20.6094V16.1735C59.2705 12.1891 57.4955 8.56408 54.6393 6.71408C51.2502 4.51876 48.3096 3.49845 45.4377 3.56095C42.5533 3.50626 39.6049 4.51876 36.2143 6.71408C33.358 8.56408 31.5846 12.1891 31.5846 16.1735V20.6094C31.108 20.7922 30.6236 20.9828 30.1283 21.1828V12.7406C30.1283 9.29689 31.9861 6.17658 34.9783 4.59845ZM30.1424 22.9125C36.3455 20.3438 40.9439 19.25 45.4221 19.2859C45.4252 19.2859 45.4299 19.2859 45.433 19.2859C49.9314 19.2578 54.508 20.3438 60.7127 22.9125L60.5986 27.6766C54.6111 23.5328 50.0221 21.775 45.4346 21.8063C40.8471 21.7469 36.2424 23.5328 30.2549 27.6766L30.1424 22.9125ZM53.5705 39.3922C53.5299 39.4109 53.4658 39.4516 53.4283 39.4766C53.383 39.5063 53.3064 39.5313 53.2783 39.5266C53.2518 39.5203 53.1455 39.4453 53.0221 39.2016C52.4127 38.0078 51.1268 36.611 48.4768 36.7703L42.4252 36.7719C39.733 36.6203 38.4424 38.0078 37.833 39.2016C37.7908 39.2844 37.5705 39.6938 37.433 39.6375C37.3908 39.6031 37.4221 39.6281 37.3736 39.6047C32.5049 37.1469 30.5377 30.2578 30.3533 29.5735C36.3893 25.2688 40.8877 23.4109 45.2971 23.4109C45.3424 23.4109 45.3893 23.4109 45.4346 23.4125C49.8814 23.3516 54.3971 25.2219 60.4893 29.5656C60.2939 30.5141 58.7814 36.9641 53.5705 39.3922ZM45.4283 51.1781C39.0439 51.1766 33.5721 44.8656 31.3221 35.9531C32.5518 37.9281 34.2689 39.9172 36.5971 41.0969C36.7221 41.1656 37.0377 41.3125 37.4533 41.3125C37.6018 41.3125 37.7643 41.2938 37.9361 41.2453C38.5127 41.0828 38.9814 40.6516 39.3314 39.9656C39.9018 38.8484 40.8564 38.3688 42.3768 38.4516H48.5252C50.0018 38.3688 50.9518 38.8484 51.5221 39.9656C51.9471 40.7985 52.5127 41.0797 52.9127 41.1688C53.5736 41.3172 54.1221 41.0313 54.3439 40.8875C56.6158 39.8125 58.2549 38.1172 59.4283 36.3688C57.1174 45.0625 51.7111 51.1766 45.4283 51.1781ZM55.2861 55.7531C55.2861 61.1016 50.933 65.4547 45.583 65.4547C40.2314 65.4547 35.8783 61.1016 35.8783 55.7531V48.1875C38.5924 51.0813 41.883 52.7828 45.4283 52.7844C49.1096 52.7828 52.5143 50.9469 55.2861 47.8484V55.7531ZM55.2861 69.7938C52.4533 69.2328 49.5471 68.9375 46.5986 68.9375C42.9393 68.9375 39.3439 69.3859 35.8783 70.2422V61.5313C37.8549 64.8359 41.4596 67.0594 45.583 67.0594C49.7049 67.0594 53.3096 64.8359 55.2861 61.5313V69.7938ZM56.5689 78.8578L60.8111 80.4453L56.4658 88.3484L51.4783 88.3641L56.5689 78.8578ZM62.4252 80.8531C66.2189 82.6891 69.6814 85.2063 72.6783 88.3547H58.3002L62.4252 80.8531ZM36.2143 88.3453L31.5033 80.5656C32.8674 79.9406 34.2736 79.4078 35.7096 78.9563L41.1689 88.3609L36.2143 88.3453ZM34.2721 88.3547H20.5268C23.308 85.4594 26.5299 83.075 30.0471 81.2703L34.2721 88.2484V88.3547ZM74.8627 88.3547C67.6643 80.1734 57.6361 75.6672 46.5986 75.6672C35.7455 75.6672 25.4486 80.3031 18.3064 88.3859L11.7455 88.3906C19.8236 77.1906 32.7393 70.5484 46.5986 70.5484C60.4268 70.5484 73.3471 77.1781 81.4252 88.3516L74.8627 88.3547ZM60.7408 51.8563C60.7408 52.1484 60.9018 52.4188 61.158 52.5594L73.8346 59.5297L73.6814 78.1109C68.7189 74.3125 63.0002 71.5922 56.8924 70.1438V47.1531C57.5002 47.0672 58.4971 47.0531 59.2908 47.6344C60.2533 48.3391 60.7408 49.7594 60.7408 51.8563ZM63.7533 32.5141C63.2158 34.2172 62.1877 35.5719 61.1189 36.1797C61.6033 34.2391 61.9393 32.186 62.108 30.0547C62.1439 29.8813 62.1658 29.7672 62.1721 29.7344C62.1924 29.6141 62.1846 29.4953 62.1564 29.3828C62.1596 29.3422 62.1611 29.3 62.1627 29.2594C62.1643 29.2453 62.1689 29.2344 62.1689 29.2203L62.1736 29.0547C62.2096 28.3547 62.2346 27.6469 62.2346 26.9313C62.2346 26.875 62.2314 26.8172 62.2314 26.7594C62.3158 26.7735 62.4002 26.7922 62.4814 26.8172C63.9939 27.2953 64.5768 29.9047 63.7533 32.5141ZM57.8205 20.075C53.0971 18.3922 49.2424 17.6594 45.4283 17.6813H45.4268C41.6236 17.65 37.7627 18.3891 33.0346 20.075V16.1735C33.0346 12.675 34.5549 9.51564 37.0033 7.93126C40.1393 5.89845 42.7924 4.95626 45.4377 5.00939C45.4908 5.00939 45.5439 5.00783 45.5955 5.00783C48.1502 5.00783 50.7783 5.94064 53.8518 7.93126C56.2986 9.51564 57.8205 12.675 57.8205 16.1735V20.075ZM28.3721 26.8172C28.4549 26.7922 28.5377 26.7735 28.6221 26.7594C28.6221 26.8172 28.6205 26.875 28.6205 26.9313C28.6205 27.6469 28.6439 28.3547 28.6814 29.0547L28.6846 29.2203C28.6861 29.2344 28.6908 29.2453 28.6908 29.2594C28.6971 29.3485 28.6986 29.4391 28.7049 29.5281C28.6752 29.6531 28.6705 29.7875 28.7049 29.9219C28.7096 29.9453 28.7252 30.0063 28.7502 30.0969C28.9189 32.2141 29.2549 34.2516 29.7361 36.1797C28.6674 35.5719 27.6393 34.2172 27.1018 32.5141C26.2768 29.9047 26.8596 27.2953 28.3721 26.8172ZM30.0408 52.5406C30.2783 52.3938 30.4236 52.1344 30.4236 51.8563C30.4236 49.7594 30.9111 48.3391 31.8736 47.6344C32.6689 47.0531 33.6627 47.0672 34.2721 47.1531V70.6703C28.1236 72.4359 22.4299 75.5094 17.5736 79.6797V60.2094L30.0408 52.5406ZM43.0393 88.3719L37.3033 78.4906C40.3049 77.6969 43.4268 77.2781 46.5986 77.2781C49.508 77.2781 52.3393 77.6156 55.0658 78.2531L49.6486 88.3688L43.0393 88.3719ZM87.4799 68.0266L90.9096 88.3453L83.3924 88.35C81.0736 84.9656 78.3393 81.9594 75.2783 79.3859L75.4346 60.3656C77.5236 60.6969 79.4393 61.0406 80.8643 61.4031C84.1377 62.2344 86.6689 64.7703 87.4799 68.0266ZM92.6564 89.0797C92.6533 89.0578 92.6549 89.0359 92.6518 89.0141L89.0596 67.7281C89.0564 67.7094 89.0518 67.6891 89.0471 67.6703C88.1033 63.825 85.1189 60.8281 81.2611 59.8469C79.7049 59.4516 77.6205 59.0828 75.3674 58.7297C75.2971 58.5734 75.1846 58.4391 75.0283 58.3531L62.3393 51.3766C62.2564 48.9828 61.5471 47.2859 60.2252 46.3281C59.1705 45.5641 57.9689 45.4578 57.0893 45.5188C58.5252 43.386 59.7189 40.8672 60.5924 38.0672C62.5268 37.7078 64.4096 35.7719 65.2846 32.9985C66.408 29.4391 65.3893 26.0516 62.9643 25.2859C62.7346 25.2141 62.5002 25.1766 62.2658 25.1547L62.3314 22.4016C62.3314 22.4 62.3299 22.3969 62.3299 22.3953C62.3314 22.3906 62.3314 22.3875 62.3314 22.3828V12.7406C62.3314 8.70001 60.1455 5.03439 56.6268 3.17814C52.5814 1.04533 49.083 0.0484517 45.6361 0.0484517C45.5674 0.0484517 45.4971 0.0484514 45.4268 0.0500142C41.9096 0.00157659 38.3533 1.00314 34.2283 3.17814C30.7096 5.03595 28.5221 8.70001 28.5221 12.7406V22.3828C28.5221 22.3875 28.5236 22.3906 28.5236 22.3953C28.5236 22.3969 28.5236 22.4 28.5236 22.4016L28.5877 25.1547C28.3533 25.1766 28.1189 25.2141 27.8893 25.2859C25.4658 26.0516 24.4455 29.4391 25.5705 32.9985C26.4455 35.7719 28.3268 37.7078 30.2627 38.0688C31.133 40.8625 32.3236 43.3766 33.7564 45.5063C32.9174 45.4922 31.8721 45.6531 30.9393 46.3281C29.6127 47.2891 28.9018 48.9953 28.8236 51.4031L16.4752 58.9984C14.2471 59.4094 12.1564 59.8219 10.5705 60.225C6.7127 61.2047 3.72832 64.2031 2.78301 68.0484C2.77676 68.0781 2.77051 68.1078 2.76738 68.1375L0.0439453 89.0953C0.0408201 89.1141 0.0423828 89.1313 0.0423828 89.15C0.04082 89.1656 0.0361328 89.1828 0.0361328 89.2C0.0361328 89.2094 0.0392578 89.2188 0.0392578 89.2281C0.0408202 89.2563 0.0439456 89.2844 0.0486328 89.3125C0.051758 89.3375 0.0548832 89.3625 0.0611328 89.3875C0.0673832 89.4125 0.0751955 89.4375 0.0845703 89.4625C0.0939455 89.4875 0.101758 89.5125 0.112695 89.5359C0.123633 89.5578 0.136133 89.5797 0.148633 89.6C0.161133 89.6234 0.175196 89.6469 0.19082 89.6688C0.204883 89.6891 0.220508 89.7063 0.237695 89.725C0.254883 89.7453 0.27207 89.7656 0.292383 89.7828C0.30957 89.8 0.329883 89.8156 0.348633 89.8297C0.370508 89.8469 0.39082 89.8625 0.414258 89.8781C0.43457 89.8906 0.456446 89.9016 0.47832 89.9125C0.50332 89.925 0.52832 89.9375 0.554883 89.9469C0.576758 89.9563 0.600196 89.9625 0.623633 89.9688C0.651758 89.9766 0.679883 89.9844 0.70957 89.9891C0.718946 89.9906 0.726758 89.9938 0.736133 89.9953C0.770508 90 0.804883 90.0016 0.837695 90.0016H0.839258H0.84082L10.1893 89.9969C10.1939 89.9969 10.1986 89.9984 10.2033 89.9984C10.2096 89.9984 10.2158 89.9969 10.2205 89.9969L17.7596 89.9922C17.7814 89.9953 17.8033 90 17.8252 90.0016C17.8346 90.0016 17.8439 90.0016 17.8533 90.0016C17.8877 90.0016 17.9189 89.9969 17.9518 89.9922L50.0924 89.975C50.1064 89.975 50.1174 89.9797 50.1314 89.9797H50.133L52.0033 89.9734L91.8611 89.9516C91.8627 89.9516 91.8658 89.95 91.8674 89.95C91.9096 89.95 91.9518 89.9469 91.9939 89.9406C91.9986 89.9391 92.0033 89.9375 92.008 89.9359C92.0377 89.9313 92.0658 89.9219 92.0939 89.9125C92.1158 89.9047 92.1393 89.9 92.1611 89.8922C92.1877 89.8813 92.2111 89.8672 92.2361 89.8531C92.258 89.8422 92.2799 89.8313 92.3002 89.8188C92.3221 89.8047 92.3424 89.7859 92.3627 89.7688C92.383 89.7531 92.4018 89.7391 92.4205 89.7219C92.4393 89.7031 92.4549 89.6813 92.4736 89.6609C92.4893 89.6422 92.5049 89.625 92.5189 89.6047C92.5346 89.5828 92.5471 89.5578 92.5596 89.5344C92.5721 89.5125 92.5846 89.4922 92.5939 89.4703C92.6049 89.4469 92.6111 89.4219 92.6189 89.3984C92.6283 89.3719 92.6377 89.3469 92.6424 89.3203C92.6486 89.2984 92.6502 89.275 92.6533 89.2516C92.6564 89.2219 92.6611 89.1922 92.6611 89.1609C92.6627 89.1563 92.6627 89.1531 92.6627 89.1469C92.6627 89.1234 92.658 89.1016 92.6564 89.0797Z" fill="#FF0000"/>
</g>
</svg>
